<svg xmlns="http://www.w3.org/2000/svg" width="1430" height="255"><g fill="none" fill-rule="evenodd"><ellipse cx="392.969" cy="101.941" fill="#FFF" rx="16.939" ry="16.99"/><ellipse cx="576.479" cy="138.753" fill="#FFF" rx="14.116" ry="14.158"/><ellipse cx="260.278" cy="242.734" fill="#FFF" rx="11.293" ry="11.327"/><ellipse cx="642.824" cy="168.486" fill="#FFF" rx="7.058" ry="7.079"/><ellipse cx="289.922" cy="225.476" fill="#FFF" rx="7.058" ry="7.079"/><ellipse cx="374.618" cy="171.318" fill="#FFF" rx="7.058" ry="7.079"/><ellipse cx="392.969" cy="152.912" fill="#FFF" rx="8.47" ry="8.495"/><ellipse cx="308.273" cy="53.802" fill="#FFF" rx="8.47" ry="8.495"/><ellipse cx="277.217" cy="22.654" fill="#FFF" opacity=".5" rx="5.646" ry="5.663"/><ellipse cx="433.906" cy="145.832" fill="#FFF" opacity=".7" rx="12.704" ry="12.743"/><ellipse cx="7.982" cy="154.873" fill="#FFF" opacity=".6" rx="7.058" ry="7.079"/><ellipse cx="54.183" cy="156.288" fill="#FFF" rx="8.47" ry="8.495"/><ellipse cx="75.284" cy="133.907" fill="#FFF" rx="12.704" ry="12.743"/><ellipse cx="232.046" cy="110.193" fill="#FFF" rx="16.939" ry="16.99"/><ellipse cx="118.088" cy="173.513" fill="#FFF" rx="7.058" ry="7.079"/><ellipse cx="167.112" cy="149.631" fill="#FFF" opacity=".6" rx="8.47" ry="8.495"/><ellipse cx="188.286" cy="185.862" fill="#FFF" rx="12.704" ry="12.743"/><ellipse cx="206" cy="172.586" stroke="#FFF" stroke-width="2" opacity=".8" rx="6" ry="6.018"/><ellipse cx="284.275" cy="134.506" fill="#FFF" opacity=".5" rx="12.704" ry="12.743"/><ellipse cx="541.188" cy="168.486" fill="#FFF" rx="7.058" ry="7.079"/><ellipse cx="527.123" cy="176.545" stroke="#FFF" stroke-width="2" rx="5.123" ry="5.139"/><ellipse cx="1146.769" cy="67.961" fill="#FFF" rx="16.939" ry="16.99" transform="matrix(-1 0 0 1 2293.539 0)"/><ellipse cx="1190.529" cy="9.911" fill="#FFF" opacity=".6" rx="9.881" ry="9.911" transform="matrix(-1 0 0 1 2381.059 0)"/><ellipse cx="1196.176" cy="100.525" fill="#FFF" opacity=".5" rx="7.058" ry="7.079" transform="matrix(-1 0 0 1 2392.352 0)"/><ellipse cx="1139.711" cy="157.159" fill="#FFF" rx="7.058" ry="7.079" transform="matrix(-1 0 0 1 2279.423 0)"/><ellipse cx="929.381" cy="164.238" fill="#FFF" opacity=".6" rx="16.939" ry="16.99" transform="matrix(-1 0 0 1 1858.763 0)"/><ellipse cx="881.387" cy="147.248" fill="#FFF" rx="8.47" ry="8.495" transform="matrix(-1 0 0 1 1762.773 0)"/><ellipse cx="858.801" cy="164.238" fill="#FFF" rx="11.293" ry="11.327" transform="matrix(-1 0 0 1 1717.602 0)"/><ellipse cx="997.139" cy="141.585" fill="#FFF" opacity=".5" rx="11.293" ry="11.327" transform="matrix(-1 0 0 1 1994.277 0)"/><ellipse cx="1122.772" cy="94.862" fill="#FFF" rx="7.058" ry="7.079" transform="matrix(-1 0 0 1 2245.544 0)"/><ellipse cx="1359.334" cy="186.795" stroke="#FFF" stroke-width="2" opacity=".5" rx="16.939" ry="16.99" transform="matrix(-1 0 0 1 2718.667 0)"/><ellipse cx="1422.856" cy="145.552" fill="#FFF" rx="7.058" ry="7.079" transform="matrix(-1 0 0 1 2845.712 0)"/><ellipse cx="1336.138" cy="214.165" fill="#FFF" rx="7.058" ry="7.079" transform="matrix(-1 0 0 1 2672.275 0)"/><ellipse cx="1055.015" cy="196.803" stroke="#FFF" stroke-width="2" rx="7.058" ry="7.079" transform="matrix(-1 0 0 1 2110.03 0)"/><ellipse cx="1033.841" cy="239.546" fill="#FFF" rx="8.47" ry="8.495" transform="matrix(-1 0 0 1 2067.681 0)"/><ellipse cx="1021.136" cy="176.981" fill="#FFF" rx="12.704" ry="12.743" transform="matrix(-1 0 0 1 2042.272 0)"/><ellipse cx="1248.405" cy="75.237" fill="#FFF" rx="11.293" ry="11.327" transform="matrix(-1 0 0 1 2496.81 0)"/><ellipse cx="1307.905" cy="101.614" fill="#FFF" rx="7.058" ry="7.079" transform="matrix(-1 0 0 1 2615.81 0)"/><ellipse cx="1237.112" cy="141.642" fill="#FFF" opacity=".8" rx="8.47" ry="8.495" transform="matrix(-1 0 0 1 2474.225 0)"/><ellipse cx="1272.452" cy="109.94" fill="#FFF" rx="12.704" ry="12.743" transform="matrix(-1 0 0 1 2544.904 0)"/><ellipse cx="1171.878" cy="52.901" stroke="#FFF" stroke-width="2" opacity=".8" rx="7.878" ry="7.901" transform="matrix(-1 0 0 1 2343.755 0)"/></g></svg>