<svg xmlns="http://www.w3.org/2000/svg" width="1441" height="640"><defs><linearGradient id="a" x1="50%" x2="50%" y1="100%" y2="0%"><stop offset="0%" stop-color="#00C3DA" stop-opacity=".1"/><stop offset="100%" stop-color="#00C3DA"/></linearGradient><linearGradient id="b" x1="50%" x2="50%" y1="112.619%" y2="0%"><stop offset="0%" stop-color="#00C3DA" stop-opacity="0"/><stop offset="100%" stop-color="#007EA7"/></linearGradient></defs><g fill="none" fill-rule="evenodd"><path fill="url(#a)" d="M0 0h1440v573.58c-99.828 55.775-199.578 42.576-285.398 18.394-85.82-24.182-219.207-108.68-458.853-113.259-90.56-1.73-276.184 71.052-431.965 99.892C108.004 607.447 0 594.469 0 594.469V0z"/><path fill="url(#a)" d="M0 0h1440s-13.703 364.199 0 484.711c-102.313-37.61-419.156 87.983-419.156 87.983S864.39 623 686.994 588.523c-135.885-26.41-335.77-97.266-446.83-84.72C105.162 519.056 0 572.695 0 572.695V0z"/><path fill="url(#a)" d="M0 0h1440v540.873c-206.406-131.061-353.695-65.78-483.602-24.469-62.137 19.76-271.828 90.143-479.71 71.253C290.57 570.744 0 451.233 0 451.233V0z"/><path fill="url(#b)" opacity=".8" d="M0 0h1440v306H0z"/></g></svg>