<svg xmlns="http://www.w3.org/2000/svg" xmlns:xlink="http://www.w3.org/1999/xlink" width="2285" height="414"><defs><linearGradient id="c" x1="50%" x2="50%" y1="97.679%" y2="0%"><stop offset="0%" stop-color="#3C4F59" stop-opacity=".2"/><stop offset="100%" stop-color="#3C4F59"/></linearGradient><path id="a" d="M0 25h2302v334.485c-176.61-62.733-579.734 8.256-743.336 32.482-163.601 24.227-302.487 41.436-562.289 0-259.802-41.435-417.85-64.267-610.922-55.46C77.945 350.531 0 391.966 0 391.966V25z"/><mask id="d" width="2310" height="400" x="-4" y="-4"><path fill="#fff" d="M-4 21h2310v400H-4z"/><use xlink:href="#a"/></mask><path id="b" d="M0 19h2302v332.553c-342.61-96.634-526.403-41.316-772.844 0C1322.68 386.169 1094.362 432.365 762.04 412 464.51 393.77 0 313.937 0 313.937V19z"/><mask id="e" width="2310" height="406" x="-4" y="-4"><path fill="#fff" d="M-4 15h2310v406H-4z"/><use xlink:href="#b"/></mask></defs><g fill="none" fill-rule="evenodd"><path fill="url(#c)" d="M0 10h2285v367.441c-158.408 60-324.593 43.37-573.7 5.409-281.907-42.96-401.87-53.1-602.58-53.1-93.476 0-380.226 16.768-690.145 53.1C108.655 419.182 0 399.914 0 399.914V10z" transform="matrix(1 0 0 -1 0 427)"/><path fill="#323F46" fill-opacity=".5" d="M0 417h2302V82.515c-176.61 62.733-579.734-8.256-743.336-32.482-163.601-24.227-302.487-41.436-562.289 0-259.802 41.435-417.85 64.267-610.922 55.46C77.945 91.469 0 50.034 0 50.034V417z"/><use stroke="#FFF" stroke-dasharray="10" stroke-opacity=".5" stroke-width="8" mask="url(#d)" transform="matrix(1 0 0 -1 0 442)" xlink:href="#a"/><path fill="#3C4F59" fill-opacity=".4" d="M0 427h2302V84.447c-342.61 96.634-526.403 41.316-772.844 0C1322.68 49.831 1094.362 3.635 762.04 24 464.51 42.23 0 122.063 0 122.063V427z"/><use stroke="#FFF" stroke-dasharray="10" stroke-opacity=".8" stroke-width="8" mask="url(#e)" transform="matrix(1 0 0 -1 0 436)" xlink:href="#b"/><g opacity=".1" transform="matrix(1 0 0 -1 265 314)"><circle cx="481" cy="125" r="21" fill="#FFF"/><circle cx="705.5" cy="169.5" r="17.5" fill="#FFF"/><circle cx="786.5" cy="205.5" r="8.5" fill="#FFF"/><circle cx="457.5" cy="209.5" r="8.5" fill="#FFF"/><circle cx="480.5" cy="187.5" r="10.5" fill="#FFF"/><circle cx="376.5" cy="65.5" r="10.5" fill="#FFF"/><circle cx="339" cy="28" r="7" fill="#FFF" opacity=".5"/><circle cx="530.5" cy="178.5" r="15.5" fill="#FFF" opacity=".7"/><circle cx="8.5" cy="189.5" r="8.5" fill="#FFF" opacity=".6"/><circle cx="65.5" cy="191.5" r="10.5" fill="#FFF"/><circle cx="91.5" cy="163.5" r="15.5" fill="#FFF"/><circle cx="284" cy="135" r="21" fill="#FFF"/><circle cx="143.5" cy="212.5" r="8.5" fill="#FFF"/><circle cx="203.5" cy="183.5" r="10.5" fill="#FFF" opacity=".6"/><circle cx="229.5" cy="227.5" r="15.5" fill="#FFF"/><circle cx="251.5" cy="211.5" r="7.5" stroke="#FFF" stroke-width="2" opacity=".8"/><circle cx="347.5" cy="164.5" r="15.5" fill="#FFF" opacity=".5"/><circle cx="661.5" cy="205.5" r="8.5" fill="#FFF"/><circle cx="645.5" cy="216.5" r="6.5" stroke="#FFF" stroke-width="2"/><circle cx="1404" cy="83" r="21" fill="#FFF" transform="matrix(-1 0 0 1 2808 0)"/><circle cx="1458" cy="12" r="12" fill="#FFF" opacity=".6" transform="matrix(-1 0 0 1 2916 0)"/><circle cx="1464.5" cy="122.5" r="8.5" fill="#FFF" opacity=".5" transform="matrix(-1 0 0 1 2929 0)"/><circle cx="1395.5" cy="192.5" r="8.5" fill="#FFF" transform="matrix(-1 0 0 1 2791 0)"/><circle cx="1138" cy="201" r="21" fill="#FFF" opacity=".6" transform="matrix(-1 0 0 1 2276 0)"/><circle cx="1078.5" cy="180.5" r="10.5" fill="#FFF" transform="matrix(-1 0 0 1 2157 0)"/><circle cx="1051" cy="201" r="14" fill="#FFF" transform="matrix(-1 0 0 1 2102 0)"/><circle cx="1221" cy="173" r="14" fill="#FFF" opacity=".5" transform="matrix(-1 0 0 1 2442 0)"/><circle cx="1374.5" cy="115.5" r="8.5" fill="#FFF" transform="matrix(-1 0 0 1 2749 0)"/><circle cx="1665" cy="229" r="21" stroke="#FFF" stroke-width="2" opacity=".5" transform="matrix(-1 0 0 1 3330 0)"/><circle cx="1742.5" cy="177.5" r="8.5" fill="#FFF" transform="matrix(-1 0 0 1 3485 0)"/><circle cx="1635.5" cy="261.5" r="8.5" fill="#FFF" transform="matrix(-1 0 0 1 3271 0)"/><circle cx="1291.5" cy="240.5" r="8.5" stroke="#FFF" stroke-width="2" transform="matrix(-1 0 0 1 2583 0)"/><circle cx="1265.5" cy="293.5" r="10.5" fill="#FFF" transform="matrix(-1 0 0 1 2531 0)"/><circle cx="1250.5" cy="216.5" r="15.5" fill="#FFF" transform="matrix(-1 0 0 1 2501 0)"/><circle cx="1256" cy="273" r="11" fill="#323F46" transform="matrix(-1 0 0 1 2512 0)"/><circle cx="1529" cy="92" r="14" fill="#FFF" transform="matrix(-1 0 0 1 3058 0)"/><circle cx="1601.5" cy="124.5" r="8.5" fill="#FFF" transform="matrix(-1 0 0 1 3203 0)"/><circle cx="1514.5" cy="173.5" r="10.5" fill="#FFF" opacity=".8" transform="matrix(-1 0 0 1 3029 0)"/><circle cx="1557.5" cy="134.5" r="15.5" fill="#FFF" transform="matrix(-1 0 0 1 3115 0)"/><circle cx="1434.5" cy="64.5" r="9.5" stroke="#FFF" stroke-width="2" opacity=".8" transform="matrix(-1 0 0 1 2869 0)"/></g><circle cx="1733" cy="44" r="15" fill="#323F46" fill-opacity=".2" transform="matrix(-1 0 0 1 3466 0)"/><circle cx="583" cy="20" r="14" fill="#323F46" fill-opacity=".4"/><circle cx="619.5" cy="37.5" r="8.5" fill="#323F46" fill-opacity=".3"/></g></svg>