<svg xmlns="http://www.w3.org/2000/svg" width="2291" height="580"><defs><filter id="a" width="143.3%" height="143.3%" x="-21.7%" y="-21.6%" filterUnits="objectBoundingBox"><feGaussianBlur in="SourceGraphic" stdDeviation="3.881"/></filter><filter id="b" width="152%" height="151.9%" x="-26%" y="-26%" filterUnits="objectBoundingBox"><feGaussianBlur in="SourceGraphic" stdDeviation="3.881"/></filter><filter id="c" width="165%" height="164.9%" x="-32.5%" y="-32.4%" filterUnits="objectBoundingBox"><feGaussianBlur in="SourceGraphic" stdDeviation="3.881"/></filter><filter id="d" width="204%" height="203.8%" x="-52%" y="-51.9%" filterUnits="objectBoundingBox"><feGaussianBlur in="SourceGraphic" stdDeviation="3.881"/></filter><filter id="e" width="204%" height="203.8%" x="-52%" y="-51.9%" filterUnits="objectBoundingBox"><feGaussianBlur in="SourceGraphic" stdDeviation="3.881"/></filter><filter id="f" width="204%" height="203.8%" x="-52%" y="-51.9%" filterUnits="objectBoundingBox"><feGaussianBlur in="SourceGraphic" stdDeviation="3.881"/></filter><filter id="g" width="186.7%" height="186.5%" x="-43.3%" y="-43.3%" filterUnits="objectBoundingBox"><feGaussianBlur in="SourceGraphic" stdDeviation="3.881"/></filter><filter id="h" width="186.7%" height="186.5%" x="-43.3%" y="-43.3%" filterUnits="objectBoundingBox"><feGaussianBlur in="SourceGraphic" stdDeviation="3.881"/></filter><filter id="i" width="230%" height="229.8%" x="-65%" y="-64.9%" filterUnits="objectBoundingBox"><feGaussianBlur in="SourceGraphic" stdDeviation="3.881"/></filter><filter id="j" width="157.8%" height="157.7%" x="-28.9%" y="-28.8%" filterUnits="objectBoundingBox"><feGaussianBlur in="SourceGraphic" stdDeviation="3.881"/></filter><filter id="k" width="204%" height="203.8%" x="-52%" y="-51.9%" filterUnits="objectBoundingBox"><feGaussianBlur in="SourceGraphic" stdDeviation="3.881"/></filter><filter id="l" width="186.7%" height="186.5%" x="-43.3%" y="-43.3%" filterUnits="objectBoundingBox"><feGaussianBlur in="SourceGraphic" stdDeviation="3.881"/></filter><filter id="m" width="157.8%" height="157.7%" x="-28.9%" y="-28.8%" filterUnits="objectBoundingBox"><feGaussianBlur in="SourceGraphic" stdDeviation="3.881"/></filter><filter id="n" width="143.3%" height="143.3%" x="-21.7%" y="-21.6%" filterUnits="objectBoundingBox"><feGaussianBlur in="SourceGraphic" stdDeviation="3.881"/></filter><filter id="o" width="204%" height="203.8%" x="-52%" y="-51.9%" filterUnits="objectBoundingBox"><feGaussianBlur in="SourceGraphic" stdDeviation="3.881"/></filter><filter id="p" width="186.7%" height="186.5%" x="-43.3%" y="-43.3%" filterUnits="objectBoundingBox"><feGaussianBlur in="SourceGraphic" stdDeviation="3.881"/></filter><filter id="q" width="157.8%" height="157.7%" x="-28.9%" y="-28.8%" filterUnits="objectBoundingBox"><feGaussianBlur in="SourceGraphic" stdDeviation="3.881"/></filter><filter id="r" width="157.8%" height="157.7%" x="-28.9%" y="-28.8%" filterUnits="objectBoundingBox"><feGaussianBlur in="SourceGraphic" stdDeviation="3.881"/></filter><filter id="s" width="204%" height="203.8%" x="-52%" y="-51.9%" filterUnits="objectBoundingBox"><feGaussianBlur in="SourceGraphic" stdDeviation="3.881"/></filter><filter id="t" width="143.3%" height="143.3%" x="-21.7%" y="-21.6%" filterUnits="objectBoundingBox"><feGaussianBlur in="SourceGraphic" stdDeviation="3.881"/></filter><filter id="u" width="174.3%" height="174.1%" x="-37.1%" y="-37.1%" filterUnits="objectBoundingBox"><feGaussianBlur in="SourceGraphic" stdDeviation="3.881"/></filter><filter id="v" width="204%" height="203.8%" x="-52%" y="-51.9%" filterUnits="objectBoundingBox"><feGaussianBlur in="SourceGraphic" stdDeviation="3.881"/></filter><filter id="w" width="204%" height="203.8%" x="-52%" y="-51.9%" filterUnits="objectBoundingBox"><feGaussianBlur in="SourceGraphic" stdDeviation="3.881"/></filter><filter id="x" width="143.3%" height="143.3%" x="-21.7%" y="-21.6%" filterUnits="objectBoundingBox"><feGaussianBlur in="SourceGraphic" stdDeviation="3.881"/></filter><filter id="y" width="186.7%" height="186.5%" x="-43.3%" y="-43.3%" filterUnits="objectBoundingBox"><feGaussianBlur in="SourceGraphic" stdDeviation="3.881"/></filter><filter id="z" width="165%" height="164.9%" x="-32.5%" y="-32.4%" filterUnits="objectBoundingBox"><feGaussianBlur in="SourceGraphic" stdDeviation="3.881"/></filter><filter id="A" width="165%" height="164.9%" x="-32.5%" y="-32.4%" filterUnits="objectBoundingBox"><feGaussianBlur in="SourceGraphic" stdDeviation="3.881"/></filter><filter id="B" width="204%" height="203.8%" x="-52%" y="-51.9%" filterUnits="objectBoundingBox"><feGaussianBlur in="SourceGraphic" stdDeviation="3.881"/></filter><filter id="C" width="143.3%" height="143.3%" x="-21.7%" y="-21.6%" filterUnits="objectBoundingBox"><feGaussianBlur in="SourceGraphic" stdDeviation="3.881"/></filter><filter id="D" width="204%" height="203.8%" x="-52%" y="-51.9%" filterUnits="objectBoundingBox"><feGaussianBlur in="SourceGraphic" stdDeviation="3.881"/></filter><filter id="E" width="204%" height="203.8%" x="-52%" y="-51.9%" filterUnits="objectBoundingBox"><feGaussianBlur in="SourceGraphic" stdDeviation="3.881"/></filter><filter id="F" width="204%" height="203.8%" x="-52%" y="-51.9%" filterUnits="objectBoundingBox"><feGaussianBlur in="SourceGraphic" stdDeviation="3.881"/></filter><filter id="G" width="186.7%" height="186.5%" x="-43.3%" y="-43.3%" filterUnits="objectBoundingBox"><feGaussianBlur in="SourceGraphic" stdDeviation="3.881"/></filter><filter id="H" width="157.8%" height="157.7%" x="-28.9%" y="-28.8%" filterUnits="objectBoundingBox"><feGaussianBlur in="SourceGraphic" stdDeviation="3.881"/></filter><filter id="I" width="165%" height="164.9%" x="-32.5%" y="-32.4%" filterUnits="objectBoundingBox"><feGaussianBlur in="SourceGraphic" stdDeviation="3.881"/></filter><filter id="J" width="204%" height="203.8%" x="-52%" y="-51.9%" filterUnits="objectBoundingBox"><feGaussianBlur in="SourceGraphic" stdDeviation="3.881"/></filter><filter id="K" width="186.7%" height="186.5%" x="-43.3%" y="-43.3%" filterUnits="objectBoundingBox"><feGaussianBlur in="SourceGraphic" stdDeviation="3.881"/></filter><filter id="L" width="157.8%" height="157.7%" x="-28.9%" y="-28.8%" filterUnits="objectBoundingBox"><feGaussianBlur in="SourceGraphic" stdDeviation="3.881"/></filter></defs><g fill="#FFF" fill-rule="evenodd" opacity=".5" transform="translate(12 12)"><ellipse cx="622.096" cy="161.524" filter="url(#a)" rx="26.869" ry="26.921"/><ellipse cx="913.173" cy="219.852" filter="url(#b)" rx="22.391" ry="22.434"/><ellipse cx="411.626" cy="384.607" filter="url(#c)" rx="17.912" ry="17.947"/><ellipse cx="1018.408" cy="266.963" filter="url(#d)" rx="11.195" ry="11.217"/><ellipse cx="458.646" cy="357.263" filter="url(#e)" rx="11.195" ry="11.217"/><ellipse cx="592.989" cy="271.45" filter="url(#f)" rx="11.195" ry="11.217"/><ellipse cx="622.096" cy="242.286" filter="url(#g)" rx="13.434" ry="13.46"/><ellipse cx="487.753" cy="85.249" filter="url(#h)" rx="13.434" ry="13.46"/><ellipse cx="438.494" cy="35.894" filter="url(#i)" rx="8.956" ry="8.974"/><ellipse cx="687.029" cy="231.069" filter="url(#j)" opacity=".7" rx="20.151" ry="20.19"/><ellipse cx="11.442" cy="245.393" filter="url(#k)" opacity=".6" rx="11.195" ry="11.217"/><ellipse cx="84.724" cy="247.636" filter="url(#l)" rx="13.434" ry="13.46"/><ellipse cx="118.194" cy="212.172" filter="url(#m)" rx="20.151" ry="20.19"/><ellipse cx="366.845" cy="174.599" filter="url(#n)" rx="26.869" ry="26.921"/><ellipse cx="186.088" cy="274.928" filter="url(#o)" rx="11.195" ry="11.217"/><ellipse cx="263.848" cy="237.088" filter="url(#p)" opacity=".6" rx="13.434" ry="13.46"/><ellipse cx="297.434" cy="294.495" filter="url(#q)" opacity=".8" rx="20.151" ry="20.19"/><ellipse cx="449.689" cy="213.122" filter="url(#r)" rx="20.151" ry="20.19"/><ellipse cx="857.196" cy="266.963" filter="url(#s)" opacity=".7" rx="11.195" ry="11.217"/><ellipse cx="1817.749" cy="107.683" filter="url(#t)" rx="26.869" ry="26.921" transform="matrix(-1 0 0 1 3635.498 0)"/><ellipse cx="1887.16" cy="15.704" filter="url(#u)" opacity=".6" rx="15.673" ry="15.704" transform="matrix(-1 0 0 1 3774.319 0)"/><ellipse cx="1896.116" cy="159.28" filter="url(#v)" rx="11.195" ry="11.217" transform="matrix(-1 0 0 1 3792.231 0)"/><ellipse cx="1806.554" cy="249.016" filter="url(#w)" rx="11.195" ry="11.217" transform="matrix(-1 0 0 1 3613.107 0)"/><ellipse cx="1472.935" cy="260.233" filter="url(#x)" opacity=".6" rx="26.869" ry="26.921" transform="matrix(-1 0 0 1 2945.87 0)"/><ellipse cx="1396.808" cy="233.312" filter="url(#y)" rx="13.434" ry="13.46" transform="matrix(-1 0 0 1 2793.615 0)"/><ellipse cx="1360.983" cy="260.233" filter="url(#z)" rx="17.912" ry="17.947" transform="matrix(-1 0 0 1 2721.966 0)"/><ellipse cx="1580.41" cy="224.339" filter="url(#A)" rx="17.912" ry="17.947" transform="matrix(-1 0 0 1 3160.82 0)"/><ellipse cx="1779.685" cy="150.307" filter="url(#B)" rx="11.195" ry="11.217" transform="matrix(-1 0 0 1 3559.37 0)"/><ellipse cx="2154.911" cy="295.973" filter="url(#C)" rx="26.869" ry="26.921" transform="matrix(-1 0 0 1 4309.822 0)"/><ellipse cx="2255.668" cy="230.625" filter="url(#D)" rx="11.195" ry="11.217" transform="matrix(-1 0 0 1 4511.337 0)"/><ellipse cx="2118.119" cy="339.34" filter="url(#E)" rx="11.195" ry="11.217" transform="matrix(-1 0 0 1 4236.237 0)"/><ellipse cx="1672.211" cy="311.831" filter="url(#F)" rx="11.195" ry="11.217" transform="matrix(-1 0 0 1 3344.421 0)"/><ellipse cx="1638.625" cy="379.556" filter="url(#G)" rx="13.434" ry="13.46" transform="matrix(-1 0 0 1 3277.25 0)"/><ellipse cx="1618.474" cy="280.423" filter="url(#H)" rx="20.151" ry="20.19" transform="matrix(-1 0 0 1 3236.947 0)"/><ellipse cx="1978.961" cy="119.212" filter="url(#I)" rx="17.912" ry="17.947" transform="matrix(-1 0 0 1 3957.921 0)"/><ellipse cx="2073.338" cy="161.005" filter="url(#J)" rx="11.195" ry="11.217" transform="matrix(-1 0 0 1 4146.675 0)"/><ellipse cx="1961.048" cy="224.43" filter="url(#K)" opacity=".8" rx="13.434" ry="13.46" transform="matrix(-1 0 0 1 3922.096 0)"/><ellipse cx="2017.103" cy="174.198" filter="url(#L)" rx="20.151" ry="20.19" transform="matrix(-1 0 0 1 4034.205 0)"/></g></svg>