<svg xmlns="http://www.w3.org/2000/svg" width="13" height="12"><path fill="#00B9DA" fill-rule="evenodd" d="M6.31.404c.089-.18.22-.3.392-.36a.764.764 0 0 1 .515 0c.172.06.303.18.393.36l1.458 2.96 3.274.471a.68.68 0 0 1 .46.27.75.75 0 0 1 .157.493.688.688 0 0 1-.213.47l-2.378 2.31.561 3.275a.708.708 0 0 1-.1.505.658.658 0 0 1-.416.302.692.692 0 0 1-.516-.067L6.96 9.868l-2.938 1.525a.692.692 0 0 1-.515.067.658.658 0 0 1-.415-.302.708.708 0 0 1-.101-.505l.56-3.274-2.377-2.31a.688.688 0 0 1-.213-.471.75.75 0 0 1 .157-.494.68.68 0 0 1 .46-.269l3.274-.47L6.31.403z"/></svg>