<svg xmlns="http://www.w3.org/2000/svg" xmlns:xlink="http://www.w3.org/1999/xlink" width="65" height="30" viewBox="0 0 65 30">
  <defs>
    <ellipse id="img-bugs-hr-a" cx="10.08" cy="10" rx="10.08" ry="10"/>
    <path id="img-bugs-hr-c" d="M6.66380859,17.0279948 C11.7669197,17.0279948 18.48,14.2292769 18.48,9.16666667 C18.48,4.10405646 14.3431111,0 9.24,0 C4.13688891,0 1.20175781,7.38205125 1.20175781,12.4446615 C1.20175781,14.5967611 2.61023438,17.0279948 6.66380859,17.0279948 Z"/>
    <path id="img-bugs-hr-d" d="M5.92869392,16.5566792 C9.89818412,16.5566792 15.12,14.3796771 15.12,10.4416908 C15.12,6.50370449 11.9020924,3.31133583 7.93260219,3.31133583 C3.96311199,3.31133583 1.68,9.05351538 1.68,12.9915017 C1.68,14.6655272 2.77559322,16.5566792 5.92869392,16.5566792 Z"/>
    <path id="img-bugs-hr-e" d="M4.85240821,16.5566792 C7.81634102,16.5566792 11.7153584,14.9311586 11.7153584,11.9907491 C11.7153584,9.05033957 9.31261616,6.66666667 6.34868335,6.66666667 C3.38475054,6.66666667 1.68,10.9542284 1.68,13.894638 C1.68,15.1445968 2.49805585,16.5566792 4.85240821,16.5566792 Z"/>
    <ellipse id="img-bugs-hr-f" cx="6.48" cy="6.333" rx="6.48" ry="6.333"/>
    <path id="img-bugs-hr-h" d="M4.28387695,10.7843967 C7.56444837,10.7843967 11.88,9.01187535 11.88,5.80555556 C11.88,2.59923576 9.22057141,0 5.94,0 C2.65942859,0 0.772558594,4.67529913 0.772558594,7.88161892 C0.772558594,9.24461534 1.67800781,10.7843967 4.28387695,10.7843967 Z"/>
    <path id="img-bugs-hr-i" d="M3.81130323,10.4858968 C6.36311836,10.4858968 9.72,9.10712884 9.72,6.61307084 C9.72,4.11901284 7.65134511,2.09717936 5.09952998,2.09717936 C2.54771485,2.09717936 1.08,5.73389307 1.08,8.22795107 C1.08,9.28816724 1.78430993,10.4858968 3.81130323,10.4858968 Z"/>
    <path id="img-bugs-hr-j" d="M3.11940528,10.4858968 C5.02479066,10.4858968 7.53130185,9.45640047 7.53130185,7.5941411 C7.53130185,5.73188172 5.98668182,4.22222222 4.08129644,4.22222222 C2.17591106,4.22222222 1.08,6.937678 1.08,8.79993737 C1.08,9.59157795 1.60589305,10.4858968 3.11940528,10.4858968 Z"/>
  </defs>
  <g fill="none" fill-rule="evenodd">
    <g transform="translate(22 -5)">
      <path fill="#FFDC6A" fill-opacity=".8" d="M20.3968956,20.0193539 C25.0022604,20.0193539 31.0605616,17.4936168 31.0605616,12.9248025 C31.0605616,8.35598817 27.3271757,4.65223239 22.7218109,4.65223239 C18.1164461,4.65223239 15.4676013,11.3142545 15.4676013,15.8830688 C15.4676013,17.8252574 16.7386981,20.0193539 20.3968956,20.0193539 Z" transform="rotate(-46 23.264 12.336)"/>
      <g transform="translate(11.76 15)">
        <mask id="img-bugs-hr-b" fill="#fff">
          <use xlink:href="#img-bugs-hr-a"/>
        </mask>
        <use fill="#FFC30D" xlink:href="#img-bugs-hr-a"/>
        <ellipse cx="10.08" cy="8.333" fill="#FFD659" mask="url(#img-bugs-hr-b)" rx="10.08" ry="8.333"/>
        <path fill="#555" d="M0,-5 L6.72,-5 C6.72,-5 12.5409375,1.77734375 12.5409375,10.8333333 C12.5409375,19.8893229 6.72,26.6666667 6.72,26.6666667 L0,26.6666667 C0,26.6666667 9.63046875,20.797526 9.63046875,10.8333333 C9.63046875,0.869140625 0,-5 0,-5 Z" mask="url(#img-bugs-hr-b)"/>
        <path fill="#555" d="M8.4,-5 L11.76,-5 C11.76,-5 17.5809375,1.77734375 17.5809375,10.8333333 C17.5809375,19.8893229 11.76,26.6666667 11.76,26.6666667 L8.4,26.6666667 C8.4,26.6666667 14.6704687,20.797526 14.6704687,10.8333333 C14.6704687,0.869140625 8.4,-5 8.4,-5 Z" mask="url(#img-bugs-hr-b)"/>
      </g>
      <path fill="#555" fill-rule="nonzero" d="M16.1257177 19.0729627C15.5554982 17.9658525 14.7803434 16.8616229 13.7687303 15.8318752 11.8453348 13.8740001 9.30108126 12.422359 6.06751932 11.6876966 5.61530754 11.5849544 5.16476219 11.8653461 5.06119813 12.3139689 4.95763407 12.7625917 5.24026889 13.2095613 5.69248068 13.3123034 8.60502058 13.97403 10.8637511 15.2627639 12.565605 16.995126 13.4536153 17.8990551 14.1328347 18.8666221 14.6296985 19.8313085 14.9228349 20.4004476 15.0875844 20.8322635 15.150932 21.0573925 15.2756664 21.5006821 15.7390157 21.7597246 16.1858516 21.6359802 16.6326876 21.5122357 16.8938024 21.0525638 16.769068 20.6092742 16.6769571 20.2819241 16.4728314 19.7469016 16.1257177 19.0729627zM11.4337005 18.6988722C8.86564334 17.2659324 5.71911597 16.7462813 2.06899838 17.66596 1.61935427 17.7792517 1.34742152 18.2327084 1.46161957 18.6787839 1.57581762 19.1248594 2.032902 19.394634 2.48254611 19.2813423 5.69370649 18.4722626 8.40227588 18.9195847 10.6101174 20.1515292 11.1052854 20.427826 11.5323195 20.7226651 11.8889572 21.0151912 12.095393 21.1845167 12.2276386 21.3098143 12.2834884 21.369696 12.5985578 21.7075112 13.1300161 21.7279773 13.4705338 21.4154085 13.8110515 21.1028396 13.8316814 20.5755992 13.5166119 20.2377841 13.1393802 19.833319 12.4427043 19.2618822 11.4337005 18.6988722z"/>
      <ellipse cx="16.8" cy="26.667" fill="#4A4A4A" rx="1.68" ry="1.667"/>
      <ellipse cx="13.02" cy="27.917" fill="#4A4A4A" rx="1.26" ry="1.25"/>
      <g transform="translate(23.52 6.667)">
        <use fill="#FFDE7A" fill-opacity=".8" xlink:href="#img-bugs-hr-c"/>
        <use fill="#FFCE3A" fill-opacity=".8" xlink:href="#img-bugs-hr-d"/>
        <use fill="#FFDC72" fill-opacity=".8" xlink:href="#img-bugs-hr-e"/>
      </g>
    </g>
    <g transform="scale(-1 1) rotate(28 -4.677 -44.573)">
      <path fill="#FFDC6A" fill-opacity=".8" d="M13.11229,12.6789241 C16.0728817,12.6789241 19.9675039,11.0792906 19.9675039,8.18570823 C19.9675039,5.29212584 17.5674701,2.94641384 14.6068785,2.94641384 C11.6462868,2.94641384 9.94345797,7.16569453 9.94345797,10.0592769 C9.94345797,11.2893297 10.7605917,12.6789241 13.11229,12.6789241 Z" transform="rotate(-46 14.955 7.813)"/>
      <g transform="translate(7.56 9.5)">
        <mask id="img-bugs-hr-g" fill="#fff">
          <use xlink:href="#img-bugs-hr-f"/>
        </mask>
        <use fill="#FFC30D" xlink:href="#img-bugs-hr-f"/>
        <ellipse cx="6.48" cy="5.278" fill="#FFD659" mask="url(#img-bugs-hr-g)" rx="6.48" ry="5.278"/>
        <path fill="#555" d="M0,-3.16666667 L4.32,-3.16666667 C4.32,-3.16666667 8.06203125,1.12565104 8.06203125,6.86111111 C8.06203125,12.5965712 4.32,16.8888889 4.32,16.8888889 L0,16.8888889 C0,16.8888889 6.19101563,13.1717665 6.19101563,6.86111111 C6.19101563,0.550455729 0,-3.16666667 0,-3.16666667 Z" mask="url(#img-bugs-hr-g)"/>
        <path fill="#555" d="M5.4,-3.16666667 L7.56,-3.16666667 C7.56,-3.16666667 11.3020313,1.12565104 11.3020313,6.86111111 C11.3020313,12.5965712 7.56,16.8888889 7.56,16.8888889 L5.4,16.8888889 C5.4,16.8888889 9.43101563,13.1717665 9.43101563,6.86111111 C9.43101563,0.550455729 5.4,-3.16666667 5.4,-3.16666667 Z" mask="url(#img-bugs-hr-g)"/>
      </g>
      <path fill="#555" fill-rule="nonzero" d="M10.3665328 12.079543C9.99996316 11.3783732 9.50164933 10.6790278 8.85132662 10.0268543 7.6148581 8.78686671 5.97926652 7.86749405 3.90054814 7.40220782 3.60984056 7.33713781 3.32020427 7.51471921 3.25362737 7.79884699 3.18705047 8.08297476 3.36874429 8.3660555 3.65945186 8.43112551 5.53179894 8.85021899 6.98384 9.66641716 8.07788896 10.7635798 8.6487527 11.3360683 9.08539376 11.9488607 9.40480621 12.5598287 9.59325098 12.9202835 9.69916139 13.1937669 9.73988485 13.3363486 9.82007127 13.6170987 10.1179387 13.7811589 10.4051903 13.7027874 10.692442 13.6244159 10.8603016 13.3332904 10.7801151 13.0525403 10.720901 12.8452186 10.5896773 12.506371 10.3665328 12.079543zM7.35023604 11.8426191C5.69934215 10.9350905 3.67657455 10.6059782 1.33007039 11.1884413 1.04101346 11.2601927.866199549 11.547382.939612582 11.8298965 1.01302562 12.112411 1.30686557 12.2832682 1.5959225 12.2115168 3.66023989 11.6990997 5.40146307 11.9824036 6.82078976 12.7626352 7.13911207 12.9376232 7.41363396 13.1243546 7.64290106 13.3096211 7.77560977 13.4168606 7.8606248 13.4962157 7.89652825 13.5341408 8.09907287 13.7480904 8.44072465 13.7610523 8.65962887 13.563092 8.87853308 13.3651318 8.89179516 13.0312128 8.68925054 12.8172632 8.44674445 12.561102 7.99888135 12.199192 7.35023604 11.8426191z"/>
      <ellipse cx="10.8" cy="16.889" fill="#4A4A4A" rx="1.08" ry="1.056"/>
      <ellipse cx="8.37" cy="17.681" fill="#4A4A4A" rx="1" ry="1"/>
      <g transform="translate(15.12 4.222)">
        <use fill="#FFDE7A" fill-opacity=".8" xlink:href="#img-bugs-hr-h"/>
        <use fill="#FFCE3A" fill-opacity=".8" xlink:href="#img-bugs-hr-i"/>
        <use fill="#FFDC72" fill-opacity=".8" xlink:href="#img-bugs-hr-j"/>
      </g>
    </g>
  </g>
</svg>
