<svg xmlns="http://www.w3.org/2000/svg" xmlns:xlink="http://www.w3.org/1999/xlink" width="120" height="120" viewBox="0 0 120 120">
  <defs>
    <circle id="img-avatar-circle-a" cx="60" cy="60" r="60"/>
    <polygon id="img-avatar-circle-c" points="0 0 119.362 0 119.362 189.574 85.738 189.574 80.027 181.232 41.318 181.232 33.287 189.574 0 189.574"/>
    <path id="img-avatar-circle-e" d="M69.6208719,79.2955801 C72.0064801,73.6559049 69.6208719,79.2955801 73.5558912,69.7420027 C77.4909106,60.1884253 77.157038,56.3181279 77.157038,43.7933927 C77.157038,21.9438222 61.3209327,0 41.2391065,0 C21.1572804,0 5.97982634,20.6939383 4.87774378,43.7933927 C4.52389196,51.2100641 4.87774378,61.5323944 10.1369943,73.6559049 C15.3962449,85.7794155 11.7561247,92.6515121 7.73969413,93.7983186 C3.72326359,94.9451252 0.122549848,89.246093 0.122549848,89.246093 C0.122549848,89.246093 2.92430786,99.5408809 9.67883978,101.865587 C18.372749,104.857768 30.2065167,104.178776 33.2750985,104.178776 C42.8759914,104.178776 36.5765828,104.178776 44.9679996,104.178776 C53.3594164,104.178776 65.6118164,105.781869 73.5558912,101.011879 C79.3187654,97.5515823 79.8955724,90.1310439 79.8955724,90.1310439 C79.8955724,90.1310439 78.0439005,94.5035139 73.5558912,92.7707731 C69.067882,91.0380322 67.2352637,84.9352552 69.6208719,79.2955801 Z"/>
    <path id="img-avatar-circle-g" d="M18.1503839,0 C15.4378478,11.252585 18.6986301,21.085003 18.6986301,21.085003 L0,21.085003 C0,21.085003 2.85774963,8.58371407 0.176282203,2.92613198e-16 C8.72281009,0 11.4466503,0 18.1503839,0 Z"/>
    <path id="img-avatar-circle-i" d="M60.6307696,37.5 C62.3580069,16.7893219 52.1965068,0 31.9680582,0 C11.7396097,0 1.57810959,16.7893219 3.30534687,37.5 C4.26628514,49.0222635 10.2940996,60.6543231 17.4174593,67.53327 C23.0979735,73.0188777 27.7320846,75 31.9680582,75 C36.2040319,75 40.725535,73.0860716 46.344565,67.7007542 C53.5215832,60.8222498 59.6620007,49.1161578 60.6307696,37.5 Z"/>
    <filter id="img-avatar-circle-j" width="112.1%" height="109.3%" x="-6.1%" y="-4.7%" filterUnits="objectBoundingBox">
      <feOffset dx="7" dy="1" in="SourceAlpha" result="shadowOffsetInner1"/>
      <feComposite in="shadowOffsetInner1" in2="SourceAlpha" k2="-1" k3="1" operator="arithmetic" result="shadowInnerInner1"/>
      <feColorMatrix in="shadowInnerInner1" result="shadowMatrixInner1" values="0 0 0 0 0.909803922   0 0 0 0 0.533333333   0 0 0 0 0.258823529  0 0 0 0.15 0"/>
      <feOffset dx="-7" dy="1" in="SourceAlpha" result="shadowOffsetInner2"/>
      <feComposite in="shadowOffsetInner2" in2="SourceAlpha" k2="-1" k3="1" operator="arithmetic" result="shadowInnerInner2"/>
      <feColorMatrix in="shadowInnerInner2" result="shadowMatrixInner2" values="0 0 0 0 0.909803922   0 0 0 0 0.533333333   0 0 0 0 0.258823529  0 0 0 0.15 0"/>
      <feMerge>
        <feMergeNode in="shadowMatrixInner1"/>
        <feMergeNode in="shadowMatrixInner2"/>
      </feMerge>
    </filter>
    <filter id="img-avatar-circle-k" width="593%" height="656.8%" x="-246.5%" y="-278.4%" filterUnits="objectBoundingBox">
      <feGaussianBlur in="SourceGraphic" stdDeviation="8"/>
    </filter>
    <filter id="img-avatar-circle-l" width="593%" height="656.8%" x="-246.5%" y="-278.4%" filterUnits="objectBoundingBox">
      <feGaussianBlur in="SourceGraphic" stdDeviation="8"/>
    </filter>
    <path id="img-avatar-circle-m" d="M64.6260795,5.51470588 C65.0866247,2.46901792 63.2673922,0 60.56271,0 C57.8580278,0 55.2921041,2.46901792 54.831559,5.51470588 C54.3710138,8.56039384 56.1902464,11.0294118 58.8949285,11.0294118 C61.5996107,11.0294118 64.1655344,8.56039384 64.6260795,5.51470588 Z"/>
    <filter id="img-avatar-circle-n" width="120.1%" height="118.1%" x="-10.1%" y="-9.1%" filterUnits="objectBoundingBox">
      <feOffset dx="-1" dy="-2" in="SourceAlpha" result="shadowOffsetInner1"/>
      <feComposite in="shadowOffsetInner1" in2="SourceAlpha" k2="-1" k3="1" operator="arithmetic" result="shadowInnerInner1"/>
      <feColorMatrix in="shadowInnerInner1" values="0 0 0 0 0.909803922   0 0 0 0 0.533333333   0 0 0 0 0.258823529  0 0 0 0.1 0"/>
    </filter>
    <path id="img-avatar-circle-o" d="M9.86580556,5.51470588 C10.3263507,2.46901792 8.50711818,0 5.80243601,0 C3.09775385,0 0.531830141,2.46901792 0.0712850072,5.51470588 C-0.389260127,8.56039384 1.42997238,11.0294118 4.13465455,11.0294118 C6.83933671,11.0294118 9.40526042,8.56039384 9.86580556,5.51470588 Z"/>
    <filter id="img-avatar-circle-p" width="120.1%" height="118.1%" x="-10.1%" y="-9.1%" filterUnits="objectBoundingBox">
      <feOffset dx="-1" dy="-2" in="SourceAlpha" result="shadowOffsetInner1"/>
      <feComposite in="shadowOffsetInner1" in2="SourceAlpha" k2="-1" k3="1" operator="arithmetic" result="shadowInnerInner1"/>
      <feColorMatrix in="shadowInnerInner1" values="0 0 0 0 0.909803922   0 0 0 0 0.533333333   0 0 0 0 0.258823529  0 0 0 0.1 0"/>
    </filter>
    <path id="img-avatar-circle-q" d="M6.6514688,8.40703398 C14.5143858,8.40703398 13.4042686,0 13.4042686,0 L6.6514688,0 L0.0970005866,0 C0.0970005866,0 -1.2114482,8.40703398 6.6514688,8.40703398 Z"/>
    <filter id="img-avatar-circle-r" width="114.9%" height="147.6%" x="-7.4%" y="-11.9%" filterUnits="objectBoundingBox">
      <feOffset dy="2" in="SourceAlpha" result="shadowOffsetOuter1"/>
      <feColorMatrix in="shadowOffsetOuter1" values="0 0 0 0 0.909803922   0 0 0 0 0.533333333   0 0 0 0 0.258823529  0 0 0 0.15 0"/>
    </filter>
    <path id="img-avatar-circle-t" d="M21.1872846,1.33982073 C21.1872846,1.33982073 14.2889839,2.26796288 14.2889839,3.55954387 C14.2889839,4.85112486 15.9332635,32.7258697 29.0065413,32.7258697 C42.0798191,32.7258697 43.4757457,7.48604269 42.9746868,2.99168992 C42.9746868,2.29394711 39.20286,1.79353093 37.9393725,1.79353093 C37.9393725,1.21101045 37.9224894,1.40848539 37.7399583,0.306441729 C45.8406194,1.98132625 51.7148183,4.5409243 55.9598297,6.92391304 C53.7743822,27.0726856 54.4623831,24.5719436 56.8662075,33.2536852 C57.2541419,34.6547633 62.3820952,50.9536337 45.9515585,54.2436744 C37.0372102,56.0286782 34.7436261,52.9579959 29.1273495,52.8144467 C24.3919508,52.6934123 19.2953155,55.412636 10.902301,54.2436744 C0.640604398,52.8144467 -1.12558052,43.1704273 0.640604398,33.2536852 C2.19075898,24.5499062 4.1550893,26.1558158 2.19075898,6.92391304 C9.07693455,2.99168992 21.3433949,0.251348348 21.3433949,0.251348348 L21.1872846,1.33982073 Z"/>
    <path id="img-avatar-circle-u" d="M2.63830656,0 L21.5704667,0 C21.5704667,0 18.2541796,34.3716464 22.9786693,48.8222269 C15.8877372,49.495478 1.04797212,45.6473283 0.513368796,40.8577683 C-1.23226852,25.2184442 2.63830656,0 2.63830656,0 Z"/>
    <filter id="img-avatar-circle-v" width="126.2%" height="116.4%" x="-8.7%" y="-4.1%" filterUnits="objectBoundingBox">
      <feOffset dx="2" dy="4" in="SourceAlpha" result="shadowOffsetOuter1"/>
      <feColorMatrix in="shadowOffsetOuter1" values="0 0 0 0 0   0 0 0 0 0   0 0 0 0 0  0 0 0 0.15 0"/>
    </filter>
    <path id="img-avatar-circle-x" d="M3.24877624,0.0200193437 L19.3954576,4.550916 C19.3954576,4.550916 16.4640401,37.7508017 20.6402322,51.7087488 C14.3722338,52.3590482 1.25468835,48.6420854 0.782128081,44.0158059 C-0.760920383,28.9096405 3.24877624,0.0200193437 3.24877624,0.0200193437 Z"/>
    <filter id="img-avatar-circle-y" width="124.7%" height="111.6%" x="-17.3%" y="-2.9%" filterUnits="objectBoundingBox">
      <feOffset dx="-2" dy="3" in="SourceAlpha" result="shadowOffsetOuter1"/>
      <feColorMatrix in="shadowOffsetOuter1" values="0 0 0 0 0   0 0 0 0 0   0 0 0 0 0  0 0 0 0.15 0"/>
    </filter>
    <path id="img-avatar-circle-B" d="M11.1472599,12.9705476 C13.0141673,16.5693805 15.1306525,21.7061731 19.7916268,23.6888153 C23.7668232,25.3797477 30.6657742,17.2124439 31.2916342,11.3013337 C31.5502363,11.4120802 35.171303,10.0127573 35.4269081,10.1439287 C40.1582965,12.5719822 40.8957263,15.2549689 40.8957263,19.067728 C40.8957263,23.0864648 33.6552343,37.1754971 22.1992861,37.1754971 C10.7433379,37.1754971 3.50284593,22.2769668 3.50284593,19.8215138 C3.50284593,17.3660609 5.89518024,15.0789899 11.1472599,12.9705476 Z"/>
    <filter id="img-avatar-circle-A" width="110.7%" height="129.6%" x="-5.3%" y="-7.4%" filterUnits="objectBoundingBox">
      <feOffset dy="4" in="SourceAlpha" result="shadowOffsetOuter1"/>
      <feColorMatrix in="shadowOffsetOuter1" values="0 0 0 0 0   0 0 0 0 0   0 0 0 0 0  0 0 0 0.2 0"/>
    </filter>
    <filter id="img-avatar-circle-C" width="108%" height="125.9%" x="-4%" y="-5.5%" filterUnits="objectBoundingBox">
      <feOffset dx="-3" dy="-3" in="SourceAlpha" result="shadowOffsetInner1"/>
      <feComposite in="shadowOffsetInner1" in2="SourceAlpha" k2="-1" k3="1" operator="arithmetic" result="shadowInnerInner1"/>
      <feColorMatrix in="shadowInnerInner1" values="0 0 0 0 0   0 0 0 0 0.526409245   0 0 0 0 0.645594175  0 0 0 1 0"/>
    </filter>
    <path id="img-avatar-circle-D" d="M14.3337628,0.130903479 C14.7966808,4.2216654 15.1306525,10.5357429 19.7916268,12.5183851 C23.7668232,14.2093175 29.9040891,5.98422151 30.6090755,0.130903479 C35.654542,2.29162902 40.3221353,10.092452 40.3221353,14.1111888 C40.3221353,18.1299256 26.5266691,30.6240507 17.5883915,31.7400029 C8.65011384,32.855955 0.178152555,17.0779169 0.178152555,14.622464 C0.178152555,12.1670111 9.08168321,2.23934579 14.3337628,0.130903479 Z"/>
    <path id="img-avatar-circle-F" d="M65.2839785,87.1482153 C66.2404625,84.3877189 67.6180696,83.218661 70.8953037,72.9315383 C74.1725378,62.6444157 75.383313,58.8937447 75.383313,45.7962114 C75.383313,22.9473868 58.6603451,0 38.578519,0 C18.4966929,0 1.77372501,20.6459747 1.77372501,45.7962114 C1.77372501,53.5671869 2.21715627,64.3464771 7.47640682,77.0244364 C12.7356574,89.7023958 8.60314596,97.2803807 5.64158491,98.5603239 C3.35649147,99.5479076 0.0290135683,97.9616499 0.0290135683,97.9616499 C0.0290135683,97.9616499 2.82903943,104.093219 7.01825226,106.524242 C18.2688652,113.053032 24.6827519,106.524242 26.5565088,103.208268 C31.4680412,94.5163663 29.9049006,73.9569234 18.5452399,53.5671869 C38.6005592,50.6418364 49.4459495,23.2744691 49.4459495,23.2744691 C49.4459495,23.2744691 60.430686,38.9509277 60.1044066,55.1378884 C59.9328055,63.6511454 51.6896206,77.5049372 48.6852007,83.218661 C45.6807807,88.9323848 43.2904091,98.6378941 47.8316821,104.093219 C52.3729551,109.548544 61.5360462,112.130371 69.271843,106.524242 C74.4432288,102.77654 75.383313,98.7199941 75.383313,98.7199941 C75.383313,98.7199941 74.0188092,100.508909 70.8953037,99.872418 C67.7717982,99.2359274 63.1694753,93.2508568 65.2839785,87.1482153 Z"/>
  </defs>
  <g fill="none" fill-rule="evenodd">
    <mask id="img-avatar-circle-b" fill="#fff">
      <use xlink:href="#img-avatar-circle-a"/>
    </mask>
    <use fill="#F4F4F4" xlink:href="#img-avatar-circle-a"/>
    <g mask="url(#img-avatar-circle-b)">
      <g transform="translate(.638 -7.021)">
        <mask id="img-avatar-circle-d" fill="#fff">
          <use xlink:href="#img-avatar-circle-c"/>
        </mask>
        <g mask="url(#img-avatar-circle-d)">
          <g transform="translate(16.596 13.404)">
            <g transform="translate(3.99)">
              <mask id="img-avatar-circle-f" fill="#fff">
                <use xlink:href="#img-avatar-circle-e"/>
              </mask>
              <use fill="#312A24" xlink:href="#img-avatar-circle-e"/>
              <path fill="#4F4339" d="M12.5940538 84.2280581C15.2299582 89.0490531 9.80658609 107.733703-.345997628 89.0490531 6.87015315 93.2136806 8.37322921 92.2643461 12.5940538 84.2280581zM79.8310497 90.3069106C78.7276681 96.7712007 66.4977995 99.4848198 68.4447398 83.7682985 75.0914452 94.3877098 76.8487147 92.0655778 79.8310497 90.3069106z" mask="url(#img-avatar-circle-f)"/>
            </g>
            <path fill="#CC4C80" d="M28.4784214,87.3508806 C35.2877501,84.6787436 52.4966956,83.9832591 58.8546889,87.3966838 C58.8546889,89.9590661 58.8546889,88.4659361 58.9648934,90.7171912 C59.0750978,92.9684463 28.4784214,92.1210286 28.4784214,91.1123543 C28.4784214,89.666099 28.2560737,88.6518202 28.4784214,87.3508806 Z"/>
            <g transform="translate(6.208 87.61)">
              <path fill="#FFD6B8" d="M37.5238689,35.1396391 C61.1055217,35.1396391 70.9490005,18.5839699 70.9490005,18.5839699 C70.9490005,18.5839699 71.3924317,18.5839699 70.5184043,11.5043623 C70.5184043,5.15067844 55.7462476,0 37.5238689,0 C19.3014902,0 4.87792445,5.16366921 4.09512123,11.5043623 C3.2210938,18.5839699 3.65530614,18.5839699 3.65530614,18.5839699 C3.65530614,18.5839699 13.9422162,35.1396391 37.5238689,35.1396391 Z"/>
              <path fill="#FFD6B8" d="M65.4552164,63.036476 C68.5963982,63.036476 69.0868213,60.5071199 69.0868213,39.2777104 C69.0868213,18.0483008 67.5311507,8.44662716 64.3899689,8.44662716 C61.2487871,8.44662716 55.822457,21.7136014 58.8931966,42.3750387 C61.9639362,63.036476 62.3140346,63.036476 65.4552164,63.036476 Z" transform="rotate(10 63.535 35.742)"/>
              <path fill="#FFD6B8" d="M12.5762049,64.3311613 C15.8850068,64.3311613 18.1233972,62.8017249 18.1233972,41.5723153 C18.1233972,20.3429058 15.9262403,10.8949022 12.6174384,10.8949022 C9.30863649,10.8949022 2.42942108,23.0082867 5.66402186,43.669724 C8.89862264,64.3311613 9.267403,64.3311613 12.5762049,64.3311613 Z" transform="scale(-1 1) rotate(10 0 -93.512)"/>
            </g>
            <g transform="translate(13.303 .885)">
              <g transform="translate(22.705 68.824)">
                <mask id="img-avatar-circle-h" fill="#fff">
                  <use xlink:href="#img-avatar-circle-g"/>
                </mask>
                <use fill="#FFD6B8" xlink:href="#img-avatar-circle-g"/>
                <path fill="#E88842" fill-opacity=".25" d="M18.3264664,2.42647059 C20.0325003,-4.76135299 15.9136301,-10.5882353 9.12671233,-10.5882353 C2.33979459,-10.5882353 -1.7790756,-4.76135299 -0.0730417363,2.42647059 C1.63299213,9.61429417 5.75186232,15.4411765 9.12671233,15.4411765 C12.5015623,15.4411765 16.6204325,9.61429417 18.3264664,2.42647059 Z" mask="url(#img-avatar-circle-h)"/>
              </g>
              <use fill="#FFD2B1" xlink:href="#img-avatar-circle-i"/>
              <use fill="#000" filter="url(#img-avatar-circle-j)" xlink:href="#img-avatar-circle-i"/>
              <g fill="#E4ACAC" transform="translate(16.027 52.5)">
                <path d="M31.1689653,3.76145229 C30.3615386,2.90442049 29.1003002,2.10488222 27.7312443,3.12803881 C26.3621884,4.1511954 27.7483772,4.64376437 25.9956226,5.95367617 C24.2428679,7.26358798 21.139865,8.48299633 22.6733014,10.1106411 C24.2067378,11.7382859 27.3516528,11.6364384 29.6976656,9.88315835 C32.0436784,8.12987826 32.7024017,5.3890971 31.1689653,3.76145229 Z" filter="url(#img-avatar-circle-k)"/>
                <path d="M2.29881158,9.44198188 C-0.0472012207,7.68870179 -0.705924524,4.94792063 0.827511899,3.32027582 C1.63493854,2.46324402 2.89617695,1.66370575 4.26523285,2.68686234 C5.63428876,3.71001893 4.24809992,4.2025879 6.00085459,5.5124997 C7.75360925,6.82241151 10.8566122,8.04181986 9.32317577,9.66946467 C7.78973935,11.2971095 4.64482438,11.195262 2.29881158,9.44198188" filter="url(#img-avatar-circle-l)"/>
              </g>
              <g transform="translate(0 41.03)">
                <use fill="#FFD6B8" xlink:href="#img-avatar-circle-m"/>
                <use fill="#000" filter="url(#img-avatar-circle-n)" xlink:href="#img-avatar-circle-m"/>
                <g transform="matrix(-1 0 0 1 9.937 0)">
                  <use fill="#FFD6B8" xlink:href="#img-avatar-circle-o"/>
                  <use fill="#000" filter="url(#img-avatar-circle-p)" xlink:href="#img-avatar-circle-o"/>
                </g>
              </g>
              <g fill="#444" transform="translate(36.361 46.46)">
                <path d="M8.72108773,3.7036742 C8.47083214,3.57229973 8.11303007,3.29656802 7.60525633,2.80350128 C5.33780075,0.601719552 1.32465278,2.16825523 1.01888021,2.90575601 C0.932332758,3.11450205 -0.106336806,3.74761285 0.444872232,2.46109455 C0.933612078,1.32037894 3.98696699,-0.798703993 7.74298841,1.70670345 C8.48645579,1.49229952 9.05095862,0.887336283 9.63512683,0 C9.63512683,1.14453144 9.00382308,1.86999903 8.52793614,2.12854244 C9.15668717,2.07456134 9.85324299,1.83448119 10.5517128,1.33333333 C10.2355547,2.19128688 9.63236655,2.64506791 9.13088338,2.82357973 C9.78961445,3.08702731 10.6015365,3.18927339 11.5623209,2.87259023 C10.7011804,4.02074652 9.10067347,4.01593065 8.7672526,3.74457465 C8.75133665,3.73162138 8.73594363,3.71796815 8.72108773,3.7036742 Z"/>
              </g>
              <g fill="#444" transform="matrix(-1 0 0 1 27.493 46.46)">
                <path d="M8.72108773,3.7036742 C8.47083214,3.57229973 8.11303007,3.29656802 7.60525633,2.80350128 C5.33780075,0.601719552 1.32465278,2.16825523 1.01888021,2.90575601 C0.932332758,3.11450205 -0.106336806,3.74761285 0.444872232,2.46109455 C0.933612078,1.32037894 3.98696699,-0.798703993 7.74298841,1.70670345 C8.48645579,1.49229952 9.05095862,0.887336283 9.63512683,0 C9.63512683,1.14453144 9.00382308,1.86999903 8.52793614,2.12854244 C9.15668717,2.07456134 9.85324299,1.83448119 10.5517128,1.33333333 C10.2355547,2.19128688 9.63236655,2.64506791 9.13088338,2.82357973 C9.78961445,3.08702731 10.6015365,3.18927339 11.5623209,2.87259023 C10.7011804,4.02074652 9.10067347,4.01593065 8.7672526,3.74457465 C8.75133665,3.73162138 8.73594363,3.71796815 8.72108773,3.7036742 Z"/>
              </g>
              <path fill="#9B8877" d="M37.8820269 43.3076435C37.8820269 43.3076435 36.4559732 42.8973455 37.8820269 42.4567393 40.4476461 41.6640428 46.0955129 40.6532058 48.2940842 41.3987303 50.1082983 42.0139212 51.1355381 43.0783344 52.1250907 44.2475473 50.8411773 43.4420532 49.5893508 42.1162747 48.0634913 41.9835844 43.2587403 41.5657582 37.8820269 43.3076435 37.8820269 43.3076435zM26.2157076 43.3076435C26.2157076 43.3076435 27.6417613 42.8973455 26.2157076 42.4567393 23.6500884 41.6640428 18.0022216 40.6532058 15.8036503 41.3987303 13.9894362 42.0139212 12.9621964 43.0783344 11.9726438 44.2475473 13.2565572 43.4420532 14.5083837 42.1162747 16.0342432 41.9835844 20.8389942 41.5657582 26.2157076 43.3076435 26.2157076 43.3076435L26.2157076 43.3076435z"/>
            </g>
            <g transform="translate(38.579 61.947)">
              <mask id="img-avatar-circle-s" fill="#fff">
                <use xlink:href="#img-avatar-circle-q"/>
              </mask>
              <use fill="#000" filter="url(#img-avatar-circle-r)" xlink:href="#img-avatar-circle-q"/>
              <use fill="#EC6050" xlink:href="#img-avatar-circle-q"/>
              <path fill="#F78375" d="M6.6514688,10.6194113 C9.83517294,10.6194113 12.4160751,9.33174174 12.4160751,7.74332077 C12.4160751,6.42387239 11.5373241,4.97320532 9.09419448,4.97320532 C7.08255846,4.97320532 6.6514688,5.30970567 6.6514688,5.30970567 C6.6514688,5.30970567 6.235752,4.95136412 4.37486717,4.95136412 C2.0982656,4.95136412 0.886862506,6.39395728 0.886862506,7.74332077 C0.886862506,9.33174174 3.46776465,10.6194113 6.6514688,10.6194113 Z" mask="url(#img-avatar-circle-s)"/>
              <path fill="#FFF" d="M6.6514688,2.22501643 C14.5143858,2.22501643 13.4042686,0 13.4042686,0 L6.6514688,0 L0.0970005866,0 C0.0970005866,0 -1.2114482,2.22501643 6.6514688,2.22501643 Z" mask="url(#img-avatar-circle-s)"/>
            </g>
            <g transform="translate(15.545 84.853)">
              <path fill="#E88842" fill-opacity=".2" d="M12.6181482,3.51530383 C12.6181482,3.51530383 17.129157,31.083031 29.0382858,31.083031 C40.9474147,31.083031 43.2653135,3.47603279 43.2653135,3.47603279 L46.5142031,3.70293215 L46.5142031,39.2317927 L10.9169481,39.2317927 L10.9169481,4.06222991 L12.6181482,3.51530383 Z"/>
              <use fill="#FA5296" xlink:href="#img-avatar-circle-t"/>
            </g>
            <g transform="translate(22.621 74.778)">
              <g transform="translate(1.681 18.431)">
                <mask id="img-avatar-circle-w" fill="#fff">
                  <use xlink:href="#img-avatar-circle-u"/>
                </mask>
                <use fill="#000" filter="url(#img-avatar-circle-v)" xlink:href="#img-avatar-circle-u"/>
                <use fill="#00BCDA" xlink:href="#img-avatar-circle-u"/>
                <path fill="#00A5C4" d="M14.4078689,2.79260755 L33.340029,2.79260755 C33.340029,2.79260755 30.0237419,37.1642539 34.7482317,51.6148344 C27.6572996,52.2880855 12.8175345,48.4399359 12.2829311,43.6503759 C10.5372938,28.0110517 14.4078689,2.79260755 14.4078689,2.79260755 Z" mask="url(#img-avatar-circle-w)"/>
              </g>
              <g transform="translate(21.297 10.53)">
                <mask id="img-avatar-circle-z" fill="#fff">
                  <use xlink:href="#img-avatar-circle-x"/>
                </mask>
                <g transform="matrix(-1 0 0 1 21.069 0)">
                  <use fill="#000" filter="url(#img-avatar-circle-y)" xlink:href="#img-avatar-circle-x"/>
                  <use fill="#00BCDA" xlink:href="#img-avatar-circle-x"/>
                </g>
                <path fill="#00A5C4" d="M15.0183386,0.0200193437 L31.1650199,4.550916 C31.1650199,4.550916 28.2336025,37.7508017 32.4097945,51.7087488 C26.1417961,52.3590482 13.0242507,48.6420854 12.5516904,44.0158059 C11.008642,28.9096405 15.0183386,0.0200193437 15.0183386,0.0200193437 Z" mask="url(#img-avatar-circle-z)" transform="matrix(-1 0 0 1 44.608 0)"/>
              </g>
              <use fill="#000" filter="url(#img-avatar-circle-A)" xlink:href="#img-avatar-circle-B"/>
              <use fill="#00A5C4" xlink:href="#img-avatar-circle-B"/>
              <use fill="#000" filter="url(#img-avatar-circle-C)" xlink:href="#img-avatar-circle-B"/>
              <path fill="#000" fill-opacity=".2" d="M11.1472599,4.03420343 C13.0141673,7.63303639 15.1306525,12.7698289 19.7916268,14.7524712 C23.7668232,16.4434035 30.6657742,8.27609973 31.2916342,2.36498952 C36.3371007,4.52571506 40.3221353,12.326538 40.3221353,16.3452748 C40.3221353,20.3640116 26.5266691,32.8581367 17.5883915,33.9740889 C8.65011384,35.0900411 0.178152555,19.312003 0.178152555,16.85655 C0.178152555,14.4010971 5.89518024,6.14264574 11.1472599,4.03420343 Z"/>
              <g>
                <mask id="img-avatar-circle-E" fill="#fff">
                  <use xlink:href="#img-avatar-circle-D"/>
                </mask>
                <use fill="#00BCDA" xlink:href="#img-avatar-circle-D"/>
                <path fill="#0086A5" d="M11.0963683,0.0397536558 C11.0963683,0.0397536558 14.4256118,27.7828909 26.9018568,9.02443128 C39.3781018,-9.7340283 11.0963683,0.0397536558 11.0963683,0.0397536558 Z" mask="url(#img-avatar-circle-E)"/>
                <path fill="#00A5C4" d="M11.395743,2.5957069 C11.395743,2.5957069 10.2370672,20.6058438 19.1217076,20.6058438 C28.0063479,20.6058438 30.6570171,12.0485744 30.6570171,3.26331464 C30.6570171,-5.52194508 30.8179291,-0.905961159 30.8179291,-0.905961159 L42.2054623,5.59776001 L33.6010496,33.5969232 L13.9281911,37.7656536 C13.9281911,37.7656536 -8.53435573,24.5596743 -8.53435573,23.9656998 C-8.53435573,23.3717253 -6.61818954,3.27204154 -5.78571631,2.93387422 C-4.95324308,2.5957069 10.92669,-0.268897563 10.92669,-0.268897563 L11.395743,2.5957069 Z" mask="url(#img-avatar-circle-E)"/>
              </g>
            </g>
            <g transform="translate(6.651)">
              <path fill="#000" fill-opacity=".2" d="M29.2344179,88.1563243 C29.2344179,88.1563243 33.6615853,117.411126 11.6463494,112.399789 C9.39121006,111.88645 3.03170137,109.333788 3.03170137,102.648044 C13.6112609,102.648044 29.2344179,88.1563243 29.2344179,88.1563243 Z"/>
              <path fill="#000" fill-opacity=".2" d="M70.2297451,92.7871931 C72.3524991,102.950518 67.8863582,112.969303 55.2308129,112.969303 C54.2125233,112.969303 46.8896286,112.110927 45.3159673,105.254501 C50.4762685,108.27189 70.2297451,100.087174 70.2297451,92.7871931 Z" transform="matrix(-1 0 0 1 116.052 0)"/>
              <path fill="#E88842" fill-opacity=".2" d="M49.4603393,25.8256168 C49.4603393,25.8256168 40.8428765,52.781188 22.0719638,56.6416137 C21.1780847,56.8254488 25.1335448,61.0819242 25.6683472,70.2529197 C24.1263674,70.4507139 25.3564899,70.2529197 23.8145101,70.2529197 C22.2725303,70.2529197 16.1294748,55.1528564 15.1117387,54.880786 C15.1117387,54.1246023 15.1117387,53.8869446 15.1117387,52.781188 C37.6691385,51.6680856 49.4603393,21.8753133 49.4603393,21.8753133 C49.4603393,21.8753133 56.7925443,28.8630029 59.7155531,39.4550712 C62.6385618,50.0471395 60.2507885,54.592293 60.2507885,54.880786 C58.7533419,40.965278 49.4603393,25.8256168 49.4603393,25.8256168 Z"/>
              <mask id="img-avatar-circle-G" fill="#fff">
                <use xlink:href="#img-avatar-circle-F"/>
              </mask>
              <use fill="#443A31" xlink:href="#img-avatar-circle-F"/>
              <path fill="#55493E" d="M54.8170235 5.05519586C54.8170235 5.05519586 76.1519561 26.2616107 73.8910629 62.9200986 85.1535239 19.6901585 54.8170235 5.05519586 54.8170235 5.05519586zM6.608598 74.3350152C6.608598 74.3350152 2.89909028 58.0018109 5.85078092 40.8442887 9.31339399 20.7168877 21.2159639-.564949576 48.1967334 1.75693874 19.264991-9.92923326 1.34004956 15.2548061-1.78368489 36.5628842-4.84429645 57.4403791 6.608598 74.3350152 6.608598 74.3350152z" mask="url(#img-avatar-circle-G)"/>
              <path fill="#55493E" d="M9.95988166,58.6474449 C9.95988166,58.6474449 8.2511124,50.4365865 10.8467442,37.1013955 C13.4423759,23.7662046 22.1035756,3.98487188 44.5947206,1.5352689 C17.9104655,-0.335313444 10.6019643,21.4345613 9.03317963,35.5661266 C7.49609617,49.4121282 9.95988166,58.6474449 9.95988166,58.6474449 Z" mask="url(#img-avatar-circle-G)"/>
              <path fill="#55493E" d="M48.3525363,75.8393443 C48.3525363,75.8393443 44.4365229,29.7858741 76.6664801,14.5701039 C49.3690864,27.128318 46.3382987,48.3984329 45.5148586,62.0079109 C44.6914185,75.617389 48.3525363,75.8393443 48.3525363,75.8393443 Z" mask="url(#img-avatar-circle-G)" transform="rotate(157 61.03 45.205)"/>
              <path fill="#6A5B4E" d="M11.535979,41.5384404 C11.535979,41.5384404 3.68610946,8.74666848 33.5350087,-1.00853296 C8.14164086,10.5641019 11.535979,41.5384404 11.535979,41.5384404 Z" mask="url(#img-avatar-circle-G)" transform="rotate(10 22.07 20.265)"/>
              <path fill="#6A5B4E" d="M21.1628505,39.8821844 C21.1628505,39.8821844 13.3129809,9.42175364 43.1618802,0.360101274 C17.7685124,11.1099761 21.1628505,39.8821844 21.1628505,39.8821844 Z" mask="url(#img-avatar-circle-G)" transform="rotate(4 31.696 20.121)"/>
              <path fill="#6A5B4E" d="M45.4836004,57.8558489 C45.4836004,57.8558489 43.2757064,20.6178778 73.1246056,10.8626764 C47.7312378,22.4353113 45.4836004,57.8558489 45.4836004,57.8558489 Z" mask="url(#img-avatar-circle-G)" transform="scale(-1 1) rotate(-22 0 339.358)"/>
              <path fill="#3A3129" d="M49.4941163,23.2960744 C49.4941163,23.2960744 30.9882231,63.7916543 8.55337315,51.0406693 C34.1814478,51.6175294 49.4941163,23.2960744 49.4941163,23.2960744 Z" mask="url(#img-avatar-circle-G)"/>
              <path fill="#3A3129" d="M49.4302431,22.2467075 L49.4302431,23.4460148 C49.4302431,23.4460148 30.1479896,56.6559885 12.8595063,47.1964812 C35.7920289,47.6934137 49.4302431,22.2467075 49.4302431,22.2467075 Z" mask="url(#img-avatar-circle-G)"/>
              <path fill="#3A3129" d="M49.5363375,22.1853486 C49.5363375,22.1853486 66.176485,37.8065908 59.770982,58.4698497 C62.0982824,43.9244502 52.1701703,27.6916611 49.5363375,23.3956746 C49.1076949,22.696525 49.5363375,22.1853486 49.5363375,22.1853486 Z" mask="url(#img-avatar-circle-G)"/>
              <path fill="#3A3129" d="M40.277087,72.1613174 C40.277087,72.1613174 36.37844,85.4101721 29.1495222,94.8459064 C26.2880966,98.5808572 19.4095981,105.943186 13.4999905,106.673904 C3.81344183,107.871636 -4.95465691,99.4632092 -1.64159249,88.8824488 C2.20053605,96.1461715 7.23516753,100.256314 11.6798113,100.416655 C25.9667403,100.932056 40.277087,72.1613174 40.277087,72.1613174 Z" mask="url(#img-avatar-circle-G)" transform="rotate(-43 18.961 89.475)"/>
              <path fill="#3A3129" d="M32.9124014,75.1553412 C32.9124014,75.1553412 33.3304655,85.9636725 25.7870344,93.7625933 C18.2436033,101.561514 9.89143603,102.748368 5.46374198,93.3307871 C21.991822,108.101898 32.9124014,75.1553412 32.9124014,75.1553412 Z" mask="url(#img-avatar-circle-G)" transform="rotate(-29 19.19 87.58)"/>
              <path fill="#4F4339" d="M48.2479259,66.6957667 C48.2479259,66.6957667 40.68136,99.1793986 25.7689205,85.6512142 C27.3253365,92.7608213 33.7220032,92.5352873 36.8671287,90.6920148 C45.2759946,85.7638074 48.2479259,66.6957667 48.2479259,66.6957667 Z" mask="url(#img-avatar-circle-G)" transform="rotate(-29 37.008 79.242)"/>
              <path fill="#3A3129" d="M76.840561,72.508505 C76.840561,72.508505 74.7082879,81.5173275 72.5681826,89.311899 C70.8354853,95.6226318 70.2956027,95.7137953 69.2981105,98.6020441 C64.6582838,112.036709 46.7219892,112.368677 40.6149423,97.0679341 C46.0815113,100.762271 49.3151562,102.835181 56.672263,102.372933 C66.4500663,101.758591 76.840561,72.508505 76.840561,72.508505 Z" mask="url(#img-avatar-circle-G)" transform="scale(-1 1) rotate(-43 0 239.651)"/>
              <path fill="#3A3129" d="M64.0124708,87.161812 C64.0124708,87.161812 59.6012099,104.492386 50.9294031,102.530625 C42.2575964,100.568863 44.1164176,93.2481874 44.1164176,93.2481874 C44.1164176,93.2481874 45.1724187,98.3311549 50.8251624,99.4907089 C56.4779061,100.650263 64.0124708,87.161812 64.0124708,87.161812 Z" mask="url(#img-avatar-circle-G)" transform="scale(-1 1) rotate(-43 0 231.962)"/>
              <path fill="#4F4339" d="M30.5106758,66.6957667 C30.5106758,66.6957667 22.9441099,99.1793986 8.03167042,85.6512142 C9.5880864,92.7608213 15.9847531,92.5352873 19.1298786,90.6920148 C27.5387445,85.7638074 30.5106758,66.6957667 30.5106758,66.6957667 Z" mask="url(#img-avatar-circle-G)" transform="rotate(-29 19.271 79.242)"/>
              <path fill="#4F4339" d="M68.0865116,73.2061876 C68.0865116,73.2061876 63.1001091,107.674232 48.2838022,92.0204639 C50.4524703,98.5285413 56.8941286,100.365845 60.0392541,98.5225723 C68.44812,93.5943648 68.0865116,73.2061876 68.0865116,73.2061876 Z" mask="url(#img-avatar-circle-G)" transform="scale(-1 1) rotate(-29 0 311.193)"/>
              <path fill="#55493E" d="M9.94775659,88.92936 C9.94775659,88.92936 9.94775659,107.233758 -0.459020633,98.0584414 C7.43050476,95.4627869 9.94775659,88.92936 9.94775659,88.92936 Z" mask="url(#img-avatar-circle-G)"/>
              <path fill="#55493E" d="M18.7317163,52.0868433 C18.7317163,52.0868433 14.5095935,33.3174549 41.4270463,18.1875705 C11.1129473,27.6035866 18.7317163,52.0868433 18.7317163,52.0868433 Z" mask="url(#img-avatar-circle-G)" transform="scale(1 -1) rotate(84 68.677 0)"/>
            </g>
          </g>
        </g>
      </g>
    </g>
  </g>
</svg>
