<svg xmlns="http://www.w3.org/2000/svg" xmlns:xlink="http://www.w3.org/1999/xlink" width="676" height="512" viewBox="0 0 676 512">
  <defs>
    <linearGradient id="img-telstra-screens-medium-a" x1="0%" y1="0%" y2="0%">
      <stop offset="0%" stop-color="#5BC5F2"/>
      <stop offset="45.924%" stop-color="#C69DC9"/>
      <stop offset="100%" stop-color="#8779B7"/>
    </linearGradient>
    <filter id="img-telstra-screens-medium-b" width="108.4%" height="104%" x="-2.1%" y="-1%" filterUnits="objectBoundingBox">
      <feOffset dx="6" dy="6" in="SourceAlpha" result="shadowOffsetOuter1"/>
      <feColorMatrix in="shadowOffsetOuter1" result="shadowMatrixOuter1" values="0 0 0 0 0.196078431   0 0 0 0 0.247058824   0 0 0 0 0.274509804  0 0 0 0.1 0"/>
      <feMerge>
        <feMergeNode in="shadowMatrixOuter1"/>
        <feMergeNode in="SourceGraphic"/>
      </feMerge>
    </filter>
    <ellipse id="img-telstra-screens-medium-c" cx="21.6" cy="22" rx="21.6" ry="22"/>
    <path id="img-telstra-screens-medium-e" d="M14.2795898,37.4615885 C25.2148279,37.4615885 39.6,31.3044091 39.6,20.1666667 C39.6,9.02892421 30.735238,0 19.8,0 C8.86476195,0 2.57519531,16.2405128 2.57519531,27.3782552 C2.57519531,32.1128743 5.59335938,37.4615885 14.2795898,37.4615885 Z"/>
    <path id="img-telstra-screens-medium-f" d="M12.7043441,36.4246942 C21.2103945,36.4246942 32.4,31.6352896 32.4,22.9717198 C32.4,14.3081499 25.5044837,7.28493883 16.9984333,7.28493883 C8.49238284,7.28493883 3.6,19.9177338 3.6,28.5813037 C3.6,32.2641599 5.94769976,36.4246942 12.7043441,36.4246942 Z"/>
    <path id="img-telstra-screens-medium-g" d="M10.3980176,36.4246942 C16.7493022,36.4246942 25.1043395,32.848549 25.1043395,26.379648 C25.1043395,19.910747 19.9556061,14.6666667 13.6043215,14.6666667 C7.25303687,14.6666667 3.6,24.0993025 3.6,30.5682035 C3.6,33.3181129 5.35297683,36.4246942 10.3980176,36.4246942 Z"/>
    <ellipse id="img-telstra-screens-medium-h" cx="16.56" cy="17" rx="16.56" ry="17"/>
    <path id="img-telstra-screens-medium-j" d="M10.9476855,28.9475911 C19.331368,28.9475911 30.36,24.1897707 30.36,15.5833333 C30.36,6.97689598 23.5636825,0 15.18,0 C6.7963175,0 1.97431641,12.5494871 1.97431641,21.1559245 C1.97431641,24.8144938 4.28824219,28.9475911 10.9476855,28.9475911 Z"/>
    <path id="img-telstra-screens-medium-k" d="M9.73999715,28.1463546 C16.2613025,28.1463546 24.84,24.4454511 24.84,17.7508744 C24.84,11.0562976 19.5534375,5.62927092 13.0321322,5.62927092 C6.51082685,5.62927092 2.76,15.3909761 2.76,22.0855529 C2.76,24.9313963 4.55990315,28.1463546 9.73999715,28.1463546 Z"/>
    <path id="img-telstra-screens-medium-l" d="M7.97181349,28.1463546 C12.8411317,28.1463546 19.2466603,25.3829697 19.2466603,20.3842735 C19.2466603,15.3855773 15.299298,11.3333333 10.4299798,11.3333333 C5.5606616,11.3333333 2.76,18.6221883 2.76,23.6208845 C2.76,25.7458145 4.1039489,28.1463546 7.97181349,28.1463546 Z"/>
    <ellipse id="img-telstra-screens-medium-m" cx="16.32" cy="16.667" rx="16.32" ry="16.667"/>
    <path id="img-telstra-screens-medium-o" d="M10.7890234,28.3799913 C19.0512033,28.3799913 29.92,23.7154615 29.92,15.2777778 C29.92,6.8400941 23.2221799,0 14.96,0 C6.69782014,0 1.94570312,12.3034188 1.94570312,20.7411024 C1.94570312,24.3279351 4.22609375,28.3799913 10.7890234,28.3799913 Z"/>
    <path id="img-telstra-screens-medium-p" d="M9.59883777,27.5944653 C16.0256314,27.5944653 24.48,23.9661285 24.48,17.402818 C24.48,10.8395075 19.2700544,5.51889306 12.8432607,5.51889306 C6.41646704,5.51889306 2.72,15.0891923 2.72,21.6525028 C2.72,24.4425454 4.49381759,27.5944653 9.59883777,27.5944653 Z"/>
    <path id="img-telstra-screens-medium-q" d="M7.85627996,27.5944653 C12.6550283,27.5944653 18.9677232,24.8852644 18.9677232,19.9845818 C18.9677232,15.0838993 15.077569,11.1111111 10.2788207,11.1111111 C5.4800723,11.1111111 2.72,18.2570474 2.72,23.1577299 C2.72,25.2409946 4.04447138,27.5944653 7.85627996,27.5944653 Z"/>
    <path id="img-telstra-screens-medium-r" d="M38.5887029,69.3314075 C46.6154402,75.8698801 54.9532377,71.6354201 55.3111263,64.6770903 C55.669015,57.7187605 50.9525072,55.6093578 46.0372332,53.3341546 C41.1219592,51.0589513 36.3911268,49.5153256 35.4680422,48.3381276 C34.9280684,47.6495058 34.573914,47.1739498 34.4129191,46.9472679 C32.9420761,44.8763106 30.0841453,44.3993185 28.029552,45.8818763 C25.9749588,47.3644341 25.5017357,50.2451274 26.9725788,52.3160847 C27.8711992,53.5813486 33.4879321,65.176388 38.5887029,69.3314075 Z"/>
    <filter id="img-telstra-screens-medium-s" width="106.8%" height="107.3%" x="-3.4%" y="-3.6%" filterUnits="objectBoundingBox">
      <feOffset dx="-1" dy="-2" in="SourceAlpha" result="shadowOffsetInner1"/>
      <feComposite in="shadowOffsetInner1" in2="SourceAlpha" k2="-1" k3="1" operator="arithmetic" result="shadowInnerInner1"/>
      <feColorMatrix in="shadowInnerInner1" values="0 0 0 0 0   0 0 0 0 0   0 0 0 0 0  0 0 0 0.2 0"/>
    </filter>
    <ellipse id="img-telstra-screens-medium-t" cx="26.118" cy="42.399" rx="10.288" ry="10.483"/>
    <filter id="img-telstra-screens-medium-u" width="109.7%" height="109.5%" x="-4.9%" y="-4.8%" filterUnits="objectBoundingBox">
      <feOffset dy="-2" in="SourceAlpha" result="shadowOffsetInner1"/>
      <feComposite in="shadowOffsetInner1" in2="SourceAlpha" k2="-1" k3="1" operator="arithmetic" result="shadowInnerInner1"/>
      <feColorMatrix in="shadowInnerInner1" values="0 0 0 0 0   0 0 0 0 0   0 0 0 0 0  0 0 0 0.2 0"/>
    </filter>
    <ellipse id="img-telstra-screens-medium-v" cx="23.546" cy="45.02" rx="2.572" ry="2.621"/>
    <filter id="img-telstra-screens-medium-w" width="109.7%" height="109.5%" x="-4.9%" y="-4.8%" filterUnits="objectBoundingBox">
      <feOffset dy="-.5" in="SourceAlpha" result="shadowOffsetInner1"/>
      <feComposite in="shadowOffsetInner1" in2="SourceAlpha" k2="-1" k3="1" operator="arithmetic" result="shadowInnerInner1"/>
      <feColorMatrix in="shadowInnerInner1" values="0 0 0 0 0.2   0 0 0 0 0.2   0 0 0 0 0.2  0 0 0 1 0"/>
    </filter>
    <ellipse id="img-telstra-screens-medium-x" cx="17.758" cy="46.986" rx="1.929" ry="1.966"/>
    <filter id="img-telstra-screens-medium-y" width="113%" height="112.7%" x="-6.5%" y="-6.4%" filterUnits="objectBoundingBox">
      <feOffset dy="-.5" in="SourceAlpha" result="shadowOffsetInner1"/>
      <feComposite in="shadowOffsetInner1" in2="SourceAlpha" k2="-1" k3="1" operator="arithmetic" result="shadowInnerInner1"/>
      <feColorMatrix in="shadowInnerInner1" values="0 0 0 0 0.2   0 0 0 0 0.2   0 0 0 0 0.2  0 0 0 1 0"/>
    </filter>
    <path id="img-telstra-screens-medium-z" d="M73.6546574,58.9400017 C71.0133233,46.4714025 59.7531351,50.2580018 60.3587916,45.6601456 C64.5475056,13.8614202 55.7255007,0.877229141 52.804552,1.89750838 C49.277907,3.12935563 42.2542817,30.8215465 45.4654585,51.3103194 C49.0704174,61.2835572 59.2630109,60.4059503 66.3733659,60.4616546 C71.3621669,60.5007381 74.7437491,64.0811338 73.6546574,58.9400017 Z"/>
    <filter id="img-telstra-screens-medium-A" width="117.1%" height="108.4%" x="-8.6%" y="-4.2%" filterUnits="objectBoundingBox">
      <feOffset dx="5" dy="-2" in="SourceAlpha" result="shadowOffsetInner1"/>
      <feComposite in="shadowOffsetInner1" in2="SourceAlpha" k2="-1" k3="1" operator="arithmetic" result="shadowInnerInner1"/>
      <feColorMatrix in="shadowInnerInner1" values="0 0 0 0 0   0 0 0 0 0   0 0 0 0 0  0 0 0 0.1 0"/>
    </filter>
    <path id="img-telstra-screens-medium-B" d="M15.6253469,26.4298265 C17.4260745,28.4602238 18.0646627,29.0267115 20.4030823,30.9225438 C24.0828948,33.9058867 25.1770649,34.8192419 29.4203383,36.3539856 C30.5100745,36.7481308 32.707767,37.4645546 33.5460464,36.5497403 C35.6895249,34.2105619 31.932854,32.7892373 30.8431179,32.3950921 C27.0759733,31.0325588 26.3780627,30.3558611 23.0398174,27.6494379 C20.8913228,25.9075838 20.4153102,25.4996273 18.7593872,23.6325034 C18.182297,22.9818096 17.6804235,22.3797296 17.2572406,21.8426033 C17.0096926,21.5284023 16.8473325,21.3114179 16.7735254,21.2079886 C16.0992256,20.2630621 14.7890234,20.0454225 13.8471067,20.7218768 C12.90519,21.3983312 12.6882435,22.71272 13.3625433,23.6576465 C13.7745107,24.234955 14.5364492,25.2020478 15.6253469,26.4298265 Z"/>
    <filter id="img-telstra-screens-medium-C" width="109.4%" height="112%" x="-4.7%" y="-6%" filterUnits="objectBoundingBox">
      <feOffset dx="-1" dy="-2" in="SourceAlpha" result="shadowOffsetInner1"/>
      <feComposite in="shadowOffsetInner1" in2="SourceAlpha" k2="-1" k3="1" operator="arithmetic" result="shadowInnerInner1"/>
      <feColorMatrix in="shadowInnerInner1" values="0 0 0 0 0   0 0 0 0 0   0 0 0 0 0  0 0 0 0.2 0"/>
    </filter>
    <ellipse id="img-telstra-screens-medium-D" cx="12.971" cy="19.133" rx="4.717" ry="4.783"/>
    <filter id="img-telstra-screens-medium-E" width="121.2%" height="120.9%" x="-10.6%" y="-10.5%" filterUnits="objectBoundingBox">
      <feOffset dy="-2" in="SourceAlpha" result="shadowOffsetInner1"/>
      <feComposite in="shadowOffsetInner1" in2="SourceAlpha" k2="-1" k3="1" operator="arithmetic" result="shadowInnerInner1"/>
      <feColorMatrix in="shadowInnerInner1" values="0 0 0 0 0   0 0 0 0 0   0 0 0 0 0  0 0 0 0.2 0"/>
    </filter>
    <ellipse id="img-telstra-screens-medium-F" cx="11.791" cy="20.329" rx="1.179" ry="1.196"/>
    <filter id="img-telstra-screens-medium-G" width="121.2%" height="120.9%" x="-10.6%" y="-10.5%" filterUnits="objectBoundingBox">
      <feOffset dy="-.5" in="SourceAlpha" result="shadowOffsetInner1"/>
      <feComposite in="shadowOffsetInner1" in2="SourceAlpha" k2="-1" k3="1" operator="arithmetic" result="shadowInnerInner1"/>
      <feColorMatrix in="shadowInnerInner1" values="0 0 0 0 0.555417456   0 0 0 0 0.926381117   0 0 0 0 1  0 0 0 0.5 0"/>
    </filter>
    <ellipse id="img-telstra-screens-medium-H" cx="9.138" cy="21.226" rx="1" ry="1"/>
    <filter id="img-telstra-screens-medium-I" width="128.3%" height="127.9%" x="-14.1%" y="-13.9%" filterUnits="objectBoundingBox">
      <feOffset dy="-.5" in="SourceAlpha" result="shadowOffsetInner1"/>
      <feComposite in="shadowOffsetInner1" in2="SourceAlpha" k2="-1" k3="1" operator="arithmetic" result="shadowInnerInner1"/>
      <feColorMatrix in="shadowInnerInner1" values="0 0 0 0 0.555417456   0 0 0 0 0.926381117   0 0 0 0 1  0 0 0 0.5 0"/>
    </filter>
    <ellipse id="img-telstra-screens-medium-J" cx="13.9" cy="22.106" rx="1.39" ry="1.427"/>
    <filter id="img-telstra-screens-medium-K" width="118%" height="117.5%" x="-9%" y="-8.8%" filterUnits="objectBoundingBox">
      <feOffset dy="-.5" in="SourceAlpha" result="shadowOffsetInner1"/>
      <feComposite in="shadowOffsetInner1" in2="SourceAlpha" k2="-1" k3="1" operator="arithmetic" result="shadowInnerInner1"/>
      <feColorMatrix in="shadowInnerInner1" values="0 0 0 0 0.2   0 0 0 0 0.2   0 0 0 0 0.2  0 0 0 1 0"/>
    </filter>
    <ellipse id="img-telstra-screens-medium-L" cx="10.773" cy="23.177" rx="1.043" ry="1.071"/>
    <filter id="img-telstra-screens-medium-M" width="124%" height="123.4%" x="-12%" y="-11.7%" filterUnits="objectBoundingBox">
      <feOffset dy="-.5" in="SourceAlpha" result="shadowOffsetInner1"/>
      <feComposite in="shadowOffsetInner1" in2="SourceAlpha" k2="-1" k3="1" operator="arithmetic" result="shadowInnerInner1"/>
      <feColorMatrix in="shadowInnerInner1" values="0 0 0 0 0.2   0 0 0 0 0.2   0 0 0 0 0.2  0 0 0 1 0"/>
    </filter>
    <path id="img-telstra-screens-medium-N" d="M4.19331659,25.466971 C8.14321786,23.2535271 18.5786617,19.2033319 23.1323508,14.3573968 C31.5366295,5.41374971 25.5839525,1.03803002 20.6534618,0.199383015 C16.3830682,-0.526985432 11.4027287,0.330682957 5.18316974,9.64409912 C-1.03638923,18.9575153 0.0774665194,22.8056867 0.0774665194,22.8056867 C0.0774665194,22.8056867 0.853288765,27.3386544 4.19331659,25.466971 Z"/>
  </defs>
  <g fill="none" fill-rule="evenodd">
    <g transform="translate(68)">
      <rect width="608" height="385" fill="#586C76" fill-opacity=".1" rx="10"/>
      <g transform="translate(10 34)">
        <rect width="588" height="339" fill="#FFF"/>
        <rect width="588" height="241.601" fill="#586C76"/>
        <rect width="193.888" height="16.444" x="197.69" y="74.631" fill="#E3E6E8" opacity=".3" rx="4"/>
        <rect width="307.94" height="10.119" x="140.664" y="99.929" fill="#FFF" opacity=".3" rx="4"/>
        <rect width="326.948" height="7.59" x="41.819" y="292.198" fill="#586C76" opacity=".7" rx="3.795"/>
        <rect width="193.888" height="16.444" x="41.819" y="263.104" fill="#586C76" opacity=".7" rx="4"/>
        <rect width="148.267" height="61.981" x="391.578" y="263.104" fill="#7C69B8" opacity=".3" rx="4"/>
        <rect width="326.948" height="7.59" x="41.819" y="304.847" fill="#586C76" opacity=".7" rx="3.795"/>
        <rect width="217.966" height="7.59" x="41.819" y="317.496" fill="#586C76" opacity=".7" rx="3.795"/>
        <g fill="#FFF" transform="translate(41.819 134.082)">
          <rect width="148.267" height="6.325" y="56.922" opacity=".2" rx="3.162"/>
          <rect width="148.267" height="6.325" y="68.306" opacity=".2" rx="3.162"/>
          <rect width="98.845" height="6.325" x="25.345" y="79.69" opacity=".2" rx="3.162"/>
          <ellipse cx="74.767" cy="22.769" fill-opacity=".2" rx="22.81" ry="22.769"/>
        </g>
        <g fill="#FFF" transform="translate(220.5 134.082)">
          <rect width="148.267" height="6.325" y="56.922" opacity=".2" rx="3.162"/>
          <rect width="148.267" height="6.325" y="68.306" opacity=".2" rx="3.162"/>
          <rect width="98.845" height="6.325" x="24.078" y="79.69" opacity=".2" rx="3.162"/>
          <ellipse cx="73.5" cy="22.769" fill-opacity=".2" rx="22.81" ry="22.769"/>
        </g>
        <g fill="#FFF" transform="translate(399.181 134.082)">
          <rect width="148.267" height="6.325" y="56.922" opacity=".2" rx="3.162"/>
          <rect width="148.267" height="6.325" y="68.306" opacity=".2" rx="3.162"/>
          <rect width="98.845" height="6.325" x="24.078" y="79.69" opacity=".2" rx="3.162"/>
          <ellipse cx="73.5" cy="22.769" fill-opacity=".2" rx="22.81" ry="22.769"/>
        </g>
        <g transform="translate(35.483 37.948)">
          <polygon fill="#2D86CA" points="0 0 552.517 0 552.517 37.948" opacity=".2"/>
          <polygon fill="url(#img-telstra-screens-medium-a)" points="0 0 552.517 0 552.517 24.034"/>
        </g>
        <rect width="588" height="37.948" fill="#FFF"/>
        <rect width="240.776" height="16.444" x="70.966" y="11.384" fill="#586C76" opacity=".7" rx="4"/>
        <ellipse cx="48.155" cy="20.239" fill="#00AAF3" opacity=".5" rx="12.672" ry="12.649"/>
      </g>
      <g transform="translate(10 13)">
        <ellipse cx="6.375" cy="6.5" fill="#FF4C54" rx="6.375" ry="6.5"/>
        <ellipse cx="25.5" cy="6.5" fill="#FFD74C" rx="6.375" ry="6.5"/>
        <ellipse cx="44.625" cy="6.5" fill="#9AE04C" rx="6.375" ry="6.5"/>
      </g>
    </g>
    <g filter="url(#img-telstra-screens-medium-b)" transform="translate(479 205)">
      <rect width="143" height="301" fill="#FFF" rx="10"/>
      <path fill="#1A2738" fill-opacity=".05" d="M34.8988764,10 L34.8988764,17.3768844 C34.8988764,19.5860234 36.6897374,21.3768844 38.8988764,21.3768844 L104.516854,21.3768844 C106.725993,21.3768844 108.516854,19.5860234 108.516854,17.3768844 L108.516854,10 L130,10 C132.209139,10 134,11.790861 134,14 L134,289 C134,291.209139 132.209139,293 130,293 L12,293 C9.790861,293 8,291.209139 8,289 L8,14 C8,11.790861 9.790861,10 12,10 L34.8988764,10 Z"/>
      <rect width="109" height="37" x="17" y="237" fill="#7C69B8" opacity=".3" rx="2"/>
      <rect width="109" height="4" x="17" y="207" fill="#586C76" opacity=".7" rx="2"/>
      <rect width="109" height="4" x="17" y="200" fill="#586C76" opacity=".7" rx="2"/>
      <rect width="92" height="11" x="17" y="180" fill="#586C76" opacity=".7" rx="2"/>
      <rect width="109" height="4" x="17" y="214" fill="#586C76" opacity=".7" rx="2"/>
      <rect width="72" height="4" x="17" y="221" fill="#586C76" opacity=".7" rx="2"/>
      <rect width="126" height="131" x="8" y="38" fill="#586C76"/>
      <g fill="#FFF" transform="translate(25 104)">
        <rect width="92" height="4.263" y="35.526" opacity=".2" rx="2"/>
        <rect width="92" height="4.263" y="42.632" opacity=".2" rx="2"/>
        <rect width="60.862" height="4.263" x="15.569" y="49.737" opacity=".2" rx="2"/>
        <ellipse cx="45.292" cy="14.211" fill-opacity=".2" rx="14.154" ry="14.211"/>
      </g>
      <g transform="translate(8 38)">
        <polygon fill="#2D86CA" points="0 0 126 0 126 28" opacity=".2"/>
        <polygon fill="url(#img-telstra-screens-medium-a)" points="0 0 126 0 126 18.2"/>
      </g>
      <rect width="69" height="13" x="37" y="65" fill="#E3E6E8" opacity=".3" rx="2"/>
      <rect width="109" height="9" x="17" y="84" fill="#FFF" opacity=".3" rx="2"/>
      <g transform="translate(8 10)">
        <rect width="126" height="28" fill="#FFF"/>
        <rect width="72.202" height="9.8" x="26.899" y="11.2" fill="#586C76" opacity=".7" rx="2"/>
        <ellipse cx="13.449" cy="16.1" fill="#00AAF3" opacity=".5" rx="7.787" ry="7.7"/>
      </g>
    </g>
    <g transform="translate(-11 55)">
      <path stroke="#586C76" stroke-dasharray="6" stroke-opacity=".5" stroke-width="3" d="M465.790216,359.48299 C406.870075,309.923541 350.780531,335.98692 328.26089,355.959677 C305.741249,375.932434 315.856732,403.426611 335.890625,403.426611 C356.359805,403.426611 366.790868,389.281219 352.820312,374.336767 C338.849757,359.392315 287.771,378.720852 296.924501,433.438329" transform="matrix(1 0 0 -1 0 764.438)"/>
      <path stroke="#586C76" stroke-dasharray="6" stroke-opacity=".5" stroke-width="3" d="M96.9884742,62.7177904 C103.839864,35.4130304 85.539954,15.3711926 49.2288683,17.7966318 C12.9177826,20.222071 17.4952066,65.5704257 37.5290996,65.5704257 C57.9982801,65.5704257 61.9955207,57.065022 49.9920769,39.6657881 C37.9886331,22.2665541 -22.1149577,53.0555708 19.0644452,95.4258521" transform="scale(1 -1) rotate(-73 -24.75 0)"/>
      <g transform="translate(422 335)">
        <path fill="#FFDC6A" fill-opacity=".8" d="M43.7076334,44.0425785 C53.5762723,44.0425785 66.5583462,38.4859569 66.5583462,28.4345654 C66.5583462,18.383174 58.5582337,10.2349113 48.6895949,10.2349113 C38.820956,10.2349113 33.1448599,24.89136 33.1448599,34.9427514 C33.1448599,39.2155662 35.8686388,44.0425785 43.7076334,44.0425785 Z" transform="rotate(-46 49.852 27.139)"/>
        <g transform="translate(25.2 33)">
          <mask id="img-telstra-screens-medium-d" fill="#fff">
            <use xlink:href="#img-telstra-screens-medium-c"/>
          </mask>
          <use fill="#FFC30D" xlink:href="#img-telstra-screens-medium-c"/>
          <ellipse cx="21.6" cy="18.333" fill="#FFD659" mask="url(#img-telstra-screens-medium-d)" rx="21.6" ry="18.333"/>
          <path fill="#555" d="M0,-11 L14.4,-11 C14.4,-11 26.8734375,3.91015625 26.8734375,23.8333333 C26.8734375,43.7565104 14.4,58.6666667 14.4,58.6666667 L0,58.6666667 C0,58.6666667 20.6367188,45.7545573 20.6367188,23.8333333 C20.6367188,1.91210937 0,-11 0,-11 Z" mask="url(#img-telstra-screens-medium-d)"/>
          <path fill="#555" d="M18,-11 L25.2,-11 C25.2,-11 37.6734375,3.91015625 37.6734375,23.8333333 C37.6734375,43.7565104 25.2,58.6666667 25.2,58.6666667 L18,58.6666667 C18,58.6666667 31.4367188,45.7545573 31.4367188,23.8333333 C31.4367188,1.91210937 18,-11 18,-11 Z" mask="url(#img-telstra-screens-medium-d)"/>
        </g>
        <path fill="#555" fill-rule="nonzero" d="M34.5551094 41.9605179C33.3332105 39.5248755 31.6721644 37.0955703 29.5044221 34.8301254 25.3828603 30.5228002 19.9308884 27.3291899 13.0018271 25.7129324 12.0328019 25.4868997 11.0673476 26.1037615 10.8454246 27.0907316 10.6235016 28.0777018 11.2291476 29.0610349 12.1981729 29.2870676 18.4393298 30.742866 23.2794667 33.5780807 26.9262965 37.3892773 28.8291757 39.3779213 30.2846459 41.5065686 31.349354 43.6288787 31.9775033 44.8809847 32.330538 45.8309797 32.4662828 46.3262635 32.7335709 47.3015006 33.7264623 47.8713942 34.6839678 47.5991564 35.6414734 47.3269185 36.2010052 46.3156403 35.9337172 45.3404032 35.7363366 44.620233 35.2989244 43.4431834 34.5551094 41.9605179zM24.5007868 41.1375188C18.9978072 37.9850512 12.2552485 36.8418188 4.43356795 38.8651119 3.47004487 39.1143537 2.88733183 40.1119585 3.13204194 41.0933246 3.37675205 42.0746907 4.35621858 42.6681947 5.31974166 42.418953 12.2007996 40.6389778 18.0048769 41.6230863 22.7359659 44.3333643 23.7970402 44.9412173 24.7121132 45.5898633 25.4763369 46.2334207 25.9186992 46.6059368 26.2020827 46.8815914 26.3217608 47.0133313 26.9969096 47.7565246 28.1357488 47.8015501 28.8654296 47.1138987 29.5951103 46.4262472 29.6393172 45.2663183 28.9641685 44.523125 28.1558148 43.6333017 26.6629378 42.3761408 24.5007868 41.1375188z"/>
        <ellipse cx="36" cy="58.667" fill="#4A4A4A" rx="3.6" ry="3.667"/>
        <ellipse cx="27.9" cy="61.417" fill="#4A4A4A" rx="2.7" ry="2.75"/>
        <g transform="translate(50.4 14.667)">
          <use fill="#FFDE7A" fill-opacity=".8" xlink:href="#img-telstra-screens-medium-e"/>
          <use fill="#FFCE3A" fill-opacity=".8" xlink:href="#img-telstra-screens-medium-f"/>
          <use fill="#FFC000" fill-opacity=".8" xlink:href="#img-telstra-screens-medium-g"/>
        </g>
      </g>
      <g transform="scale(-1 1) rotate(28 -836.893 -387.88)">
        <path fill="#FFDC6A" fill-opacity=".8" d="M33.5091856,34.0329016 C41.0751421,34.0329016 51.0280654,29.7391485 51.0280654,21.9721642 C51.0280654,14.2051799 44.8946459,7.90879506 37.3286894,7.90879506 C29.7627329,7.90879506 25.4110592,19.2342327 25.4110592,27.001217 C25.4110592,30.3029375 27.4992898,34.0329016 33.5091856,34.0329016 Z" transform="rotate(-46 38.22 20.97)"/>
        <g transform="translate(19.32 25.5)">
          <mask id="img-telstra-screens-medium-i" fill="#fff">
            <use xlink:href="#img-telstra-screens-medium-h"/>
          </mask>
          <use fill="#FFC30D" xlink:href="#img-telstra-screens-medium-h"/>
          <ellipse cx="16.56" cy="14.167" fill="#FFD659" mask="url(#img-telstra-screens-medium-i)" rx="16.56" ry="14.167"/>
          <path fill="#555" d="M0,-8.5 L11.04,-8.5 C11.04,-8.5 20.6029687,3.02148438 20.6029687,18.4166667 C20.6029687,33.811849 11.04,45.3333333 11.04,45.3333333 L0,45.3333333 C0,45.3333333 15.8214844,35.3557943 15.8214844,18.4166667 C15.8214844,1.47753906 0,-8.5 0,-8.5 Z" mask="url(#img-telstra-screens-medium-i)"/>
          <path fill="#555" d="M13.8,-8.5 L19.32,-8.5 C19.32,-8.5 28.8829687,3.02148438 28.8829687,18.4166667 C28.8829687,33.811849 19.32,45.3333333 19.32,45.3333333 L13.8,45.3333333 C13.8,45.3333333 24.1014844,35.3557943 24.1014844,18.4166667 C24.1014844,1.47753906 13.8,-8.5 13.8,-8.5 Z" mask="url(#img-telstra-screens-medium-i)"/>
        </g>
        <path fill="#555" fill-rule="nonzero" d="M26.4922505 32.4240366C25.5554614 30.5419492 24.2819927 28.6647589 22.6200569 26.9141878 19.4601929 23.5858001 15.2803478 21.1180103 9.96806746 19.8690841 9.2251481 19.6944225 8.48496646 20.1710884 8.3148255 20.9337472 8.14468454 21.6964059 8.60901318 22.4562542 9.35193254 22.6309159 14.1368195 23.755851 17.8475911 25.9466987 20.643494 28.8917143 22.102368 30.4283937 23.2182285 32.0732576 24.0345048 33.7132245 24.5160858 34.6807609 24.7867458 35.4148479 24.8908169 35.7975673 25.0957377 36.5511596 25.8569544 36.9915319 26.591042 36.7811663 27.3251296 36.5708007 27.754104 35.7893584 27.5491831 35.0357661 27.397858 34.4792709 27.0625087 33.5697327 26.4922505 32.4240366zM18.7839365 31.7880827C14.5649855 29.352085 9.39569052 28.4686782 3.39906876 30.032132 2.66036774 30.2247279 2.21362107 30.9956043 2.40123215 31.7539327 2.58884324 32.512261 3.33976758 32.9708777 4.0784686 32.7782818 9.35394638 31.4028465 13.8037389 32.1632939 17.4309072 34.2575997 18.2443975 34.7273043 18.9459535 35.2285307 19.5318583 35.7258251 19.8710027 36.0136785 20.0882634 36.2266842 20.1800166 36.3284833 20.6976307 36.902769 21.5707408 36.9375615 22.1301627 36.4061944 22.6895846 35.8748274 22.7234765 34.9785187 22.2058625 34.4042329 21.5861247 33.7166422 20.4415857 32.7451997 18.7839365 31.7880827z"/>
        <ellipse cx="27.6" cy="45.333" fill="#4A4A4A" rx="2.76" ry="2.833"/>
        <ellipse cx="21.39" cy="47.458" fill="#4A4A4A" rx="2.07" ry="2.125"/>
        <g transform="translate(38.64 11.333)">
          <use fill="#FFDE7A" fill-opacity=".8" xlink:href="#img-telstra-screens-medium-j"/>
          <use fill="#FFCE3A" fill-opacity=".8" xlink:href="#img-telstra-screens-medium-k"/>
          <use fill="#FFC000" fill-opacity=".8" xlink:href="#img-telstra-screens-medium-l"/>
        </g>
      </g>
      <g transform="scale(-1 1) rotate(-8 370.556 934.658)">
        <path fill="#FFDC6A" fill-opacity=".8" d="M33.0235452,33.3655898 C40.4798502,33.3655898 50.2885283,29.1560279 50.2885283,21.5413374 C50.2885283,13.9266469 44.2439988,7.75372064 36.7876939,7.75372064 C29.331389,7.75372064 25.042783,18.8570909 25.042783,26.4717814 C25.042783,29.7087623 27.1007493,33.3655898 33.0235452,33.3655898 Z" transform="rotate(-46 37.666 20.56)"/>
        <g transform="translate(19.04 25)">
          <mask id="img-telstra-screens-medium-n" fill="#fff">
            <use xlink:href="#img-telstra-screens-medium-m"/>
          </mask>
          <use fill="#FFC30D" xlink:href="#img-telstra-screens-medium-m"/>
          <ellipse cx="16.32" cy="13.889" fill="#FFD659" mask="url(#img-telstra-screens-medium-n)" rx="16.32" ry="13.889"/>
          <path fill="#555" d="M0,-8.33333333 L10.88,-8.33333333 C10.88,-8.33333333 20.304375,2.96223958 20.304375,18.0555556 C20.304375,33.1488715 10.88,44.4444444 10.88,44.4444444 L0,44.4444444 C0,44.4444444 15.5921875,34.6625434 15.5921875,18.0555556 C15.5921875,1.44856771 0,-8.33333333 0,-8.33333333 Z" mask="url(#img-telstra-screens-medium-n)"/>
          <path fill="#555" d="M13.6,-8.33333333 L19.04,-8.33333333 C19.04,-8.33333333 28.464375,2.96223958 28.464375,18.0555556 C28.464375,33.1488715 19.04,44.4444444 19.04,44.4444444 L13.6,44.4444444 C13.6,44.4444444 23.7521875,34.6625434 23.7521875,18.0555556 C23.7521875,1.44856771 13.6,-8.33333333 13.6,-8.33333333 Z" mask="url(#img-telstra-screens-medium-n)"/>
        </g>
        <path fill="#555" fill-rule="nonzero" d="M26.1083049 31.7882711C25.1850924 29.9430875 23.9300798 28.1027048 22.29223 26.3864586 19.1781611 23.1233335 15.0588935 20.7039317 9.82360272 19.4794943 9.0914503 19.3082574 8.36199593 19.7755769 8.19432078 20.5232815 8.02664563 21.2709862 8.48424487 22.0159355 9.21639728 22.1871724 13.9319381 23.29005 17.5889304 25.4379399 20.3443129 28.3252101 21.7820438 29.8317586 22.8817324 31.4443702 23.6861786 33.0521809 24.1607802 34.000746 24.4275176 34.7204392 24.5300804 35.0956542 24.7320313 35.8344702 25.4822159 36.2662077 26.2056646 36.0599669 26.9291132 35.8537262 27.3518706 35.0876063 27.1499196 34.3487903 27.0007876 33.8032068 26.6702984 32.9115026 26.1083049 31.7882711zM18.5117056 31.164787C14.3538987 28.776554 9.25952109 27.9104688 3.3498069 29.4432666 2.62181168 29.6320861 2.1815396 30.3878474 2.36643169 31.1313065 2.55132377 31.8747657 3.29136515 32.3243899 4.01936036 32.1355704 9.21838194 30.7871044 13.6036848 31.5326411 17.1782853 33.5858821 17.979986 34.0463767 18.6713744 34.5377752 19.2487879 35.0253187 19.5830172 35.3075279 19.7971291 35.5163571 19.8875526 35.6161601 20.397665 36.1791853 21.2581213 36.2132956 21.8094357 35.6923475 22.36075 35.1713994 22.3941508 34.2926654 21.8840384 33.7296401 21.2732823 33.0555316 20.1453308 32.1031369 18.5117056 31.164787z"/>
        <ellipse cx="27.2" cy="44.444" fill="#4A4A4A" rx="2.72" ry="2.778"/>
        <ellipse cx="21.08" cy="46.528" fill="#4A4A4A" rx="2.04" ry="2.083"/>
        <g transform="translate(38.08 11.111)">
          <use fill="#FFDE7A" fill-opacity=".8" xlink:href="#img-telstra-screens-medium-o"/>
          <use fill="#FFCE3A" fill-opacity=".8" xlink:href="#img-telstra-screens-medium-p"/>
          <use fill="#FFC000" fill-opacity=".8" xlink:href="#img-telstra-screens-medium-q"/>
        </g>
      </g>
      <g transform="scale(-1 1) rotate(-3 3595.18 2110.806)">
        <path fill="#6D4886" d="M70.6395969,62.8091953 C66.5107918,50.3405962 48.9853305,49.6954381 49.9320633,45.0975819 C56.4796575,13.2988565 27.1404725,8.90743198 22.5745873,9.92771122 C17.0619072,11.1595585 21.6319731,30.2589828 26.6515287,50.7477557 C32.2866253,60.7209934 48.1812332,62.0592653 59.2957947,62.1149695 C67.0940461,62.154053 72.3420121,67.9503274 70.6395969,62.8091953 Z" transform="rotate(2 45.512 37.366)"/>
        <g fill-rule="nonzero">
          <use fill="#FA5296" fill-rule="evenodd" xlink:href="#img-telstra-screens-medium-r"/>
          <use fill="#000" filter="url(#img-telstra-screens-medium-s)" xlink:href="#img-telstra-screens-medium-r"/>
        </g>
        <g transform="matrix(-1 0 0 1 52.235 0)">
          <use fill="#FA5296" xlink:href="#img-telstra-screens-medium-t"/>
          <use fill="#000" filter="url(#img-telstra-screens-medium-u)" xlink:href="#img-telstra-screens-medium-t"/>
        </g>
        <use fill="#4A4A4A" xlink:href="#img-telstra-screens-medium-v"/>
        <use fill="#000" filter="url(#img-telstra-screens-medium-w)" xlink:href="#img-telstra-screens-medium-v"/>
        <use fill="#4A4A4A" xlink:href="#img-telstra-screens-medium-x"/>
        <use fill="#000" filter="url(#img-telstra-screens-medium-y)" xlink:href="#img-telstra-screens-medium-x"/>
        <path fill="#555" fill-rule="nonzero" d="M22.5132394 33.0791743C21.6402417 31.3382683 20.4534909 29.601892 18.9047259 27.9826368 15.9600354 24.9039221 12.0648202 22.6212491 7.11428388 21.4660088 6.42195421 21.3044491 5.73217583 21.7453587 5.57362076 22.450808 5.41506568 23.1562574 5.84777549 23.859107 6.54010516 24.0206667 10.9991614 25.0612169 14.457245 27.0877221 17.0627587 29.8118227 18.4222894 31.233231 19.4621645 32.7547084 20.2228558 34.2716561 20.6716432 35.1666146 20.9238724 35.8456354 21.0208566 36.1996457 21.2118232 36.8967087 21.9212043 37.3040472 22.6053036 37.1094618 23.2894029 36.9148764 23.6891659 36.1920526 23.4981993 35.4949897 23.3571788 34.980239 23.0446654 34.1389281 22.5132394 33.0791743zM15.3298292 32.4909254C11.3981711 30.2376596 6.5808834 29.4205199.992606436 30.866694.30420785 31.0448427-.112117242 31.7578933.0627183156 32.459337.237553873 33.1607807.937343411 33.5849952 1.625742 33.4068465 6.54198187 32.1345869 10.6887622 32.8379908 14.0689355 34.775196 14.8270306 35.2096666 15.4808135 35.6732944 16.0268206 36.1332852 16.3428708 36.3995457 16.5453369 36.5965733 16.6308421 36.690736 17.1132088 37.2219428 17.9268638 37.2541253 18.4481914 36.7626178 18.969519 36.2711103 19.0011031 35.4420366 18.5187364 34.9108298 17.9412001 34.2748175 16.8745994 33.3762459 15.3298292 32.4909254z"/>
        <g transform="rotate(2 59.253 31.777)">
          <use fill="#9366B3" xlink:href="#img-telstra-screens-medium-z"/>
          <use fill="#000" filter="url(#img-telstra-screens-medium-A)" xlink:href="#img-telstra-screens-medium-z"/>
        </g>
      </g>
      <g transform="matrix(-1 0 0 1 67.969 113)">
        <path fill="#0086A5" d="M18.7657766,28.1620592 C18.7657766,28.1620592 26.278065,22.0591763 30.2048324,12.8766 C34.1315998,3.69402378 33.1314317,0.900140854 30.740583,0.159490565 C28.3497343,-0.581159724 25.4735708,1.01189182 21.5468034,10.1944681 C17.620036,19.3770443 18.7657766,28.1620592 18.7657766,28.1620592"/>
        <g fill-rule="nonzero">
          <use fill="#8C6CA3" fill-rule="evenodd" xlink:href="#img-telstra-screens-medium-B"/>
          <use fill="#000" filter="url(#img-telstra-screens-medium-C)" xlink:href="#img-telstra-screens-medium-B"/>
        </g>
        <g transform="matrix(-1 0 0 1 25.941 0)">
          <use fill="#8C6CA3" xlink:href="#img-telstra-screens-medium-D"/>
          <use fill="#000" filter="url(#img-telstra-screens-medium-E)" xlink:href="#img-telstra-screens-medium-D"/>
        </g>
        <use fill="#FFF" xlink:href="#img-telstra-screens-medium-F"/>
        <use fill="#000" filter="url(#img-telstra-screens-medium-G)" xlink:href="#img-telstra-screens-medium-F"/>
        <use fill="#FFF" xlink:href="#img-telstra-screens-medium-H"/>
        <use fill="#000" filter="url(#img-telstra-screens-medium-I)" xlink:href="#img-telstra-screens-medium-H"/>
        <path fill="#555" fill-rule="nonzero" d="M11.3181842 14.8803215C10.9179633 14.0859893 10.3739041 13.2937238 9.66388156 12.5548978 8.31390478 11.1501567 6.52816532 10.1086296 4.25861985 9.58152215 3.94122521 9.50780647 3.6250002 9.7089826 3.55231152 10.0308616 3.47962284 10.3527406 3.67799621 10.6734335 3.99539085 10.7471492 6.03962006 11.2219264 7.62495901 12.1465705 8.81944205 13.38951 9.44271128 14.0380633 9.91943615 14.7322757 10.2681708 15.4244214 10.4739148 15.8327687 10.5895479 16.1425891 10.6340098 16.3041152 10.7215573 16.6221677 11.0467691 16.8080262 11.3603905 16.7192417 11.674012 16.6304572 11.8572811 16.3006506 11.7697336 15.9825981 11.7050835 15.7477301 11.5618135 15.3638608 11.3181842 14.8803215zM8.02499032 14.6119181C6.22254379 13.5838088 4.0140854 13.2109683 1.45217132 13.8708216 1.13657887 13.9521065.945716976 14.2774537 1.02586935 14.5975051 1.10602173 14.9175565 1.4268363 15.111115 1.74242875 15.0298302 3.99625122 14.4493297 5.8973193 14.7702754 7.4469407 15.6541741 7.7944851 15.8524122 8.0942082 16.0639541 8.3445221 16.2738365 8.48941352 16.3953246 8.58223296 16.4852234 8.62143236 16.5281875 8.84257064 16.770564 9.21558619 16.7852481 9.45458589 16.5609854 9.69358559 16.3367227 9.70806512 15.9584369 9.48692684 15.7160605 9.2221586 15.4258638 8.73318151 15.0158679 8.02499032 14.6119181z"/>
        <path fill="#00A5C4" d="M39.2977915,19.0953774 C46.3662623,11.3950202 46.4294134,8.47482222 44.4244871,7.14159709 C42.4195608,5.80837196 39.1057818,6.56698494 32.037311,14.2673421 C24.9688401,21.9676993 22.8689526,30.6240899 22.8689526,30.6240899 C22.8689526,30.6240899 32.2293207,26.7957346 39.2977915,19.0953774 Z" transform="rotate(20 34.214 18.617)"/>
        <path fill="#00A5C4" d="M19.5036218,25.9020212 C19.5036218,25.9020212 28.8639898,22.073666 35.9324606,14.3733088 C43.0009314,6.67295161 43.0640826,3.7527536 41.0591562,2.41952847 C39.0542299,1.08630334 35.7404509,1.84491632 28.6719801,9.54527352 C21.6035093,17.2456307 19.5036218,25.9020212 19.5036218,25.9020212"/>
      </g>
      <g transform="rotate(-6 3165.05 -3291.253)">
        <path fill="#C33770" d="M40.1155235,13.6976319 C44.7446154,2.7365356 36.1124452,-1.66721409 31.5592263,1.54883219 C29.0764424,3.30248116 27.4290346,2.8951896 22.7999428,13.8562859 C18.170851,24.8173822 22.1221413,31.4566053 22.1221413,31.4566053 C22.1221413,31.4566053 35.4864317,24.6587282 40.1155235,13.6976319 Z"/>
        <path fill="#00A5C4" fill-rule="nonzero" d="M22.0971218,35.7284074 C24.4089414,37.713536 24.8926545,38.1955516 29.0867622,39.8084667 C31.8290946,40.863077 33.3247925,39.7180808 33.8890788,38.3944025 C34.9406435,35.9276872 33.6464812,34.4342987 32.5764853,33.6937765 C28.7467378,31.0432867 30.5161388,31.9989869 26.5808295,28.7683721 C24.0480645,26.6891485 24.0667033,28.2785025 22.1146092,26.0497462 C21.4343031,25.2730232 20.8426667,24.5543299 20.3437952,23.9131707 C20.0519719,23.5381139 19.8605727,23.279103 19.7735648,23.1556411 C18.9786627,22.0276973 17.4341234,21.7679043 16.3237396,22.5753772 C15.2133558,23.38285 14.9576073,24.9518153 15.7525093,26.0797591 C16.2381595,26.7688831 19.3940376,33.407305 22.0971218,35.7284074 Z"/>
        <path fill="#313F45" fill-opacity=".1" fill-rule="nonzero" d="M22.0971218,35.7284074 C24.4089414,37.713536 24.8926545,38.1955516 29.0867622,39.8084667 C31.8290946,40.863077 33.3247925,39.7180808 33.8890788,38.3944025 C29.8094981,39.2950279 25.5700307,36.721115 23.1960537,34.5439821 C20.8220767,32.3668492 19.536046,28.4085822 19.579824,27.0596713 C19.623602,25.7107603 20.0040811,25.1551218 20.3437952,23.9131707 C20.1204644,23.664377 19.8605727,23.279103 19.7735648,23.1556411 C18.9786627,22.0276973 17.4341234,21.7679043 16.3237396,22.5753772 C15.2133558,23.38285 14.9576073,24.9518153 15.7525093,26.0797591 C16.2381595,26.7688831 19.3940376,33.407305 22.0971218,35.7284074 Z"/>
        <path fill="#313F45" fill-opacity=".1" fill-rule="nonzero" d="M22.0971218,35.7284074 C24.4089414,37.713536 24.8926545,38.1955516 29.0867622,39.8084667 C31.8290946,40.863077 34.5016518,39.7042326 34.1761074,35.8641605 C32.7782664,40.0022712 27.0422198,35.9552227 24.6682428,33.7780898 C22.2942658,31.6009569 20.7812446,28.4773044 20.4306943,27.2775206 C20.080144,26.0777369 20.1714571,25.6033339 20.5388229,24.1886166 C20.2213026,23.8211752 19.8605727,23.279103 19.7735648,23.1556411 C18.9786627,22.0276973 17.4341234,21.7679043 16.3237396,22.5753772 C15.2133558,23.38285 14.9576073,24.9518153 15.7525093,26.0797591 C16.2381595,26.7688831 19.3940376,33.407305 22.0971218,35.7284074 Z"/>
        <ellipse cx="15.29" cy="20.679" fill="#00A5C4" rx="5.56" ry="5.71" transform="matrix(-1 0 0 1 30.58 0)"/>
        <path fill="#313F45" fill-opacity=".2" d="M15.2904509,26.3882517 C18.3612447,26.3882517 20.8506149,23.8319542 20.8506149,20.6786014 C19.2973825,23.0165447 14.5432863,27.0299859 9.73028695,20.6786014 C9.73028695,23.8319542 12.2196572,26.3882517 15.2904509,26.3882517 Z" transform="matrix(-1 0 0 1 30.58 0)"/>
        <use fill="#4A4A4A" xlink:href="#img-telstra-screens-medium-J"/>
        <use fill="#000" filter="url(#img-telstra-screens-medium-K)" xlink:href="#img-telstra-screens-medium-J"/>
        <use fill="#4A4A4A" xlink:href="#img-telstra-screens-medium-L"/>
        <use fill="#000" filter="url(#img-telstra-screens-medium-M)" xlink:href="#img-telstra-screens-medium-L"/>
        <path fill="#555" fill-rule="nonzero" d="M13.3425052 15.6024048C12.8707025 14.654223 12.2293353 13.7085082 11.3923212 12.8265833 9.80089344 11.149766 7.69576442 9.90651157 5.02029797 9.2773117 4.64613552 9.18931846 4.27335189 9.42945923 4.18766243 9.81368113 4.10197297 10.197903 4.33582653 10.580709 4.70998898 10.6687023 7.11984009 11.2354364 8.98872583 12.3391694 10.3968489 13.8228467 11.1315933 14.5970146 11.6935831 15.4256849 12.1046909 16.2518882 12.3472334 16.739326 12.4835481 17.1091537 12.5359622 17.3019649 12.6391682 17.6816192 13.0225459 17.9034755 13.3922603 17.7974948 13.7619747 17.6915142 13.9780226 17.2978293 13.8748166 16.918175 13.7986036 16.6378168 13.6297089 16.1795981 13.3425052 15.6024048zM9.460305 15.2820159C7.33548076 14.0547781 4.73202717 13.6097242 1.71190033 14.3973808 1.33986239 14.4944092 1.11486378 14.8827711 1.20935186 15.2648114 1.30383994 15.6468516 1.682034 15.8778994 2.05407194 15.780871 4.71100323 15.0879367 6.95208804 15.4710446 8.77886794 16.5261405 9.18857262 16.7627742 9.54190288 17.0152884 9.83698683 17.2658217 10.0077929 17.4108401 10.1172136 17.5181509 10.163424 17.5694364 10.4241142 17.8587574 10.8638456 17.8762856 11.1455918 17.6085868 11.4273379 17.3408879 11.4444072 16.8893342 11.1837171 16.6000132 10.8715936 16.2536101 10.2951602 15.7642044 9.460305 15.2820159z"/>
        <g transform="translate(23.138 4.32)">
          <mask id="img-telstra-screens-medium-O" fill="#fff">
            <use xlink:href="#img-telstra-screens-medium-N"/>
          </mask>
          <use fill="#E63C81" xlink:href="#img-telstra-screens-medium-N"/>
          <path fill="#FA5296" d="M7.22398472,18.2530875 C11.6095115,18.0156624 20.199765,15.8123401 24.1023521,10.4972493 C28.1985164,4.91851794 25.1429512,-0.666335054 20.0410933,-1.1560791 C9.8498124,-2.13437353 4.30992126,4.02293074 2.19906027,11.1282802 C0.0881992835,18.2336296 -0.0503786194,18.6469093 7.22398472,18.2530875 Z" mask="url(#img-telstra-screens-medium-O)" transform="rotate(-5 13.473 8.549)"/>
          <path fill="#9366B3" d="M12.3193154,14.2729529 C17.717738,15.1388955 21.174282,12.6336195 21.0122355,10.2387157 C20.850189,7.84381182 17.1459851,5.51369113 12.3193154,6.20447844 C7.49264572,6.89526576 3.62639533,8.01066797 3.62639533,10.2387157 C3.62639533,12.4667634 6.92089285,13.4070103 12.3193154,14.2729529 Z" transform="rotate(-33 12.322 10.265)"/>
          <path fill="#FFF" d="M11.3481066,12.8536957 C14.3442393,13.4130309 16.2626265,11.794807 16.1726904,10.2478753 C16.0827544,8.70094361 14.0269156,7.19585708 11.3481066,7.64205486 C8.66929758,8.08825264 6.52352274,8.80872041 6.52352274,10.2478753 C6.52352274,11.6870302 8.35197387,12.2943605 11.3481066,12.8536957 Z" opacity=".4" transform="rotate(-33 11.35 10.265)"/>
        </g>
      </g>
    </g>
  </g>
</svg>
