<svg xmlns="http://www.w3.org/2000/svg" xmlns:xlink="http://www.w3.org/1999/xlink" width="250" height="258"><defs><path id="a" d="M7.17 24.938c3.695 0 6.69-2.53 6.69-8.728S7.17.623 7.17.623.477 10.012.477 16.21s2.996 8.728 6.691 8.728z"/><path id="c" d="M6.702 12.613c2.24.874 2.484-3.883 4.079-2.83 1.53 1.01 3.003 5.864 2.907 2.83C13.402 3.593 8.352-.704 7.169.623 5.986 1.951.24 7.29.24 13.487c0 6.198 2.967-2.238 6.463-.874z"/><path id="e" d="M3.558 23.975h8.006v5.328H3.558z"/><filter id="f" width="137.5%" height="156.3%" x="-18.7%" y="-28.2%" filterUnits="objectBoundingBox"><feOffset dx="-3" in="SourceAlpha" result="shadowOffsetInner1"/><feComposite in="shadowOffsetInner1" in2="SourceAlpha" k2="-1" k3="1" operator="arithmetic" result="shadowInnerInner1"/><feColorMatrix in="shadowInnerInner1" values="0 0 0 0 1 0 0 0 0 0.62745098 0 0 0 0 0.0823529412 0 0 0 1 0"/></filter><path id="g" d="M3.558 29.303h8.006v168.99H3.558z"/><filter id="h" width="137.5%" height="101.8%" x="-18.7%" y="-.9%" filterUnits="objectBoundingBox"><feOffset dx="-3" in="SourceAlpha" result="shadowOffsetInner1"/><feComposite in="shadowOffsetInner1" in2="SourceAlpha" k2="-1" k3="1" operator="arithmetic" result="shadowInnerInner1"/><feColorMatrix in="shadowInnerInner1" values="0 0 0 0 0.609470115 0 0 0 0 0.301785571 0 0 0 0 0.672539328 0 0 0 1 0"/></filter><path id="i" d="M10.306 29.64c4.961 0 8.244-7.82 8.244-14.02C18.55 9.422 9.567.03 9.567.03S.585 9.422.585 15.62c0 6.2 4.76 14.02 9.721 14.02z"/><path id="k" d="M5.337 27.378h9.461v5.328H5.337z"/><filter id="l" width="131.7%" height="156.3%" x="-15.9%" y="-28.2%" filterUnits="objectBoundingBox"><feOffset dx="-3" in="SourceAlpha" result="shadowOffsetInner1"/><feComposite in="shadowOffsetInner1" in2="SourceAlpha" k2="-1" k3="1" operator="arithmetic" result="shadowInnerInner1"/><feColorMatrix in="shadowInnerInner1" values="0 0 0 0 1 0 0 0 0 0.62745098 0 0 0 0 0.0823529412 0 0 0 1 0"/></filter><path id="m" d="M5.337 32.706h9.461v168.99H5.337z"/><filter id="n" width="131.7%" height="101.8%" x="-15.9%" y="-.9%" filterUnits="objectBoundingBox"><feOffset dx="-3" in="SourceAlpha" result="shadowOffsetInner1"/><feComposite in="shadowOffsetInner1" in2="SourceAlpha" k2="-1" k3="1" operator="arithmetic" result="shadowInnerInner1"/><feColorMatrix in="shadowInnerInner1" values="0 0 0 0 0.961710989 0 0 0 0 0.458275108 0 0 0 0 0.138542295 0 0 0 1 0"/></filter><path id="o" d="M2.135 28.71h14.01v5.328H2.135z"/><filter id="p" width="121.4%" height="156.3%" x="-10.7%" y="-28.2%" filterUnits="objectBoundingBox"><feOffset dx="-3" in="SourceAlpha" result="shadowOffsetInner1"/><feComposite in="shadowOffsetInner1" in2="SourceAlpha" k2="-1" k3="1" operator="arithmetic" result="shadowInnerInner1"/><feColorMatrix in="shadowInnerInner1" values="0 0 0 0 1 0 0 0 0 0.62745098 0 0 0 0 0.0823529412 0 0 0 1 0"/></filter><path id="q" d="M2.135 34.038h14.01v168.99H2.135z"/><filter id="r" width="135.7%" height="103%" x="-17.8%" y="-1.5%" filterUnits="objectBoundingBox"><feOffset dx="-5" in="SourceAlpha" result="shadowOffsetInner1"/><feComposite in="shadowOffsetInner1" in2="SourceAlpha" k2="-1" k3="1" operator="arithmetic" result="shadowInnerInner1"/><feColorMatrix in="shadowInnerInner1" values="0 0 0 0 0 0 0 0 0 0 0 0 0 0 0 0 0 0 0.2 0"/></filter><path id="s" d="M17.44 47.7c9.296 0 16.832-4.9 16.832-16.902S17.44.615 17.44.615.61 18.795.61 30.798c0 12.002 7.535 16.903 16.83 16.903z"/><path id="u" d="M16.265 23.834c5.634 1.692 6.25-7.521 10.26-5.482 3.85 1.958 7.553 11.356 7.312 5.482C33.118 6.364 20.415-1.956 17.44.614 14.465 3.187.01 13.525.01 25.527c0 12.002 7.463-4.334 16.255-1.692z"/><path id="w" d="M7.823 45.286h19.236v7.244H7.823z"/><filter id="x" width="136.4%" height="196.6%" x="-18.2%" y="-48.3%" filterUnits="objectBoundingBox"><feOffset dx="-7" in="SourceAlpha" result="shadowOffsetInner1"/><feComposite in="shadowOffsetInner1" in2="SourceAlpha" k2="-1" k3="1" operator="arithmetic" result="shadowInnerInner1"/><feColorMatrix in="shadowInnerInner1" values="0 0 0 0 1 0 0 0 0 0.62745098 0 0 0 0 0.0823529412 0 0 0 1 0"/></filter><path id="y" d="M7.823 52.53h19.236v124.356H7.823z"/><filter id="z" width="136.4%" height="105.6%" x="-18.2%" y="-2.8%" filterUnits="objectBoundingBox"><feOffset dx="-7" in="SourceAlpha" result="shadowOffsetInner1"/><feComposite in="shadowOffsetInner1" in2="SourceAlpha" k2="-1" k3="1" operator="arithmetic" result="shadowInnerInner1"/><feColorMatrix in="shadowInnerInner1" values="0 0 0 0 0.901387117 0 0 0 0 0.183592184 0 0 0 0 0.354019717 0 0 0 1 0"/></filter><path id="A" d="M1.334 27.971H9.34v151.842H1.334z"/><filter id="B" width="137.5%" height="102%" x="-18.7%" y="-1%" filterUnits="objectBoundingBox"><feOffset dx="-3" in="SourceAlpha" result="shadowOffsetInner1"/><feComposite in="shadowOffsetInner1" in2="SourceAlpha" k2="-1" k3="1" operator="arithmetic" result="shadowInnerInner1"/><feColorMatrix in="shadowInnerInner1" values="0 0 0 0 0 0 0 0 0 0 0 0 0 0 0 0 0 0 0.2 0"/></filter><path id="C" d="M5.438 14.678a1 1 0 1 0 .402-.012V0h1.585c0 9.472 3.352 11.988 3.352 11.988v11.987s-3.92 0-3.92 3.996h-2.84C4.016 23.975 0 23.975 0 23.975V11.988S3.975 9.372 3.975 0h1.463v14.678z"/><path id="E" d="M98.582.27v98.412h-.055c.037.199.055.399.055.6 0 6.96-22.068 12.601-49.29 12.601C22.067 111.883 0 106.242 0 99.282c0-.201.018-.401.055-.6H0V.27c0 3.977 22.068 7.201 49.291 7.201 27.223 0 49.291-3.224 49.291-7.2z"/></defs><g fill="none" fill-rule="evenodd" transform="translate(38 -1)"><ellipse cx="88.095" cy="147.522" fill="#0092AD" rx="49.291" ry="7.201"/><g transform="rotate(7 60.37 992.578)"><g transform="translate(.336)"><mask id="b" fill="#fff"><use xlink:href="#a"/></mask><use fill="#3F3F3F" xlink:href="#a"/><ellipse cx="3.107" cy="9.04" fill="#4A4A4A" mask="url(#b)" rx="5.974" ry="12.157"/><mask id="d" fill="#fff"><use xlink:href="#c"/></mask><use fill="#C40050" xlink:href="#c"/><path fill="#FB0066" d="M2.674 11.45c2.499-1.716 5.183 1.193 6.972-3.495 1.789-4.688-.752-9.321-5.24-9.321C-.08-1.366.364 5.843.069 8.857c-.294 3.014.108 4.31 2.606 2.594z" mask="url(#d)" transform="rotate(-10 5.104 5.426)"/></g><use fill="#FFB300" xlink:href="#e"/><use fill="#000" filter="url(#f)" xlink:href="#e"/><use fill="#BF6CD0" xlink:href="#g"/><use fill="#000" filter="url(#h)" xlink:href="#g"/></g><g transform="rotate(-20 116.55 17.695)"><mask id="j" fill="#fff"><use xlink:href="#i"/></mask><use fill="#3F3F3F" xlink:href="#i"/><ellipse cx="3.803" cy="8.448" fill="#4A4A4A" mask="url(#j)" rx="7.313" ry="12.157"/><use fill="#FFB300" xlink:href="#k"/><use fill="#000" filter="url(#l)" xlink:href="#k"/><g><use fill="#FF9451" xlink:href="#m"/><use fill="#000" filter="url(#n)" xlink:href="#m"/></g></g><g transform="rotate(2 -810.307 2565.34)"><path fill="#4A4A4A" d="M2.1.74c.931-.814 13.241-.916 14.067 0 .825.914 3.297 15.266 0 27.97H2.1C-1.145 11.557 1.17 1.553 2.1.74z"/><use fill="#FFB300" xlink:href="#o"/><use fill="#000" filter="url(#p)" xlink:href="#o"/><use fill="#90CC54" xlink:href="#q"/><use fill="#000" filter="url(#r)" xlink:href="#q"/></g><g transform="rotate(18 -46.94 462.991)"><mask id="t" fill="#fff"><use xlink:href="#s"/></mask><use fill="#3F3F3F" xlink:href="#s"/><ellipse cx="7.222" cy="16.914" fill="#4A4A4A" mask="url(#t)" rx="15.028" ry="23.543"/><mask id="v" fill="#fff"><use xlink:href="#u"/></mask><use fill="#0092AD" xlink:href="#u"/><path fill="#00C3DA" d="M6.134 21.582c6.284-3.325 13.036 2.308 17.536-6.77 4.5-9.077-1.89-18.05-13.178-18.05S.319 10.722-.422 16.559c-.74 5.837.272 8.348 6.556 5.023z" mask="url(#v)" transform="rotate(-10 12.246 9.914)"/><use fill="#FFB300" xlink:href="#w"/><use fill="#000" filter="url(#x)" xlink:href="#w"/><g><use fill="#F54C74" xlink:href="#y"/><use fill="#000" filter="url(#z)" xlink:href="#y"/></g></g><g transform="rotate(-8 98.81 -259.117)"><use fill="#4C8DD8" xlink:href="#A"/><use fill="#000" filter="url(#B)" xlink:href="#A"/><mask id="D" fill="#fff"><use xlink:href="#C"/></mask><use fill="#BBB" xlink:href="#C"/><path fill="#E9E9E9" mask="url(#D)" d="M-1.334-3.996h6.671v35.963h-6.671z"/></g><g transform="translate(38.804 146.71)"><mask id="F" fill="#fff"><use xlink:href="#E"/></mask><use fill="#00C3DA" xlink:href="#E"/><path fill="#23E0F5" d="M0 22.643c27.395 7.839 67.186 9.675 98.735 0v7.992C69.291 40.774 18.66 38.146 0 30.635v-7.992zm0 55.942c28.05 11.118 69.063 12.034 98.735 0v7.991C75.284 98.27 24.237 98.728 0 86.576v-7.991z" mask="url(#F)"/><path fill="#000" fill-opacity=".1" mask="url(#F)" d="M49.368-13.319h54.705v131.863H49.368z"/></g></g></svg>