<svg xmlns="http://www.w3.org/2000/svg" xmlns:xlink="http://www.w3.org/1999/xlink" width="691" height="330" viewBox="0 0 691 330">
  <defs>
    <linearGradient id="img-telstra-screens-a" x1="0%" y1="0%" y2="0%">
      <stop offset="0%" stop-color="#5BC5F2"/>
      <stop offset="45.924%" stop-color="#C69DC9"/>
      <stop offset="100%" stop-color="#8779B7"/>
    </linearGradient>
    <filter id="img-telstra-screens-b" width="110.9%" height="105.2%" x="-2.7%" y="-1.3%" filterUnits="objectBoundingBox">
      <feOffset dx="6" dy="6" in="SourceAlpha" result="shadowOffsetOuter1"/>
      <feColorMatrix in="shadowOffsetOuter1" result="shadowMatrixOuter1" values="0 0 0 0 0.196078431   0 0 0 0 0.247058824   0 0 0 0 0.274509804  0 0 0 0.1 0"/>
      <feMerge>
        <feMergeNode in="shadowMatrixOuter1"/>
        <feMergeNode in="SourceGraphic"/>
      </feMerge>
    </filter>
    <ellipse id="img-telstra-screens-c" cx="21.6" cy="22" rx="21.6" ry="22"/>
    <path id="img-telstra-screens-e" d="M14.2795898,37.4615885 C25.2148279,37.4615885 39.6,31.3044091 39.6,20.1666667 C39.6,9.02892421 30.735238,0 19.8,0 C8.86476195,0 2.57519531,16.2405128 2.57519531,27.3782552 C2.57519531,32.1128743 5.59335938,37.4615885 14.2795898,37.4615885 Z"/>
    <path id="img-telstra-screens-f" d="M12.7043441,36.4246942 C21.2103945,36.4246942 32.4,31.6352896 32.4,22.9717198 C32.4,14.3081499 25.5044837,7.28493883 16.9984333,7.28493883 C8.49238284,7.28493883 3.6,19.9177338 3.6,28.5813037 C3.6,32.2641599 5.94769976,36.4246942 12.7043441,36.4246942 Z"/>
    <path id="img-telstra-screens-g" d="M10.3980176,36.4246942 C16.7493022,36.4246942 25.1043395,32.848549 25.1043395,26.379648 C25.1043395,19.910747 19.9556061,14.6666667 13.6043215,14.6666667 C7.25303687,14.6666667 3.6,24.0993025 3.6,30.5682035 C3.6,33.3181129 5.35297683,36.4246942 10.3980176,36.4246942 Z"/>
    <ellipse id="img-telstra-screens-h" cx="16.32" cy="16.667" rx="16.32" ry="16.667"/>
    <path id="img-telstra-screens-j" d="M10.7890234,28.3799913 C19.0512033,28.3799913 29.92,23.7154615 29.92,15.2777778 C29.92,6.8400941 23.2221799,0 14.96,0 C6.69782014,0 1.94570312,12.3034188 1.94570312,20.7411024 C1.94570312,24.3279351 4.22609375,28.3799913 10.7890234,28.3799913 Z"/>
    <path id="img-telstra-screens-k" d="M9.59883777,27.5944653 C16.0256314,27.5944653 24.48,23.9661285 24.48,17.402818 C24.48,10.8395075 19.2700544,5.51889306 12.8432607,5.51889306 C6.41646704,5.51889306 2.72,15.0891923 2.72,21.6525028 C2.72,24.4425454 4.49381759,27.5944653 9.59883777,27.5944653 Z"/>
    <path id="img-telstra-screens-l" d="M7.85627996,27.5944653 C12.6550283,27.5944653 18.9677232,24.8852644 18.9677232,19.9845818 C18.9677232,15.0838993 15.077569,11.1111111 10.2788207,11.1111111 C5.4800723,11.1111111 2.72,18.2570474 2.72,23.1577299 C2.72,25.2409946 4.04447138,27.5944653 7.85627996,27.5944653 Z"/>
    <path id="img-telstra-screens-m" d="M38.5887029,69.3314075 C46.6154402,75.8698801 54.9532377,71.6354201 55.3111263,64.6770903 C55.669015,57.7187605 50.9525072,55.6093578 46.0372332,53.3341546 C41.1219592,51.0589513 36.3911268,49.5153256 35.4680422,48.3381276 C34.9280684,47.6495058 34.573914,47.1739498 34.4129191,46.9472679 C32.9420761,44.8763106 30.0841453,44.3993185 28.029552,45.8818763 C25.9749588,47.3644341 25.5017357,50.2451274 26.9725788,52.3160847 C27.8711992,53.5813486 33.4879321,65.176388 38.5887029,69.3314075 Z"/>
    <filter id="img-telstra-screens-n" width="106.8%" height="107.3%" x="-3.4%" y="-3.6%" filterUnits="objectBoundingBox">
      <feOffset dx="-1" dy="-2" in="SourceAlpha" result="shadowOffsetInner1"/>
      <feComposite in="shadowOffsetInner1" in2="SourceAlpha" k2="-1" k3="1" operator="arithmetic" result="shadowInnerInner1"/>
      <feColorMatrix in="shadowInnerInner1" values="0 0 0 0 0   0 0 0 0 0   0 0 0 0 0  0 0 0 0.2 0"/>
    </filter>
    <ellipse id="img-telstra-screens-o" cx="26.118" cy="42.399" rx="10.288" ry="10.483"/>
    <filter id="img-telstra-screens-p" width="109.7%" height="109.5%" x="-4.9%" y="-4.8%" filterUnits="objectBoundingBox">
      <feOffset dy="-2" in="SourceAlpha" result="shadowOffsetInner1"/>
      <feComposite in="shadowOffsetInner1" in2="SourceAlpha" k2="-1" k3="1" operator="arithmetic" result="shadowInnerInner1"/>
      <feColorMatrix in="shadowInnerInner1" values="0 0 0 0 0   0 0 0 0 0   0 0 0 0 0  0 0 0 0.2 0"/>
    </filter>
    <ellipse id="img-telstra-screens-q" cx="23.546" cy="45.02" rx="2.572" ry="2.621"/>
    <filter id="img-telstra-screens-r" width="109.7%" height="109.5%" x="-4.9%" y="-4.8%" filterUnits="objectBoundingBox">
      <feOffset dy="-.5" in="SourceAlpha" result="shadowOffsetInner1"/>
      <feComposite in="shadowOffsetInner1" in2="SourceAlpha" k2="-1" k3="1" operator="arithmetic" result="shadowInnerInner1"/>
      <feColorMatrix in="shadowInnerInner1" values="0 0 0 0 0.2   0 0 0 0 0.2   0 0 0 0 0.2  0 0 0 1 0"/>
    </filter>
    <ellipse id="img-telstra-screens-s" cx="17.758" cy="46.986" rx="1.929" ry="1.966"/>
    <filter id="img-telstra-screens-t" width="113%" height="112.7%" x="-6.5%" y="-6.4%" filterUnits="objectBoundingBox">
      <feOffset dy="-.5" in="SourceAlpha" result="shadowOffsetInner1"/>
      <feComposite in="shadowOffsetInner1" in2="SourceAlpha" k2="-1" k3="1" operator="arithmetic" result="shadowInnerInner1"/>
      <feColorMatrix in="shadowInnerInner1" values="0 0 0 0 0.2   0 0 0 0 0.2   0 0 0 0 0.2  0 0 0 1 0"/>
    </filter>
    <path id="img-telstra-screens-u" d="M73.6546574,58.9400017 C71.0133233,46.4714025 59.7531351,50.2580018 60.3587916,45.6601456 C64.5475056,13.8614202 55.7255007,0.877229141 52.804552,1.89750838 C49.277907,3.12935563 42.2542817,30.8215465 45.4654585,51.3103194 C49.0704174,61.2835572 59.2630109,60.4059503 66.3733659,60.4616546 C71.3621669,60.5007381 74.7437491,64.0811338 73.6546574,58.9400017 Z"/>
    <filter id="img-telstra-screens-v" width="117.1%" height="108.4%" x="-8.6%" y="-4.2%" filterUnits="objectBoundingBox">
      <feOffset dx="5" dy="-2" in="SourceAlpha" result="shadowOffsetInner1"/>
      <feComposite in="shadowOffsetInner1" in2="SourceAlpha" k2="-1" k3="1" operator="arithmetic" result="shadowInnerInner1"/>
      <feColorMatrix in="shadowInnerInner1" values="0 0 0 0 0   0 0 0 0 0   0 0 0 0 0  0 0 0 0.1 0"/>
    </filter>
    <path id="img-telstra-screens-w" d="M15.6253469,26.4298265 C17.4260745,28.4602238 18.0646627,29.0267115 20.4030823,30.9225438 C24.0828948,33.9058867 25.1770649,34.8192419 29.4203383,36.3539856 C30.5100745,36.7481308 32.707767,37.4645546 33.5460464,36.5497403 C35.6895249,34.2105619 31.932854,32.7892373 30.8431179,32.3950921 C27.0759733,31.0325588 26.3780627,30.3558611 23.0398174,27.6494379 C20.8913228,25.9075838 20.4153102,25.4996273 18.7593872,23.6325034 C18.182297,22.9818096 17.6804235,22.3797296 17.2572406,21.8426033 C17.0096926,21.5284023 16.8473325,21.3114179 16.7735254,21.2079886 C16.0992256,20.2630621 14.7890234,20.0454225 13.8471067,20.7218768 C12.90519,21.3983312 12.6882435,22.71272 13.3625433,23.6576465 C13.7745107,24.234955 14.5364492,25.2020478 15.6253469,26.4298265 Z"/>
    <filter id="img-telstra-screens-x" width="109.4%" height="112%" x="-4.7%" y="-6%" filterUnits="objectBoundingBox">
      <feOffset dx="-1" dy="-2" in="SourceAlpha" result="shadowOffsetInner1"/>
      <feComposite in="shadowOffsetInner1" in2="SourceAlpha" k2="-1" k3="1" operator="arithmetic" result="shadowInnerInner1"/>
      <feColorMatrix in="shadowInnerInner1" values="0 0 0 0 0   0 0 0 0 0   0 0 0 0 0  0 0 0 0.2 0"/>
    </filter>
    <ellipse id="img-telstra-screens-y" cx="12.971" cy="19.133" rx="4.717" ry="4.783"/>
    <filter id="img-telstra-screens-z" width="121.2%" height="120.9%" x="-10.6%" y="-10.5%" filterUnits="objectBoundingBox">
      <feOffset dy="-2" in="SourceAlpha" result="shadowOffsetInner1"/>
      <feComposite in="shadowOffsetInner1" in2="SourceAlpha" k2="-1" k3="1" operator="arithmetic" result="shadowInnerInner1"/>
      <feColorMatrix in="shadowInnerInner1" values="0 0 0 0 0   0 0 0 0 0   0 0 0 0 0  0 0 0 0.2 0"/>
    </filter>
    <ellipse id="img-telstra-screens-A" cx="11.791" cy="20.329" rx="1.179" ry="1.196"/>
    <filter id="img-telstra-screens-B" width="121.2%" height="120.9%" x="-10.6%" y="-10.5%" filterUnits="objectBoundingBox">
      <feOffset dy="-.5" in="SourceAlpha" result="shadowOffsetInner1"/>
      <feComposite in="shadowOffsetInner1" in2="SourceAlpha" k2="-1" k3="1" operator="arithmetic" result="shadowInnerInner1"/>
      <feColorMatrix in="shadowInnerInner1" values="0 0 0 0 0.555417456   0 0 0 0 0.926381117   0 0 0 0 1  0 0 0 0.5 0"/>
    </filter>
    <ellipse id="img-telstra-screens-C" cx="9.138" cy="21.226" rx="1" ry="1"/>
    <filter id="img-telstra-screens-D" width="128.3%" height="127.9%" x="-14.1%" y="-13.9%" filterUnits="objectBoundingBox">
      <feOffset dy="-.5" in="SourceAlpha" result="shadowOffsetInner1"/>
      <feComposite in="shadowOffsetInner1" in2="SourceAlpha" k2="-1" k3="1" operator="arithmetic" result="shadowInnerInner1"/>
      <feColorMatrix in="shadowInnerInner1" values="0 0 0 0 0.555417456   0 0 0 0 0.926381117   0 0 0 0 1  0 0 0 0.5 0"/>
    </filter>
    <ellipse id="img-telstra-screens-E" cx="11.622" cy="18.422" rx="1.162" ry="1.19"/>
    <filter id="img-telstra-screens-F" width="121.5%" height="121%" x="-10.8%" y="-10.5%" filterUnits="objectBoundingBox">
      <feOffset dy="-.5" in="SourceAlpha" result="shadowOffsetInner1"/>
      <feComposite in="shadowOffsetInner1" in2="SourceAlpha" k2="-1" k3="1" operator="arithmetic" result="shadowInnerInner1"/>
      <feColorMatrix in="shadowInnerInner1" values="0 0 0 0 0.2   0 0 0 0 0.2   0 0 0 0 0.2  0 0 0 1 0"/>
    </filter>
    <ellipse id="img-telstra-screens-G" cx="9.007" cy="19.314" rx="1" ry="1"/>
    <filter id="img-telstra-screens-H" width="128.7%" height="128%" x="-14.3%" y="-14%" filterUnits="objectBoundingBox">
      <feOffset dy="-.5" in="SourceAlpha" result="shadowOffsetInner1"/>
      <feComposite in="shadowOffsetInner1" in2="SourceAlpha" k2="-1" k3="1" operator="arithmetic" result="shadowInnerInner1"/>
      <feColorMatrix in="shadowInnerInner1" values="0 0 0 0 0.2   0 0 0 0 0.2   0 0 0 0 0.2  0 0 0 1 0"/>
    </filter>
    <path id="img-telstra-screens-I" d="M3.50588764,21.2224759 C6.80826411,19.3779392 15.5329794,16.0027766 19.3401622,11.9644974 C26.3666903,4.51145809 21.3898619,0.865025013 17.2676484,0.166152513 C13.6973193,-0.439154527 9.53342892,0.275569131 4.33346978,8.03674926 C-0.866489356,15.7979294 0.06476709,19.0047389 0.06476709,19.0047389 C0.06476709,19.0047389 0.713405361,22.782212 3.50588764,21.2224759 Z"/>
  </defs>
  <g fill="none" fill-rule="evenodd">
    <g transform="translate(84)">
      <rect width="521" height="330" fill="#586C76" fill-opacity=".1" rx="10"/>
      <g transform="translate(9 29)">
        <rect width="504" height="291" fill="#FFF"/>
        <rect width="504" height="207.392" fill="#586C76"/>
        <rect width="166.19" height="14.116" x="169.448" y="64.063" fill="#E3E6E8" opacity=".3" rx="4"/>
        <rect width="263.948" height="8.687" x="120.569" y="85.78" fill="#FFF" opacity=".3" rx="4"/>
        <rect width="280.241" height="6.515" x="35.845" y="246.825" fill="#586C76" opacity=".7" rx="3.257"/>
        <rect width="166.19" height="14.116" x="35.845" y="221.851" fill="#586C76" opacity=".7" rx="4"/>
        <rect width="127.086" height="53.205" x="335.638" y="221.851" fill="#7C69B8" opacity=".3" rx="4"/>
        <rect width="280.241" height="6.515" x="35.845" y="257.683" fill="#586C76" opacity=".7" rx="3.257"/>
        <rect width="186.828" height="6.515" x="35.845" y="268.541" fill="#586C76" opacity=".7" rx="3.257"/>
        <g fill="#FFF" transform="translate(35.845 115.097)">
          <rect width="127.086" height="5.429" y="48.862" opacity=".2" rx="2.715"/>
          <rect width="127.086" height="5.429" y="58.634" opacity=".2" rx="2.715"/>
          <rect width="84.724" height="5.429" x="21.724" y="68.407" opacity=".2" rx="2.715"/>
          <ellipse cx="64.086" cy="19.545" fill-opacity=".2" rx="19.552" ry="19.545"/>
        </g>
        <g fill="#FFF" transform="translate(189 115.097)">
          <rect width="127.086" height="5.429" y="48.862" opacity=".2" rx="2.715"/>
          <rect width="127.086" height="5.429" y="58.634" opacity=".2" rx="2.715"/>
          <rect width="84.724" height="5.429" x="20.638" y="68.407" opacity=".2" rx="2.715"/>
          <ellipse cx="63" cy="19.545" fill-opacity=".2" rx="19.552" ry="19.545"/>
        </g>
        <g fill="#FFF" transform="translate(342.155 115.097)">
          <rect width="127.086" height="5.429" y="48.862" opacity=".2" rx="2.715"/>
          <rect width="127.086" height="5.429" y="58.634" opacity=".2" rx="2.715"/>
          <rect width="84.724" height="5.429" x="20.638" y="68.407" opacity=".2" rx="2.715"/>
          <ellipse cx="63" cy="19.545" fill-opacity=".2" rx="19.552" ry="19.545"/>
        </g>
        <g transform="translate(30.414 32.575)">
          <polygon fill="#2D86CA" points="0 0 473.586 0 473.586 32.575" opacity=".2"/>
          <polygon fill="url(#img-telstra-screens-a)" points="0 0 473.586 0 473.586 20.631"/>
        </g>
        <rect width="504" height="32.575" fill="#FFF"/>
        <rect width="206.379" height="14.116" x="60.828" y="9.772" fill="#586C76" opacity=".7" rx="4"/>
        <ellipse cx="41.276" cy="17.373" fill="#00AAF3" opacity=".5" rx="10.862" ry="10.858"/>
      </g>
      <g transform="translate(9 11)">
        <ellipse cx="5.375" cy="5.5" fill="#FF4C54" rx="5.375" ry="5.5"/>
        <ellipse cx="21.5" cy="5.5" fill="#FFD74C" rx="5.375" ry="5.5"/>
        <ellipse cx="37.625" cy="5.5" fill="#9AE04C" rx="5.375" ry="5.5"/>
      </g>
    </g>
    <g filter="url(#img-telstra-screens-b)" transform="translate(542 57)">
      <rect width="110" height="230" fill="#FFF" rx="10"/>
      <path fill="#1A2738" fill-opacity=".05" d="M27.7078652,8 L27.7078652,12.6834171 C27.7078652,14.8925561 29.4987262,16.6834171 31.7078652,16.6834171 L80.3820225,16.6834171 C82.5911615,16.6834171 84.3820225,14.8925561 84.3820225,12.6834171 L84.3820225,8 L100,8 C102.209139,8 104,9.790861 104,12 L104,220 C104,222.209139 102.209139,224 100,224 L11,224 C8.790861,224 7,222.209139 7,220 L7,12 C7,9.790861 8.790861,8 11,8 L27.7078652,8 Z"/>
      <rect width="84" height="28" x="13" y="181" fill="#7C69B8" opacity=".3" rx="2"/>
      <rect width="84" height="3" x="13" y="158" fill="#586C76" opacity=".7" rx="1.5"/>
      <rect width="84" height="3" x="13" y="153" fill="#586C76" opacity=".7" rx="1.5"/>
      <rect width="71" height="9" x="13" y="138" fill="#586C76" opacity=".7" rx="2"/>
      <rect width="84" height="3" x="13" y="164" fill="#586C76" opacity=".7" rx="1.5"/>
      <rect width="56" height="3" x="13" y="169" fill="#586C76" opacity=".7" rx="1.5"/>
      <rect width="97" height="100" x="7" y="29" fill="#586C76"/>
      <g fill="#FFF" transform="translate(20 79)">
        <rect width="71" height="3.237" y="26.974" opacity=".2" rx="1.618"/>
        <rect width="71" height="3.237" y="32.368" opacity=".2" rx="1.618"/>
        <rect width="46.969" height="3.237" x="12.015" y="37.763" opacity=".2" rx="1.618"/>
        <ellipse cx="34.954" cy="10.789" fill-opacity=".2" rx="10.923" ry="10.789"/>
      </g>
      <g transform="translate(7 29)">
        <polygon fill="#2D86CA" points="0 0 97 0 97 22" opacity=".2"/>
        <polygon fill="url(#img-telstra-screens-a)" points="0 0 97 0 97 14.3"/>
      </g>
      <rect width="53" height="10" x="28" y="50" fill="#E3E6E8" opacity=".3" rx="2"/>
      <rect width="84" height="7" x="13" y="64" fill="#FFF" opacity=".3" rx="2"/>
      <g transform="translate(7 8)">
        <rect width="97" height="22" fill="#FFF"/>
        <rect width="55.584" height="7.7" x="20.708" y="8.8" fill="#586C76" opacity=".7" rx="2"/>
        <ellipse cx="10.354" cy="12.65" fill="#00AAF3" opacity=".5" rx="5.994" ry="6.05"/>
      </g>
    </g>
    <g transform="translate(4 22)">
      <path stroke="#586C76" stroke-dasharray="6" stroke-opacity=".5" stroke-width="3" d="M694.778377,33.7034435 C642.329631,10.5662442 614.328586,26.5721072 591.808946,53.5576287 C569.289305,80.5431503 577.561197,108.887398 589.002466,106.770996 C600.443736,104.654593 606.389588,93.9279906 601.635923,83.9796359 C596.882258,74.0312812 569.554471,81.0155373 574.605893,132.743101" transform="scale(-1 1) rotate(-29 0 2530.63)"/>
      <path stroke="#586C76" stroke-dasharray="6" stroke-opacity=".5" stroke-width="3" d="M96.9884742,62.7177904 C103.839864,35.4130304 85.539954,15.3711926 49.2288683,17.7966318 C12.9177826,20.222071 17.4952066,65.5704257 37.5290996,65.5704257 C57.9982801,65.5704257 61.9955207,57.065022 49.9920769,39.6657881 C37.9886331,22.2665541 -22.1149577,53.0555708 19.0644452,95.4258521" transform="scale(1 -1) rotate(-73 -24.75 0)"/>
      <g transform="translate(590 138)">
        <path fill="#FFDC6A" fill-opacity=".8" d="M43.7076334,44.0425785 C53.5762723,44.0425785 66.5583462,38.4859569 66.5583462,28.4345654 C66.5583462,18.383174 58.5582337,10.2349113 48.6895949,10.2349113 C38.820956,10.2349113 33.1448599,24.89136 33.1448599,34.9427514 C33.1448599,39.2155662 35.8686388,44.0425785 43.7076334,44.0425785 Z" transform="rotate(-46 49.852 27.139)"/>
        <g transform="translate(25.2 33)">
          <mask id="img-telstra-screens-d" fill="#fff">
            <use xlink:href="#img-telstra-screens-c"/>
          </mask>
          <use fill="#FFC30D" xlink:href="#img-telstra-screens-c"/>
          <ellipse cx="21.6" cy="18.333" fill="#FFD659" mask="url(#img-telstra-screens-d)" rx="21.6" ry="18.333"/>
          <path fill="#555" d="M0,-11 L14.4,-11 C14.4,-11 26.8734375,3.91015625 26.8734375,23.8333333 C26.8734375,43.7565104 14.4,58.6666667 14.4,58.6666667 L0,58.6666667 C0,58.6666667 20.6367188,45.7545573 20.6367188,23.8333333 C20.6367188,1.91210937 0,-11 0,-11 Z" mask="url(#img-telstra-screens-d)"/>
          <path fill="#555" d="M18,-11 L25.2,-11 C25.2,-11 37.6734375,3.91015625 37.6734375,23.8333333 C37.6734375,43.7565104 25.2,58.6666667 25.2,58.6666667 L18,58.6666667 C18,58.6666667 31.4367188,45.7545573 31.4367188,23.8333333 C31.4367188,1.91210937 18,-11 18,-11 Z" mask="url(#img-telstra-screens-d)"/>
        </g>
        <path fill="#555" fill-rule="nonzero" d="M34.5551094 41.9605179C33.3332105 39.5248755 31.6721644 37.0955703 29.5044221 34.8301254 25.3828603 30.5228002 19.9308884 27.3291899 13.0018271 25.7129324 12.0328019 25.4868997 11.0673476 26.1037615 10.8454246 27.0907316 10.6235016 28.0777018 11.2291476 29.0610349 12.1981729 29.2870676 18.4393298 30.742866 23.2794667 33.5780807 26.9262965 37.3892773 28.8291757 39.3779213 30.2846459 41.5065686 31.349354 43.6288787 31.9775033 44.8809847 32.330538 45.8309797 32.4662828 46.3262635 32.7335709 47.3015006 33.7264623 47.8713942 34.6839678 47.5991564 35.6414734 47.3269185 36.2010052 46.3156403 35.9337172 45.3404032 35.7363366 44.620233 35.2989244 43.4431834 34.5551094 41.9605179zM24.5007868 41.1375188C18.9978072 37.9850512 12.2552485 36.8418188 4.43356795 38.8651119 3.47004487 39.1143537 2.88733183 40.1119585 3.13204194 41.0933246 3.37675205 42.0746907 4.35621858 42.6681947 5.31974166 42.418953 12.2007996 40.6389778 18.0048769 41.6230863 22.7359659 44.3333643 23.7970402 44.9412173 24.7121132 45.5898633 25.4763369 46.2334207 25.9186992 46.6059368 26.2020827 46.8815914 26.3217608 47.0133313 26.9969096 47.7565246 28.1357488 47.8015501 28.8654296 47.1138987 29.5951103 46.4262472 29.6393172 45.2663183 28.9641685 44.523125 28.1558148 43.6333017 26.6629378 42.3761408 24.5007868 41.1375188z"/>
        <ellipse cx="36" cy="58.667" fill="#4A4A4A" rx="3.6" ry="3.667"/>
        <ellipse cx="27.9" cy="61.417" fill="#4A4A4A" rx="2.7" ry="2.75"/>
        <g transform="translate(50.4 14.667)">
          <use fill="#FFDE7A" fill-opacity=".8" xlink:href="#img-telstra-screens-e"/>
          <use fill="#FFCE3A" fill-opacity=".8" xlink:href="#img-telstra-screens-f"/>
          <use fill="#FFC000" fill-opacity=".8" xlink:href="#img-telstra-screens-g"/>
        </g>
      </g>
      <g transform="scale(-1 1) rotate(-8 370.556 934.658)">
        <path fill="#FFDC6A" fill-opacity=".8" d="M33.0235452,33.3655898 C40.4798502,33.3655898 50.2885283,29.1560279 50.2885283,21.5413374 C50.2885283,13.9266469 44.2439988,7.75372064 36.7876939,7.75372064 C29.331389,7.75372064 25.042783,18.8570909 25.042783,26.4717814 C25.042783,29.7087623 27.1007493,33.3655898 33.0235452,33.3655898 Z" transform="rotate(-46 37.666 20.56)"/>
        <g transform="translate(19.04 25)">
          <mask id="img-telstra-screens-i" fill="#fff">
            <use xlink:href="#img-telstra-screens-h"/>
          </mask>
          <use fill="#FFC30D" xlink:href="#img-telstra-screens-h"/>
          <ellipse cx="16.32" cy="13.889" fill="#FFD659" mask="url(#img-telstra-screens-i)" rx="16.32" ry="13.889"/>
          <path fill="#555" d="M0,-8.33333333 L10.88,-8.33333333 C10.88,-8.33333333 20.304375,2.96223958 20.304375,18.0555556 C20.304375,33.1488715 10.88,44.4444444 10.88,44.4444444 L0,44.4444444 C0,44.4444444 15.5921875,34.6625434 15.5921875,18.0555556 C15.5921875,1.44856771 0,-8.33333333 0,-8.33333333 Z" mask="url(#img-telstra-screens-i)"/>
          <path fill="#555" d="M13.6,-8.33333333 L19.04,-8.33333333 C19.04,-8.33333333 28.464375,2.96223958 28.464375,18.0555556 C28.464375,33.1488715 19.04,44.4444444 19.04,44.4444444 L13.6,44.4444444 C13.6,44.4444444 23.7521875,34.6625434 23.7521875,18.0555556 C23.7521875,1.44856771 13.6,-8.33333333 13.6,-8.33333333 Z" mask="url(#img-telstra-screens-i)"/>
        </g>
        <path fill="#555" fill-rule="nonzero" d="M26.1083049 31.7882711C25.1850924 29.9430875 23.9300798 28.1027048 22.29223 26.3864586 19.1781611 23.1233335 15.0588935 20.7039317 9.82360272 19.4794943 9.0914503 19.3082574 8.36199593 19.7755769 8.19432078 20.5232815 8.02664563 21.2709862 8.48424487 22.0159355 9.21639728 22.1871724 13.9319381 23.29005 17.5889304 25.4379399 20.3443129 28.3252101 21.7820438 29.8317586 22.8817324 31.4443702 23.6861786 33.0521809 24.1607802 34.000746 24.4275176 34.7204392 24.5300804 35.0956542 24.7320313 35.8344702 25.4822159 36.2662077 26.2056646 36.0599669 26.9291132 35.8537262 27.3518706 35.0876063 27.1499196 34.3487903 27.0007876 33.8032068 26.6702984 32.9115026 26.1083049 31.7882711zM18.5117056 31.164787C14.3538987 28.776554 9.25952109 27.9104688 3.3498069 29.4432666 2.62181168 29.6320861 2.1815396 30.3878474 2.36643169 31.1313065 2.55132377 31.8747657 3.29136515 32.3243899 4.01936036 32.1355704 9.21838194 30.7871044 13.6036848 31.5326411 17.1782853 33.5858821 17.979986 34.0463767 18.6713744 34.5377752 19.2487879 35.0253187 19.5830172 35.3075279 19.7971291 35.5163571 19.8875526 35.6161601 20.397665 36.1791853 21.2581213 36.2132956 21.8094357 35.6923475 22.36075 35.1713994 22.3941508 34.2926654 21.8840384 33.7296401 21.2732823 33.0555316 20.1453308 32.1031369 18.5117056 31.164787z"/>
        <ellipse cx="27.2" cy="44.444" fill="#4A4A4A" rx="2.72" ry="2.778"/>
        <ellipse cx="21.08" cy="46.528" fill="#4A4A4A" rx="2.04" ry="2.083"/>
        <g transform="translate(38.08 11.111)">
          <use fill="#FFDE7A" fill-opacity=".8" xlink:href="#img-telstra-screens-j"/>
          <use fill="#FFCE3A" fill-opacity=".8" xlink:href="#img-telstra-screens-k"/>
          <use fill="#FFC000" fill-opacity=".8" xlink:href="#img-telstra-screens-l"/>
        </g>
      </g>
      <g transform="scale(-1 1) rotate(-3 3595.18 2110.806)">
        <path fill="#6D4886" d="M70.6395969,62.8091953 C66.5107918,50.3405962 48.9853305,49.6954381 49.9320633,45.0975819 C56.4796575,13.2988565 27.1404725,8.90743198 22.5745873,9.92771122 C17.0619072,11.1595585 21.6319731,30.2589828 26.6515287,50.7477557 C32.2866253,60.7209934 48.1812332,62.0592653 59.2957947,62.1149695 C67.0940461,62.154053 72.3420121,67.9503274 70.6395969,62.8091953 Z" transform="rotate(2 45.512 37.366)"/>
        <g fill-rule="nonzero">
          <use fill="#FA5296" fill-rule="evenodd" xlink:href="#img-telstra-screens-m"/>
          <use fill="#000" filter="url(#img-telstra-screens-n)" xlink:href="#img-telstra-screens-m"/>
        </g>
        <g transform="matrix(-1 0 0 1 52.235 0)">
          <use fill="#FA5296" xlink:href="#img-telstra-screens-o"/>
          <use fill="#000" filter="url(#img-telstra-screens-p)" xlink:href="#img-telstra-screens-o"/>
        </g>
        <use fill="#4A4A4A" xlink:href="#img-telstra-screens-q"/>
        <use fill="#000" filter="url(#img-telstra-screens-r)" xlink:href="#img-telstra-screens-q"/>
        <use fill="#4A4A4A" xlink:href="#img-telstra-screens-s"/>
        <use fill="#000" filter="url(#img-telstra-screens-t)" xlink:href="#img-telstra-screens-s"/>
        <path fill="#555" fill-rule="nonzero" d="M22.5132394 33.0791743C21.6402417 31.3382683 20.4534909 29.601892 18.9047259 27.9826368 15.9600354 24.9039221 12.0648202 22.6212491 7.11428388 21.4660088 6.42195421 21.3044491 5.73217583 21.7453587 5.57362076 22.450808 5.41506568 23.1562574 5.84777549 23.859107 6.54010516 24.0206667 10.9991614 25.0612169 14.457245 27.0877221 17.0627587 29.8118227 18.4222894 31.233231 19.4621645 32.7547084 20.2228558 34.2716561 20.6716432 35.1666146 20.9238724 35.8456354 21.0208566 36.1996457 21.2118232 36.8967087 21.9212043 37.3040472 22.6053036 37.1094618 23.2894029 36.9148764 23.6891659 36.1920526 23.4981993 35.4949897 23.3571788 34.980239 23.0446654 34.1389281 22.5132394 33.0791743zM15.3298292 32.4909254C11.3981711 30.2376596 6.5808834 29.4205199.992606436 30.866694.30420785 31.0448427-.112117242 31.7578933.0627183156 32.459337.237553873 33.1607807.937343411 33.5849952 1.625742 33.4068465 6.54198187 32.1345869 10.6887622 32.8379908 14.0689355 34.775196 14.8270306 35.2096666 15.4808135 35.6732944 16.0268206 36.1332852 16.3428708 36.3995457 16.5453369 36.5965733 16.6308421 36.690736 17.1132088 37.2219428 17.9268638 37.2541253 18.4481914 36.7626178 18.969519 36.2711103 19.0011031 35.4420366 18.5187364 34.9108298 17.9412001 34.2748175 16.8745994 33.3762459 15.3298292 32.4909254z"/>
        <g transform="rotate(2 59.253 31.777)">
          <use fill="#9366B3" xlink:href="#img-telstra-screens-u"/>
          <use fill="#000" filter="url(#img-telstra-screens-v)" xlink:href="#img-telstra-screens-u"/>
        </g>
      </g>
      <g transform="matrix(-1 0 0 1 62.969 104)">
        <path fill="#0086A5" d="M18.7657766,28.1620592 C18.7657766,28.1620592 26.278065,22.0591763 30.2048324,12.8766 C34.1315998,3.69402378 33.1314317,0.900140854 30.740583,0.159490565 C28.3497343,-0.581159724 25.4735708,1.01189182 21.5468034,10.1944681 C17.620036,19.3770443 18.7657766,28.1620592 18.7657766,28.1620592"/>
        <g fill-rule="nonzero">
          <use fill="#8C6CA3" fill-rule="evenodd" xlink:href="#img-telstra-screens-w"/>
          <use fill="#000" filter="url(#img-telstra-screens-x)" xlink:href="#img-telstra-screens-w"/>
        </g>
        <g transform="matrix(-1 0 0 1 25.941 0)">
          <use fill="#8C6CA3" xlink:href="#img-telstra-screens-y"/>
          <use fill="#000" filter="url(#img-telstra-screens-z)" xlink:href="#img-telstra-screens-y"/>
        </g>
        <use fill="#FFF" xlink:href="#img-telstra-screens-A"/>
        <use fill="#000" filter="url(#img-telstra-screens-B)" xlink:href="#img-telstra-screens-A"/>
        <use fill="#FFF" xlink:href="#img-telstra-screens-C"/>
        <use fill="#000" filter="url(#img-telstra-screens-D)" xlink:href="#img-telstra-screens-C"/>
        <path fill="#555" fill-rule="nonzero" d="M11.3181842 14.8803215C10.9179633 14.0859893 10.3739041 13.2937238 9.66388156 12.5548978 8.31390478 11.1501567 6.52816532 10.1086296 4.25861985 9.58152215 3.94122521 9.50780647 3.6250002 9.7089826 3.55231152 10.0308616 3.47962284 10.3527406 3.67799621 10.6734335 3.99539085 10.7471492 6.03962006 11.2219264 7.62495901 12.1465705 8.81944205 13.38951 9.44271128 14.0380633 9.91943615 14.7322757 10.2681708 15.4244214 10.4739148 15.8327687 10.5895479 16.1425891 10.6340098 16.3041152 10.7215573 16.6221677 11.0467691 16.8080262 11.3603905 16.7192417 11.674012 16.6304572 11.8572811 16.3006506 11.7697336 15.9825981 11.7050835 15.7477301 11.5618135 15.3638608 11.3181842 14.8803215zM8.02499032 14.6119181C6.22254379 13.5838088 4.0140854 13.2109683 1.45217132 13.8708216 1.13657887 13.9521065.945716976 14.2774537 1.02586935 14.5975051 1.10602173 14.9175565 1.4268363 15.111115 1.74242875 15.0298302 3.99625122 14.4493297 5.8973193 14.7702754 7.4469407 15.6541741 7.7944851 15.8524122 8.0942082 16.0639541 8.3445221 16.2738365 8.48941352 16.3953246 8.58223296 16.4852234 8.62143236 16.5281875 8.84257064 16.770564 9.21558619 16.7852481 9.45458589 16.5609854 9.69358559 16.3367227 9.70806512 15.9584369 9.48692684 15.7160605 9.2221586 15.4258638 8.73318151 15.0158679 8.02499032 14.6119181z"/>
        <path fill="#00A5C4" d="M39.2977915,19.0953774 C46.3662623,11.3950202 46.4294134,8.47482222 44.4244871,7.14159709 C42.4195608,5.80837196 39.1057818,6.56698494 32.037311,14.2673421 C24.9688401,21.9676993 22.8689526,30.6240899 22.8689526,30.6240899 C22.8689526,30.6240899 32.2293207,26.7957346 39.2977915,19.0953774 Z" transform="rotate(20 34.214 18.617)"/>
        <path fill="#00A5C4" d="M19.5036218,25.9020212 C19.5036218,25.9020212 28.8639898,22.073666 35.9324606,14.3733088 C43.0009314,6.67295161 43.0640826,3.7527536 41.0591562,2.41952847 C39.0542299,1.08630334 35.7404509,1.84491632 28.6719801,9.54527352 C21.6035093,17.2456307 19.5036218,25.9020212 19.5036218,25.9020212"/>
      </g>
      <g transform="rotate(-6 908.158 -5762.204)">
        <path fill="#C33770" d="M33.5392082,11.4146932 C37.4094325,2.28044633 30.1923722,-1.38934508 26.3855826,1.29069349 C24.3098125,2.75206764 22.9324716,2.412658 19.0622472,11.5469049 C15.1920229,20.6811518 18.4955608,26.2138378 18.4955608,26.2138378 C18.4955608,26.2138378 29.6689839,20.5489401 33.5392082,11.4146932 Z"/>
        <path fill="#00A5C4" fill-rule="nonzero" d="M18.4746428,29.7736728 C20.4074756,31.4279467 20.8118915,31.8296264 24.3184406,33.1737222 C26.6112102,34.0525641 27.8617118,33.0984006 28.3334921,31.9953354 C29.2126692,29.9397394 28.1306646,28.6952489 27.2360779,28.078147 C24.0341579,25.8694056 25.5134931,26.6658224 22.2233165,23.9736434 C20.1057588,22.2409571 20.1213421,23.5654188 18.4892634,21.7081218 C17.9204829,21.0608527 17.4258361,20.4619416 17.0087468,19.9276423 C16.7647634,19.6150949 16.6047411,19.3992525 16.5319968,19.2963676 C15.8674066,18.3564144 14.5760704,18.1399202 13.6477167,18.8128143 C12.7193631,19.4857084 12.5055405,20.7931794 13.1701307,21.7331326 C13.5761661,22.3074026 16.2146872,27.8394208 18.4746428,29.7736728 Z"/>
        <path fill="#313F45" fill-opacity=".1" fill-rule="nonzero" d="M18.4746428,29.7736728 C20.4074756,31.4279467 20.8118915,31.8296264 24.3184406,33.1737222 C26.6112102,34.0525641 27.8617118,33.0984006 28.3334921,31.9953354 C24.9226951,32.7458566 21.3782224,30.6009291 19.393422,28.7866517 C17.4086215,26.9723743 16.3334155,23.6738185 16.3700168,22.549726 C16.4066181,21.4256336 16.7247235,20.9626015 17.0087468,19.9276423 C16.8220276,19.7203141 16.6047411,19.3992525 16.5319968,19.2963676 C15.8674066,18.3564144 14.5760704,18.1399202 13.6477167,18.8128143 C12.7193631,19.4857084 12.5055405,20.7931794 13.1701307,21.7331326 C13.5761661,22.3074026 16.2146872,27.8394208 18.4746428,29.7736728 Z"/>
        <path fill="#313F45" fill-opacity=".1" fill-rule="nonzero" d="M18.4746428,29.7736728 C20.4074756,31.4279467 20.8118915,31.8296264 24.3184406,33.1737222 C26.6112102,34.0525641 28.8456433,33.0868605 28.5734668,29.8868004 C27.4047801,33.335226 22.609069,29.9626856 20.6242686,28.1484082 C18.6394681,26.3341308 17.3744832,23.731087 17.0814002,22.7312672 C16.7883171,21.7314474 16.8646609,21.3361115 17.1718027,20.1571805 C16.906335,19.8509793 16.6047411,19.3992525 16.5319968,19.2963676 C15.8674066,18.3564144 14.5760704,18.1399202 13.6477167,18.8128143 C12.7193631,19.4857084 12.5055405,20.7931794 13.1701307,21.7331326 C13.5761661,22.3074026 16.2146872,27.8394208 18.4746428,29.7736728 Z"/>
        <ellipse cx="12.784" cy="17.232" fill="#00A5C4" rx="4.649" ry="4.758" transform="matrix(-1 0 0 1 25.568 0)"/>
        <path fill="#313F45" fill-opacity=".2" d="M12.7838196,21.9902098 C15.3512046,21.9902098 17.4324813,19.8599618 17.4324813,17.2321678 C16.1338772,19.1804539 12.159141,22.5249882 8.13515795,17.2321678 C8.13515795,19.8599618 10.2164347,21.9902098 12.7838196,21.9902098 Z" transform="matrix(-1 0 0 1 25.568 0)"/>
        <use fill="#4A4A4A" xlink:href="#img-telstra-screens-E"/>
        <use fill="#000" filter="url(#img-telstra-screens-F)" xlink:href="#img-telstra-screens-E"/>
        <use fill="#4A4A4A" xlink:href="#img-telstra-screens-G"/>
        <use fill="#000" filter="url(#img-telstra-screens-H)" xlink:href="#img-telstra-screens-G"/>
        <path fill="#555" fill-rule="nonzero" d="M11.1552092 13.002004C10.7607513 12.2118525 10.2245262 11.4237569 9.52472752 10.6888194 8.1941896 9.29147166 6.4341637 8.25542631 4.1972983 7.73109308 3.88447396 7.65776538 3.5728024 7.85788269 3.50116039 8.17806761 3.42951838 8.49825253 3.6250353 8.81725754 3.93785964 8.89058524 5.95265319 9.36286364 7.51516422 10.2826412 8.69244743 11.5190389 9.30674196 12.1641788 9.77660228 12.8547374 10.1203153 13.5432402 10.3230968 13.9494383 10.4370648 14.2576281 10.4808865 14.418304 10.5671734 14.7346826 10.8877023 14.9195629 11.1968078 14.8312457 11.5059133 14.7429285 11.6865435 14.4148577 11.6002565 14.0984792 11.5365374 13.8648474 11.3953304 13.4829984 11.1552092 13.002004zM7.90943533 12.7350133C6.13294293 11.7123151 3.95628501 11.3414368 1.43126093 11.9978173 1.12021282 12.0786743.932099225 12.4023092 1.01109746 12.7206761 1.09009569 13.039043 1.40629072 13.2315828 1.71733883 13.1507258 3.93870762 12.5732806 5.81240148 12.8925371 7.33970927 13.7717837 7.68224924 13.9689785 7.97765651 14.179407 8.22436604 14.3881847 8.36717111 14.5090334 8.458654 14.598459 8.49728896 14.641197 8.71524299 14.8822978 9.08288733 14.8969047 9.31844558 14.6738223 9.55400383 14.4507399 9.56827487 14.0744451 9.35032084 13.8333444 9.0893651 13.5446751 8.60742899 13.136837 7.90943533 12.7350133z"/>
        <g transform="translate(19.345 3.6)">
          <mask id="img-telstra-screens-J" fill="#fff">
            <use xlink:href="#img-telstra-screens-I"/>
          </mask>
          <use fill="#E63C81" xlink:href="#img-telstra-screens-I"/>
          <path fill="#FA5296" d="M6.03972493,15.2109062 C9.70631286,15.013052 16.8883281,13.1769501 20.1511468,8.74770776 C23.5758088,4.09876495 21.0211559,-0.555279211 16.7556682,-0.963399252 C8.23508906,-1.77864461 3.60337679,3.35244228 1.83855859,9.2735668 C0.0737403845,15.1946913 -0.0421198293,15.5390911 6.03972493,15.2109062 Z" mask="url(#img-telstra-screens-J)" transform="rotate(-5 11.264 7.124)"/>
          <path fill="#9366B3" d="M10.2997555,11.8941274 C14.8131908,12.6157463 17.7030882,10.5280163 17.5676067,8.53226306 C17.4321253,6.53650985 14.3351679,4.5947426 10.2997555,5.1703987 C6.26434314,5.7460548 3.03190429,6.67555665 3.03190429,8.53226306 C3.03190429,10.3889695 5.78632025,11.1725086 10.2997555,11.8941274 Z" transform="rotate(-33 10.302 8.554)"/>
          <path fill="#FFF" d="M9.48776125,10.7114131 C11.9927247,11.1775258 13.5966221,9.82900582 13.5214297,8.53989608 C13.4462373,7.25078634 11.7274212,5.99654756 9.48776125,6.36837905 C7.24810125,6.74021053 5.45409279,7.34060034 5.45409279,8.53989608 C5.45409279,9.73919182 6.98279783,10.2453004 9.48776125,10.7114131 Z" opacity=".4" transform="rotate(-33 9.489 8.554)"/>
        </g>
      </g>
    </g>
  </g>
</svg>
