<svg xmlns="http://www.w3.org/2000/svg" xmlns:xlink="http://www.w3.org/1999/xlink" width="304" height="485" viewBox="0 0 304 485">
  <defs>
    <polygon id="img-avatar-1-a" points="0 0 303.687 0 303.687 484.287 218.141 484.287 203.61 462.974 105.125 462.974 84.691 484.287 0 484.287"/>
    <path id="img-avatar-1-c" d="M177.70601,202.650919 C183.795231,188.237943 177.70601,202.650919 187.750075,178.235419 C197.79414,153.819919 196.941937,143.928834 196.941937,111.920126 C196.941937,56.0804997 156.520566,0 105.26207,0 C54.0035735,0 15.263398,52.886247 12.4503523,111.920126 C11.547152,130.874464 12.4503523,157.25462 25.8744937,188.237943 C39.2986351,219.221265 30.0072945,236.783867 19.7554285,239.714691 C9.50356261,242.645516 0.312806259,228.080843 0.312806259,228.080843 C0.312806259,228.080843 7.46424265,254.390611 24.7050626,260.331721 C46.8961077,267.978657 77.1015847,266.243399 84.934084,266.243399 C109.440189,266.243399 93.3610625,266.243399 114.780001,266.243399 C136.19894,266.243399 167.472968,270.340327 187.750075,258.149951 C202.459706,249.30668 203.931996,230.342459 203.931996,230.342459 C203.931996,230.342459 199.205637,241.516916 187.750075,237.088655 C176.294513,232.660394 171.616788,217.063896 177.70601,202.650919 Z"/>
    <path id="img-avatar-1-e" d="M46.0740515,0 C39.1883829,28.8816349 47.4657534,54.1181744 47.4657534,54.1181744 L0,54.1181744 C0,54.1181744 7.25428751,22.0315328 0.447485591,7.51040541e-16 C22.1425179,0 29.0568814,0 46.0740515,0 Z"/>
    <path id="img-avatar-1-g" d="M153.908877,96.25 C158.293402,43.0925928 132.498825,0 81.1496863,0 C29.8005477,0 4.0059705,43.0925928 8.39049591,96.25 C10.8298007,125.82381 26.131176,155.679429 44.2135504,173.335393 C58.6333174,187.41512 70.3968302,192.5 81.1496863,192.5 C91.9025424,192.5 103.380204,187.587584 117.643896,173.765269 C135.862481,156.110441 151.449694,126.064805 153.908877,96.25 Z"/>
    <filter id="img-avatar-1-h" width="104.8%" height="103.6%" x="-2.4%" y="-1.8%" filterUnits="objectBoundingBox">
      <feOffset dx="7" dy="1" in="SourceAlpha" result="shadowOffsetInner1"/>
      <feComposite in="shadowOffsetInner1" in2="SourceAlpha" k2="-1" k3="1" operator="arithmetic" result="shadowInnerInner1"/>
      <feColorMatrix in="shadowInnerInner1" result="shadowMatrixInner1" values="0 0 0 0 0.909803922   0 0 0 0 0.533333333   0 0 0 0 0.258823529  0 0 0 0.15 0"/>
      <feOffset dx="-7" dy="1" in="SourceAlpha" result="shadowOffsetInner2"/>
      <feComposite in="shadowOffsetInner2" in2="SourceAlpha" k2="-1" k3="1" operator="arithmetic" result="shadowInnerInner2"/>
      <feColorMatrix in="shadowInnerInner2" result="shadowMatrixInner2" values="0 0 0 0 0.909803922   0 0 0 0 0.533333333   0 0 0 0 0.258823529  0 0 0 0.15 0"/>
      <feMerge>
        <feMergeNode in="shadowMatrixInner1"/>
        <feMergeNode in="shadowMatrixInner2"/>
      </feMerge>
    </filter>
    <filter id="img-avatar-1-i" width="294.2%" height="316.9%" x="-97.1%" y="-108.5%" filterUnits="objectBoundingBox">
      <feGaussianBlur in="SourceGraphic" stdDeviation="8"/>
    </filter>
    <filter id="img-avatar-1-j" width="294.2%" height="316.9%" x="-97.1%" y="-108.5%" filterUnits="objectBoundingBox">
      <feGaussianBlur in="SourceGraphic" stdDeviation="8"/>
    </filter>
    <path id="img-avatar-1-k" d="M164.050817,14.1544118 C165.219893,6.337146 160.601842,0 153.73611,0 C146.870378,0 140.35688,6.337146 139.187804,14.1544118 C138.018727,21.9716775 142.636779,28.3088235 149.502511,28.3088235 C156.368243,28.3088235 162.881741,21.9716775 164.050817,14.1544118 Z"/>
    <filter id="img-avatar-1-l" width="107.9%" height="107.1%" x="-4%" y="-3.5%" filterUnits="objectBoundingBox">
      <feOffset dx="-1" dy="-2" in="SourceAlpha" result="shadowOffsetInner1"/>
      <feComposite in="shadowOffsetInner1" in2="SourceAlpha" k2="-1" k3="1" operator="arithmetic" result="shadowInnerInner1"/>
      <feColorMatrix in="shadowInnerInner1" values="0 0 0 0 0.909803922   0 0 0 0 0.533333333   0 0 0 0 0.258823529  0 0 0 0.1 0"/>
    </filter>
    <path id="img-avatar-1-m" d="M25.0439679,14.1544118 C26.2130441,6.337146 21.5949923,0 14.7292606,0 C7.863529,0 1.35003036,6.337146 0.180954249,14.1544118 C-0.988121861,21.9716775 3.6299299,28.3088235 10.4956615,28.3088235 C17.3613932,28.3088235 23.8748918,21.9716775 25.0439679,14.1544118 Z"/>
    <filter id="img-avatar-1-n" width="107.9%" height="107.1%" x="-4%" y="-3.5%" filterUnits="objectBoundingBox">
      <feOffset dx="-1" dy="-2" in="SourceAlpha" result="shadowOffsetInner1"/>
      <feComposite in="shadowOffsetInner1" in2="SourceAlpha" k2="-1" k3="1" operator="arithmetic" result="shadowInnerInner1"/>
      <feColorMatrix in="shadowInnerInner1" values="0 0 0 0 0.909803922   0 0 0 0 0.533333333   0 0 0 0 0.258823529  0 0 0 0.1 0"/>
    </filter>
    <path id="img-avatar-1-o" d="M16.9777532,21.4853484 C37.0477058,21.4853484 34.2141518,0 34.2141518,0 L16.9777532,0 L0.247592234,0 C0.247592234,0 -3.09219949,21.4853484 16.9777532,21.4853484 Z"/>
    <filter id="img-avatar-1-p" width="105.8%" height="118.6%" x="-2.9%" y="-4.7%" filterUnits="objectBoundingBox">
      <feOffset dy="2" in="SourceAlpha" result="shadowOffsetOuter1"/>
      <feColorMatrix in="shadowOffsetOuter1" values="0 0 0 0 0.909803922   0 0 0 0 0.533333333   0 0 0 0 0.258823529  0 0 0 0.15 0"/>
    </filter>
    <path id="img-avatar-1-r" d="M67.6115862,114.004411 C68.8230419,130.827491 68.9778469,148.906107 68.1736017,167.007698 C65.8930652,218.336992 72.9860571,272.566194 68.9202774,297.74864 C68.8461233,321.592721 65.2369717,329.785268 57.4861986,407.141149 C51.6942291,464.947369 51.934161,482.999772 51.934161,513.512495 C46.7219343,513.512495 39.3347583,518.328582 28.1920986,513.512495 C25.0935004,483.750255 23.7688544,454.707744 23.7688544,408.232227 C23.7688544,336.475475 30.455799,334.091069 34.5295196,311.38159 C36.2023582,302.056137 34.5295196,303.560618 30.455799,280.307483 C30.4687286,280.284889 30.4816937,280.262363 30.4946941,280.239904 C21.6830678,255.053455 15.2820011,216.991976 7.68351507,173.365462 C-1.99923608,117.772193 -1.91762405,70.0013519 9.05689034,45.9309248 C14.9750292,19.7431024 41.3106587,-2.17274495e-13 72.9032416,-2.17274495e-13 C86.5537937,-2.17274495e-13 99.2229046,3.68591714 109.687621,9.98501161 C111.261636,10.5754835 112.902161,11.5625022 114.6107,12.9771315 C115.573262,13.7741098 116.513392,14.598411 117.431127,15.4501606 C126.500598,22.9145213 133.130835,32.6323993 136.160359,43.5849771 C147.823713,72.6159945 149.023292,115.178052 140.159458,172.567824 C133.41454,216.238467 127.721648,254.489391 119.664211,280.496203 C119.730344,280.605374 119.79561,280.71621 119.859996,280.828722 C115.786276,304.081857 114.113437,302.577376 115.786276,311.902829 C119.859996,334.612308 126.546941,336.996714 126.546941,408.753466 C126.546941,455.228983 126.354145,484.271493 123.255547,514.033733 C112.112887,518.849821 104.725711,514.033733 99.5134845,514.033733 C99.5134845,483.521011 98.6215662,465.468608 92.8295967,407.662388 C85.8446163,337.94943 82.2232854,324.408004 81.5216071,304.960854 C75.7270899,281.07567 82.7733202,222.432175 79.5676259,167.266726 C78.6122617,150.826263 78.3632007,132.334432 78.9235513,113.9494 C76.9411627,114.108872 74.9330525,114.190372 72.9032416,114.190372 C71.1217342,114.190372 69.356943,114.127592 67.6115866,114.004417 Z"/>
    <path id="img-avatar-1-s" d="M17.4653269,-8.69097979e-13 L118.190723,-8.69097979e-13 C118.190723,-8.69097979e-13 101.800593,50.174214 119.621275,87.1426428 C127.200128,102.864728 130.523647,106.71475 135.090517,120.407279 C87.783109,144.93061 21.6459843,127.974116 0.0444435969,120.407279 C2.60099665,112.001909 9.63196011,100.026071 17.9277417,87.1426428 C35.581928,59.7255233 17.4653269,-8.69097979e-13 17.4653269,-8.69097979e-13 Z"/>
    <path id="img-avatar-1-u" d="M54.0801586,3.42409882 C54.0801586,3.42409882 36.4723717,5.79609561 36.4723717,9.09691105 C36.4723717,12.3977265 40.6693654,83.6355264 74.0386693,83.6355264 C107.407973,83.6355264 110.971051,19.1316267 109.692107,7.64568104 C109.692107,5.86250192 100.064587,4.58361855 96.8395584,4.58361855 C96.8395584,3.09490618 96.7964648,3.59958095 96.3305574,0.783154598 C117.007347,5.06355569 132.001133,11.6049657 142.836448,17.6950259 C137.258133,69.1880256 139.014243,62.7970304 145.149961,84.9844326 C146.140156,88.5650833 159.229164,130.219121 117.290518,138.627279 C94.5368057,143.189105 88.6824739,135.341548 74.34703,134.974688 C62.2600109,134.665368 49.2509421,141.614723 27.8279251,138.627279 C1.63513108,134.974688 -2.87302381,110.328051 1.63513108,84.9844326 C5.59187246,62.7407109 10.6057899,66.8448369 5.59187246,17.6950259 C23.1687104,7.64568104 54.4786274,0.642355774 54.4786274,0.642355774 L54.0801586,3.42409882 Z"/>
    <path id="img-avatar-1-w" d="M6.73422952,0 L55.058224,0 C55.058224,0 46.5934615,87.8415384 58.6526357,124.772013 C40.5531604,126.4926 2.67492978,116.658117 1.31036452,104.417728 C-3.14534298,64.449253 6.73422952,0 6.73422952,0 Z"/>
    <filter id="img-avatar-1-x" width="110.3%" height="106.4%" x="-3.4%" y="-1.6%" filterUnits="objectBoundingBox">
      <feOffset dx="2" dy="4" in="SourceAlpha" result="shadowOffsetOuter1"/>
      <feColorMatrix in="shadowOffsetOuter1" values="0 0 0 0 0   0 0 0 0 0   0 0 0 0 0  0 0 0 0.15 0"/>
    </filter>
    <path id="img-avatar-1-z" d="M7.42138211,0.0511622263 L48.6354927,11.6305009 C48.6354927,11.6305009 41.1531029,96.4774414 51.8127572,132.148923 C35.8138052,133.810853 2.33150903,124.311637 1.12530753,112.488534 C-2.81329561,73.8826202 7.42138211,0.0511622263 7.42138211,0.0511622263 Z"/>
    <filter id="img-avatar-1-A" width="109.7%" height="104.5%" x="-6.8%" y="-1.1%" filterUnits="objectBoundingBox">
      <feOffset dx="-2" dy="3" in="SourceAlpha" result="shadowOffsetOuter1"/>
      <feColorMatrix in="shadowOffsetOuter1" values="0 0 0 0 0   0 0 0 0 0   0 0 0 0 0  0 0 0 0.15 0"/>
    </filter>
    <path id="img-avatar-1-D" d="M28.4531781,33.1480442 C33.2184254,42.345364 38.6207153,55.473154 50.5177677,60.540073 C60.6643841,64.8614865 78.2738311,43.9888021 79.8713275,28.8821351 C80.5314046,29.1651634 89.7741113,25.5889985 90.4265387,25.9242253 C102.503322,32.1294546 104.385598,38.9862016 104.385598,48.7302394 C104.385598,59.0006821 85.9043735,95.0071701 56.6632742,95.0071701 C27.4221748,95.0071701 8.94095056,56.931897 8.94095056,50.6566444 C8.94095056,44.3813918 15.0473404,38.5364627 28.4531781,33.1480442 Z"/>
    <filter id="img-avatar-1-C" width="104.2%" height="111.6%" x="-2.1%" y="-2.9%" filterUnits="objectBoundingBox">
      <feOffset dy="4" in="SourceAlpha" result="shadowOffsetOuter1"/>
      <feColorMatrix in="shadowOffsetOuter1" values="0 0 0 0 0   0 0 0 0 0   0 0 0 0 0  0 0 0 0.2 0"/>
    </filter>
    <filter id="img-avatar-1-E" width="103.1%" height="110.1%" x="-1.6%" y="-2.2%" filterUnits="objectBoundingBox">
      <feOffset dx="-3" dy="-3" in="SourceAlpha" result="shadowOffsetInner1"/>
      <feComposite in="shadowOffsetInner1" in2="SourceAlpha" k2="-1" k3="1" operator="arithmetic" result="shadowInnerInner1"/>
      <feColorMatrix in="shadowInnerInner1" values="0 0 0 0 0   0 0 0 0 0.526409245   0 0 0 0 0.645594175  0 0 0 1 0"/>
    </filter>
    <path id="img-avatar-1-F" d="M36.586669,0.334542105 C37.7682587,10.789055 38.6207153,26.925561 50.5177677,31.99248 C60.6643841,36.3138935 76.3296438,15.2935131 78.1291088,0.334542105 C91.0075701,5.85657773 102.921517,25.7926693 102.921517,36.063112 C102.921517,46.3335546 67.7088407,78.2640347 44.8940495,81.1160061 C22.0792583,83.9679776 0.454731157,43.6449997 0.454731157,37.3697471 C0.454731157,31.0944945 23.1808313,5.72296063 36.586669,0.334542105 Z"/>
    <path id="img-avatar-1-H" d="M166.636168,222.719424 C169.077576,215.664591 172.593893,212.6769 180.958974,186.386723 C189.324054,160.096545 192.414536,150.511182 192.414536,117.038608 C192.414536,58.645249 149.729464,0 98.4709683,0 C47.2124723,0 4.52740084,52.7636692 4.52740084,117.038608 C4.52740084,136.898421 5.65925105,164.446401 19.0833925,196.846695 C32.5075339,229.246989 21.9593736,248.613587 14.4000429,251.88466 C8.56738346,254.408568 0.0740566056,250.354665 0.0740566056,250.354665 C0.0740566056,250.354665 7.22107171,266.024746 17.9139613,272.237563 C46.6309463,288.922798 63.0022755,272.237563 67.7850059,263.763131 C80.3216031,241.549762 76.331715,189.007237 47.3363877,136.898421 C98.5272254,129.422279 126.209887,59.4811535 126.209887,59.4811535 C126.209887,59.4811535 154.248227,99.5445308 153.415405,140.912568 C152.977396,162.669384 131.936817,198.074682 124.268089,212.6769 C116.599362,227.279118 110.497982,252.082902 122.089499,266.024746 C133.681016,279.966591 157.069639,286.56481 176.81512,272.237563 C190.014988,262.659789 192.414536,252.29272 192.414536,252.29272 C192.414536,252.29272 188.931665,256.86454 180.958974,255.2379 C172.986283,253.611259 161.238937,238.315576 166.636168,222.719424 Z"/>
    <path id="img-avatar-1-J" d="M4.62465432,0 L216.454987,0 C219.15388,0 221.220974,1.88845575 221.07209,4.21607709 L213.293418,125.826821 C213.14448,128.155296 210.995103,130.042898 208.503818,130.042898 L12.5758227,130.042898 C10.0795377,130.042898 7.93510629,128.154443 7.78622303,125.826821 L0.00755046464,4.21607709 C-0.141387406,1.88760201 1.93116615,0 4.62465432,0 Z"/>
    <filter id="img-avatar-1-K" width="119.9%" height="133.8%" y="-23.1%" filterUnits="objectBoundingBox">
      <feOffset dy="-8" in="SourceAlpha" result="shadowOffsetOuter1"/>
      <feGaussianBlur in="shadowOffsetOuter1" result="shadowBlurOuter1" stdDeviation="6"/>
      <feColorMatrix in="shadowBlurOuter1" values="0 0 0 0 1   0 0 0 0 1   0 0 0 0 1  0 0 0 0.6 0"/>
    </filter>
    <filter id="img-avatar-1-L" width="111.3%" height="119.2%" x="-5.7%" y="-15.8%" filterUnits="objectBoundingBox">
      <feOffset dy="1" in="SourceAlpha" result="shadowOffsetInner1"/>
      <feComposite in="shadowOffsetInner1" in2="SourceAlpha" k2="-1" k3="1" operator="arithmetic" result="shadowInnerInner1"/>
      <feColorMatrix in="shadowInnerInner1" values="0 0 0 0 1   0 0 0 0 1   0 0 0 0 1  0 0 0 1 0"/>
    </filter>
    <path id="img-avatar-1-N" d="M6.82928938,5.68062408 C6.13399396,4.56894359 7.26024232,2.37483955 6.11100658,1.43862374 C4.52907639,0.149916803 1.37005325,-0.667598728 0.397297236,0.83864176 C-0.791759288,2.67980752 1.39960749,6.17186733 1.7873815,8.13343624 C1.95613553,8.98708465 3.56018311,12.1122253 6.12435159,12.3814821 C8.68852008,12.6507389 8.96909565,7.23118785 8.96909565,7.23118785 C8.96909565,7.23118785 7.56799214,6.86170688 6.82928938,5.68062408 Z"/>
    <path id="img-avatar-1-P" d="M27.4836791,38.2394074 C29.2285253,37.7375632 29.1071091,39.3627186 31.1730193,38.248041 C31.7703297,37.9257577 32.9828165,36.8347611 33.1645081,34.3489696 C33.3895969,31.2694429 31.2552651,26.6423498 31.2552651,26.6423498 C31.2552651,26.6423498 31.5215814,18.5306043 28.3314002,17.0727582 C24.9942226,15.5477379 25.4975208,28.7877469 25.4975208,28.7877469 L26.3523354,33.0206417 L24.6146663,28.5011542 C24.6146663,28.5011542 28.8725032,7.4177972 24.8441705,6.90169804 C24.5000907,6.85761545 24.1941504,6.69068821 23.5865175,6.94468404 C20.2417231,9.79543148 18.5254491,28.5393967 18.5254491,28.5393967 L20.2821946,34.7126566 L17.8757643,28.3284957 C17.8757643,28.3284957 22.3667209,3.81267369 19.127287,2.76108718 C18.5841909,2.5847871 17.8100405,2.33348202 17.1681406,2.73975492 C14.3044337,6.62347487 11.6551707,28.2496414 11.6551707,28.2496414 C11.6551707,28.2496414 13.4355213,32.4150766 13.0537986,32.3661714 C12.7489763,31.2867457 11.4132383,28.993547 11.4132383,28.993547 C11.4132383,28.993547 14.3415462,11.6060442 11.4192547,11.5827298 C11.1246725,11.5803796 10.6083759,11.319502 10.0693859,11.7443682 C7.25010259,14.9134617 5.111848,30.9770534 5.111848,30.9770534 C5.111848,30.9770534 10.2490636,37.4073872 11.3676894,37.5507026 C12.9573756,37.7543689 14.1707374,38.4624789 14.4495878,36.6537476 C15.6039918,38.1181675 17.7559717,39.0295875 18.7710781,39.3591118 C19.7861845,39.6886361 20.6992856,38.877522 21.5955529,37.7844723 C22.8294811,38.5840755 23.3194113,40.3824373 25.1873249,39.9696176 C27.0552384,39.5567979 26.2356781,38.5983515 27.4836791,38.2394074 Z"/>
    <filter id="img-avatar-1-Q" width="110.7%" height="110.7%" x="-7.1%" y="-8%" filterUnits="objectBoundingBox">
      <feOffset dx="-1" dy="-2" in="SourceAlpha" result="shadowOffsetOuter1"/>
      <feColorMatrix in="shadowOffsetOuter1" values="0 0 0 0 0   0 0 0 0 0   0 0 0 0 0  0 0 0 0.1 0"/>
    </filter>
    <path id="img-avatar-1-S" d="M1.08899806,1.16730653 C1.39826774,0.232434937 1.82317676,0.0061946835 2.62615428,0.0061946835 C3.4291318,0.0061946835 3.89454226,0.154160228 4.24443829,1.13080781 C4.70368426,2.41267851 4.64804309,4.07914807 4.24443829,4.52323125 C3.84083349,4.96731442 1.49795391,4.93004746 1.13185021,4.52323125 C0.765746513,4.11641503 0.651115701,2.49095322 1.08899806,1.16730653 Z"/>
    <filter id="img-avatar-1-T" width="105.3%" height="108.3%" x="-2.7%" y="-2.1%" filterUnits="objectBoundingBox">
      <feOffset dy=".2" in="SourceAlpha" result="shadowOffsetOuter1"/>
      <feColorMatrix in="shadowOffsetOuter1" values="0 0 0 0 0.909810799   0 0 0 0 0.534690859   0 0 0 0 0.257679211  0 0 0 0.2 0"/>
    </filter>
    <path id="img-avatar-1-V" d="M0.871198449,0.933845222 C1.11861419,0.185947949 1.45854141,0.0049557468 2.10092342,0.0049557468 C2.74330544,0.0049557468 3.11563381,0.123328182 3.39555063,0.904646249 C3.76294741,1.93014281 3.71843447,3.26331845 3.39555063,3.618585 C3.07266679,3.97385154 1.19836313,3.94403797 0.905480169,3.618585 C0.612597211,3.29313202 0.52089256,1.99276257 0.871198449,0.933845222 Z"/>
    <filter id="img-avatar-1-W" width="106.6%" height="110.3%" x="-3.3%" y="-2.6%" filterUnits="objectBoundingBox">
      <feOffset dy=".2" in="SourceAlpha" result="shadowOffsetOuter1"/>
      <feColorMatrix in="shadowOffsetOuter1" values="0 0 0 0 0.909810799   0 0 0 0 0.534690859   0 0 0 0 0.257679211  0 0 0 0.2 0"/>
    </filter>
    <path id="img-avatar-1-Y" d="M1.03454816,1.16730653 C1.32835435,0.232434937 1.73201792,0.0061946835 2.49484657,0.0061946835 C3.25767521,0.0061946835 3.69981515,0.154160228 4.03221638,1.13080781 C4.46850005,2.41267851 4.41564094,4.07914807 4.03221638,4.52323125 C3.64879181,4.96731442 1.42305621,4.93004746 1.0752577,4.52323125 C0.727459188,4.11641503 0.618559916,2.49095322 1.03454816,1.16730653 Z"/>
    <filter id="img-avatar-1-Z" width="105.6%" height="108.3%" x="-2.8%" y="-2.1%" filterUnits="objectBoundingBox">
      <feOffset dy=".2" in="SourceAlpha" result="shadowOffsetOuter1"/>
      <feColorMatrix in="shadowOffsetOuter1" values="0 0 0 0 0.909810799   0 0 0 0 0.534690859   0 0 0 0 0.257679211  0 0 0 0.2 0"/>
    </filter>
    <path id="img-avatar-1-ab" d="M0.958318315,1.16730653 C1.23047563,0.232434937 1.60439558,0.0061946835 2.31101582,0.0061946835 C3.01763605,0.0061946835 3.42719726,0.154160228 3.73510578,1.13080781 C4.13924224,2.41267851 4.09027801,4.07914807 3.73510578,4.52323125 C3.37993354,4.96731442 1.31819947,4.93004746 0.996028207,4.52323125 C0.673856946,4.11641503 0.572981829,2.49095322 0.958318315,1.16730653 Z"/>
    <filter id="img-avatar-1-ac" width="106%" height="108.3%" x="-3%" y="-2.1%" filterUnits="objectBoundingBox">
      <feOffset dy=".2" in="SourceAlpha" result="shadowOffsetOuter1"/>
      <feColorMatrix in="shadowOffsetOuter1" values="0 0 0 0 0.909810799   0 0 0 0 0.534690859   0 0 0 0 0.257679211  0 0 0 0.2 0"/>
    </filter>
    <path id="img-avatar-1-ae" d="M0.870010493,0.311801898 C1.34109065,0.311801898 1.53023137,0.412601619 1.73550371,1.38871471 C2.00492802,2.66988388 1.9722852,4.33544143 1.73550371,4.77928157 C1.60916953,5.01609139 1.47846544,5.18143435 1.05332858,5.16131116 C0.681653834,5.14371851 0.398930338,0.311801898 0.870010493,0.311801898 Z"/>
    <filter id="img-avatar-1-af" width="115.4%" height="108.2%" x="-7.7%" y="-2.1%" filterUnits="objectBoundingBox">
      <feOffset dy=".2" in="SourceAlpha" result="shadowOffsetOuter1"/>
      <feColorMatrix in="shadowOffsetOuter1" values="0 0 0 0 0.909810799   0 0 0 0 0.534690859   0 0 0 0 0.257679211  0 0 0 0.2 0"/>
    </filter>
    <path id="img-avatar-1-ah" d="M6.82928938,5.68062408 C6.13399396,4.56894359 7.26024232,2.37483955 6.11100658,1.43862374 C4.52907639,0.149916803 1.37005325,-0.667598728 0.397297236,0.83864176 C-0.791759288,2.67980752 1.39960749,6.17186733 1.7873815,8.13343624 C1.95613553,8.98708465 3.56018311,12.1122253 6.12435159,12.3814821 C8.68852008,12.6507389 8.96909565,7.23118785 8.96909565,7.23118785 C8.96909565,7.23118785 7.56799214,6.86170688 6.82928938,5.68062408 Z"/>
    <path id="img-avatar-1-aj" d="M27.4836791,38.2394074 C29.2285253,37.7375632 29.1071091,39.3627186 31.1730193,38.248041 C31.7703297,37.9257577 32.9828165,36.8347611 33.1645081,34.3489696 C33.3895969,31.2694429 31.2552651,26.6423498 31.2552651,26.6423498 C31.2552651,26.6423498 31.5215814,18.5306043 28.3314002,17.0727582 C24.9942226,15.5477379 25.4975208,28.7877469 25.4975208,28.7877469 L26.3523354,33.0206417 L24.6146663,28.5011542 C24.6146663,28.5011542 28.8725032,7.4177972 24.8441705,6.90169804 C24.5000907,6.85761545 24.1941504,6.69068821 23.5865175,6.94468404 C20.2417231,9.79543148 18.5254491,28.5393967 18.5254491,28.5393967 L20.2821946,34.7126566 L17.8757643,28.3284957 C17.8757643,28.3284957 22.3667209,3.81267369 19.127287,2.76108718 C18.5841909,2.5847871 17.8100405,2.33348202 17.1681406,2.73975492 C14.3044337,6.62347487 11.6551707,28.2496414 11.6551707,28.2496414 C11.6551707,28.2496414 13.4355213,32.4150766 13.0537986,32.3661714 C12.7489763,31.2867457 11.4132383,28.993547 11.4132383,28.993547 C11.4132383,28.993547 14.3415462,11.6060442 11.4192547,11.5827298 C11.1246725,11.5803796 10.6083759,11.319502 10.0693859,11.7443682 C7.25010259,14.9134617 5.111848,30.9770534 5.111848,30.9770534 C5.111848,30.9770534 10.2490636,37.4073872 11.3676894,37.5507026 C12.9573756,37.7543689 14.1707374,38.4624789 14.4495878,36.6537476 C15.6039918,38.1181675 17.7559717,39.0295875 18.7710781,39.3591118 C19.7861845,39.6886361 20.6992856,38.877522 21.5955529,37.7844723 C22.8294811,38.5840755 23.3194113,40.3824373 25.1873249,39.9696176 C27.0552384,39.5567979 26.2356781,38.5983515 27.4836791,38.2394074 Z"/>
    <filter id="img-avatar-1-ak" width="110.7%" height="110.7%" x="-7.1%" y="-8%" filterUnits="objectBoundingBox">
      <feOffset dx="-1" dy="-2" in="SourceAlpha" result="shadowOffsetOuter1"/>
      <feColorMatrix in="shadowOffsetOuter1" values="0 0 0 0 0   0 0 0 0 0   0 0 0 0 0  0 0 0 0.1 0"/>
    </filter>
    <path id="img-avatar-1-am" d="M1.08899806,1.16730653 C1.39826774,0.232434937 1.82317676,0.0061946835 2.62615428,0.0061946835 C3.4291318,0.0061946835 3.89454226,0.154160228 4.24443829,1.13080781 C4.70368426,2.41267851 4.64804309,4.07914807 4.24443829,4.52323125 C3.84083349,4.96731442 1.49795391,4.93004746 1.13185021,4.52323125 C0.765746513,4.11641503 0.651115701,2.49095322 1.08899806,1.16730653 Z"/>
    <filter id="img-avatar-1-an" width="105.3%" height="108.3%" x="-2.7%" y="-2.1%" filterUnits="objectBoundingBox">
      <feOffset dy=".2" in="SourceAlpha" result="shadowOffsetOuter1"/>
      <feColorMatrix in="shadowOffsetOuter1" values="0 0 0 0 0.909810799   0 0 0 0 0.534690859   0 0 0 0 0.257679211  0 0 0 0.2 0"/>
    </filter>
    <path id="img-avatar-1-ap" d="M0.871198449,0.933845222 C1.11861419,0.185947949 1.45854141,0.0049557468 2.10092342,0.0049557468 C2.74330544,0.0049557468 3.11563381,0.123328182 3.39555063,0.904646249 C3.76294741,1.93014281 3.71843447,3.26331845 3.39555063,3.618585 C3.07266679,3.97385154 1.19836313,3.94403797 0.905480169,3.618585 C0.612597211,3.29313202 0.52089256,1.99276257 0.871198449,0.933845222 Z"/>
    <filter id="img-avatar-1-aq" width="106.6%" height="110.3%" x="-3.3%" y="-2.6%" filterUnits="objectBoundingBox">
      <feOffset dy=".2" in="SourceAlpha" result="shadowOffsetOuter1"/>
      <feColorMatrix in="shadowOffsetOuter1" values="0 0 0 0 0.909810799   0 0 0 0 0.534690859   0 0 0 0 0.257679211  0 0 0 0.2 0"/>
    </filter>
    <path id="img-avatar-1-as" d="M1.03454816,1.16730653 C1.32835435,0.232434937 1.73201792,0.0061946835 2.49484657,0.0061946835 C3.25767521,0.0061946835 3.69981515,0.154160228 4.03221638,1.13080781 C4.46850005,2.41267851 4.41564094,4.07914807 4.03221638,4.52323125 C3.64879181,4.96731442 1.42305621,4.93004746 1.0752577,4.52323125 C0.727459188,4.11641503 0.618559916,2.49095322 1.03454816,1.16730653 Z"/>
    <filter id="img-avatar-1-at" width="105.6%" height="108.3%" x="-2.8%" y="-2.1%" filterUnits="objectBoundingBox">
      <feOffset dy=".2" in="SourceAlpha" result="shadowOffsetOuter1"/>
      <feColorMatrix in="shadowOffsetOuter1" values="0 0 0 0 0.909810799   0 0 0 0 0.534690859   0 0 0 0 0.257679211  0 0 0 0.2 0"/>
    </filter>
    <path id="img-avatar-1-av" d="M0.958318315,1.16730653 C1.23047563,0.232434937 1.60439558,0.0061946835 2.31101582,0.0061946835 C3.01763605,0.0061946835 3.42719726,0.154160228 3.73510578,1.13080781 C4.13924224,2.41267851 4.09027801,4.07914807 3.73510578,4.52323125 C3.37993354,4.96731442 1.31819947,4.93004746 0.996028207,4.52323125 C0.673856946,4.11641503 0.572981829,2.49095322 0.958318315,1.16730653 Z"/>
    <filter id="img-avatar-1-aw" width="106%" height="108.3%" x="-3%" y="-2.1%" filterUnits="objectBoundingBox">
      <feOffset dy=".2" in="SourceAlpha" result="shadowOffsetOuter1"/>
      <feColorMatrix in="shadowOffsetOuter1" values="0 0 0 0 0.909810799   0 0 0 0 0.534690859   0 0 0 0 0.257679211  0 0 0 0.2 0"/>
    </filter>
    <path id="img-avatar-1-ay" d="M0.870010493,0.311801898 C1.34109065,0.311801898 1.53023137,0.412601619 1.73550371,1.38871471 C2.00492802,2.66988388 1.9722852,4.33544143 1.73550371,4.77928157 C1.60916953,5.01609139 1.47846544,5.18143435 1.05332858,5.16131116 C0.681653834,5.14371851 0.398930338,0.311801898 0.870010493,0.311801898 Z"/>
    <filter id="img-avatar-1-az" width="115.4%" height="108.2%" x="-7.7%" y="-2.1%" filterUnits="objectBoundingBox">
      <feOffset dy=".2" in="SourceAlpha" result="shadowOffsetOuter1"/>
      <feColorMatrix in="shadowOffsetOuter1" values="0 0 0 0 0.909810799   0 0 0 0 0.534690859   0 0 0 0 0.257679211  0 0 0 0.2 0"/>
    </filter>
  </defs>
  <g fill="none" fill-rule="evenodd">
    <mask id="img-avatar-1-b" fill="#fff">
      <use xlink:href="#img-avatar-1-a"/>
    </mask>
    <g mask="url(#img-avatar-1-b)">
      <g transform="translate(43.076 34.438)">
        <g transform="translate(10.187)">
          <mask id="img-avatar-1-d" fill="#fff">
            <use xlink:href="#img-avatar-1-c"/>
          </mask>
          <use fill="#312A24" xlink:href="#img-avatar-1-c"/>
          <path fill="#4F4339" d="M32.1460934 215.256555C38.8741913 227.577281 25.0311327 275.328512-.883152655 227.577281 17.535941 238.220567 21.3725153 235.79441 32.1460934 215.256555zM203.767303 230.791911C200.950941 247.312306 169.734424 254.247339 174.703954 214.081575 191.669548 241.220963 196.154947 235.28643 203.767303 230.791911z" mask="url(#img-avatar-1-d)"/>
        </g>
        <path fill="#CC4C80" d="M72.6906527,223.237364 C90.0713405,216.408345 133.996861,214.630937 150.225523,223.35442 C150.225523,229.902946 150.225523,226.087044 150.506818,231.84044 C150.788113,237.593837 72.6906527,235.428143 72.6906527,232.850335 C72.6906527,229.154227 72.1231144,226.562096 72.6906527,223.237364 Z"/>
        <g transform="translate(15.846 223.9)">
          <path fill="#FFD6B8" d="M95.7789932,89.8042508 C155.970733,89.8042508 181.096034,47.4939281 181.096034,47.4939281 C181.096034,47.4939281 182.227884,47.4939281 179.996945,29.4010031 C179.996945,13.1632775 142.291284,0 95.7789932,0 C49.2667029,0 12.4508135,13.1964772 10.4527225,29.4010031 C8.22178335,47.4939281 9.33010247,47.4939281 9.33010247,47.4939281 C9.33010247,47.4939281 35.5872534,89.8042508 95.7789932,89.8042508 Z"/>
          <path fill="#FFD6B8" d="M167.07325,161.09851 C175.091059,161.09851 176.342855,154.634388 176.342855,100.379669 C176.342855,46.1249511 172.372034,21.5865343 164.354225,21.5865343 C156.336415,21.5865343 142.485806,55.4921382 150.323813,108.295324 C158.161821,161.09851 159.05544,161.09851 167.07325,161.09851 Z" transform="rotate(10 162.172 91.343)"/>
          <path fill="#FFD6B8" d="M32.1005344,164.407259 C40.5461911,164.407259 46.2596417,160.498571 46.2596417,106.243853 C46.2596417,51.9891342 40.6514389,27.8434428 32.2057822,27.8434428 C23.7601254,27.8434428 6.20105314,58.8008872 14.4573128,111.604073 C22.7135725,164.407259 23.6548776,164.407259 32.1005344,164.407259 Z" transform="scale(-1 1) rotate(10 0 -238.568)"/>
        </g>
        <g transform="translate(33.956 2.262)">
          <g transform="translate(57.637 176.647)">
            <mask id="img-avatar-1-f" fill="#fff">
              <use xlink:href="#img-avatar-1-e"/>
            </mask>
            <use fill="#FFD6B8" xlink:href="#img-avatar-1-e"/>
            <path fill="#E88842" fill-opacity=".25" d="M46.5210301,6.22794118 C50.8517314,-12.220806 40.3961379,-27.1764706 23.1678082,-27.1764706 C5.93947858,-27.1764706 -4.51611499,-12.220806 -0.185413638,6.22794118 C4.14528771,24.6766884 14.6008813,39.6323529 23.1678082,39.6323529 C31.7347352,39.6323529 42.1903287,24.6766884 46.5210301,6.22794118 Z" mask="url(#img-avatar-1-f)"/>
          </g>
          <use fill="#FFD2B1" xlink:href="#img-avatar-1-g"/>
          <use fill="#000" filter="url(#img-avatar-1-h)" xlink:href="#img-avatar-1-g"/>
          <g fill="#E4ACAC" transform="translate(40.685 134.75)">
            <path d="M79.1212195,9.65439422 C77.071598,7.45467926 73.8699929,5.40253103 70.3946971,8.02863295 C66.9194013,10.6547349 70.4381884,11.9189952 65.9888881,15.2811022 C61.5395878,18.6432091 53.6627341,21.7730239 57.5553035,25.9506456 C61.4478729,30.1282673 69.4311186,29.8668586 75.3863819,25.3667731 C81.3416451,20.8666875 83.0137889,13.8320159 79.1212195,9.65439422 Z" filter="url(#img-avatar-1-i)"/>
            <path d="M5.83544477,24.2344202 C-0.119818483,19.7343346 -1.79196225,12.699663 2.10060713,8.52204128 C4.1502286,6.32232632 7.35183379,4.27017809 10.8271295,6.89628001 C14.3024253,9.52238193 10.7836383,10.7866423 15.2329386,14.1487492 C19.6822389,17.5108562 27.5590925,20.640671 23.6665231,24.8182927 C19.7739537,28.9959143 11.790708,28.7345057 5.83544477,24.2344202" filter="url(#img-avatar-1-j)"/>
          </g>
          <g transform="translate(0 105.309)">
            <use fill="#FFD6B8" xlink:href="#img-avatar-1-k"/>
            <use fill="#000" filter="url(#img-avatar-1-l)" xlink:href="#img-avatar-1-k"/>
            <g transform="matrix(-1 0 0 1 25.225 0)">
              <use fill="#FFD6B8" xlink:href="#img-avatar-1-m"/>
              <use fill="#000" filter="url(#img-avatar-1-n)" xlink:href="#img-avatar-1-m"/>
            </g>
          </g>
          <g fill="#444" transform="translate(92.812 118.735)">
            <path d="M22.5294766,9.2591855 C21.882983,8.93074933 20.958661,8.24142005 19.6469122,7.00875319 C13.7893186,1.50429888 3.42201968,5.42063808 2.6321072,7.26439002 C2.40852629,7.78625512 -0.274703414,9.36903212 1.14925327,6.15273638 C2.4118312,3.30094735 10.2996647,-1.99675998 20.0027201,4.26675862 C21.9233441,3.73074881 23.3816431,2.21834071 24.8907443,0 C24.8907443,2.86132861 23.2598763,4.67499757 22.0305017,5.3213561 C23.6547752,5.18640336 25.4542111,4.58620297 27.2585915,3.33333333 C26.4418496,5.4782172 24.8836136,6.61266978 23.5881154,7.05894932 C25.2898373,7.71756827 27.3873025,7.97318347 29.8693291,7.18147557 C27.6447161,10.0518663 23.5100731,10.0398266 22.6487359,9.36143663 C22.6076197,9.32905346 22.5678544,9.29492038 22.5294766,9.2591855 Z"/>
          </g>
          <g fill="#444" transform="matrix(-1 0 0 1 70.175 118.735)">
            <path d="M22.5294766,9.2591855 C21.882983,8.93074933 20.958661,8.24142005 19.6469122,7.00875319 C13.7893186,1.50429888 3.42201968,5.42063808 2.6321072,7.26439002 C2.40852629,7.78625512 -0.274703414,9.36903212 1.14925327,6.15273638 C2.4118312,3.30094735 10.2996647,-1.99675998 20.0027201,4.26675862 C21.9233441,3.73074881 23.3816431,2.21834071 24.8907443,0 C24.8907443,2.86132861 23.2598763,4.67499757 22.0305017,5.3213561 C23.6547752,5.18640336 25.4542111,4.58620297 27.2585915,3.33333333 C26.4418496,5.4782172 24.8836136,6.61266978 23.5881154,7.05894932 C25.2898373,7.71756827 27.3873025,7.97318347 29.8693291,7.18147557 C27.6447161,10.0518663 23.5100731,10.0398266 22.6487359,9.36143663 C22.6076197,9.32905346 22.5678544,9.29492038 22.5294766,9.2591855 Z"/>
          </g>
          <path fill="#9B8877" d="M96.6931848 110.678726C96.6931848 110.678726 93.0532088 109.630152 96.6931848 108.504121 103.241881 106.478275 117.657959 103.89494 123.269772 105.800232 127.90052 107.372438 130.522531 110.092695 133.048346 113.080781 129.771181 111.022229 126.575916 107.634017 122.681188 107.294908 110.417148 106.227095 96.6931848 110.678726 96.6931848 110.678726zM66.9151171 110.678726C66.9151171 110.678726 70.5550931 109.630152 66.9151171 108.504121 60.3664206 106.478275 45.9503434 103.89494 40.33853 105.800232 35.7077815 107.372438 33.0857708 110.092695 30.5599557 113.080781 33.8371212 111.022229 37.0323855 107.634017 40.9271143 107.294908 53.1911537 106.227095 66.9151171 110.678726 66.9151171 110.678726L66.9151171 110.678726z"/>
        </g>
        <g transform="translate(98.471 158.313)">
          <mask id="img-avatar-1-q" fill="#fff">
            <use xlink:href="#img-avatar-1-o"/>
          </mask>
          <use fill="#000" filter="url(#img-avatar-1-p)" xlink:href="#img-avatar-1-o"/>
          <use fill="#EC6050" xlink:href="#img-avatar-1-o"/>
          <path fill="#F78375" d="M16.9777532,27.1393875 C25.1041001,27.1393875 31.6918059,23.8485681 31.6918059,19.7891367 C31.6918059,16.4171023 29.4488101,12.7097201 23.2127661,12.7097201 C18.0781017,12.7097201 16.9777532,13.5696937 16.9777532,13.5696937 C16.9777532,13.5696937 15.9166436,12.6539019 11.1667689,12.6539019 C5.35578478,12.6539019 2.26370042,16.34065 2.26370042,19.7891367 C2.26370042,23.8485681 8.85140623,27.1393875 16.9777532,27.1393875 Z" mask="url(#img-avatar-1-q)"/>
          <path fill="#FFF" d="M16.9777532,5.68633996 C37.0477058,5.68633996 34.2141518,0 34.2141518,0 L16.9777532,0 L0.247592234,0 C0.247592234,0 -3.09219949,5.68633996 16.9777532,5.68633996 Z" mask="url(#img-avatar-1-q)"/>
        </g>
        <g transform="translate(38.483 419.543)">
          <use fill="#4A4A4A" xlink:href="#img-avatar-1-r"/>
        </g>
        <g transform="translate(39.678 216.855)">
          <path fill="#E88842" fill-opacity=".2" d="M32.2075939,8.98384946 C32.2075939,8.98384946 43.7218618,79.4370229 74.1196966,79.4370229 C104.517532,79.4370229 110.433926,8.88348683 110.433926,8.88348683 L118.726658,9.46335981 L118.726658,100.262321 L27.8653117,100.262321 L27.8653117,10.3815954 L32.2075939,8.98384946 Z"/>
          <g transform="translate(3.459 132.746)">
            <mask id="img-avatar-1-t" fill="#fff">
              <use xlink:href="#img-avatar-1-s"/>
            </mask>
            <use fill="#FA5296" xlink:href="#img-avatar-1-s"/>
            <path fill="#E84B8B" d="M137.096642,121.18509 C122.785533,82.9195272 118.190723,0 118.190723,0 L17.4653269,0 C17.4653269,0 20.0116589,11.9193281 22.0519685,23.871379 C38.21109,11.9193281 68.5521918,13.6598255 86.296676,26.7723372 C104.04116,39.8848489 89.7916496,129.28436 86.296676,137.85365 C97.9100629,135.505629 130.110199,127.332595 137.096642,121.18509 Z" mask="url(#img-avatar-1-t)"/>
            <path fill="#CF3C78" d="M117.703149,63.3252374 L16.9777532,63.3252374 L11.6148207,84.401572 C11.6148207,84.401572 68.2891251,95.3628985 124.963429,84.401572 C121.349025,75.0331137 117.703149,63.3252374 117.703149,63.3252374 Z" mask="url(#img-avatar-1-t)"/>
          </g>
          <mask id="img-avatar-1-v" fill="#fff">
            <use xlink:href="#img-avatar-1-u"/>
          </mask>
          <use fill="#FA5296" xlink:href="#img-avatar-1-u"/>
          <path fill="#CF3C78" d="M-2.90938645,98.9254945 C-2.90938645,98.9254945 -2.86991442,130.695724 30.8902007,132.758853 C41.7001147,133.419462 54.5054864,132.473098 65.0584157,127.551092 C75.611345,122.629085 73.7369122,122.435385 85.0290534,127.551092 C96.3211945,132.666798 112.407794,134.578191 115.404536,134.186232 C136.868405,131.378867 147.485784,120.096434 147.485784,98.9254945 C161.609692,120.096434 150.256082,149.095659 72.2071714,149.095659 C-26.0748305,149.095659 -2.90938645,98.9254945 -2.90938645,98.9254945 Z" mask="url(#img-avatar-1-v)"/>
        </g>
        <g transform="translate(57.74 191.107)">
          <g transform="translate(4.292 47.104)">
            <mask id="img-avatar-1-y" fill="#fff">
              <use xlink:href="#img-avatar-1-w"/>
            </mask>
            <use fill="#000" filter="url(#img-avatar-1-x)" xlink:href="#img-avatar-1-w"/>
            <use fill="#00BCDA" xlink:href="#img-avatar-1-w"/>
            <path fill="#00A5C4" d="M36.7758234,7.13689825 L85.0998178,7.13689825 C85.0998178,7.13689825 76.6350554,94.9784367 88.6942295,131.908911 C70.5947543,133.629499 32.7165237,123.795015 31.3519584,111.554626 C26.8962509,71.5861512 36.7758234,7.13689825 36.7758234,7.13689825 Z" mask="url(#img-avatar-1-y)"/>
          </g>
          <g transform="translate(55.232 26.909)">
            <mask id="img-avatar-1-B" fill="#fff">
              <use xlink:href="#img-avatar-1-z"/>
            </mask>
            <g transform="matrix(-1 0 0 1 52.036 0)">
              <use fill="#000" filter="url(#img-avatar-1-A)" xlink:href="#img-avatar-1-z"/>
              <use fill="#00BCDA" xlink:href="#img-avatar-1-z"/>
            </g>
            <path fill="#00A5C4" d="M37.462976,0.0511622263 L78.6770866,11.6305009 C78.6770866,11.6305009 71.1946968,96.4774414 81.8543511,132.148923 C65.8553991,133.810853 32.3731029,124.311637 31.1669014,112.488534 C27.2282983,73.8826202 37.462976,0.0511622263 37.462976,0.0511622263 Z" mask="url(#img-avatar-1-B)" transform="matrix(-1 0 0 1 112.12 0)"/>
          </g>
          <use fill="#000" filter="url(#img-avatar-1-C)" xlink:href="#img-avatar-1-D"/>
          <use fill="#00A5C4" xlink:href="#img-avatar-1-D"/>
          <use fill="#000" filter="url(#img-avatar-1-E)" xlink:href="#img-avatar-1-D"/>
          <path fill="#000" fill-opacity=".2" d="M28.4531781,10.3099698 C33.2184254,19.5072896 38.6207153,32.6350796 50.5177677,37.7019986 C60.6643841,42.0234121 78.2738311,21.1507277 79.8713275,6.04406071 C92.7497888,11.5660963 102.921517,31.5021879 102.921517,41.7726306 C102.921517,52.0430732 67.7088407,83.9735533 44.8940495,86.8255247 C22.0792583,89.6774962 0.454731157,49.3545183 0.454731157,43.0792657 C0.454731157,36.8040131 15.0473404,15.6983883 28.4531781,10.3099698 Z"/>
          <g>
            <mask id="img-avatar-1-G" fill="#fff">
              <use xlink:href="#img-avatar-1-F"/>
            </mask>
            <use fill="#00BCDA" xlink:href="#img-avatar-1-F"/>
            <path fill="#0086A5" d="M28.3232782,0.101596014 C28.3232782,0.101596014 36.8211117,71.0030543 68.6665003,23.0631934 C100.511889,-24.8766675 28.3232782,0.101596014 28.3232782,0.101596014 Z" mask="url(#img-avatar-1-G)"/>
            <path fill="#00A5C4" d="M29.0874268,6.63369117 C29.0874268,6.63369117 26.129928,52.6611092 48.8078109,52.6611092 C71.4856937,52.6611092 78.2514787,30.791813 78.2514787,8.3398559 C78.2514787,-14.1121011 78.6622036,-2.31531015 78.6622036,-2.31531015 L107.728675,14.3058568 L85.7660682,85.8616253 L35.5514547,96.5153974 C35.5514547,96.5153974 -21.7837878,62.7656747 -21.7837878,61.2476899 C-21.7837878,59.7297051 -16.8928085,8.36215871 -14.7679357,7.49792494 C-12.6430629,6.63369117 27.8901776,-0.687205242 27.8901776,-0.687205242 L29.0874268,6.63369117 Z" mask="url(#img-avatar-1-G)"/>
          </g>
        </g>
        <g transform="translate(16.978)">
          <path fill="#000" fill-opacity=".2" d="M74.62032,225.295788 C74.62032,225.295788 85.9205843,300.060515 29.7270952,287.253344 C23.9708929,285.941436 7.73836262,279.417751 7.73836262,262.3314 C34.7424959,262.3314 74.62032,225.295788 74.62032,225.295788 Z"/>
          <path fill="#000" fill-opacity=".2" d="M179.260148,237.130619 C184.678438,263.104413 173.278695,288.708817 140.975646,288.708817 C138.37648,288.708817 119.684924,286.515116 115.668182,268.992565 C128.839758,276.703923 179.260148,255.786739 179.260148,237.130619 Z" transform="matrix(-1 0 0 1 296.22 0)"/>
          <path fill="#E88842" fill-opacity=".2" d="M126.246617,66.0009672 C126.246617,66.0009672 104.2507,134.889691 56.3382864,144.755547 C54.0566761,145.225364 64.1529162,156.10338 65.5179895,179.541139 C61.5821141,180.04663 64.7219794,179.541139 60.786104,179.541139 C56.8502286,179.541139 41.1701912,140.95082 38.5724383,140.255506 C38.5724383,138.322973 38.5724383,137.715606 38.5724383,134.889691 C96.1497911,132.045002 126.246617,55.9054155 126.246617,55.9054155 C126.246617,55.9054155 144.961937,73.7634314 152.422863,100.83294 C159.88379,127.902448 153.789042,139.518222 153.789042,140.255506 C149.966837,104.692484 126.246617,66.0009672 126.246617,66.0009672 Z"/>
          <mask id="img-avatar-1-I" fill="#fff">
            <use xlink:href="#img-avatar-1-H"/>
          </mask>
          <use fill="#443A31" xlink:href="#img-avatar-1-H"/>
          <path fill="#55493E" d="M139.919456 12.9192584C139.919456 12.9192584 194.376483 67.1152105 188.605595 160.801092 217.352821 50.3209476 139.919456 12.9192584 139.919456 12.9192584zM16.8683262 189.973504C16.8683262 189.973504 7.39987524 148.231721 14.9340119 104.383279 23.7722688 52.9448973 54.1533622-1.44380747 123.021286 4.49010211 49.1735392-25.3755411 3.42045215 38.9857855-4.55282326 93.4415524-12.3649786 146.796904 16.8683262 189.973504 16.8683262 189.973504z" mask="url(#img-avatar-1-I)"/>
          <path fill="#55493E" d="M25.4224168,149.881729 C25.4224168,149.881729 21.0608144,128.897735 27.6861173,94.8177933 C34.3114202,60.737852 56.4189749,10.1838961 113.827213,3.9235939 C45.7161374,-0.856940294 27.0613212,54.7790122 23.0570268,90.8941994 C19.1336492,126.279588 25.4224168,149.881729 25.4224168,149.881729 Z" mask="url(#img-avatar-1-I)"/>
          <path fill="#55493E" d="M123.41897,193.818027 C123.41897,193.818027 113.423417,76.1219574 195.689797,37.2359336 C126.013696,69.3302019 118.277665,123.688948 116.175849,158.469869 C114.074033,193.250789 123.41897,193.818027 123.41897,193.818027 Z" mask="url(#img-avatar-1-I)" transform="rotate(157 155.779 115.527)"/>
          <path fill="#6A5B4E" d="M29.4453766,106.157281 C29.4453766,106.157281 9.40872736,22.3533318 85.5975,-2.57744671 C20.7813903,26.9980365 29.4453766,106.157281 29.4453766,106.157281 Z" mask="url(#img-avatar-1-I)" transform="rotate(10 56.331 51.79)"/>
          <path fill="#6A5B4E" d="M54.017791,101.924487 C54.017791,101.924487 33.9811418,24.0786061 110.169914,0.920289052 C45.3538047,28.3930941 54.017791,101.924487 54.017791,101.924487 Z" mask="url(#img-avatar-1-I)" transform="rotate(4 80.904 51.422)"/>
          <path fill="#6A5B4E" d="M116.096063,147.858695 C116.096063,147.858695 110.460454,52.6918638 186.649226,27.7610853 C121.833117,57.3365685 116.096063,147.858695 116.096063,147.858695 Z" mask="url(#img-avatar-1-I)" transform="scale(-1 1) rotate(-22 0 866.314)"/>
          <path fill="#3A3129" d="M126.332832,59.5363687 C126.332832,59.5363687 79.0968761,163.028474 21.8323295,130.441552 C87.247524,131.915799 126.332832,59.5363687 126.332832,59.5363687 Z" mask="url(#img-avatar-1-I)"/>
          <path fill="#3A3129" d="M126.169797,56.8545652 L126.169797,59.9195623 C126.169797,59.9195623 76.9521952,144.792284 32.8236561,120.617193 C91.3585031,121.887174 126.169797,56.8545652 126.169797,56.8545652 Z" mask="url(#img-avatar-1-I)"/>
          <path fill="#3A3129" d="M126.440601,56.697754 C126.440601,56.697754 168.914275,96.6200182 152.564345,149.42786 C158.504737,112.255062 133.163411,70.7699039 126.440601,59.7909109 C125.346498,58.0041366 126.440601,56.697754 126.440601,56.697754 Z" mask="url(#img-avatar-1-I)"/>
          <path fill="#3A3129" d="M102.806532,184.418316 C102.806532,184.418316 92.8553067,218.277612 74.4036255,242.391948 C67.0998886,251.937136 49.5426463,270.752595 34.4584804,272.620046 C9.73374093,275.681018 -12.6466717,254.19211 -4.19013498,227.1515 C5.61682826,245.714957 18.4676336,256.219 29.812506,256.628773 C66.2796324,257.945952 102.806532,184.418316 102.806532,184.418316 Z" mask="url(#img-avatar-1-I)" transform="rotate(-43 48.398 228.665)"/>
          <path fill="#3A3129" d="M84.0083062,192.069961 C84.0083062,192.069961 85.0754071,219.69216 65.8209364,239.62339 C46.5664658,259.554621 25.2477106,262.587793 13.9461021,238.519849 C56.1337259,276.269485 84.0083062,192.069961 84.0083062,192.069961 Z" mask="url(#img-avatar-1-I)" transform="rotate(-29 48.983 223.825)"/>
          <path fill="#4F4339" d="M123.151954,170.450338 C123.151954,170.450338 103.838432,253.466792 65.7747012,218.893629 C69.7474246,237.063222 86.0748,236.486838 94.1026756,231.776099 C115.566153,219.181377 123.151954,170.450338 123.151954,170.450338 Z" mask="url(#img-avatar-1-I)" transform="rotate(-29 94.463 202.513)"/>
          <path fill="#3A3129" d="M196.134135,185.305602 C196.134135,185.305602 190.691546,208.328905 185.228967,228.24902 C180.806288,244.376978 179.428248,244.609959 176.882167,251.991282 C165.039094,286.325442 119.257028,287.173834 103.668902,248.07065 C117.62222,257.512044 125.87604,262.809655 144.654921,261.628314 C169.612586,260.058279 196.134135,185.305602 196.134135,185.305602 Z" mask="url(#img-avatar-1-I)" transform="scale(-1 1) rotate(-43 0 611.991)"/>
          <path fill="#3A3129" d="M163.390668,222.754173 C163.390668,222.754173 152.131004,267.044873 129.996375,262.031318 C107.861747,257.017762 112.606354,238.308754 112.606354,238.308754 C112.606354,238.308754 115.301777,251.298987 129.730303,254.262389 C144.158828,257.225791 163.390668,222.754173 163.390668,222.754173 Z" mask="url(#img-avatar-1-I)" transform="scale(-1 1) rotate(-43 0 592.378)"/>
          <path fill="#4F4339" d="M77.8779451,170.450338 C77.8779451,170.450338 58.5644233,253.466792 20.5006927,218.893629 C24.4734162,237.063222 40.8007916,236.486838 48.8286672,231.776099 C70.2921445,219.181377 77.8779451,170.450338 77.8779451,170.450338 Z" mask="url(#img-avatar-1-I)" transform="rotate(-29 49.19 202.513)"/>
          <path fill="#4F4339" d="M173.789583,187.088627 C173.789583,187.088627 161.061881,275.176524 123.243527,235.171136 C128.779013,251.803435 145.221229,256.498921 153.249104,251.788181 C174.712582,239.193459 173.789583,187.088627 173.789583,187.088627 Z" mask="url(#img-avatar-1-I)" transform="scale(-1 1) rotate(-29 0 794.586)"/>
          <path fill="#55493E" d="M25.3914678,227.271388 C25.3914678,227.271388 25.3914678,274.050831 -1.17164182,250.60203 C18.9662283,243.968472 25.3914678,227.271388 25.3914678,227.271388 Z" mask="url(#img-avatar-1-I)"/>
          <path fill="#55493E" d="M47.8123652,133.115196 C47.8123652,133.115196 37.0354737,85.147405 105.741782,46.4808743 C28.365596,70.5448173 47.8123652,133.115196 47.8123652,133.115196 Z" mask="url(#img-avatar-1-I)" transform="scale(1 -1) rotate(84 175.42 0)"/>
        </g>
        <g transform="translate(0 298.533)">
          <mask id="img-avatar-1-M" fill="#fff">
            <use xlink:href="#img-avatar-1-J"/>
          </mask>
          <use fill="#000" filter="url(#img-avatar-1-K)" xlink:href="#img-avatar-1-J"/>
          <use fill="#D8D8D8" xlink:href="#img-avatar-1-J"/>
          <use fill="#000" filter="url(#img-avatar-1-L)" xlink:href="#img-avatar-1-J"/>
          <path fill="#000" fill-opacity=".15" d="M226.202033,-11.0739656 L226.202033,139.99489 L6.31802325,131.637514 C6.31802325,131.637514 143.113995,127.238001 179.031291,104.259597 C199.78262,90.983753 217.713157,31.3975856 217.713157,-11.0739656 C217.713157,-53.5455168 226.202033,-11.0739656 226.202033,-11.0739656 Z" mask="url(#img-avatar-1-M)"/>
          <path fill="#FFF" fill-opacity=".3" d="M94.5537055,-8.27344934 L167.195498,-8.27344934 C167.195498,-8.27344934 125.20165,32.8671728 106.004846,59.9151451 C80.8251633,95.3928938 34.0660386,179.303714 34.0660386,179.303714 L-4.27980861,111.053278 C-4.27980861,111.053278 39.5649354,72.021097 58.3212349,49.3756629 C72.5094401,32.2455212 94.5537055,-8.27344934 94.5537055,-8.27344934 Z" mask="url(#img-avatar-1-M)"/>
          <g fill="#FFF" mask="url(#img-avatar-1-M)">
            <g transform="translate(97.34 48.625)">
              <path d="M22.9898169,9.03183529 C20.5251534,9.47673295 18.6755285,11.3439569 18.6755285,13.5798676 C18.6755285,16.0968612 21.0194279,18.1466441 23.946044,18.2261606 C21.9292645,23.8152043 18.9582717,26.4312061 15.5466024,26.4312061 C14.0704787,26.4312061 14.8015551,25.516774 12.6950868,25.516774 C10.5886185,25.516774 11.9271548,26.4312061 9.6652851,26.4312061 C8.24767449,26.4312061 5.16600081,26.7665516 1.16190117,17.1539354 C-2.12926558,9.25285258 6.03557881,6.10681691 7.83238412,6.66087897 C10.3959833,7.45138923 10.6380126,7.92595318 12.6950868,7.92595318 C14.752161,7.92595318 14.0438873,7.25011977 17.1192344,6.66087897 C18.4967395,6.39694707 21.1748311,7.0985746 22.9898169,9.03183529 Z"/>
              <path d="M14.5154056,7.98118825 C14.5154056,7.98118825 16.0716996,6.24085109 16.0716996,4.0940364 C16.0716996,1.94722171 14.5154056,0.206884547 14.5154056,0.206884547 C14.5154056,0.206884547 12.9591115,1.94722171 12.9591115,4.0940364 C12.9591115,6.24085109 14.5154056,7.98118825 14.5154056,7.98118825 Z" transform="rotate(36 14.515 4.094)"/>
            </g>
          </g>
        </g>
        <g transform="scale(-1 1) rotate(-6 3733.619 2131.63)">
          <g transform="translate(.871 20.096)">
            <mask id="img-avatar-1-O" fill="#fff">
              <use xlink:href="#img-avatar-1-N"/>
            </mask>
            <use fill="#FFD6B8" xlink:href="#img-avatar-1-N"/>
            <path fill="#E88842" fill-opacity=".2" d="M-0.0722794746,3.24743061 C-0.0722794746,3.24743061 5.30770278,10.6562624 8.18779864,5.64491398 C8.66975232,9.5787456 9.31559172,12.6973916 9.31559172,12.6973916 L0.260790039,12.6973916 L-0.0722794746,3.24743061 Z" mask="url(#img-avatar-1-O)"/>
          </g>
          <mask id="img-avatar-1-R" fill="#fff">
            <use xlink:href="#img-avatar-1-P"/>
          </mask>
          <g transform="rotate(-12 19.146 21.276)">
            <use fill="#000" filter="url(#img-avatar-1-Q)" xlink:href="#img-avatar-1-P"/>
            <use fill="#FFD6B8" xlink:href="#img-avatar-1-P"/>
          </g>
          <path fill="#E88842" fill-opacity=".2" d="M11.7889156,15.6943608 C11.7889156,15.6943608 9.25575174,2.57726056 13.0670167,3.54524043 C14.3637658,3.874587 12.3170951,25.3724401 13.9799279,28.8071471 C15.6427608,32.2418541 18.9195325,28.4836718 19.7428667,28.4836718 C19.9011572,28.4836718 19.85897,24.9055455 19.2326237,21.0471746 C18.3203971,15.4277456 18.3090211,8.16943265 20.7481938,6.64076761 C20.7158896,13.32225 19.736535,16.2571935 20.4196863,22.0500939 C21.1028375,27.8429943 21.0592394,28.6219007 23.0907743,28.835227 C26.0534951,29.1463347 26.2556405,26.7294938 26.2556405,26.7294938 C26.2556405,26.7294938 23.4543687,12.2658265 26.4030905,15.3403787 C26.0325589,18.8625048 27.3210764,29.2794401 30.5736528,28.1223049 C33.8262292,26.9651697 32.3633147,24.0482232 32.3633147,24.0482232 L39.0581179,37.8686317 L11.335899,41.8957917 C11.335899,41.8957917 6.84296544,37.5120518 6.26969511,32.5928532 C5.25020782,23.8446934 8.00458882,12.3734892 9.02457497,13.5155053 C8.05157182,17.2447706 6.95554181,26.4417241 8.50625981,30.370422 C8.95288067,31.5019227 9.44783439,31.69822 10.126502,31.496603 C12.5042158,30.7902371 12.8703811,28.3707269 12.8233087,27.7570667 C12.5860881,24.6645355 11.7889156,15.6943608 11.7889156,15.6943608 Z" mask="url(#img-avatar-1-R)"/>
          <g transform="translate(18.537 6.578)">
            <mask id="img-avatar-1-U" fill="#fff">
              <use xlink:href="#img-avatar-1-S"/>
            </mask>
            <use fill="#000" filter="url(#img-avatar-1-T)" xlink:href="#img-avatar-1-S"/>
            <use fill="#FFF" xlink:href="#img-avatar-1-S"/>
            <ellipse cx="2.682" cy="3.508" fill="#FFE1E1" mask="url(#img-avatar-1-U)" rx="2.594" ry="2.259"/>
          </g>
          <g transform="rotate(-13 83.674 -99.186)">
            <mask id="img-avatar-1-X" fill="#fff">
              <use xlink:href="#img-avatar-1-V"/>
            </mask>
            <use fill="#000" filter="url(#img-avatar-1-W)" xlink:href="#img-avatar-1-V"/>
            <use fill="#FFF" xlink:href="#img-avatar-1-V"/>
            <ellipse cx="2.146" cy="2.806" fill="#FFE1E1" mask="url(#img-avatar-1-X)" rx="2.075" ry="1.807"/>
          </g>
          <g transform="translate(11.865 3.45)">
            <mask id="img-avatar-1-aa" fill="#fff">
              <use xlink:href="#img-avatar-1-Y"/>
            </mask>
            <use fill="#000" filter="url(#img-avatar-1-Z)" xlink:href="#img-avatar-1-Y"/>
            <use fill="#FFF" xlink:href="#img-avatar-1-Y"/>
            <ellipse cx="2.548" cy="3.508" fill="#FFE1E1" mask="url(#img-avatar-1-aa)" rx="2.464" ry="2.259"/>
          </g>
          <g transform="rotate(-6 137.627 -56.448)">
            <mask id="img-avatar-1-ad" fill="#fff">
              <use xlink:href="#img-avatar-1-ab"/>
            </mask>
            <use fill="#000" filter="url(#img-avatar-1-ac)" xlink:href="#img-avatar-1-ab"/>
            <use fill="#FFF" xlink:href="#img-avatar-1-ab"/>
            <ellipse cx="2.361" cy="3.508" fill="#FFE1E1" mask="url(#img-avatar-1-ad)" rx="2.283" ry="2.259"/>
          </g>
          <g transform="rotate(-6 203.146 9.771)">
            <mask id="img-avatar-1-ag" fill="#fff">
              <use xlink:href="#img-avatar-1-ae"/>
            </mask>
            <g transform="rotate(-9 1.274 2.737)">
              <use fill="#000" filter="url(#img-avatar-1-af)" xlink:href="#img-avatar-1-ae"/>
              <use fill="#FFF" xlink:href="#img-avatar-1-ae"/>
            </g>
            <ellipse cx="1.346" cy="3.766" fill="#FFE1E1" mask="url(#img-avatar-1-ag)" rx="2.049" ry="2.259"/>
          </g>
        </g>
        <g transform="rotate(-6 3840.46 92.968)">
          <g transform="translate(.871 20.096)">
            <mask id="img-avatar-1-ai" fill="#fff">
              <use xlink:href="#img-avatar-1-ah"/>
            </mask>
            <use fill="#FFD6B8" xlink:href="#img-avatar-1-ah"/>
            <path fill="#E88842" fill-opacity=".2" d="M-0.0722794746,3.24743061 C-0.0722794746,3.24743061 5.30770278,10.6562624 8.18779864,5.64491398 C8.66975232,9.5787456 9.31559172,12.6973916 9.31559172,12.6973916 L0.260790039,12.6973916 L-0.0722794746,3.24743061 Z" mask="url(#img-avatar-1-ai)"/>
          </g>
          <mask id="img-avatar-1-al" fill="#fff">
            <use xlink:href="#img-avatar-1-aj"/>
          </mask>
          <g transform="rotate(-12 19.146 21.276)">
            <use fill="#000" filter="url(#img-avatar-1-ak)" xlink:href="#img-avatar-1-aj"/>
            <use fill="#FFD6B8" xlink:href="#img-avatar-1-aj"/>
          </g>
          <path fill="#E88842" fill-opacity=".2" d="M11.7889156,15.6943608 C11.7889156,15.6943608 9.25575174,2.57726056 13.0670167,3.54524043 C14.3637658,3.874587 12.3170951,25.3724401 13.9799279,28.8071471 C15.6427608,32.2418541 18.9195325,28.4836718 19.7428667,28.4836718 C19.9011572,28.4836718 19.85897,24.9055455 19.2326237,21.0471746 C18.3203971,15.4277456 18.3090211,8.16943265 20.7481938,6.64076761 C20.7158896,13.32225 19.736535,16.2571935 20.4196863,22.0500939 C21.1028375,27.8429943 21.0592394,28.6219007 23.0907743,28.835227 C26.0534951,29.1463347 26.2556405,26.7294938 26.2556405,26.7294938 C26.2556405,26.7294938 23.4543687,12.2658265 26.4030905,15.3403787 C26.0325589,18.8625048 27.3210764,29.2794401 30.5736528,28.1223049 C33.8262292,26.9651697 32.3633147,24.0482232 32.3633147,24.0482232 L39.0581179,37.8686317 L11.335899,41.8957917 C11.335899,41.8957917 6.84296544,37.5120518 6.26969511,32.5928532 C5.25020782,23.8446934 8.00458882,12.3734892 9.02457497,13.5155053 C8.05157182,17.2447706 6.95554181,26.4417241 8.50625981,30.370422 C8.95288067,31.5019227 9.44783439,31.69822 10.126502,31.496603 C12.5042158,30.7902371 12.8703811,28.3707269 12.8233087,27.7570667 C12.5860881,24.6645355 11.7889156,15.6943608 11.7889156,15.6943608 Z" mask="url(#img-avatar-1-al)"/>
          <g transform="translate(18.537 6.578)">
            <mask id="img-avatar-1-ao" fill="#fff">
              <use xlink:href="#img-avatar-1-am"/>
            </mask>
            <use fill="#000" filter="url(#img-avatar-1-an)" xlink:href="#img-avatar-1-am"/>
            <use fill="#FFF" xlink:href="#img-avatar-1-am"/>
            <ellipse cx="2.682" cy="3.508" fill="#FFE1E1" mask="url(#img-avatar-1-ao)" rx="2.594" ry="2.259"/>
          </g>
          <g transform="rotate(-13 83.674 -99.186)">
            <mask id="img-avatar-1-ar" fill="#fff">
              <use xlink:href="#img-avatar-1-ap"/>
            </mask>
            <use fill="#000" filter="url(#img-avatar-1-aq)" xlink:href="#img-avatar-1-ap"/>
            <use fill="#FFF" xlink:href="#img-avatar-1-ap"/>
            <ellipse cx="2.146" cy="2.806" fill="#FFE1E1" mask="url(#img-avatar-1-ar)" rx="2.075" ry="1.807"/>
          </g>
          <g transform="translate(11.865 3.45)">
            <mask id="img-avatar-1-au" fill="#fff">
              <use xlink:href="#img-avatar-1-as"/>
            </mask>
            <use fill="#000" filter="url(#img-avatar-1-at)" xlink:href="#img-avatar-1-as"/>
            <use fill="#FFF" xlink:href="#img-avatar-1-as"/>
            <ellipse cx="2.548" cy="3.508" fill="#FFE1E1" mask="url(#img-avatar-1-au)" rx="2.464" ry="2.259"/>
          </g>
          <g transform="rotate(-6 137.627 -56.448)">
            <mask id="img-avatar-1-ax" fill="#fff">
              <use xlink:href="#img-avatar-1-av"/>
            </mask>
            <use fill="#000" filter="url(#img-avatar-1-aw)" xlink:href="#img-avatar-1-av"/>
            <use fill="#FFF" xlink:href="#img-avatar-1-av"/>
            <ellipse cx="2.361" cy="3.508" fill="#FFE1E1" mask="url(#img-avatar-1-ax)" rx="2.283" ry="2.259"/>
          </g>
          <g transform="rotate(-6 203.146 9.771)">
            <mask id="img-avatar-1-aA" fill="#fff">
              <use xlink:href="#img-avatar-1-ay"/>
            </mask>
            <g transform="rotate(-9 1.274 2.737)">
              <use fill="#000" filter="url(#img-avatar-1-az)" xlink:href="#img-avatar-1-ay"/>
              <use fill="#FFF" xlink:href="#img-avatar-1-ay"/>
            </g>
            <ellipse cx="1.346" cy="3.766" fill="#FFE1E1" mask="url(#img-avatar-1-aA)" rx="2.049" ry="2.259"/>
          </g>
        </g>
      </g>
    </g>
  </g>
</svg>
