<svg xmlns="http://www.w3.org/2000/svg" xmlns:xlink="http://www.w3.org/1999/xlink" width="350" height="296" viewBox="0 0 350 296">
  <defs>
    <ellipse id="img-bugs-a" cx="34.08" cy="34.667" rx="34.08" ry="34.667"/>
    <path id="img-bugs-c" d="M22.5300195,59.0303819 C39.7833951,59.0303819 62.48,49.3281598 62.48,31.7777778 C62.48,14.2273957 48.4933756,0 31.24,0 C13.9866244,0 4.06308594,25.591111 4.06308594,43.1414931 C4.06308594,50.602105 8.82507813,59.0303819 22.5300195,59.0303819 Z"/>
    <path id="img-bugs-d" d="M20.0446318,57.3964878 C33.4652892,57.3964878 51.12,49.8495473 51.12,36.1978614 C51.12,22.5461756 40.2404076,11.4792976 26.8197503,11.4792976 C13.3990929,11.4792976 5.68,31.38552 5.68,45.0372058 C5.68,50.8404944 9.38414851,57.3964878 20.0446318,57.3964878 Z"/>
    <path id="img-bugs-e" d="M16.4057611,57.3964878 C26.4266768,57.3964878 39.609069,51.7613499 39.609069,41.5679302 C39.609069,31.3745105 31.4855118,23.1111111 21.4645961,23.1111111 C11.4436804,23.1111111 5.68,37.9746585 5.68,48.1680782 C5.68,52.5012688 8.44580789,57.3964878 16.4057611,57.3964878 Z"/>
    <ellipse id="img-bugs-f" cx="33.498" cy="52.809" rx="3.35" ry="3.41"/>
    <filter id="img-bugs-g" width="107.5%" height="107.3%" x="-3.7%" y="-3.7%" filterUnits="objectBoundingBox">
      <feOffset dy="-.5" in="SourceAlpha" result="shadowOffsetInner1"/>
      <feComposite in="shadowOffsetInner1" in2="SourceAlpha" k2="-1" k3="1" operator="arithmetic" result="shadowInnerInner1"/>
      <feColorMatrix in="shadowInnerInner1" values="0 0 0 0 0.2   0 0 0 0 0.2   0 0 0 0 0.2  0 0 0 1 0"/>
    </filter>
    <ellipse id="img-bugs-h" cx="25.961" cy="55.366" rx="2.512" ry="2.557"/>
    <filter id="img-bugs-i" width="110%" height="109.8%" x="-5%" y="-4.9%" filterUnits="objectBoundingBox">
      <feOffset dy="-.5" in="SourceAlpha" result="shadowOffsetInner1"/>
      <feComposite in="shadowOffsetInner1" in2="SourceAlpha" k2="-1" k3="1" operator="arithmetic" result="shadowInnerInner1"/>
      <feColorMatrix in="shadowInnerInner1" values="0 0 0 0 0.2   0 0 0 0 0.2   0 0 0 0 0.2  0 0 0 1 0"/>
    </filter>
    <path id="img-bugs-j" d="M10.1052056,60.8377642 C19.6238201,55.5500925 44.771529,45.8746262 55.7451733,34.2982257 C75.9981072,12.9328465 61.6531314,2.47973837 49.7714572,0.47630387 C39.4805086,-1.25890964 27.4787069,0.789964842 12.4905894,23.0386812 C-2.49752814,45.2873976 0.186681612,54.4802515 0.186681612,54.4802515 C0.186681612,54.4802515 2.05628604,65.3090077 10.1052056,60.8377642 Z"/>
    <path id="img-bugs-l" d="M33.7096715,61.9497718 C40.721534,67.6111322 48.0051272,63.9447095 48.3177655,57.9198142 C48.6304039,51.8949189 44.5102362,50.0684848 40.2164336,48.0984918 C35.9226311,46.1284987 31.7899498,44.7919448 30.9835771,43.7726635 C30.5118759,43.1764179 30.2024995,42.7646559 30.0618604,42.5683826 C28.776986,40.7752366 26.2804028,40.3622313 24.4855857,41.6459094 C22.6907686,42.9295875 22.2773783,45.4238463 23.5622527,47.2169923 C24.3472545,48.3125256 29.2538257,58.3521329 33.7096715,61.9497718 Z"/>
    <filter id="img-bugs-m" width="107.8%" height="108.4%" x="-3.9%" y="-4.2%" filterUnits="objectBoundingBox">
      <feOffset dx="-1" dy="-2" in="SourceAlpha" result="shadowOffsetInner1"/>
      <feComposite in="shadowOffsetInner1" in2="SourceAlpha" k2="-1" k3="1" operator="arithmetic" result="shadowInnerInner1"/>
      <feColorMatrix in="shadowInnerInner1" values="0 0 0 0 0   0 0 0 0 0   0 0 0 0 0  0 0 0 0.2 0"/>
    </filter>
    <ellipse id="img-bugs-n" cx="22.815" cy="38.631" rx="8.987" ry="9.077"/>
    <filter id="img-bugs-o" width="111.1%" height="111%" x="-5.6%" y="-5.5%" filterUnits="objectBoundingBox">
      <feOffset dy="-2" in="SourceAlpha" result="shadowOffsetInner1"/>
      <feComposite in="shadowOffsetInner1" in2="SourceAlpha" k2="-1" k3="1" operator="arithmetic" result="shadowInnerInner1"/>
      <feColorMatrix in="shadowInnerInner1" values="0 0 0 0 0   0 0 0 0 0   0 0 0 0 0  0 0 0 0.2 0"/>
    </filter>
    <ellipse id="img-bugs-p" cx="20.569" cy="40.9" rx="2.247" ry="2.269"/>
    <filter id="img-bugs-q" width="111.1%" height="111%" x="-5.6%" y="-5.5%" filterUnits="objectBoundingBox">
      <feOffset dy="-.5" in="SourceAlpha" result="shadowOffsetInner1"/>
      <feComposite in="shadowOffsetInner1" in2="SourceAlpha" k2="-1" k3="1" operator="arithmetic" result="shadowInnerInner1"/>
      <feColorMatrix in="shadowInnerInner1" values="0 0 0 0 0.2   0 0 0 0 0.2   0 0 0 0 0.2  0 0 0 1 0"/>
    </filter>
    <ellipse id="img-bugs-r" cx="15.513" cy="42.602" rx="1.685" ry="1.702"/>
    <filter id="img-bugs-s" width="114.8%" height="114.7%" x="-7.4%" y="-7.3%" filterUnits="objectBoundingBox">
      <feOffset dy="-.5" in="SourceAlpha" result="shadowOffsetInner1"/>
      <feComposite in="shadowOffsetInner1" in2="SourceAlpha" k2="-1" k3="1" operator="arithmetic" result="shadowInnerInner1"/>
      <feColorMatrix in="shadowInnerInner1" values="0 0 0 0 0.2   0 0 0 0 0.2   0 0 0 0 0.2  0 0 0 1 0"/>
    </filter>
    <path id="img-bugs-t" d="M70.0473763,51.110301 C66.5752404,40.3143188 51.773287,43.5929597 52.5694459,39.6118891 C58.0756726,12.0788463 46.4788057,0.836437004 42.6391054,1.71984952 C38.0031941,2.78644897 28.7703667,26.7638338 32.991583,44.5041127 C37.7304411,53.1394771 51.1289997,52.379598 60.4758367,52.4278298 C67.0338088,52.4616703 71.4790295,55.5617691 70.0473763,51.110301 Z"/>
    <filter id="img-bugs-u" width="113%" height="109.6%" x="-6.5%" y="-4.8%" filterUnits="objectBoundingBox">
      <feOffset dx="5" dy="-2" in="SourceAlpha" result="shadowOffsetInner1"/>
      <feComposite in="shadowOffsetInner1" in2="SourceAlpha" k2="-1" k3="1" operator="arithmetic" result="shadowInnerInner1"/>
      <feColorMatrix in="shadowInnerInner1" values="0 0 0 0 0   0 0 0 0 0   0 0 0 0 0  0 0 0 0.1 0"/>
    </filter>
  </defs>
  <g fill="none" fill-rule="evenodd" transform="translate(7 40)">
    <path stroke="#FB0066" stroke-dasharray="8" stroke-width="4" d="M239.63178,75.8564362 C143.305008,46.8151314 66.7989196,94.9876047 66.7989196,121.882083 C66.7989196,148.776561 66.0173463,164.675123 93.5634938,164.675123 C121.708152,164.675123 130.854034,151.293154 119.173734,117.894092 C107.493434,84.4950293 63.1840206,71.1767182 9.98677494,97.9365163" transform="scale(1 -1) rotate(18 855.71 0)"/>
    <path stroke="#00C3DA" stroke-dasharray="8" stroke-width="4" d="M198.78972,107.384775 C59.300731,86.6132172 41.7356181,173.576349 42.5217399,186.404399 C43.3078617,199.232449 51.1466982,212.710663 66.9508893,211.449618 C82.7550804,210.188573 93.0982055,221.143884 80.5964899,183.435233 C68.0947744,145.726582 40.8427123,162.393186 5.66544867,171.012359" transform="scale(1 -1) rotate(4 4629.64 0)"/>
    <g transform="scale(-1 1) rotate(14 -22.972 -753.291)">
      <path fill="#FFDC6A" fill-opacity=".8" d="M68.9609327,69.4004267 C84.5314518,69.4004267 105.01428,60.6445381 105.01428,44.8059819 C105.01428,28.9674257 92.3918799,16.1277389 76.8213608,16.1277389 C61.2508417,16.1277389 52.2952234,39.222749 52.2952234,55.0613053 C52.2952234,61.7942255 56.5927413,69.4004267 68.9609327,69.4004267 Z" transform="rotate(-46 78.655 42.764)"/>
      <g transform="translate(39.76 52)">
        <mask id="img-bugs-b" fill="#fff">
          <use xlink:href="#img-bugs-a"/>
        </mask>
        <use fill="#FFC30D" xlink:href="#img-bugs-a"/>
        <ellipse cx="34.08" cy="28.889" fill="#FFD659" mask="url(#img-bugs-b)" rx="34.08" ry="28.889"/>
        <path fill="#555" d="M0,-17.3333333 L22.72,-17.3333333 C22.72,-17.3333333 42.4003125,6.16145833 42.4003125,37.5555556 C42.4003125,68.9496528 22.72,92.4444444 22.72,92.4444444 L0,92.4444444 C0,92.4444444 32.5601563,72.0980903 32.5601563,37.5555556 C32.5601563,3.01302083 0,-17.3333333 0,-17.3333333 Z" mask="url(#img-bugs-b)"/>
        <path fill="#555" d="M28.4,-17.3333333 L39.76,-17.3333333 C39.76,-17.3333333 59.4403125,6.16145833 59.4403125,37.5555556 C59.4403125,68.9496528 39.76,92.4444444 39.76,92.4444444 L28.4,92.4444444 C28.4,92.4444444 49.6001563,72.0980903 49.6001563,37.5555556 C49.6001563,3.01302083 28.4,-17.3333333 28.4,-17.3333333 Z" mask="url(#img-bugs-b)"/>
      </g>
      <path fill="#555" fill-rule="nonzero" d="M54.5202837 66.119604C52.5923988 62.281622 49.9716372 58.453626 46.5514215 54.8838339 40.0485129 48.0965336 31.4465128 43.064178 20.5139939 40.5173481 18.9850874 40.1611754 17.461815 41.1331999 17.1116699 42.6884256 16.7615247 44.2436513 17.7170996 45.7931459 19.2460061 46.1493186 29.0931648 48.443304 36.7298252 52.910915 42.4837123 58.9164369 45.4860327 62.0500578 47.7824413 65.40429 49.4623141 68.7485362 50.453394 70.7215517 51.0104044 72.2185135 51.2245796 72.9989607 51.6463007 74.535698 53.2128627 75.433712 54.7235937 75.0047312 56.2343246 74.5757504 57.1171415 72.9822211 56.6954204 71.4454838 56.3839977 70.3106701 55.6938585 68.4559254 54.5202837 66.119604zM38.6567969 64.822757C29.974318 59.8552323 19.3360587 58.0537752 6.99518499 61.2419946 5.47495969 61.6347392 4.555568 63.2067225 4.94166617 64.7531176 5.32776435 66.2995126 6.87314487 67.2347311 8.39337017 66.8419865 19.2501505 64.0371771 28.4076946 65.5878935 35.8723017 69.8586347 37.5464412 70.8164636 38.990223 71.8385724 40.1959982 72.852663 40.8939477 73.439658 41.3410637 73.8740228 41.5298893 74.0816129 42.595124 75.2527054 44.3919593 75.3236548 45.5432333 74.2400827 46.6945073 73.1565107 46.764256 71.328744 45.6990214 70.1576514 44.4236189 68.7555057 42.0681908 66.7745248 38.6567969 64.822757z"/>
      <ellipse cx="56.8" cy="92.444" fill="#4A4A4A" rx="5.68" ry="5.778"/>
      <ellipse cx="44.02" cy="96.778" fill="#4A4A4A" rx="4.26" ry="4.333"/>
      <g transform="translate(79.52 23.111)">
        <use fill="#FFDE7A" fill-opacity=".8" xlink:href="#img-bugs-c"/>
        <use fill="#FFCE3A" fill-opacity=".8" xlink:href="#img-bugs-d"/>
        <use fill="#FFC000" fill-opacity=".8" xlink:href="#img-bugs-e"/>
      </g>
    </g>
    <g transform="rotate(-6 733.65 -1786.233)">
      <path fill="#C33770" d="M96.6718354,32.7221206 C107.827188,6.53727949 87.0250728,-3.98278922 76.0525616,3.69998802 C70.0694596,7.88926056 66.0994769,6.91628626 54.9441244,33.1011274 C43.788772,59.2859685 53.310734,75.146335 53.310734,75.146335 C53.310734,75.146335 85.516483,58.9069617 96.6718354,32.7221206 Z"/>
      <path fill="#00A5C4" fill-rule="nonzero" d="M53.2504411,85.3511954 C58.8215474,90.0934472 59.9872166,91.2449289 70.0943287,95.0980038 C76.7029001,97.6173506 80.3072868,94.8820818 81.6671242,91.7199615 C84.201223,85.8272529 81.0825039,82.2597135 78.5039892,80.4906882 C69.2749256,74.1589626 73.5388918,76.4420242 64.0554416,68.7244446 C57.9518931,63.7574102 57.9968096,67.5542004 53.2925827,62.2299493 C51.6531567,60.3744444 50.22741,58.6575658 49.0252113,57.1259078 C48.321965,56.2299388 47.8607245,55.6111906 47.6510495,55.3162538 C45.7354659,52.6217213 42.0133794,52.0011047 39.3375364,53.9300677 C36.6616935,55.8590307 36.0453815,59.6071143 37.960965,62.3016467 C39.1313023,63.9478875 46.7364512,79.8063397 53.2504411,85.3511954 Z"/>
      <path fill="#313F45" fill-opacity=".1" fill-rule="nonzero" d="M53.2504411,85.3511954 C58.8215474,90.0934472 59.9872166,91.2449289 70.0943287,95.0980038 C76.7029001,97.6173506 80.3072868,94.8820818 81.6671242,91.7199615 C71.8360036,93.8714556 61.6195823,87.7226636 55.8986868,82.5217349 C50.1777914,77.3208063 47.0786683,67.8649463 47.1841661,64.642548 C47.2896639,61.4201497 48.206556,60.0927909 49.0252113,57.1259078 C48.4870209,56.5315672 47.8607245,55.6111906 47.6510495,55.3162538 C45.7354659,52.6217213 42.0133794,52.0011047 39.3375364,53.9300677 C36.6616935,55.8590307 36.0453815,59.6071143 37.960965,62.3016467 C39.1313023,63.9478875 46.7364512,79.8063397 53.2504411,85.3511954 Z"/>
      <path fill="#313F45" fill-opacity=".1" fill-rule="nonzero" d="M53.2504411,85.3511954 C58.8215474,90.0934472 59.9872166,91.2449289 70.0943287,95.0980038 C76.7029001,97.6173506 83.1433249,94.8490002 82.3588162,85.6754946 C78.9902484,95.5609811 65.1673167,85.893032 59.4464212,80.6921034 C53.7255258,75.4911748 50.0793928,68.0291161 49.234624,65.162966 C48.3898551,62.2968158 48.6099048,61.1635198 49.4951961,57.7839173 C48.7300244,56.9061408 47.8607245,55.6111906 47.6510495,55.3162538 C45.7354659,52.6217213 42.0133794,52.0011047 39.3375364,53.9300677 C36.6616935,55.8590307 36.0453815,59.6071143 37.960965,62.3016467 C39.1313023,63.9478875 46.7364512,79.8063397 53.2504411,85.3511954 Z"/>
      <ellipse cx="36.847" cy="49.399" fill="#00A5C4" rx="13.399" ry="13.64" transform="matrix(-1 0 0 1 73.695 0)"/>
      <path fill="#313F45" fill-opacity=".2" d="M36.8474801,63.0386014 C44.2475897,63.0386014 50.2465638,56.9318906 50.2465638,49.3988811 C46.5035284,54.9839679 35.0469359,64.5716329 23.4483964,49.3988811 C23.4483964,56.9318906 29.4473705,63.0386014 36.8474801,63.0386014 Z" transform="matrix(-1 0 0 1 73.695 0)"/>
      <use fill="#4A4A4A" xlink:href="#img-bugs-f"/>
      <use fill="#000" filter="url(#img-bugs-g)" xlink:href="#img-bugs-f"/>
      <use fill="#4A4A4A" xlink:href="#img-bugs-h"/>
      <use fill="#000" filter="url(#img-bugs-i)" xlink:href="#img-bugs-h"/>
      <path fill="#555" fill-rule="nonzero" d="M32.1532502 37.2724115C31.0162831 35.0073105 29.4706932 32.748103 27.4536264 30.6412824 23.6185465 26.6355521 18.5455307 23.6655554 12.0980951 22.1624668 11.1964249 21.9522608 10.2980775 22.5259304 10.0915799 23.4437938 9.88508239 24.3616573 10.4486312 25.2761383 11.3503013 25.4863444 17.1576474 26.8402091 21.6613557 29.4769047 25.0547014 33.0212449 26.8253151 34.8706459 28.1796183 36.8502473 29.1703207 38.8239552 29.7548085 39.9883899 30.0833044 40.8718671 30.2096139 41.3324716 30.4583233 42.2394235 31.3822007 42.7694137 32.2731519 42.5162377 33.164103 42.2630617 33.6847429 41.3225922 33.4360335 40.4156403 33.2523725 39.7458957 32.845364 38.6512621 32.1532502 37.2724115zM22.7977842 36.507038C17.6773061 33.5753033 11.4034097 32.512119 4.12539916 34.3937429 3.22884872 34.625533 2.68663894 35.5532865 2.91433972 36.4659382 3.14204051 37.37859 4.0534262 37.9305374 4.94997664 37.6987473 11.3527455 36.0434044 16.7533925 36.9586065 21.1556326 39.4791134 22.1429537 40.044405 22.9944217 40.6476334 23.7055256 41.2461296 24.1171403 41.5925625 24.3808262 41.8489159 24.4921858 41.9714315 25.1204063 42.6625871 26.180087 42.70446 26.859049 42.0649573 27.538011 41.4254545 27.5791452 40.3467428 26.9509248 39.6555871 26.1987582 38.8280685 24.8096483 37.6589328 22.7977842 36.507038z"/>
      <g transform="translate(55.759 10.32)">
        <mask id="img-bugs-k" fill="#fff">
          <use xlink:href="#img-bugs-j"/>
        </mask>
        <use fill="#E63C81" xlink:href="#img-bugs-j"/>
        <path fill="#FA5296" d="M17.4086189,43.6045979 C27.9770194,43.0374158 48.6781223,37.7739235 58.0827174,25.0767622 C67.9538018,11.7497929 60.5903906,-1.59180041 48.2957494,-2.76174452 C23.7364332,-5.0987812 10.3862037,9.61033453 5.29937476,26.5842248 C0.212545814,43.5581151 -0.121404214,44.5453944 17.4086189,43.6045979 Z" mask="url(#img-bugs-k)" transform="rotate(-5 32.467 20.422)"/>
        <path fill="#9366B3" d="M29.6875306,34.0964986 C42.696844,36.1651393 51.0265484,30.1803133 50.636043,24.4591541 C50.2455375,18.7379949 41.3190133,13.1715955 29.6875306,14.8218096 C18.0560479,16.4720238 8.73901825,19.1365957 8.73901825,24.4591541 C8.73901825,29.7817125 16.6782172,32.027858 29.6875306,34.0964986 Z" transform="rotate(-33 29.694 24.521)"/>
        <path fill="#FFF" d="M27.3470765,30.7060509 C34.5672652,32.0422406 39.1902638,28.1764834 38.9735327,24.4810354 C38.7568016,20.7855875 33.8025671,17.190103 27.3470765,18.2560199 C20.891586,19.3219369 15.7206204,21.0430543 15.7206204,24.4810354 C15.7206204,27.9190166 20.1268879,29.3698613 27.3470765,30.7060509 Z" opacity=".4" transform="rotate(-33 27.35 24.521)"/>
      </g>
    </g>
    <g transform="rotate(-3 3143.253 -2961.74)">
      <path fill="#6D4886" d="M61.7081536,56.3024905 C58.1013813,45.5065083 42.791783,44.9478958 43.6188139,40.9668252 C49.3385514,13.4337824 23.7089185,9.63145148 19.7203292,10.514864 C14.9046546,11.5814634 18.896896,28.1187699 23.2817952,45.8590489 C28.2044083,54.4944132 42.0893531,55.6531608 51.7986253,55.7013925 C58.6108909,55.7352331 63.1953209,60.7539585 61.7081536,56.3024905 Z" transform="rotate(2 39.758 34.273)"/>
      <g fill-rule="nonzero">
        <use fill="#FA5296" fill-rule="evenodd" xlink:href="#img-bugs-l"/>
        <use fill="#000" filter="url(#img-bugs-m)" xlink:href="#img-bugs-l"/>
      </g>
      <g transform="matrix(-1 0 0 1 45.63 0)">
        <use fill="#FA5296" xlink:href="#img-bugs-n"/>
        <use fill="#000" filter="url(#img-bugs-o)" xlink:href="#img-bugs-n"/>
      </g>
      <use fill="#4A4A4A" xlink:href="#img-bugs-p"/>
      <use fill="#000" filter="url(#img-bugs-q)" xlink:href="#img-bugs-p"/>
      <use fill="#4A4A4A" xlink:href="#img-bugs-r"/>
      <use fill="#000" filter="url(#img-bugs-s)" xlink:href="#img-bugs-r"/>
      <path fill="#555" fill-rule="nonzero" d="M19.6667379 30.560643C18.9041192 29.0532732 17.8674173 27.5498254 16.5144732 26.1477873 13.9420999 23.482071 10.5393831 21.5056102 6.21477672 20.5053412 5.60998298 20.3654541 5.00741797 20.7472173 4.86891009 21.3580332 4.7304022 21.9688491 5.10840157 22.577414 5.71319531 22.7173011 9.60846284 23.6182652 12.6293175 25.3729222 14.9053984 27.7315947 16.0930345 28.9623262 17.0014311 30.279703 17.665943 31.5931578 18.0579872 32.3680608 18.2783253 32.9559935 18.3630472 33.2625146 18.5298685 33.8660691 19.1495577 34.2187647 19.7471617 34.0502822 20.3447657 33.8817997 20.693984 33.2559401 20.5271626 32.6523856 20.4039723 32.2066868 20.130972 31.4782347 19.6667379 30.560643zM13.391575 30.0513055C9.957023 28.1003071 5.74881768 27.3927837.867104473 28.6449589.265744789 28.7992096-.0979414986 29.416607.0547884136 30.0239546.207518326 30.6313022.818828727 30.9986099 1.42018841 30.8443592 5.71483473 29.7427686 9.33730952 30.3518134 12.2901046 32.0291496 12.9523485 32.4053375 13.5234693 32.8067714 14.000441 33.2050561 14.2765308 33.4355988 14.4533977 33.6061958 14.528092 33.6877269 14.9494698 34.1476742 15.6602488 34.1755396 16.1156615 33.7499661 16.5710741 33.3243925 16.5986648 32.6065359 16.177287 32.1465886 15.6727725 31.595895 14.7410294 30.8178636 13.391575 30.0513055z"/>
      <g transform="rotate(2 51.115 27.59)">
        <use fill="#9366B3" xlink:href="#img-bugs-t"/>
        <use fill="#000" filter="url(#img-bugs-u)" xlink:href="#img-bugs-t"/>
      </g>
    </g>
  </g>
</svg>
