<svg xmlns="http://www.w3.org/2000/svg" xmlns:xlink="http://www.w3.org/1999/xlink" width="189" height="100" viewBox="0 0 189 100">
  <defs>
    <path id="img-bugs-footer-a" d="M22.1774155,39.7387336 C26.7904829,43.4863947 31.5823205,41.0593261 31.7880036,37.0710152 C31.9936868,33.0827042 29.2830501,31.8736563 26.45818,30.5695764 C23.6333099,29.2654965 20.9144407,28.3807354 20.3839323,27.706 C20.0736025,27.3113021 19.8700655,27.0387273 19.7775397,26.9087999 C18.9322276,25.7217878 17.2897387,25.4483899 16.1089379,26.2981486 C14.9281372,27.1479074 14.65617,28.7990364 15.5014821,29.9860486 C16.0179306,30.7112608 19.245938,37.357198 22.1774155,39.7387336 Z"/>
    <filter id="img-bugs-footer-b" width="111.9%" height="112.7%" x="-6%" y="-6.3%" filterUnits="objectBoundingBox">
      <feOffset dx="-1" dy="-2" in="SourceAlpha" result="shadowOffsetInner1"/>
      <feComposite in="shadowOffsetInner1" in2="SourceAlpha" k2="-1" k3="1" operator="arithmetic" result="shadowInnerInner1"/>
      <feColorMatrix in="shadowInnerInner1" values="0 0 0 0 0   0 0 0 0 0   0 0 0 0 0  0 0 0 0.2 0"/>
    </filter>
    <ellipse id="img-bugs-footer-c" cx="15.01" cy="24.302" rx="5.913" ry="6.009"/>
    <filter id="img-bugs-footer-d" width="116.9%" height="116.6%" x="-8.5%" y="-8.3%" filterUnits="objectBoundingBox">
      <feOffset dy="-2" in="SourceAlpha" result="shadowOffsetInner1"/>
      <feComposite in="shadowOffsetInner1" in2="SourceAlpha" k2="-1" k3="1" operator="arithmetic" result="shadowInnerInner1"/>
      <feColorMatrix in="shadowInnerInner1" values="0 0 0 0 0   0 0 0 0 0   0 0 0 0 0  0 0 0 0.2 0"/>
    </filter>
    <ellipse id="img-bugs-footer-e" cx="13.532" cy="25.804" rx="1.478" ry="1.502"/>
    <filter id="img-bugs-footer-f" width="116.9%" height="116.6%" x="-8.5%" y="-8.3%" filterUnits="objectBoundingBox">
      <feOffset dy="-.5" in="SourceAlpha" result="shadowOffsetInner1"/>
      <feComposite in="shadowOffsetInner1" in2="SourceAlpha" k2="-1" k3="1" operator="arithmetic" result="shadowInnerInner1"/>
      <feColorMatrix in="shadowInnerInner1" values="0 0 0 0 0.2   0 0 0 0 0.2   0 0 0 0 0.2  0 0 0 1 0"/>
    </filter>
    <ellipse id="img-bugs-footer-g" cx="10.206" cy="26.931" rx="1.109" ry="1.127"/>
    <filter id="img-bugs-footer-h" width="122.6%" height="122.2%" x="-11.3%" y="-11.1%" filterUnits="objectBoundingBox">
      <feOffset dy="-.5" in="SourceAlpha" result="shadowOffsetInner1"/>
      <feComposite in="shadowOffsetInner1" in2="SourceAlpha" k2="-1" k3="1" operator="arithmetic" result="shadowInnerInner1"/>
      <feColorMatrix in="shadowInnerInner1" values="0 0 0 0 0.2   0 0 0 0 0.2   0 0 0 0 0.2  0 0 0 1 0"/>
    </filter>
    <path id="img-bugs-footer-i" d="M42.3302629,33.7826839 C40.8122548,26.6360478 34.3408822,28.8064157 34.6889607,26.1710591 C37.0962676,7.94496035 32.0261498,0.502802069 30.3474437,1.08759627 C28.3206362,1.79365506 24.2840699,17.6660084 26.1295739,29.4095733 C28.2013893,35.1259413 34.0592017,34.6229227 38.1456126,34.6548508 C41.0127396,34.6772523 42.9561777,36.7294304 42.3302629,33.7826839 Z"/>
    <filter id="img-bugs-footer-j" width="129.8%" height="114.6%" x="-14.9%" y="-7.3%" filterUnits="objectBoundingBox">
      <feOffset dx="5" dy="-2" in="SourceAlpha" result="shadowOffsetInner1"/>
      <feComposite in="shadowOffsetInner1" in2="SourceAlpha" k2="-1" k3="1" operator="arithmetic" result="shadowInnerInner1"/>
      <feColorMatrix in="shadowInnerInner1" values="0 0 0 0 0   0 0 0 0 0   0 0 0 0 0  0 0 0 0.1 0"/>
    </filter>
    <ellipse id="img-bugs-footer-k" cx="18.96" cy="19" rx="18.96" ry="19"/>
    <path id="img-bugs-footer-m" d="M12.5343066,32.3531901 C22.1330156,32.3531901 34.76,27.0356261 34.76,17.4166667 C34.76,7.79770727 26.978709,0 17.38,0 C7.78129105,0 2.26044922,14.0258974 2.26044922,23.6448568 C2.26044922,27.733846 4.90972656,32.3531901 12.5343066,32.3531901 Z"/>
    <path id="img-bugs-footer-n" d="M11.1515909,31.4576904 C18.618013,31.4576904 28.44,27.3213865 28.44,19.8392125 C28.44,12.3570385 22.387269,6.29153808 14.920847,6.29153808 C7.45442494,6.29153808 3.16,17.2016792 3.16,24.6838532 C3.16,27.8645017 5.22075868,31.4576904 11.1515909,31.4576904 Z"/>
    <path id="img-bugs-footer-o" d="M9.12714878,31.4576904 C14.7021653,31.4576904 22.0360314,28.3692014 22.0360314,22.7824233 C22.0360314,17.1956452 17.5165875,12.6666667 11.9415711,12.6666667 C6.36655458,12.6666667 3.16,20.813034 3.16,26.3998121 C3.16,28.7747338 4.69872411,31.4576904 9.12714878,31.4576904 Z"/>
    <ellipse id="img-bugs-footer-p" cx="9.799" cy="15.556" rx="1" ry="1.004"/>
    <filter id="img-bugs-footer-q" width="125.5%" height="124.9%" x="-12.8%" y="-12.4%" filterUnits="objectBoundingBox">
      <feOffset dy="-.5" in="SourceAlpha" result="shadowOffsetInner1"/>
      <feComposite in="shadowOffsetInner1" in2="SourceAlpha" k2="-1" k3="1" operator="arithmetic" result="shadowInnerInner1"/>
      <feColorMatrix in="shadowInnerInner1" values="0 0 0 0 0.2   0 0 0 0 0.2   0 0 0 0 0.2  0 0 0 1 0"/>
    </filter>
    <ellipse id="img-bugs-footer-r" cx="7.594" cy="16.309" rx="1" ry="1"/>
    <filter id="img-bugs-footer-s" width="134%" height="133.2%" x="-17%" y="-16.6%" filterUnits="objectBoundingBox">
      <feOffset dy="-.5" in="SourceAlpha" result="shadowOffsetInner1"/>
      <feComposite in="shadowOffsetInner1" in2="SourceAlpha" k2="-1" k3="1" operator="arithmetic" result="shadowInnerInner1"/>
      <feColorMatrix in="shadowInnerInner1" values="0 0 0 0 0.2   0 0 0 0 0.2   0 0 0 0 0.2  0 0 0 1 0"/>
    </filter>
    <path id="img-bugs-footer-t" d="M2.95594448,17.9212018 C5.74030111,16.3635931 13.0964336,13.5134558 16.3064112,10.1033533 C22.2307388,3.80967572 18.0345895,0.730465566 14.5589977,0.140306566 C11.5487202,-0.3708416 8.03798909,0.232702822 3.65370982,6.78658827 C-0.730569457,13.3404737 0.0546075465,16.0484462 0.0546075465,16.0484462 C0.0546075465,16.0484462 0.601498638,19.2383123 2.95594448,17.9212018 Z"/>
  </defs>
  <g fill="none" fill-rule="evenodd">
    <g transform="scale(-1 1) rotate(-3 -21.841 2325.457)">
      <path fill="#6D4886" d="M40.5974695,36.0003924 C38.224593,28.8537563 28.1524888,28.4839706 28.6965881,25.848614 C32.4595733,7.62251529 15.5979727,5.1054793 12.9739008,5.6902735 C9.80569379,6.39633229 12.4321685,17.3435633 15.3169705,29.0871283 C18.5555318,34.8034962 27.6903639,35.5705545 34.078043,35.6024825 C38.5597966,35.624884 41.575869,38.9471389 40.5974695,36.0003924 Z" transform="rotate(2 26.157 21.417)"/>
      <g fill-rule="nonzero">
        <use fill="#FA5296" fill-rule="evenodd" xlink:href="#img-bugs-footer-a"/>
        <use fill="#000" filter="url(#img-bugs-footer-b)" xlink:href="#img-bugs-footer-a"/>
      </g>
      <g transform="matrix(-1 0 0 1 30.02 0)">
        <use fill="#FA5296" xlink:href="#img-bugs-footer-c"/>
        <use fill="#000" filter="url(#img-bugs-footer-d)" xlink:href="#img-bugs-footer-c"/>
      </g>
      <use fill="#4A4A4A" xlink:href="#img-bugs-footer-e"/>
      <use fill="#000" filter="url(#img-bugs-footer-f)" xlink:href="#img-bugs-footer-e"/>
      <use fill="#4A4A4A" xlink:href="#img-bugs-footer-g"/>
      <use fill="#000" filter="url(#img-bugs-footer-h)" xlink:href="#img-bugs-footer-g"/>
      <path fill="#555" fill-rule="nonzero" d="M12.9386433 18.9600145C12.4369205 17.9621782 11.7548798 16.9669381 10.864785 16.0388284 9.17243413 14.2741992 6.9338047 12.9658379 4.08866889 12.303688 3.69077828 12.2110867 3.29435393 12.4638032 3.20323032 12.8681461 3.11210671 13.272489 3.36079051 13.6753418 3.75868112 13.7679431 6.32135713 14.364356 8.30876151 15.5258895 9.80618313 17.0872642 10.5875227 17.9019739 11.185152 18.7740402 11.6223309 19.6435102 11.8802547 20.1564742 12.025214 20.5456691 12.0809521 20.7485774 12.190703 21.1481135 12.5983933 21.3815881 12.9915538 21.2700574 13.3847143 21.1585267 13.6144632 20.7442253 13.5047123 20.3446892 13.423666 20.0496492 13.2440606 19.5674344 12.9386433 18.9600145zM8.81024669 18.6228475C6.55067303 17.3313415 3.7821169 16.8629809.570463469 17.6918856.174832098 17.7939952-.0644351965 18.2026949.0360450089 18.6047419.136525214 19.006789.53870311 19.2499363.934334481 19.1478266 3.75975969 18.4186047 6.14296679 18.8217752 8.08559512 19.9321245 8.52128193 20.1811503 8.89701925 20.4468883 9.21081646 20.7105415 9.39245449 20.8631543 9.5088143 20.9760847 9.55795525 21.030056 9.83517749 21.3345282 10.3027953 21.3529743 10.6024089 21.0712566 10.9020224 20.7895388 10.9201742 20.314338 10.6429519 20.0098659 10.3110346 19.6453222 9.69804564 19.1302873 8.81024669 18.6228475z"/>
      <g transform="rotate(2 34.053 18.213)">
        <use fill="#9366B3" xlink:href="#img-bugs-footer-i"/>
        <use fill="#000" filter="url(#img-bugs-footer-j)" xlink:href="#img-bugs-footer-i"/>
      </g>
    </g>
    <g transform="scale(-1 1) rotate(28 -28.073 -117.687)">
      <path fill="#FFDC6A" fill-opacity=".8" d="M38.3655893,38.0367723 C47.0280612,38.0367723 58.4234372,33.2378718 58.4234372,24.5571247 C58.4234372,15.8763775 51.4011163,8.83924153 42.7386444,8.83924153 C34.0761725,8.83924153 29.0938215,21.4970836 29.0938215,30.1778308 C29.0938215,33.867989 31.4846941,38.0367723 38.3655893,38.0367723 Z" transform="rotate(-46 43.759 23.438)"/>
      <g transform="translate(22.12 28.5)">
        <mask id="img-bugs-footer-l" fill="#fff">
          <use xlink:href="#img-bugs-footer-k"/>
        </mask>
        <use fill="#FFC30D" xlink:href="#img-bugs-footer-k"/>
        <ellipse cx="18.96" cy="15.833" fill="#FFD659" mask="url(#img-bugs-footer-l)" rx="18.96" ry="15.833"/>
        <path fill="#555" d="M0,-9.5 L12.64,-9.5 C12.64,-9.5 23.5889063,3.37695312 23.5889063,20.5833333 C23.5889063,37.7897135 12.64,50.6666667 12.64,50.6666667 L0,50.6666667 C0,50.6666667 18.1144531,39.5152995 18.1144531,20.5833333 C18.1144531,1.65136719 0,-9.5 0,-9.5 Z" mask="url(#img-bugs-footer-l)"/>
        <path fill="#555" d="M15.8,-9.5 L22.12,-9.5 C22.12,-9.5 33.0689063,3.37695312 33.0689063,20.5833333 C33.0689063,37.7897135 22.12,50.6666667 22.12,50.6666667 L15.8,50.6666667 C15.8,50.6666667 27.5944531,39.5152995 27.5944531,20.5833333 C27.5944531,1.65136719 15.8,-9.5 15.8,-9.5 Z" mask="url(#img-bugs-footer-l)"/>
      </g>
      <path fill="#555" fill-rule="nonzero" d="M30.3317072 36.2386291C29.2591515 34.1351197 27.8011221 32.0370835 25.898326 30.0805628 22.2805107 26.3606001 17.4948909 23.6024822 11.4127149 22.2066235 10.5621261 22.0114134 9.71467174 22.5441576 9.51987267 23.396541 9.3250736 24.2489243 9.85669624 25.0981665 10.7072851 25.2933765 16.1856339 26.550657 20.4341985 28.9992515 23.6353047 32.2907395 25.3056097 34.0082048 26.5831892 35.846582 27.5177663 37.6794862 28.0691418 38.7608504 28.3790278 39.5813006 28.4981816 40.0090458 28.7328011 40.851296 29.6043391 41.3434768 30.4448162 41.1083623 31.2852933 40.8732478 31.7764379 39.9998712 31.5418184 39.1576209 31.3685621 38.5356558 30.9846114 37.519113 30.3317072 36.2386291zM21.5062462 35.5278572C16.675853 32.8052715 10.7573848 31.8179345 3.89168742 33.5653239 3.04592828 33.7805782 2.53443572 34.642146 2.74923681 35.4896894 2.96403791 36.3372329 3.82379186 36.8498045 4.66955101 36.6345503 10.7095908 35.097299 15.8042808 35.9472109 19.9571256 38.2879055 20.8885131 38.8128695 21.6917438 39.3730637 22.3625624 39.9288634 22.7508582 40.2505818 22.9996059 40.4886471 23.1046567 40.6024225 23.6972873 41.2442712 24.6969351 41.2831569 25.3374326 40.6892761 25.9779301 40.0953953 26.016734 39.0936385 25.4241034 38.4517897 24.7145486 37.683306 23.4041343 36.5975761 21.5062462 35.5278572z"/>
      <ellipse cx="31.6" cy="50.667" fill="#4A4A4A" rx="3.16" ry="3.167"/>
      <ellipse cx="24.49" cy="53.042" fill="#4A4A4A" rx="2.37" ry="2.375"/>
      <g transform="translate(44.24 12.667)">
        <use fill="#FFDE7A" fill-opacity=".8" xlink:href="#img-bugs-footer-m"/>
        <use fill="#FFCE3A" fill-opacity=".8" xlink:href="#img-bugs-footer-n"/>
        <use fill="#FFC000" fill-opacity=".8" xlink:href="#img-bugs-footer-o"/>
      </g>
    </g>
    <g transform="scale(-1 1) rotate(-6 70.562 1760.77)">
      <path fill="#C33770" d="M28.2781559,9.63907429 C31.5412862,1.92571024 25.4563138,-1.17322473 22.2466677,1.08991895 C20.4965086,2.32396823 19.3352211,2.03735564 16.0720908,9.7507197 C12.8089605,17.4640837 15.5942963,22.1361297 15.5942963,22.1361297 C15.5942963,22.1361297 25.0150256,17.3524383 28.2781559,9.63907429 Z"/>
      <path fill="#00A5C4" fill-rule="nonzero" d="M15.5766596,25.1422126 C17.206303,26.539155 17.547281,26.8783511 20.5037832,28.0133654 C22.4369028,28.7554986 23.4912472,27.9497605 23.8890227,27.0182832 C24.6302897,25.2824466 23.7180113,24.2315435 22.963752,23.7104353 C20.2640939,21.8452758 21.5113765,22.5178056 18.7373061,20.24441 C16.9519143,18.7812526 16.9650532,19.8996869 15.5889868,18.3313029 C15.1094268,17.7847201 14.6923716,17.2789729 14.3407081,16.8277868 C14.1349966,16.5638579 14.0000759,16.381591 13.9387424,16.2947104 C13.3784016,15.5009722 12.289628,15.3181549 11.5068984,15.8863765 C10.7241689,16.4545982 10.5438871,17.5586848 11.1042279,18.3524231 C11.4465714,18.8373622 13.6712068,23.5088443 15.5766596,25.1422126 Z"/>
      <path fill="#313F45" fill-opacity=".1" fill-rule="nonzero" d="M15.5766596,25.1422126 C17.206303,26.539155 17.547281,26.8783511 20.5037832,28.0133654 C22.4369028,28.7554986 23.4912472,27.9497605 23.8890227,27.0182832 C21.0132528,27.6520567 18.0247758,25.8407846 16.3513166,24.3087281 C14.6778573,22.7766716 13.7713111,19.9912245 13.802171,19.0419909 C13.8330309,18.0927573 14.1012375,17.7017524 14.3407081,16.8277868 C14.1832782,16.6527097 14.0000759,16.381591 13.9387424,16.2947104 C13.3784016,15.5009722 12.289628,15.3181549 11.5068984,15.8863765 C10.7241689,16.4545982 10.5438871,17.5586848 11.1042279,18.3524231 C11.4465714,18.8373622 13.6712068,23.5088443 15.5766596,25.1422126 Z"/>
      <path fill="#313F45" fill-opacity=".1" fill-rule="nonzero" d="M15.5766596,25.1422126 C17.206303,26.539155 17.547281,26.8783511 20.5037832,28.0133654 C22.4369028,28.7554986 24.3208365,27.9400155 24.0913544,25.2377426 C23.105991,28.1497464 19.0625484,25.3018234 17.3890892,23.7697669 C15.71563,22.2377104 14.6490741,20.0395846 14.4019648,19.1952923 C14.1548556,18.351 14.2192239,18.0171609 14.4781866,17.0216191 C14.2543609,16.7630492 14.0000759,16.381591 13.9387424,16.2947104 C13.3784016,15.5009722 12.289628,15.3181549 11.5068984,15.8863765 C10.7241689,16.4545982 10.5438871,17.5586848 11.1042279,18.3524231 C11.4465714,18.8373622 13.6712068,23.5088443 15.5766596,25.1422126 Z"/>
      <ellipse cx="10.779" cy="14.552" fill="#00A5C4" rx="3.919" ry="4.018" transform="matrix(-1 0 0 1 21.557 0)"/>
      <path fill="#313F45" fill-opacity=".2" d="M10.7785146,18.5695105 C12.9431725,18.5695105 14.6979744,16.7706344 14.6979744,14.5516084 C13.6030729,16.1968277 10.2518248,19.0211012 6.85905474,14.5516084 C6.85905474,16.7706344 8.61385669,18.5695105 10.7785146,18.5695105 Z" transform="matrix(-1 0 0 1 21.557 0)"/>
      <use fill="#4A4A4A" xlink:href="#img-bugs-footer-p"/>
      <use fill="#000" filter="url(#img-bugs-footer-q)" xlink:href="#img-bugs-footer-p"/>
      <use fill="#4A4A4A" xlink:href="#img-bugs-footer-r"/>
      <use fill="#000" filter="url(#img-bugs-footer-s)" xlink:href="#img-bugs-footer-r"/>
      <path fill="#555" fill-rule="nonzero" d="M9.4053725 10.97947C9.0727903 10.312231 8.62067895 9.64672801 8.03065262 9.02611419 6.90882652 7.84613162 5.42488312 6.97124888 3.53889857 6.5284786 3.27514471 6.46655743 3.01236281 6.63554538 2.95195876 6.90592376 2.89155471 7.17630214 3.05640231 7.44568414 3.32015617 7.50760531 5.01890367 7.90641818 6.33631493 8.68311921 7.32892626 9.72718841 7.84686087 10.2719732 8.24301761 10.8551116 8.53281489 11.4365139 8.70378751 11.7795257 8.79987816 12.0397748 8.83682584 12.1754568 8.90957756 12.4426209 9.17982741 12.598742 9.44044578 12.524163 9.70106415 12.4495841 9.85336017 12.1725465 9.78060845 11.9053824 9.72688447 11.7080933 9.60782757 11.3856431 9.4053725 10.97947zM6.66873959 10.7540112C5.17091267 9.89039941 3.33569128 9.57721334 1.20674942 10.1314902.944493164 10.1997694.785887582 10.4730611.852493933 10.7419043.919100284 11.0107474 1.1856961 11.1733366 1.44795235 11.1050573 3.32087113 10.6174369 4.90065223 10.8870314 6.18838232 11.6295063 6.47719054 11.7960263 6.72625941 11.9737215 6.93426941 12.1500227 7.05467368 12.2520727 7.13180632 12.3275876 7.16438089 12.3636775 7.34814605 12.5672737 7.65812069 12.5796084 7.85672863 12.3912277 8.05533656 12.2028471 8.06736901 11.885087 7.88360385 11.6814908 7.66358234 11.4377256 7.25724405 11.093329 6.66873959 10.7540112z"/>
      <g transform="translate(16.31 3.04)">
        <mask id="img-bugs-footer-u" fill="#fff">
          <use xlink:href="#img-bugs-footer-t"/>
        </mask>
        <use fill="#E63C81" xlink:href="#img-bugs-footer-t"/>
        <path fill="#FA5296" d="M5.0923171,12.8447653 C8.18375398,12.6776884 14.2391786,11.1272023 16.9901826,7.38695322 C19.8776427,3.46117929 17.7237197,-0.468902445 14.1273281,-0.813537146 C6.94331038,-1.50196656 3.03814122,2.83095126 1.55015724,7.83101197 C0.0621732654,12.8310727 -0.0355127973,13.1218991 5.0923171,12.8447653 Z" mask="url(#img-bugs-footer-u)" transform="rotate(-5 9.497 6.016)"/>
        <path fill="#9366B3" d="M8.68410759,10.0439298 C12.489553,10.6532968 14.9261332,8.89032486 14.8119037,7.20502214 C14.6976742,5.51971943 12.0865141,3.88000487 8.68410759,4.36611446 C5.28170108,4.85222405 2.55631146,5.63713672 2.55631146,7.20502214 C2.55631146,8.77290756 4.87866217,9.43456281 8.68410759,10.0439298 Z" transform="rotate(-33 8.686 7.223)"/>
        <path fill="#FFF" d="M7.99948497,9.04519329 C10.111513,9.43879955 11.4638187,8.30004936 11.4004211,7.2114678 C11.3370236,6.12288624 9.88782575,5.06375128 7.99948497,5.37774231 C6.1111442,5.69173334 4.59854882,6.19872918 4.59854882,7.2114678 C4.59854882,8.22420643 5.88745699,8.65158704 7.99948497,9.04519329 Z" opacity=".4" transform="rotate(-33 8 7.223)"/>
      </g>
    </g>
  </g>
</svg>
