<svg xmlns="http://www.w3.org/2000/svg" xmlns:xlink="http://www.w3.org/1999/xlink" width="90" height="80" viewBox="0 0 90 80">
  <defs>
    <filter id="img-avatar-a" width="200%" height="200%" x="-50%" y="-50%" filterUnits="objectBoundingBox">
      <feGaussianBlur in="SourceGraphic" stdDeviation="10"/>
    </filter>
    <path id="img-avatar-b" d="M40.6701029,45.4305 C42.0636926,42.1993835 40.6701029,45.4305 42.9688049,39.9570071 C45.267507,34.4835141 45.0724702,32.2661201 45.0724702,25.0903736 C45.0724702,12.5721864 35.8215657,0 24.0904582,0 C12.3593507,0 3.49320751,11.8560955 2.84940903,25.0903736 C2.64270105,29.3395775 2.84940903,35.253509 5.92168112,42.1993835 C8.9939532,49.145258 6.86752099,53.0824608 4.52126133,53.7394961 C2.17500168,54.3965314 0.0715893783,51.1314076 0.0715893783,51.1314076 C0.0715893783,51.1314076 1.7082794,57.0295594 5.65404309,58.3614438 C10.7327238,60.0757421 17.6456012,59.6867301 19.4381605,59.6867301 C25.0466697,59.6867301 21.3667733,59.6867301 26.2687484,59.6867301 C31.1707236,59.6867301 38.3281514,60.6051838 42.9688049,57.8723323 C46.3352765,55.8898385 46.6722272,51.6384191 46.6722272,51.6384191 C46.6722272,51.6384191 45.5905445,54.1435208 42.9688049,53.1507885 C40.3470653,52.1580562 39.2765132,48.6616166 40.6701029,45.4305 Z"/>
    <path id="img-avatar-d" d="M10.6109937,0 C9.02520334,6.50149357 10.9315068,12.1824462 10.9315068,12.1824462 L0,12.1824462 C0,12.1824462 1.6706844,4.95947924 0.103057288,1.69065403e-16 C5.09948898,0 6.69188784,0 10.6109937,0 Z"/>
    <path id="img-avatar-f" d="M35.4456807,21.6666667 C36.4554502,9.70049709 30.5148809,0 18.6890187,0 C6.86315644,0 0.922587144,9.70049709 1.93235663,21.6666667 C2.49413593,28.3239744 6.01808901,35.04472 10.1825146,39.0192227 C13.5034307,42.1886849 16.2126033,43.3333333 18.6890187,43.3333333 C21.165434,43.3333333 23.8087743,42.2275081 27.0937457,39.1159913 C31.289541,35.1417443 34.8793235,28.3782245 35.4456807,21.6666667 Z"/>
    <filter id="img-avatar-g" width="120.8%" height="116.2%" x="-10.4%" y="-8.1%" filterUnits="objectBoundingBox">
      <feOffset dx="7" dy="1" in="SourceAlpha" result="shadowOffsetInner1"/>
      <feComposite in="shadowOffsetInner1" in2="SourceAlpha" k2="-1" k3="1" operator="arithmetic" result="shadowInnerInner1"/>
      <feColorMatrix in="shadowInnerInner1" result="shadowMatrixInner1" values="0 0 0 0 0.909803922   0 0 0 0 0.533333333   0 0 0 0 0.258823529  0 0 0 0.15 0"/>
      <feOffset dx="-7" dy="1" in="SourceAlpha" result="shadowOffsetInner2"/>
      <feComposite in="shadowOffsetInner2" in2="SourceAlpha" k2="-1" k3="1" operator="arithmetic" result="shadowInnerInner2"/>
      <feColorMatrix in="shadowInnerInner2" result="shadowMatrixInner2" values="0 0 0 0 0.909803922   0 0 0 0 0.533333333   0 0 0 0 0.258823529  0 0 0 0.15 0"/>
      <feMerge>
        <feMergeNode in="shadowMatrixInner1"/>
        <feMergeNode in="shadowMatrixInner2"/>
      </feMerge>
    </filter>
    <filter id="img-avatar-h" width="943.3%" height="1063.7%" x="-421.6%" y="-481.8%" filterUnits="objectBoundingBox">
      <feGaussianBlur in="SourceGraphic" stdDeviation="8"/>
    </filter>
    <filter id="img-avatar-i" width="943.3%" height="1063.7%" x="-421.6%" y="-481.8%" filterUnits="objectBoundingBox">
      <feGaussianBlur in="SourceGraphic" stdDeviation="8"/>
    </filter>
    <path id="img-avatar-j" d="M37.7814003,3.18627451 C38.0506421,1.42654369 36.9870908,0 35.405892,0 C33.8246932,0 32.3246147,1.42654369 32.0553729,3.18627451 C31.7861312,4.94600533 32.8496825,6.37254902 34.4308813,6.37254902 C36.0120801,6.37254902 37.5121586,4.94600533 37.7814003,3.18627451 Z"/>
    <filter id="img-avatar-k" width="134.4%" height="131.4%" x="-17.2%" y="-15.7%" filterUnits="objectBoundingBox">
      <feOffset dx="-1" dy="-2" in="SourceAlpha" result="shadowOffsetInner1"/>
      <feComposite in="shadowOffsetInner1" in2="SourceAlpha" k2="-1" k3="1" operator="arithmetic" result="shadowInnerInner1"/>
      <feColorMatrix in="shadowInnerInner1" values="0 0 0 0 0.909803922   0 0 0 0 0.533333333   0 0 0 0 0.258823529  0 0 0 0.1 0"/>
    </filter>
    <path id="img-avatar-l" d="M5.76770171,3.18627451 C6.03694348,1.42654369 4.97339217,0 3.39219336,0 C1.81099456,0 0.310916083,1.42654369 0.0416743119,3.18627451 C-0.227567459,4.94600533 0.835983855,6.37254902 2.41718266,6.37254902 C3.99838146,6.37254902 5.49845994,4.94600533 5.76770171,3.18627451 Z"/>
    <filter id="img-avatar-m" width="134.4%" height="131.4%" x="-17.2%" y="-15.7%" filterUnits="objectBoundingBox">
      <feOffset dx="-1" dy="-2" in="SourceAlpha" result="shadowOffsetInner1"/>
      <feComposite in="shadowOffsetInner1" in2="SourceAlpha" k2="-1" k3="1" operator="arithmetic" result="shadowInnerInner1"/>
      <feColorMatrix in="shadowInnerInner1" values="0 0 0 0 0.909803922   0 0 0 0 0.533333333   0 0 0 0 0.258823529  0 0 0 0.1 0"/>
    </filter>
    <path id="img-avatar-n" d="M3.76981776,4.95040308 C8.22624159,4.95040308 7.59706633,0 7.59706633,0 L3.76981776,0 L0.0549765089,0 C0.0549765089,0 -0.68660608,4.95040308 3.76981776,4.95040308 Z"/>
    <filter id="img-avatar-o" width="126.3%" height="180.8%" x="-13.1%" y="-20.2%" filterUnits="objectBoundingBox">
      <feOffset dy="2" in="SourceAlpha" result="shadowOffsetOuter1"/>
      <feColorMatrix in="shadowOffsetOuter1" values="0 0 0 0 0.909803922   0 0 0 0 0.533333333   0 0 0 0 0.258823529  0 0 0 0.15 0"/>
    </filter>
    <path id="img-avatar-q" d="M12.2975594,0.767618138 C12.2975594,0.767618138 8.29363615,1.29937492 8.29363615,2.03935526 C8.29363615,2.7793356 9.24801167,18.7495018 16.8360256,18.7495018 C24.4240396,18.7495018 25.2342657,4.28894854 24.9434402,1.71401696 C24.9434402,1.31426196 22.7541901,1.02756051 22.0208346,1.02756051 C22.0208346,0.69381938 22.0110353,0.80695791 21.9050903,0.175568436 C26.6068896,1.13515333 30.016402,2.60161363 32.4802987,3.96688985 C31.2118176,15.5106456 31.6111483,14.0779055 33.0063801,19.0519011 C33.2315456,19.8546152 36.2079209,29.1926619 26.6712811,31.0776118 C21.4972,32.1002868 20.1659541,30.3410131 16.9061453,30.25877 C14.1576172,30.1894263 11.1994196,31.7473403 6.32793195,31.0776118 C0.371820685,30.25877 -0.653311343,24.7334605 0.371820685,19.0519011 C1.27156402,14.0652797 2.41170394,14.9853471 1.27156402,3.96688985 C5.26844966,1.71401696 12.3881693,0.144004005 12.3881693,0.144004005 L12.2975594,0.767618138 Z"/>
    <path id="img-avatar-s" d="M1.53206869,0 L12.5260033,0 C12.5260033,0 10.6002302,19.5299985 13.3437487,27.7408305 C9.22603352,28.1233724 0.608559028,25.9368505 0.298114052,23.2154184 C-0.715580229,14.3291413 1.53206869,0 1.53206869,0 Z"/>
    <filter id="img-avatar-t" width="145.1%" height="128.8%" x="-15%" y="-7.2%" filterUnits="objectBoundingBox">
      <feOffset dx="2" dy="4" in="SourceAlpha" result="shadowOffsetOuter1"/>
      <feColorMatrix in="shadowOffsetOuter1" values="0 0 0 0 0   0 0 0 0 0   0 0 0 0 0  0 0 0 0.15 0"/>
    </filter>
    <path id="img-avatar-v" d="M1.88656937,0.011375008 L11.2629722,2.58583431 C11.2629722,2.58583431 9.56069352,21.4500374 11.9858147,29.3809547 C8.34597833,29.7504553 0.728599461,27.638474 0.454182984,25.009818 C-0.44186764,16.4264821 1.88656937,0.011375008 1.88656937,0.011375008 Z"/>
    <filter id="img-avatar-w" width="142.6%" height="120.4%" x="-29.8%" y="-5.1%" filterUnits="objectBoundingBox">
      <feOffset dx="-2" dy="3" in="SourceAlpha" result="shadowOffsetOuter1"/>
      <feColorMatrix in="shadowOffsetOuter1" values="0 0 0 0 0   0 0 0 0 0   0 0 0 0 0  0 0 0 0.15 0"/>
    </filter>
    <path id="img-avatar-z" d="M6.473231,7.36987608 C7.55734702,9.414736 8.78639324,12.3334658 11.4930282,13.4600049 C13.8014309,14.420794 17.8076624,9.78012513 18.1711003,6.42142732 C18.3212709,6.48435362 20.4240299,5.68925717 20.5724602,5.76378887 C23.3199848,7.14341087 23.7482113,8.6678862 23.7482113,10.8342991 C23.7482113,13.1177488 19.5436465,21.1231488 12.8911597,21.1231488 C6.23867292,21.1231488 2.03410804,12.6577913 2.03410804,11.2626009 C2.03410804,9.86741046 3.42334026,8.56789477 6.473231,7.36987608 Z"/>
    <filter id="img-avatar-y" width="118.4%" height="152.1%" x="-9.2%" y="-13%" filterUnits="objectBoundingBox">
      <feOffset dy="4" in="SourceAlpha" result="shadowOffsetOuter1"/>
      <feColorMatrix in="shadowOffsetOuter1" values="0 0 0 0 0   0 0 0 0 0   0 0 0 0 0  0 0 0 0.2 0"/>
    </filter>
    <filter id="img-avatar-A" width="113.8%" height="145.6%" x="-6.9%" y="-9.8%" filterUnits="objectBoundingBox">
      <feOffset dx="-3" dy="-3" in="SourceAlpha" result="shadowOffsetInner1"/>
      <feComposite in="shadowOffsetInner1" in2="SourceAlpha" k2="-1" k3="1" operator="arithmetic" result="shadowInnerInner1"/>
      <feColorMatrix in="shadowInnerInner1" values="0 0 0 0 0   0 0 0 0 0.526409245   0 0 0 0 0.645594175  0 0 0 1 0"/>
    </filter>
    <path id="img-avatar-B" d="M8.32363819,0.074379467 C8.59245538,2.39875384 8.78639324,5.98641799 11.4930282,7.112957 C13.8014309,8.07374619 17.3653507,3.40023971 17.7747374,0.074379467 C20.7046475,1.30210554 23.4151262,5.73453974 23.4151262,8.01798938 C23.4151262,10.301439 15.4040777,17.4006114 10.2136061,18.0346964 C5.02313445,18.6687814 0.103453464,9.70368681 0.103453464,8.30849638 C0.103453464,6.91330596 5.27374745,1.27239817 8.32363819,0.074379467 Z"/>
    <path id="img-avatar-D" d="M38.0380564,50.0334987 C38.5953569,48.4486436 39.398027,47.7774645 41.3075248,41.8714258 C43.2170227,35.965387 43.9224872,33.8120533 43.9224872,26.2925027 C43.9224872,13.1745446 34.1787613,0 22.4779788,0 C10.7771962,0 1.03347029,11.8532588 1.03347029,26.2925027 C1.03347029,30.7539721 1.29183786,36.9425738 4.3561681,44.2212388 C7.42049833,51.4999038 5.01266864,55.8505735 3.28709938,56.5854139 C1.95567756,57.1524052 0.0169049095,56.2417035 0.0169049095,56.2417035 C0.0169049095,56.2417035 1.64835483,59.7619576 4.08922191,61.1576553 C10.6444512,64.9059619 14.3815364,61.1576553 15.4732907,59.2538899 C18.3350212,54.2636986 17.424249,42.4601194 10.8054824,30.7539721 C22.4908206,29.074471 28.8099448,13.362329 28.8099448,13.362329 C28.8099448,13.362329 35.2102598,22.3624911 35.0201514,31.6557426 C34.9201671,36.5433703 30.1172317,44.4971037 28.3666904,47.7774645 C26.6161492,51.0578254 25.2233865,56.6299486 27.8693833,59.7619576 C30.5153801,62.8939667 35.8543038,64.3762442 40.3616068,61.1576553 C43.3747422,59.0060262 43.9224872,56.6770837 43.9224872,56.6770837 C43.9224872,56.6770837 43.1274519,57.7041346 41.3075248,57.3387129 C39.4875978,56.9732912 36.8060299,53.5371448 38.0380564,50.0334987 Z"/>
  </defs>
  <g fill="none" fill-rule="evenodd">
    <circle cx="45" cy="50" r="30" fill="#FFF" filter="url(#img-avatar-a)" opacity=".85"/>
    <g transform="translate(22 7)">
      <mask id="img-avatar-c" fill="#fff">
        <use xlink:href="#img-avatar-b"/>
      </mask>
      <use fill="#312A24" xlink:href="#img-avatar-b"/>
      <path fill="#4F4339" d="M7.3570102 48.256445C8.89681425 51.0185184 5.72866806 61.7234405-.202119835 51.0185184 4.0133056 53.4045418 4.89135059 52.8606433 7.3570102 48.256445zM46.6345352 51.7391777C45.9899779 55.4427376 38.8457121 56.9974405 39.9830472 47.9930367 43.8658224 54.0771736 44.8923584 52.7467638 46.6345352 51.7391777z" mask="url(#img-avatar-c)"/>
      <path fill="#CC4C80" d="M15.0581575,50.2840567 C19.0655321,48.7696212 29.1932104,48.3754549 32.9349685,50.3100156 C32.9349685,51.7622476 32.9349685,50.9160151 32.9998252,52.1919155 C33.0646819,53.4678159 15.0581575,52.9875414 15.0581575,52.4158745 C15.0581575,51.5962083 14.9273031,51.0213651 15.0581575,50.2840567 Z"/>
      <g fill="#FFD6B8" transform="translate(2 50)">
        <path d="M21.7735666,19.9719373 C35.4570352,19.9719373 41.1688034,10.5623703 41.1688034,10.5623703 C41.1688034,10.5623703 41.4261084,10.5623703 40.9189461,6.53861021 C40.9189461,2.9274355 32.3472677,0 21.7735666,0 C11.1998654,0 2.83046007,2.93481893 2.37623137,6.53861021 C1.869069,10.5623703 2.12102467,10.5623703 2.12102467,10.5623703 C2.12102467,10.5623703 8.09009788,19.9719373 21.7735666,19.9719373 Z"/>
        <path d="M37.9809852,35.8273614 C39.8036846,35.8273614 40.088257,34.3897786 40.088257,22.3238482 C40.088257,10.2579179 39.185565,4.8007183 37.3628656,4.8007183 C35.5401663,4.8007183 32.3914888,12.3411252 34.1733135,24.0842433 C35.9551381,35.8273614 36.1582858,35.8273614 37.9809852,35.8273614 Z" transform="rotate(10 36.867 20.314)"/>
        <path d="M7.29745739,36.5632077 C9.21741983,36.5632077 10.5162662,35.6939384 10.5162662,23.6280081 C10.5162662,11.5620777 9.24134595,6.19221796 7.32138351,6.19221796 C5.40142107,6.19221796 1.4096937,13.0769716 3.28660025,24.8200896 C5.1635068,36.5632077 5.37749496,36.5632077 7.29745739,36.5632077 Z" transform="scale(-1 1) rotate(10 0 -54.709)"/>
      </g>
      <g transform="translate(6 1)">
        <g transform="translate(13.274 39.765)">
          <mask id="img-avatar-e" fill="#fff">
            <use xlink:href="#img-avatar-d"/>
          </mask>
          <use fill="#FFD6B8" xlink:href="#img-avatar-d"/>
          <path fill="#E88842" fill-opacity=".25" d="M10.7139342,1.40196078 C11.7113078,-2.75100395 9.30335296,-6.11764706 5.33561644,-6.11764706 C1.36787991,-6.11764706 -1.04007497,-2.75100395 -0.0427013227,1.40196078 C0.954672322,5.55492552 3.3626272,8.92156863 5.33561644,8.92156863 C7.30860567,8.92156863 9.71656055,5.55492552 10.7139342,1.40196078 Z" mask="url(#img-avatar-e)"/>
        </g>
        <use fill="#FFD2B1" xlink:href="#img-avatar-f"/>
        <use fill="#000" filter="url(#img-avatar-g)" xlink:href="#img-avatar-f"/>
        <g fill="#E4ACAC" transform="translate(9.37 30.333)">
          <path d="M18.2218566,2.17328355 C17.7498226,1.67810962 17.0124832,1.21615417 16.2121121,1.80731131 C15.4117409,2.39846846 16.2221282,2.68306386 15.1974409,3.43990179 C14.1727535,4.19673972 12.3586903,4.90128677 13.2551608,5.84170377 C14.1516313,6.78212077 15.990197,6.72327554 17.3617122,5.71026927 C18.7332274,4.69726299 19.1183271,3.11370055 18.2218566,2.17328355 Z" filter="url(#img-avatar-h)"/>
          <path d="M1.34392061,5.45536731 C-0.0275945598,4.44236103 -0.412694337,2.85879859 0.483776187,1.91838159 C0.955810223,1.42320766 1.6931496,0.961252211 2.49352074,1.55240935 C3.29389189,2.1435665 2.48350457,2.4281619 3.50819191,3.18499983 C4.53287926,3.94183776 6.34694251,4.64638481 5.45047199,5.58680181 C4.55400146,6.52721881 2.71543579,6.46837358 1.34392061,5.45536731" filter="url(#img-avatar-i)"/>
        </g>
        <g transform="translate(0 23.706)">
          <use fill="#FFD6B8" xlink:href="#img-avatar-j"/>
          <use fill="#000" filter="url(#img-avatar-k)" xlink:href="#img-avatar-j"/>
          <g transform="matrix(-1 0 0 1 5.81 0)">
            <use fill="#FFD6B8" xlink:href="#img-avatar-l"/>
            <use fill="#000" filter="url(#img-avatar-m)" xlink:href="#img-avatar-l"/>
          </g>
        </g>
        <g fill="#444" transform="translate(21.28 26.674)">
          <path d="M5.08730117,1.8518371 C4.94131875,1.78614987 4.73260088,1.64828401 4.43639953,1.40175064 C3.1137171,0.300859776 0.77271412,1.08412762 0.594346788,1.452878 C0.543860775,1.55725102 -0.0620298032,1.87380642 0.259508802,1.23054728 C0.544607045,0.66018947 2.32573075,-0.399351997 4.51674324,0.853351724 C4.95043254,0.746149762 5.27972586,0.443668142 5.62049065,0 C5.62049065,0.572265722 5.25223013,0.934999513 4.97462941,1.06427122 C5.34140085,1.03728067 5.74772508,0.917240594 6.15516583,0.666666667 C5.97074024,1.09564344 5.61888049,1.32253396 5.32634864,1.41178986 C5.71060843,1.54351365 6.18422961,1.59463669 6.74468721,1.43629511 C6.24235524,2.01037326 5.30872619,2.00796533 5.11423069,1.87228733 C5.10494638,1.86581069 5.09596712,1.85898408 5.08730117,1.8518371 Z"/>
        </g>
        <g fill="#444" transform="matrix(-1 0 0 1 16.09 26.674)">
          <path d="M5.08730117,1.8518371 C4.94131875,1.78614987 4.73260088,1.64828401 4.43639953,1.40175064 C3.1137171,0.300859776 0.77271412,1.08412762 0.594346788,1.452878 C0.543860775,1.55725102 -0.0620298032,1.87380642 0.259508802,1.23054728 C0.544607045,0.66018947 2.32573075,-0.399351997 4.51674324,0.853351724 C4.95043254,0.746149762 5.27972586,0.443668142 5.62049065,0 C5.62049065,0.572265722 5.25223013,0.934999513 4.97462941,1.06427122 C5.34140085,1.03728067 5.74772508,0.917240594 6.15516583,0.666666667 C5.97074024,1.09564344 5.61888049,1.32253396 5.32634864,1.41178986 C5.71060843,1.54351365 6.18422961,1.59463669 6.74468721,1.43629511 C6.24235524,2.01037326 5.30872619,2.00796533 5.11423069,1.87228733 C5.10494638,1.86581069 5.09596712,1.85898408 5.08730117,1.8518371 Z"/>
        </g>
        <path fill="#9B8877" d="M22.1703109 24.863767C22.1703109 24.863767 21.3357185 24.6282069 22.1703109 24.3752463 23.6718297 23.9201437 26.9772221 23.3398024 28.2639275 23.7678226 29.3256894 24.1210157 29.9268775 24.7321162 30.5060094 25.4033842 29.754604 24.9409343 29.0219773 24.1797789 28.1289739 24.1035988 25.3170118 23.8637166 22.1703109 24.863767 22.1703109 24.863767zM15.3426423 24.863767C15.3426423 24.863767 16.1772347 24.6282069 15.3426423 24.3752463 13.8411235 23.9201437 10.5357311 23.3398024 9.24902571 23.7678226 8.18726387 24.1210157 7.58607574 24.7321162 7.00694387 25.4033842 7.75834925 24.9409343 8.49097589 24.1797789 9.38397933 24.1035988 12.1959414 23.8637166 15.3426423 24.863767 15.3426423 24.863767L15.3426423 24.863767z"/>
      </g>
      <g transform="translate(21 36)">
        <mask id="img-avatar-p" fill="#fff">
          <use xlink:href="#img-avatar-n"/>
        </mask>
        <use fill="#000" filter="url(#img-avatar-o)" xlink:href="#img-avatar-n"/>
        <use fill="#EC6050" xlink:href="#img-avatar-n"/>
        <path fill="#F78375" d="M3.76981776,6.25314074 C5.5742289,6.25314074 7.03699314,5.49490857 7.03699314,4.55958179 C7.03699314,3.78263699 6.53894811,2.9284253 5.15426846,2.9284253 C4.01414416,2.9284253 3.76981776,3.12657037 3.76981776,3.12657037 C3.76981776,3.12657037 3.53420415,2.91556431 2.4795203,2.91556431 C1.18922288,2.91556431 0.502642367,3.76502175 0.502642367,4.55958179 C0.502642367,5.49490857 1.96540661,6.25314074 3.76981776,6.25314074 Z" mask="url(#img-avatar-p)"/>
        <path fill="#FFF" d="M3.76981776,1.31018005 C8.22624159,1.31018005 7.59706633,0 7.59706633,0 L3.76981776,0 L0.0549765089,0 C0.0549765089,0 -0.68660608,1.31018005 3.76981776,1.31018005 Z" mask="url(#img-avatar-p)"/>
      </g>
      <g transform="translate(7 49)">
        <path fill="#E88842" fill-opacity=".2" d="M7.32384687,2.01400899 C7.32384687,2.01400899 9.94213419,17.8082768 16.8544509,17.8082768 C23.7667675,17.8082768 25.1121263,1.99150959 25.1121263,1.99150959 L26.9978522,2.12150613 L26.9978522,22.4769143 L6.33643346,22.4769143 L6.33643346,2.32735716 L7.32384687,2.01400899 Z"/>
        <mask id="img-avatar-r" fill="#fff">
          <use xlink:href="#img-avatar-q"/>
        </mask>
        <use fill="#FA5296" xlink:href="#img-avatar-q"/>
        <path fill="#CF3C78" d="M-0.661580026,22.1772233 C-0.661580026,22.1772233 -0.652604284,29.2995072 7.0242782,29.7620217 C9.48239896,29.9101179 12.3942769,29.6979609 14.7939606,28.5945403 C17.1936443,27.4911197 16.7674076,27.4476958 19.3351844,28.5945403 C21.9029612,29.7413848 25.560974,30.1698829 26.2424182,30.0820132 C31.1231955,29.4526549 33.5375347,26.9233472 33.5375347,22.1772233 C36.7492412,26.9233472 34.1674866,33.4244244 16.4195521,33.4244244 C-5.92928694,33.4244244 -0.661580026,22.1772233 -0.661580026,22.1772233 Z" mask="url(#img-avatar-r)"/>
      </g>
      <g transform="translate(11 43)">
        <g transform="translate(.976 10.473)">
          <mask id="img-avatar-u" fill="#fff">
            <use xlink:href="#img-avatar-s"/>
          </mask>
          <use fill="#000" filter="url(#img-avatar-t)" xlink:href="#img-avatar-s"/>
          <use fill="#00BCDA" xlink:href="#img-avatar-s"/>
          <path fill="#00A5C4" d="M8.3666717,1.58676196 L19.3606063,1.58676196 C19.3606063,1.58676196 17.4348333,21.1167604 20.1783517,29.3275925 C16.0606365,29.7101343 7.44316204,27.5236124 7.13271706,24.8021804 C6.11902278,15.9159032 8.3666717,1.58676196 8.3666717,1.58676196 Z" mask="url(#img-avatar-u)"/>
        </g>
        <g transform="translate(12.367 5.983)">
          <mask id="img-avatar-x" fill="#fff">
            <use xlink:href="#img-avatar-v"/>
          </mask>
          <g transform="matrix(-1 0 0 1 12.235 0)">
            <use fill="#000" filter="url(#img-avatar-w)" xlink:href="#img-avatar-v"/>
            <use fill="#00BCDA" xlink:href="#img-avatar-v"/>
          </g>
          <path fill="#00A5C4" d="M8.72117238,0.011375008 L18.0975752,2.58583431 C18.0975752,2.58583431 16.3952965,21.4500374 18.8204177,29.3809547 C15.1805813,29.7504553 7.56320247,27.638474 7.28878599,25.009818 C6.39273537,16.4264821 8.72117238,0.011375008 8.72117238,0.011375008 Z" mask="url(#img-avatar-x)" transform="matrix(-1 0 0 1 25.904 0)"/>
        </g>
        <use fill="#000" filter="url(#img-avatar-y)" xlink:href="#img-avatar-z"/>
        <use fill="#00A5C4" xlink:href="#img-avatar-z"/>
        <use fill="#000" filter="url(#img-avatar-A)" xlink:href="#img-avatar-z"/>
        <path fill="#000" fill-opacity=".2" d="M6.473231,2.29223779 C7.55734702,4.33709771 8.78639324,7.25582756 11.4930282,8.38236657 C13.8014309,9.34315576 17.8076624,4.70248685 18.1711003,1.34378904 C21.1010104,2.57151512 23.4151262,7.00394931 23.4151262,9.28739895 C23.4151262,11.5708486 15.4040777,18.670021 10.2136061,19.304106 C5.02313445,19.9381909 0.103453464,10.9730964 0.103453464,9.57790595 C0.103453464,8.18271553 3.42334026,3.49025649 6.473231,2.29223779 Z"/>
        <g>
          <mask id="img-avatar-C" fill="#fff">
            <use xlink:href="#img-avatar-B"/>
          </mask>
          <use fill="#00BCDA" xlink:href="#img-avatar-B"/>
          <path fill="#0086A5" d="M6.44367817,0.0225880607 C6.44367817,0.0225880607 8.37697501,15.786262 15.6219497,5.12768947 C22.8669245,-5.53088309 6.44367817,0.0225880607 6.44367817,0.0225880607 Z" mask="url(#img-avatar-C)"/>
          <path fill="#00A5C4" d="M6.61752554,1.47488285 C6.61752554,1.47488285 5.94468074,11.7082579 11.1040051,11.7082579 C16.2633294,11.7082579 17.8025771,6.84601011 17.8025771,1.85421813 C17.8025771,-3.13757385 17.896019,-0.514767895 17.896019,-0.514767895 L24.5087771,3.18065196 L19.5121814,19.0898001 L8.08812209,21.4584762 C8.08812209,21.4584762 -4.95591354,13.9548277 -4.95591354,13.6173308 C-4.95591354,13.279834 -3.84319288,1.85917676 -3.35977439,1.66702981 C-2.8763559,1.47488285 6.34514576,-0.152787822 6.34514576,-0.152787822 L6.61752554,1.47488285 Z" mask="url(#img-avatar-C)"/>
        </g>
      </g>
      <g transform="translate(2)">
        <path fill="#000" fill-opacity=".2" d="M17.0335887,50.6122738 C17.0335887,50.6122738 19.6131012,67.408029 6.78580729,64.530922 C5.47183836,64.2362044 1.76643689,62.7706709 1.76643689,58.9322543 C7.93067336,58.9322543 17.0335887,50.6122738 17.0335887,50.6122738 Z"/>
        <path fill="#000" fill-opacity=".2" d="M40.9197336,53.2709464 C42.1565674,59.1059102 39.5543468,64.8578914 32.1805262,64.8578914 C31.5872143,64.8578914 27.3204908,64.3650806 26.4035887,60.4286724 C29.4102657,62.1610145 40.9197336,57.4620086 40.9197336,53.2709464 Z" transform="matrix(-1 0 0 1 67.618 0)"/>
        <path fill="#E88842" fill-opacity=".2" d="M28.8183291,14.8269928 C28.8183291,14.8269928 23.7973186,30.3027147 12.8603468,32.5190607 C12.3395234,32.6246041 14.6441932,35.06833 14.9557987,40.3335783 C14.057356,40.4471358 14.7740933,40.3335783 13.8756506,40.3335783 C12.9772079,40.3335783 9.39792406,31.664336 8.80493473,31.508135 C8.80493473,31.0739952 8.80493473,30.9375512 8.80493473,30.3027147 C21.9481234,29.6636608 28.8183291,12.5590462 28.8183291,12.5590462 C28.8183291,12.5590462 33.0904772,16.5708158 34.7935838,22.6519298 C36.4966904,28.7330438 35.1054415,31.3425055 35.1054415,31.508135 C34.2329464,23.5189691 28.8183291,14.8269928 28.8183291,14.8269928 Z"/>
        <mask id="img-avatar-E" fill="#fff">
          <use xlink:href="#img-avatar-D"/>
        </mask>
        <use fill="#443A31" xlink:href="#img-avatar-D"/>
        <path fill="#55493E" d="M31.9394295 2.90228703C31.9394295 2.90228703 44.3703412 15.0773055 43.0530198 36.123662 49.6151524 11.304506 31.9394295 2.90228703 31.9394295 2.90228703zM3.85053468 42.6771894C3.85053468 42.6771894 1.68917033 33.2999766 3.40898854 23.4495068 5.42649841 11.8939713 12.3615939-.324348626 28.0820824 1.00869297 11.2248492-5.70056745.780786988 8.75808321-1.03927347 20.9914685-2.82255503 32.9776476 3.85053468 42.6771894 3.85053468 42.6771894z" mask="url(#img-avatar-E)"/>
        <path fill="#55493E" d="M5.80317789,33.6706477 C5.80317789,33.6706477 4.80755441,28.956633 6.31991303,21.3006385 C7.83227165,13.6446439 12.8787656,2.28779306 25.9833505,0.881427971 C10.4356277,-0.192510021 6.17729076,12.3060018 5.26323003,20.4192105 C4.3676402,28.3684714 5.80317789,33.6706477 5.80317789,33.6706477 Z" mask="url(#img-avatar-E)"/>
        <path fill="#55493E" d="M28.1728618,43.5408542 C28.1728618,43.5408542 25.8911758,17.1006542 44.6701314,8.36498227 C28.7651601,15.5748991 26.9992556,27.786489 26.5194738,35.5999572 C26.0396921,43.4134253 28.1728618,43.5408542 28.1728618,43.5408542 Z" mask="url(#img-avatar-E)" transform="rotate(157 35.56 25.953)"/>
        <path fill="#6A5B4E" d="M6.72149935,23.8480329 C6.72149935,23.8480329 2.14773123,5.02163383 19.5393507,-0.579018543 C4.74377024,6.06505799 6.72149935,23.8480329 6.72149935,23.8480329 Z" mask="url(#img-avatar-E)" transform="rotate(10 12.859 11.635)"/>
        <path fill="#6A5B4E" d="M12.3306471,22.8971438 C12.3306471,22.8971438 7.75687897,5.40921345 25.1484985,0.2067412 C10.352918,6.37845505 12.3306471,22.8971438 12.3306471,22.8971438 Z" mask="url(#img-avatar-E)" transform="rotate(4 18.468 11.552)"/>
        <path fill="#6A5B4E" d="M26.5012611,33.2161769 C26.5012611,33.2161769 25.2148199,11.8371278 42.6064394,6.23647546 C27.8108589,12.880552 26.5012611,33.2161769 26.5012611,33.2161769 Z" mask="url(#img-avatar-E)" transform="scale(-1 1) rotate(-22 0 197.436)"/>
        <path fill="#3A3129" d="M28.8380094,13.374733 C28.8380094,13.374733 18.0554526,36.6240392 4.98366824,29.3034487 C19.9160019,29.6346354 28.8380094,13.374733 28.8380094,13.374733 Z" mask="url(#img-avatar-E)"/>
        <path fill="#3A3129" d="M28.8007934,12.7722709 L28.8007934,13.4608167 C28.8007934,13.4608167 17.5658861,32.5273136 7.49265959,27.096425 C20.8544155,27.3817237 28.8007934,12.7722709 28.8007934,12.7722709 Z" mask="url(#img-avatar-E)"/>
        <path fill="#3A3129" d="M28.8626098,12.7370435 C28.8626098,12.7370435 38.5580801,21.7055049 34.8258797,33.5686869 C36.1818937,25.2178879 30.3972265,15.8983255 28.8626098,13.4319154 C28.6128589,13.0305199 28.8626098,12.7370435 28.8626098,12.7370435 Z" mask="url(#img-avatar-E)"/>
        <path fill="#3A3129" d="M23.4676584,41.4292269 C23.4676584,41.4292269 21.1960911,49.035654 16.9841238,54.4528941 C15.3168989,56.5972025 11.3091053,60.82406 7.86584111,61.2435792 C2.22192211,61.9312209 -2.88685713,57.1037781 -0.956482573,51.0291561 C1.282154,55.1994018 4.21560875,57.5591152 6.80530401,57.6511698 C15.129659,57.9470717 23.4676584,41.4292269 23.4676584,41.4292269 Z" mask="url(#img-avatar-E)" transform="rotate(-43 11.048 51.37)"/>
        <path fill="#3A3129" d="M19.1765853,43.1481546 C19.1765853,43.1481546 19.4201725,49.3534295 15.0249524,53.8309428 C10.6297323,58.3084561 5.76329768,58.9898525 3.18347825,53.5830344 C12.8136518,62.0634188 19.1765853,43.1481546 19.1765853,43.1481546 Z" mask="url(#img-avatar-E)" transform="rotate(-29 11.181 50.282)"/>
        <path fill="#4F4339" d="M28.11191,38.291347 C28.11191,38.291347 23.7032102,56.9408369 15.0143983,49.174041 C15.9212523,53.2558058 19.6483041,53.1263223 21.4808281,52.0680635 C26.3802984,49.238683 28.11191,38.291347 28.11191,38.291347 Z" mask="url(#img-avatar-E)" transform="rotate(-29 21.563 45.494)"/>
        <path fill="#3A3129" d="M44.7715605,41.6285541 C44.7715605,41.6285541 43.5291803,46.8006956 42.2822365,51.2757119 C41.2726713,54.8988273 40.9581059,54.9511661 40.3769117,56.6093664 C37.6734921,64.3224707 27.2228149,64.5130604 23.6645116,55.7286037 C26.849637,57.849595 28.7337374,59.0396934 33.0203947,58.7743075 C38.7174837,58.4216021 44.7715605,41.6285541 44.7715605,41.6285541 Z" mask="url(#img-avatar-E)" transform="scale(-1 1) rotate(-43 0 138.861)"/>
        <path fill="#3A3129" d="M37.2972057,50.0413048 C37.2972057,50.0413048 34.7269611,59.9911271 29.6742869,58.8648414 C24.6216127,57.7385556 25.7046647,53.5356123 25.7046647,53.5356123 C25.7046647,53.5356123 26.3199494,56.4538436 29.6135505,57.1195662 C32.9071516,57.7852889 37.2972057,50.0413048 37.2972057,50.0413048 Z" mask="url(#img-avatar-E)" transform="scale(-1 1) rotate(-43 0 134.344)"/>
        <path fill="#4F4339" d="M17.7772071,38.291347 C17.7772071,38.291347 13.3685074,56.9408369 4.67969538,49.174041 C5.58654941,53.2558058 9.31360118,53.1263223 11.1461252,52.0680635 C16.0455956,49.238683 17.7772071,38.291347 17.7772071,38.291347 Z" mask="url(#img-avatar-E)" transform="rotate(-29 11.228 45.494)"/>
        <path fill="#4F4339" d="M39.6709672,42.0291073 C39.6709672,42.0291073 36.7656133,61.8178873 28.1328135,52.8307522 C29.3963995,56.5671669 33.1496659,57.6219989 34.9821899,56.56374 C39.8816602,53.7343595 39.6709672,42.0291073 39.6709672,42.0291073 Z" mask="url(#img-avatar-E)" transform="scale(-1 1) rotate(-29 0 180.582)"/>
        <path fill="#55493E" d="M5.79611315,51.0560888 C5.79611315,51.0560888 5.79611315,61.5650025 -0.267450807,56.2972734 C4.32942302,54.8070573 5.79611315,51.0560888 5.79611315,51.0560888 Z" mask="url(#img-avatar-E)"/>
        <path fill="#55493E" d="M10.9141339,29.9040778 C10.9141339,29.9040778 8.45409165,19.128204 24.1376883,10.4418408 C6.47501773,15.8477602 10.9141339,29.9040778 10.9141339,29.9040778 Z" mask="url(#img-avatar-E)" transform="scale(1 -1) rotate(84 39.682 0)"/>
      </g>
    </g>
  </g>
</svg>
