<svg xmlns="http://www.w3.org/2000/svg" xmlns:xlink="http://www.w3.org/1999/xlink" width="690" height="581" viewBox="0 0 690 581">
  <defs>
    <linearGradient id="img-telstra-screens-small-a" x1="0%" y1="0%" y2="0%">
      <stop offset="0%" stop-color="#5BC5F2"/>
      <stop offset="45.924%" stop-color="#C69DC9"/>
      <stop offset="100%" stop-color="#8779B7"/>
    </linearGradient>
    <filter id="img-telstra-screens-small-b" width="108.4%" height="104%" x="-2.1%" y="-1%" filterUnits="objectBoundingBox">
      <feOffset dx="6" dy="6" in="SourceAlpha" result="shadowOffsetOuter1"/>
      <feColorMatrix in="shadowOffsetOuter1" result="shadowMatrixOuter1" values="0 0 0 0 0.196078431   0 0 0 0 0.247058824   0 0 0 0 0.274509804  0 0 0 0.1 0"/>
      <feMerge>
        <feMergeNode in="shadowMatrixOuter1"/>
        <feMergeNode in="SourceGraphic"/>
      </feMerge>
    </filter>
    <ellipse id="img-telstra-screens-small-c" cx="27.12" cy="27.667" rx="27.12" ry="27.667"/>
    <path id="img-telstra-screens-small-e" d="M17.9288184,47.1107856 C31.6586172,47.1107856 49.72,39.367666 49.72,25.3611111 C49.72,11.3545562 38.5897989,0 24.86,0 C11.1302011,0 3.23330078,20.4236751 3.23330078,34.43023 C3.23330078,40.3843723 7.02277344,47.1107856 17.9288184,47.1107856 Z"/>
    <path id="img-telstra-screens-small-f" d="M15.9510098,45.8068124 C26.6308287,45.8068124 40.68,39.7837733 40.68,28.8886779 C40.68,17.9935824 32.0222962,9.16136247 21.3424773,9.16136247 C10.6626585,9.16136247 4.52,25.0480592 4.52,35.9431547 C4.52,40.5746253 7.46766747,45.8068124 15.9510098,45.8068124 Z"/>
    <path id="img-telstra-screens-small-g" d="M13.0552888,45.8068124 C21.0296794,45.8068124 31.5198929,41.3095389 31.5198929,33.1744058 C31.5198929,25.0392728 25.055372,18.4444444 17.0809814,18.4444444 C9.10659073,18.4444444 4.52,30.3066986 4.52,38.4418317 C4.52,41.900051 6.7209598,45.8068124 13.0552888,45.8068124 Z"/>
    <ellipse id="img-telstra-screens-small-h" cx="16.56" cy="17" rx="16.56" ry="17"/>
    <path id="img-telstra-screens-small-j" d="M10.9476855,28.9475911 C19.331368,28.9475911 30.36,24.1897707 30.36,15.5833333 C30.36,6.97689598 23.5636825,0 15.18,0 C6.7963175,0 1.97431641,12.5494871 1.97431641,21.1559245 C1.97431641,24.8144938 4.28824219,28.9475911 10.9476855,28.9475911 Z"/>
    <path id="img-telstra-screens-small-k" d="M9.73999715,28.1463546 C16.2613025,28.1463546 24.84,24.4454511 24.84,17.7508744 C24.84,11.0562976 19.5534375,5.62927092 13.0321322,5.62927092 C6.51082685,5.62927092 2.76,15.3909761 2.76,22.0855529 C2.76,24.9313963 4.55990315,28.1463546 9.73999715,28.1463546 Z"/>
    <path id="img-telstra-screens-small-l" d="M7.97181349,28.1463546 C12.8411317,28.1463546 19.2466603,25.3829697 19.2466603,20.3842735 C19.2466603,15.3855773 15.299298,11.3333333 10.4299798,11.3333333 C5.5606616,11.3333333 2.76,18.6221883 2.76,23.6208845 C2.76,25.7458145 4.1039489,28.1463546 7.97181349,28.1463546 Z"/>
    <ellipse id="img-telstra-screens-small-m" cx="16.32" cy="16.667" rx="16.32" ry="16.667"/>
    <path id="img-telstra-screens-small-o" d="M10.7890234,28.3799913 C19.0512033,28.3799913 29.92,23.7154615 29.92,15.2777778 C29.92,6.8400941 23.2221799,0 14.96,0 C6.69782014,0 1.94570312,12.3034188 1.94570312,20.7411024 C1.94570312,24.3279351 4.22609375,28.3799913 10.7890234,28.3799913 Z"/>
    <path id="img-telstra-screens-small-p" d="M9.59883777,27.5944653 C16.0256314,27.5944653 24.48,23.9661285 24.48,17.402818 C24.48,10.8395075 19.2700544,5.51889306 12.8432607,5.51889306 C6.41646704,5.51889306 2.72,15.0891923 2.72,21.6525028 C2.72,24.4425454 4.49381759,27.5944653 9.59883777,27.5944653 Z"/>
    <path id="img-telstra-screens-small-q" d="M7.85627996,27.5944653 C12.6550283,27.5944653 18.9677232,24.8852644 18.9677232,19.9845818 C18.9677232,15.0838993 15.077569,11.1111111 10.2788207,11.1111111 C5.4800723,11.1111111 2.72,18.2570474 2.72,23.1577299 C2.72,25.2409946 4.04447138,27.5944653 7.85627996,27.5944653 Z"/>
    <path id="img-telstra-screens-small-r" d="M38.5887029,69.3314075 C46.6154402,75.8698801 54.9532377,71.6354201 55.3111263,64.6770903 C55.669015,57.7187605 50.9525072,55.6093578 46.0372332,53.3341546 C41.1219592,51.0589513 36.3911268,49.5153256 35.4680422,48.3381276 C34.9280684,47.6495058 34.573914,47.1739498 34.4129191,46.9472679 C32.9420761,44.8763106 30.0841453,44.3993185 28.029552,45.8818763 C25.9749588,47.3644341 25.5017357,50.2451274 26.9725788,52.3160847 C27.8711992,53.5813486 33.4879321,65.176388 38.5887029,69.3314075 Z"/>
    <filter id="img-telstra-screens-small-s" width="106.8%" height="107.3%" x="-3.4%" y="-3.6%" filterUnits="objectBoundingBox">
      <feOffset dx="-1" dy="-2" in="SourceAlpha" result="shadowOffsetInner1"/>
      <feComposite in="shadowOffsetInner1" in2="SourceAlpha" k2="-1" k3="1" operator="arithmetic" result="shadowInnerInner1"/>
      <feColorMatrix in="shadowInnerInner1" values="0 0 0 0 0   0 0 0 0 0   0 0 0 0 0  0 0 0 0.2 0"/>
    </filter>
    <ellipse id="img-telstra-screens-small-t" cx="26.118" cy="42.399" rx="10.288" ry="10.483"/>
    <filter id="img-telstra-screens-small-u" width="109.7%" height="109.5%" x="-4.9%" y="-4.8%" filterUnits="objectBoundingBox">
      <feOffset dy="-2" in="SourceAlpha" result="shadowOffsetInner1"/>
      <feComposite in="shadowOffsetInner1" in2="SourceAlpha" k2="-1" k3="1" operator="arithmetic" result="shadowInnerInner1"/>
      <feColorMatrix in="shadowInnerInner1" values="0 0 0 0 0   0 0 0 0 0   0 0 0 0 0  0 0 0 0.2 0"/>
    </filter>
    <ellipse id="img-telstra-screens-small-v" cx="23.546" cy="45.02" rx="2.572" ry="2.621"/>
    <filter id="img-telstra-screens-small-w" width="109.7%" height="109.5%" x="-4.9%" y="-4.8%" filterUnits="objectBoundingBox">
      <feOffset dy="-.5" in="SourceAlpha" result="shadowOffsetInner1"/>
      <feComposite in="shadowOffsetInner1" in2="SourceAlpha" k2="-1" k3="1" operator="arithmetic" result="shadowInnerInner1"/>
      <feColorMatrix in="shadowInnerInner1" values="0 0 0 0 0.2   0 0 0 0 0.2   0 0 0 0 0.2  0 0 0 1 0"/>
    </filter>
    <ellipse id="img-telstra-screens-small-x" cx="17.758" cy="46.986" rx="1.929" ry="1.966"/>
    <filter id="img-telstra-screens-small-y" width="113%" height="112.7%" x="-6.5%" y="-6.4%" filterUnits="objectBoundingBox">
      <feOffset dy="-.5" in="SourceAlpha" result="shadowOffsetInner1"/>
      <feComposite in="shadowOffsetInner1" in2="SourceAlpha" k2="-1" k3="1" operator="arithmetic" result="shadowInnerInner1"/>
      <feColorMatrix in="shadowInnerInner1" values="0 0 0 0 0.2   0 0 0 0 0.2   0 0 0 0 0.2  0 0 0 1 0"/>
    </filter>
    <path id="img-telstra-screens-small-z" d="M73.6546574,58.9400017 C71.0133233,46.4714025 59.7531351,50.2580018 60.3587916,45.6601456 C64.5475056,13.8614202 55.7255007,0.877229141 52.804552,1.89750838 C49.277907,3.12935563 42.2542817,30.8215465 45.4654585,51.3103194 C49.0704174,61.2835572 59.2630109,60.4059503 66.3733659,60.4616546 C71.3621669,60.5007381 74.7437491,64.0811338 73.6546574,58.9400017 Z"/>
    <filter id="img-telstra-screens-small-A" width="117.1%" height="108.4%" x="-8.6%" y="-4.2%" filterUnits="objectBoundingBox">
      <feOffset dx="5" dy="-2" in="SourceAlpha" result="shadowOffsetInner1"/>
      <feComposite in="shadowOffsetInner1" in2="SourceAlpha" k2="-1" k3="1" operator="arithmetic" result="shadowInnerInner1"/>
      <feColorMatrix in="shadowInnerInner1" values="0 0 0 0 0   0 0 0 0 0   0 0 0 0 0  0 0 0 0.1 0"/>
    </filter>
    <path id="img-telstra-screens-small-B" d="M15.6253469,26.4298265 C17.4260745,28.4602238 18.0646627,29.0267115 20.4030823,30.9225438 C24.0828948,33.9058867 25.1770649,34.8192419 29.4203383,36.3539856 C30.5100745,36.7481308 32.707767,37.4645546 33.5460464,36.5497403 C35.6895249,34.2105619 31.932854,32.7892373 30.8431179,32.3950921 C27.0759733,31.0325588 26.3780627,30.3558611 23.0398174,27.6494379 C20.8913228,25.9075838 20.4153102,25.4996273 18.7593872,23.6325034 C18.182297,22.9818096 17.6804235,22.3797296 17.2572406,21.8426033 C17.0096926,21.5284023 16.8473325,21.3114179 16.7735254,21.2079886 C16.0992256,20.2630621 14.7890234,20.0454225 13.8471067,20.7218768 C12.90519,21.3983312 12.6882435,22.71272 13.3625433,23.6576465 C13.7745107,24.234955 14.5364492,25.2020478 15.6253469,26.4298265 Z"/>
    <filter id="img-telstra-screens-small-C" width="109.4%" height="112%" x="-4.7%" y="-6%" filterUnits="objectBoundingBox">
      <feOffset dx="-1" dy="-2" in="SourceAlpha" result="shadowOffsetInner1"/>
      <feComposite in="shadowOffsetInner1" in2="SourceAlpha" k2="-1" k3="1" operator="arithmetic" result="shadowInnerInner1"/>
      <feColorMatrix in="shadowInnerInner1" values="0 0 0 0 0   0 0 0 0 0   0 0 0 0 0  0 0 0 0.2 0"/>
    </filter>
    <ellipse id="img-telstra-screens-small-D" cx="12.971" cy="19.133" rx="4.717" ry="4.783"/>
    <filter id="img-telstra-screens-small-E" width="121.2%" height="120.9%" x="-10.6%" y="-10.5%" filterUnits="objectBoundingBox">
      <feOffset dy="-2" in="SourceAlpha" result="shadowOffsetInner1"/>
      <feComposite in="shadowOffsetInner1" in2="SourceAlpha" k2="-1" k3="1" operator="arithmetic" result="shadowInnerInner1"/>
      <feColorMatrix in="shadowInnerInner1" values="0 0 0 0 0   0 0 0 0 0   0 0 0 0 0  0 0 0 0.2 0"/>
    </filter>
    <ellipse id="img-telstra-screens-small-F" cx="11.791" cy="20.329" rx="1.179" ry="1.196"/>
    <filter id="img-telstra-screens-small-G" width="121.2%" height="120.9%" x="-10.6%" y="-10.5%" filterUnits="objectBoundingBox">
      <feOffset dy="-.5" in="SourceAlpha" result="shadowOffsetInner1"/>
      <feComposite in="shadowOffsetInner1" in2="SourceAlpha" k2="-1" k3="1" operator="arithmetic" result="shadowInnerInner1"/>
      <feColorMatrix in="shadowInnerInner1" values="0 0 0 0 0.555417456   0 0 0 0 0.926381117   0 0 0 0 1  0 0 0 0.5 0"/>
    </filter>
    <ellipse id="img-telstra-screens-small-H" cx="9.138" cy="21.226" rx="1" ry="1"/>
    <filter id="img-telstra-screens-small-I" width="128.3%" height="127.9%" x="-14.1%" y="-13.9%" filterUnits="objectBoundingBox">
      <feOffset dy="-.5" in="SourceAlpha" result="shadowOffsetInner1"/>
      <feComposite in="shadowOffsetInner1" in2="SourceAlpha" k2="-1" k3="1" operator="arithmetic" result="shadowInnerInner1"/>
      <feColorMatrix in="shadowInnerInner1" values="0 0 0 0 0.555417456   0 0 0 0 0.926381117   0 0 0 0 1  0 0 0 0.5 0"/>
    </filter>
    <ellipse id="img-telstra-screens-small-J" cx="13.9" cy="22.106" rx="1.39" ry="1.427"/>
    <filter id="img-telstra-screens-small-K" width="118%" height="117.5%" x="-9%" y="-8.8%" filterUnits="objectBoundingBox">
      <feOffset dy="-.5" in="SourceAlpha" result="shadowOffsetInner1"/>
      <feComposite in="shadowOffsetInner1" in2="SourceAlpha" k2="-1" k3="1" operator="arithmetic" result="shadowInnerInner1"/>
      <feColorMatrix in="shadowInnerInner1" values="0 0 0 0 0.2   0 0 0 0 0.2   0 0 0 0 0.2  0 0 0 1 0"/>
    </filter>
    <ellipse id="img-telstra-screens-small-L" cx="10.773" cy="23.177" rx="1.043" ry="1.071"/>
    <filter id="img-telstra-screens-small-M" width="124%" height="123.4%" x="-12%" y="-11.7%" filterUnits="objectBoundingBox">
      <feOffset dy="-.5" in="SourceAlpha" result="shadowOffsetInner1"/>
      <feComposite in="shadowOffsetInner1" in2="SourceAlpha" k2="-1" k3="1" operator="arithmetic" result="shadowInnerInner1"/>
      <feColorMatrix in="shadowInnerInner1" values="0 0 0 0 0.2   0 0 0 0 0.2   0 0 0 0 0.2  0 0 0 1 0"/>
    </filter>
    <path id="img-telstra-screens-small-N" d="M4.19331659,25.466971 C8.14321786,23.2535271 18.5786617,19.2033319 23.1323508,14.3573968 C31.5366295,5.41374971 25.5839525,1.03803002 20.6534618,0.199383015 C16.3830682,-0.526985432 11.4027287,0.330682957 5.18316974,9.64409912 C-1.03638923,18.9575153 0.0774665194,22.8056867 0.0774665194,22.8056867 C0.0774665194,22.8056867 0.853288765,27.3386544 4.19331659,25.466971 Z"/>
  </defs>
  <g fill="none" fill-rule="evenodd">
    <g transform="translate(0 69)">
      <rect width="690" height="437" fill="#586C76" fill-opacity=".1" rx="10"/>
      <g transform="translate(11 39)">
        <rect width="666.866" height="385" fill="#FFF"/>
        <rect width="666.866" height="274.384" fill="#586C76"/>
        <rect width="219.893" height="18.675" x="224.205" y="84.757" fill="#E3E6E8" opacity=".3" rx="4"/>
        <rect width="349.242" height="11.493" x="159.53" y="113.489" fill="#FFF" opacity=".3" rx="4"/>
        <rect width="370.8" height="8.619" x="47.428" y="331.847" fill="#586C76" opacity=".7" rx="4"/>
        <rect width="219.893" height="18.675" x="47.428" y="298.806" fill="#586C76" opacity=".7" rx="4"/>
        <rect width="168.154" height="70.392" x="444.098" y="298.806" fill="#7C69B8" opacity=".3" rx="4"/>
        <rect width="370.8" height="8.619" x="47.428" y="346.213" fill="#586C76" opacity=".7" rx="4"/>
        <rect width="247.2" height="8.619" x="47.428" y="360.578" fill="#586C76" opacity=".7" rx="4"/>
        <g fill="#FFF" transform="translate(47.428 152.276)">
          <rect width="168.154" height="7.183" y="64.646" opacity=".2" rx="3.591"/>
          <rect width="168.154" height="7.183" y="77.575" opacity=".2" rx="3.591"/>
          <rect width="112.102" height="7.183" x="28.744" y="90.504" opacity=".2" rx="3.591"/>
          <ellipse cx="84.795" cy="25.858" fill-opacity=".2" rx="25.87" ry="25.858"/>
        </g>
        <g fill="#FFF" transform="translate(250.075 152.276)">
          <rect width="168.154" height="7.183" y="64.646" opacity=".2" rx="3.591"/>
          <rect width="168.154" height="7.183" y="77.575" opacity=".2" rx="3.591"/>
          <rect width="112.102" height="7.183" x="27.307" y="90.504" opacity=".2" rx="3.591"/>
          <ellipse cx="83.358" cy="25.858" fill-opacity=".2" rx="25.87" ry="25.858"/>
        </g>
        <g fill="#FFF" transform="translate(452.721 152.276)">
          <rect width="168.154" height="7.183" y="64.646" opacity=".2" rx="3.591"/>
          <rect width="168.154" height="7.183" y="77.575" opacity=".2" rx="3.591"/>
          <rect width="112.102" height="7.183" x="27.307" y="90.504" opacity=".2" rx="3.591"/>
          <ellipse cx="83.358" cy="25.858" fill-opacity=".2" rx="25.87" ry="25.858"/>
        </g>
        <g transform="translate(40.242 43.097)">
          <polygon fill="#2D86CA" points="0 0 626.624 0 626.624 43.097" opacity=".2"/>
          <polygon fill="url(#img-telstra-screens-small-a)" points="0 0 626.624 0 626.624 27.295"/>
        </g>
        <rect width="666.866" height="43.097" fill="#FFF"/>
        <rect width="273.07" height="18.675" x="80.484" y="12.929" fill="#586C76" opacity=".7" rx="4"/>
        <ellipse cx="54.614" cy="22.985" fill="#00AAF3" opacity=".5" rx="14.372" ry="14.366"/>
      </g>
      <g transform="translate(11 15)">
        <ellipse cx="7.25" cy="7.5" fill="#FF4C54" rx="7.25" ry="7.5"/>
        <ellipse cx="29" cy="7.5" fill="#FFD74C" rx="7.25" ry="7.5"/>
        <ellipse cx="50.75" cy="7.5" fill="#9AE04C" rx="7.25" ry="7.5"/>
      </g>
    </g>
    <g filter="url(#img-telstra-screens-small-b)" transform="translate(493 274)">
      <rect width="143" height="301" fill="#FFF" rx="10"/>
      <path fill="#1A2738" fill-opacity=".05" d="M34.8988764,10 L34.8988764,17.3768844 C34.8988764,19.5860234 36.6897374,21.3768844 38.8988764,21.3768844 L104.516854,21.3768844 C106.725993,21.3768844 108.516854,19.5860234 108.516854,17.3768844 L108.516854,10 L130,10 C132.209139,10 134,11.790861 134,14 L134,289 C134,291.209139 132.209139,293 130,293 L12,293 C9.790861,293 8,291.209139 8,289 L8,14 C8,11.790861 9.790861,10 12,10 L34.8988764,10 Z"/>
      <rect width="109" height="37" x="17" y="237" fill="#7C69B8" opacity=".3" rx="2"/>
      <rect width="109" height="4" x="17" y="207" fill="#586C76" opacity=".7" rx="2"/>
      <rect width="109" height="4" x="17" y="200" fill="#586C76" opacity=".7" rx="2"/>
      <rect width="92" height="11" x="17" y="180" fill="#586C76" opacity=".7" rx="2"/>
      <rect width="109" height="4" x="17" y="214" fill="#586C76" opacity=".7" rx="2"/>
      <rect width="72" height="4" x="17" y="221" fill="#586C76" opacity=".7" rx="2"/>
      <rect width="126" height="131" x="8" y="38" fill="#586C76"/>
      <g fill="#FFF" transform="translate(25 104)">
        <rect width="92" height="4.263" y="35.526" opacity=".2" rx="2"/>
        <rect width="92" height="4.263" y="42.632" opacity=".2" rx="2"/>
        <rect width="60.862" height="4.263" x="15.569" y="49.737" opacity=".2" rx="2"/>
        <ellipse cx="45.292" cy="14.211" fill-opacity=".2" rx="14.154" ry="14.211"/>
      </g>
      <g transform="translate(8 38)">
        <polygon fill="#2D86CA" points="0 0 126 0 126 28" opacity=".2"/>
        <polygon fill="url(#img-telstra-screens-small-a)" points="0 0 126 0 126 18.2"/>
      </g>
      <rect width="69" height="13" x="37" y="65" fill="#E3E6E8" opacity=".3" rx="2"/>
      <rect width="109" height="9" x="17" y="84" fill="#FFF" opacity=".3" rx="2"/>
      <g transform="translate(8 10)">
        <rect width="126" height="28" fill="#FFF"/>
        <rect width="72.202" height="9.8" x="26.899" y="11.2" fill="#586C76" opacity=".7" rx="2"/>
        <ellipse cx="13.449" cy="16.1" fill="#00AAF3" opacity=".5" rx="7.787" ry="7.7"/>
      </g>
    </g>
    <g transform="translate(113 -42)">
      <path stroke="#586C76" stroke-dasharray="6" stroke-opacity=".5" stroke-width="3" d="M364.790216,579.381577 C305.870075,529.822128 227.26089,552.059299 227.26089,575.858264 C227.26089,599.657229 230.731732,607.668948 250.765625,607.668948 C271.234805,607.668948 286.161962,594.326029 272.191406,579.381577 C258.220851,564.437126 192.326968,562.939751 201.480469,617.657229" transform="matrix(1 0 0 -1 0 1167.337)"/>
      <path stroke="#586C76" stroke-dasharray="6" stroke-opacity=".5" stroke-width="3" d="M337.710694,60.8245008 C299.93166,28.868215 267.612536,31.3108634 236.69326,40.7638345 C205.773985,50.2168056 163.460748,88.4564192 185.043396,100.103286 C206.626044,111.750152 224.789812,87.9515867 207.314323,74.8057167 C189.838833,61.6598466 102.044183,88.5013648 87.0730076,148.301184" transform="scale(-1 1) rotate(17 0 -1329.733)"/>
      <g transform="translate(321 498.345)">
        <path fill="#FFDC6A" fill-opacity=".8" d="M54.877362,55.386879 C67.2679863,55.386879 83.5677014,48.3990064 83.5677014,35.7586202 C83.5677014,23.1182339 73.5231157,12.8711763 61.1324913,12.8711763 C48.7418669,12.8711763 41.615213,31.3027709 41.615213,43.9431571 C41.615213,49.3165453 45.0350688,55.386879 54.877362,55.386879 Z" transform="rotate(-46 62.591 34.129)"/>
        <g transform="translate(31.64 41.5)">
          <mask id="img-telstra-screens-small-d" fill="#fff">
            <use xlink:href="#img-telstra-screens-small-c"/>
          </mask>
          <use fill="#FFC30D" xlink:href="#img-telstra-screens-small-c"/>
          <ellipse cx="27.12" cy="23.056" fill="#FFD659" mask="url(#img-telstra-screens-small-d)" rx="27.12" ry="23.056"/>
          <path fill="#555" d="M0,-13.8333333 L18.08,-13.8333333 C18.08,-13.8333333 33.7410937,4.91731771 33.7410937,29.9722222 C33.7410937,55.0271267 18.08,73.7777778 18.08,73.7777778 L0,73.7777778 C0,73.7777778 25.9105469,57.539822 25.9105469,29.9722222 C25.9105469,2.4046224 0,-13.8333333 0,-13.8333333 Z" mask="url(#img-telstra-screens-small-d)"/>
          <path fill="#555" d="M22.6,-13.8333333 L31.64,-13.8333333 C31.64,-13.8333333 47.3010937,4.91731771 47.3010937,29.9722222 C47.3010937,55.0271267 31.64,73.7777778 31.64,73.7777778 L22.6,73.7777778 C22.6,73.7777778 39.4705469,57.539822 39.4705469,29.9722222 C39.4705469,2.4046224 22.6,-13.8333333 22.6,-13.8333333 Z" mask="url(#img-telstra-screens-small-d)"/>
        </g>
        <path fill="#555" fill-rule="nonzero" d="M43.3858596 52.7685301C41.8516977 49.7055252 39.766162 46.65049 37.044441 43.8015213 31.8695913 38.3847335 25.0243377 34.3685266 16.3245163 32.3359605 15.1078512 32.0517073 13.8956697 32.8274576 13.6170331 34.0686474 13.3383964 35.3098371 14.0988187 36.546453 15.3154837 36.8307062 23.151603 38.661483 29.2286637 42.2269802 33.8074612 47.0198487 36.1966317 49.5207192 38.0240554 52.1976545 39.3608556 54.8666202 40.1495319 56.4412384 40.5927866 57.635929 40.7632218 58.2587859 41.0988168 59.4852205 42.3454471 60.2019048 43.5476485 59.8595451 44.7498499 59.5171854 45.4523732 58.2454264 45.1167782 57.0189918 44.8689559 56.1133233 44.3197606 54.6330943 43.3858596 52.7685301zM30.762099 51.7335464C23.8528023 47.7690796 15.3871453 46.3313782 5.56659087 48.8758226 4.35683412 49.189263 3.62520552 50.4438266 3.93245266 51.6779688 4.2396998 52.912111 5.46947444 53.6584873 6.67923119 53.3450469 15.3187818 51.1065933 22.6061232 52.3441843 28.5462683 55.7525642 29.8785061 56.5169854 31.027431 57.3327068 31.9869563 58.1420291 32.5423668 58.6104963 32.8981704 58.9571528 33.048433 59.1228257 33.8961198 60.0574476 35.3259958 60.1140706 36.2421505 59.2492968 37.1583051 58.384523 37.2138094 56.9258245 36.3661226 55.9912026 35.3511897 54.8721825 33.4767997 53.2912073 30.762099 51.7335464z"/>
        <ellipse cx="45.2" cy="73.778" fill="#4A4A4A" rx="4.52" ry="4.611"/>
        <ellipse cx="35.03" cy="77.236" fill="#4A4A4A" rx="3.39" ry="3.458"/>
        <g transform="translate(63.28 18.444)">
          <use fill="#FFDE7A" fill-opacity=".8" xlink:href="#img-telstra-screens-small-e"/>
          <use fill="#FFCE3A" fill-opacity=".8" xlink:href="#img-telstra-screens-small-f"/>
          <use fill="#FFC000" fill-opacity=".8" xlink:href="#img-telstra-screens-small-g"/>
        </g>
      </g>
      <g transform="scale(-1 1) rotate(28 -1153.38 -93.836)">
        <path fill="#FFDC6A" fill-opacity=".8" d="M33.5091856,34.0329016 C41.0751421,34.0329016 51.0280654,29.7391485 51.0280654,21.9721642 C51.0280654,14.2051799 44.8946459,7.90879506 37.3286894,7.90879506 C29.7627329,7.90879506 25.4110592,19.2342327 25.4110592,27.001217 C25.4110592,30.3029375 27.4992898,34.0329016 33.5091856,34.0329016 Z" transform="rotate(-46 38.22 20.97)"/>
        <g transform="translate(19.32 25.5)">
          <mask id="img-telstra-screens-small-i" fill="#fff">
            <use xlink:href="#img-telstra-screens-small-h"/>
          </mask>
          <use fill="#FFC30D" xlink:href="#img-telstra-screens-small-h"/>
          <ellipse cx="16.56" cy="14.167" fill="#FFD659" mask="url(#img-telstra-screens-small-i)" rx="16.56" ry="14.167"/>
          <path fill="#555" d="M0,-8.5 L11.04,-8.5 C11.04,-8.5 20.6029687,3.02148438 20.6029687,18.4166667 C20.6029687,33.811849 11.04,45.3333333 11.04,45.3333333 L0,45.3333333 C0,45.3333333 15.8214844,35.3557943 15.8214844,18.4166667 C15.8214844,1.47753906 0,-8.5 0,-8.5 Z" mask="url(#img-telstra-screens-small-i)"/>
          <path fill="#555" d="M13.8,-8.5 L19.32,-8.5 C19.32,-8.5 28.8829687,3.02148438 28.8829687,18.4166667 C28.8829687,33.811849 19.32,45.3333333 19.32,45.3333333 L13.8,45.3333333 C13.8,45.3333333 24.1014844,35.3557943 24.1014844,18.4166667 C24.1014844,1.47753906 13.8,-8.5 13.8,-8.5 Z" mask="url(#img-telstra-screens-small-i)"/>
        </g>
        <path fill="#555" fill-rule="nonzero" d="M26.4922505 32.4240366C25.5554614 30.5419492 24.2819927 28.6647589 22.6200569 26.9141878 19.4601929 23.5858001 15.2803478 21.1180103 9.96806746 19.8690841 9.2251481 19.6944225 8.48496646 20.1710884 8.3148255 20.9337472 8.14468454 21.6964059 8.60901318 22.4562542 9.35193254 22.6309159 14.1368195 23.755851 17.8475911 25.9466987 20.643494 28.8917143 22.102368 30.4283937 23.2182285 32.0732576 24.0345048 33.7132245 24.5160858 34.6807609 24.7867458 35.4148479 24.8908169 35.7975673 25.0957377 36.5511596 25.8569544 36.9915319 26.591042 36.7811663 27.3251296 36.5708007 27.754104 35.7893584 27.5491831 35.0357661 27.397858 34.4792709 27.0625087 33.5697327 26.4922505 32.4240366zM18.7839365 31.7880827C14.5649855 29.352085 9.39569052 28.4686782 3.39906876 30.032132 2.66036774 30.2247279 2.21362107 30.9956043 2.40123215 31.7539327 2.58884324 32.512261 3.33976758 32.9708777 4.0784686 32.7782818 9.35394638 31.4028465 13.8037389 32.1632939 17.4309072 34.2575997 18.2443975 34.7273043 18.9459535 35.2285307 19.5318583 35.7258251 19.8710027 36.0136785 20.0882634 36.2266842 20.1800166 36.3284833 20.6976307 36.902769 21.5707408 36.9375615 22.1301627 36.4061944 22.6895846 35.8748274 22.7234765 34.9785187 22.2058625 34.4042329 21.5861247 33.7166422 20.4415857 32.7451997 18.7839365 31.7880827z"/>
        <ellipse cx="27.6" cy="45.333" fill="#4A4A4A" rx="2.76" ry="2.833"/>
        <ellipse cx="21.39" cy="47.458" fill="#4A4A4A" rx="2.07" ry="2.125"/>
        <g transform="translate(38.64 11.333)">
          <use fill="#FFDE7A" fill-opacity=".8" xlink:href="#img-telstra-screens-small-j"/>
          <use fill="#FFCE3A" fill-opacity=".8" xlink:href="#img-telstra-screens-small-k"/>
          <use fill="#FFC000" fill-opacity=".8" xlink:href="#img-telstra-screens-small-l"/>
        </g>
      </g>
      <g transform="scale(-1 1) rotate(-8 106.344 2611.912)">
        <path fill="#FFDC6A" fill-opacity=".8" d="M33.0235452,33.3655898 C40.4798502,33.3655898 50.2885283,29.1560279 50.2885283,21.5413374 C50.2885283,13.9266469 44.2439988,7.75372064 36.7876939,7.75372064 C29.331389,7.75372064 25.042783,18.8570909 25.042783,26.4717814 C25.042783,29.7087623 27.1007493,33.3655898 33.0235452,33.3655898 Z" transform="rotate(-46 37.666 20.56)"/>
        <g transform="translate(19.04 25)">
          <mask id="img-telstra-screens-small-n" fill="#fff">
            <use xlink:href="#img-telstra-screens-small-m"/>
          </mask>
          <use fill="#FFC30D" xlink:href="#img-telstra-screens-small-m"/>
          <ellipse cx="16.32" cy="13.889" fill="#FFD659" mask="url(#img-telstra-screens-small-n)" rx="16.32" ry="13.889"/>
          <path fill="#555" d="M0,-8.33333333 L10.88,-8.33333333 C10.88,-8.33333333 20.304375,2.96223958 20.304375,18.0555556 C20.304375,33.1488715 10.88,44.4444444 10.88,44.4444444 L0,44.4444444 C0,44.4444444 15.5921875,34.6625434 15.5921875,18.0555556 C15.5921875,1.44856771 0,-8.33333333 0,-8.33333333 Z" mask="url(#img-telstra-screens-small-n)"/>
          <path fill="#555" d="M13.6,-8.33333333 L19.04,-8.33333333 C19.04,-8.33333333 28.464375,2.96223958 28.464375,18.0555556 C28.464375,33.1488715 19.04,44.4444444 19.04,44.4444444 L13.6,44.4444444 C13.6,44.4444444 23.7521875,34.6625434 23.7521875,18.0555556 C23.7521875,1.44856771 13.6,-8.33333333 13.6,-8.33333333 Z" mask="url(#img-telstra-screens-small-n)"/>
        </g>
        <path fill="#555" fill-rule="nonzero" d="M26.1083049 31.7882711C25.1850924 29.9430875 23.9300798 28.1027048 22.29223 26.3864586 19.1781611 23.1233335 15.0588935 20.7039317 9.82360272 19.4794943 9.0914503 19.3082574 8.36199593 19.7755769 8.19432078 20.5232815 8.02664563 21.2709862 8.48424487 22.0159355 9.21639728 22.1871724 13.9319381 23.29005 17.5889304 25.4379399 20.3443129 28.3252101 21.7820438 29.8317586 22.8817324 31.4443702 23.6861786 33.0521809 24.1607802 34.000746 24.4275176 34.7204392 24.5300804 35.0956542 24.7320313 35.8344702 25.4822159 36.2662077 26.2056646 36.0599669 26.9291132 35.8537262 27.3518706 35.0876063 27.1499196 34.3487903 27.0007876 33.8032068 26.6702984 32.9115026 26.1083049 31.7882711zM18.5117056 31.164787C14.3538987 28.776554 9.25952109 27.9104688 3.3498069 29.4432666 2.62181168 29.6320861 2.1815396 30.3878474 2.36643169 31.1313065 2.55132377 31.8747657 3.29136515 32.3243899 4.01936036 32.1355704 9.21838194 30.7871044 13.6036848 31.5326411 17.1782853 33.5858821 17.979986 34.0463767 18.6713744 34.5377752 19.2487879 35.0253187 19.5830172 35.3075279 19.7971291 35.5163571 19.8875526 35.6161601 20.397665 36.1791853 21.2581213 36.2132956 21.8094357 35.6923475 22.36075 35.1713994 22.3941508 34.2926654 21.8840384 33.7296401 21.2732823 33.0555316 20.1453308 32.1031369 18.5117056 31.164787z"/>
        <ellipse cx="27.2" cy="44.444" fill="#4A4A4A" rx="2.72" ry="2.778"/>
        <ellipse cx="21.08" cy="46.528" fill="#4A4A4A" rx="2.04" ry="2.083"/>
        <g transform="translate(38.08 11.111)">
          <use fill="#FFDE7A" fill-opacity=".8" xlink:href="#img-telstra-screens-small-o"/>
          <use fill="#FFCE3A" fill-opacity=".8" xlink:href="#img-telstra-screens-small-p"/>
          <use fill="#FFC000" fill-opacity=".8" xlink:href="#img-telstra-screens-small-q"/>
        </g>
      </g>
      <g transform="scale(-1 1) rotate(-3 1492.314 2151.277)">
        <path fill="#6D4886" d="M70.6395969,62.8091953 C66.5107918,50.3405962 48.9853305,49.6954381 49.9320633,45.0975819 C56.4796575,13.2988565 27.1404725,8.90743198 22.5745873,9.92771122 C17.0619072,11.1595585 21.6319731,30.2589828 26.6515287,50.7477557 C32.2866253,60.7209934 48.1812332,62.0592653 59.2957947,62.1149695 C67.0940461,62.154053 72.3420121,67.9503274 70.6395969,62.8091953 Z" transform="rotate(2 45.512 37.366)"/>
        <g fill-rule="nonzero">
          <use fill="#FA5296" fill-rule="evenodd" xlink:href="#img-telstra-screens-small-r"/>
          <use fill="#000" filter="url(#img-telstra-screens-small-s)" xlink:href="#img-telstra-screens-small-r"/>
        </g>
        <g transform="matrix(-1 0 0 1 52.235 0)">
          <use fill="#FA5296" xlink:href="#img-telstra-screens-small-t"/>
          <use fill="#000" filter="url(#img-telstra-screens-small-u)" xlink:href="#img-telstra-screens-small-t"/>
        </g>
        <use fill="#4A4A4A" xlink:href="#img-telstra-screens-small-v"/>
        <use fill="#000" filter="url(#img-telstra-screens-small-w)" xlink:href="#img-telstra-screens-small-v"/>
        <use fill="#4A4A4A" xlink:href="#img-telstra-screens-small-x"/>
        <use fill="#000" filter="url(#img-telstra-screens-small-y)" xlink:href="#img-telstra-screens-small-x"/>
        <path fill="#555" fill-rule="nonzero" d="M22.5132394 33.0791743C21.6402417 31.3382683 20.4534909 29.601892 18.9047259 27.9826368 15.9600354 24.9039221 12.0648202 22.6212491 7.11428388 21.4660088 6.42195421 21.3044491 5.73217583 21.7453587 5.57362076 22.450808 5.41506568 23.1562574 5.84777549 23.859107 6.54010516 24.0206667 10.9991614 25.0612169 14.457245 27.0877221 17.0627587 29.8118227 18.4222894 31.233231 19.4621645 32.7547084 20.2228558 34.2716561 20.6716432 35.1666146 20.9238724 35.8456354 21.0208566 36.1996457 21.2118232 36.8967087 21.9212043 37.3040472 22.6053036 37.1094618 23.2894029 36.9148764 23.6891659 36.1920526 23.4981993 35.4949897 23.3571788 34.980239 23.0446654 34.1389281 22.5132394 33.0791743zM15.3298292 32.4909254C11.3981711 30.2376596 6.5808834 29.4205199.992606436 30.866694.30420785 31.0448427-.112117242 31.7578933.0627183156 32.459337.237553873 33.1607807.937343411 33.5849952 1.625742 33.4068465 6.54198187 32.1345869 10.6887622 32.8379908 14.0689355 34.775196 14.8270306 35.2096666 15.4808135 35.6732944 16.0268206 36.1332852 16.3428708 36.3995457 16.5453369 36.5965733 16.6308421 36.690736 17.1132088 37.2219428 17.9268638 37.2541253 18.4481914 36.7626178 18.969519 36.2711103 19.0011031 35.4420366 18.5187364 34.9108298 17.9412001 34.2748175 16.8745994 33.3762459 15.3298292 32.4909254z"/>
        <g transform="rotate(2 59.253 31.777)">
          <use fill="#9366B3" xlink:href="#img-telstra-screens-small-z"/>
          <use fill="#000" filter="url(#img-telstra-screens-small-A)" xlink:href="#img-telstra-screens-small-z"/>
        </g>
      </g>
      <g transform="matrix(-1 0 0 1 48.969 49)">
        <path fill="#0086A5" d="M18.7657766,28.1620592 C18.7657766,28.1620592 26.278065,22.0591763 30.2048324,12.8766 C34.1315998,3.69402378 33.1314317,0.900140854 30.740583,0.159490565 C28.3497343,-0.581159724 25.4735708,1.01189182 21.5468034,10.1944681 C17.620036,19.3770443 18.7657766,28.1620592 18.7657766,28.1620592"/>
        <g fill-rule="nonzero">
          <use fill="#8C6CA3" fill-rule="evenodd" xlink:href="#img-telstra-screens-small-B"/>
          <use fill="#000" filter="url(#img-telstra-screens-small-C)" xlink:href="#img-telstra-screens-small-B"/>
        </g>
        <g transform="matrix(-1 0 0 1 25.941 0)">
          <use fill="#8C6CA3" xlink:href="#img-telstra-screens-small-D"/>
          <use fill="#000" filter="url(#img-telstra-screens-small-E)" xlink:href="#img-telstra-screens-small-D"/>
        </g>
        <use fill="#FFF" xlink:href="#img-telstra-screens-small-F"/>
        <use fill="#000" filter="url(#img-telstra-screens-small-G)" xlink:href="#img-telstra-screens-small-F"/>
        <use fill="#FFF" xlink:href="#img-telstra-screens-small-H"/>
        <use fill="#000" filter="url(#img-telstra-screens-small-I)" xlink:href="#img-telstra-screens-small-H"/>
        <path fill="#555" fill-rule="nonzero" d="M11.3181842 14.8803215C10.9179633 14.0859893 10.3739041 13.2937238 9.66388156 12.5548978 8.31390478 11.1501567 6.52816532 10.1086296 4.25861985 9.58152215 3.94122521 9.50780647 3.6250002 9.7089826 3.55231152 10.0308616 3.47962284 10.3527406 3.67799621 10.6734335 3.99539085 10.7471492 6.03962006 11.2219264 7.62495901 12.1465705 8.81944205 13.38951 9.44271128 14.0380633 9.91943615 14.7322757 10.2681708 15.4244214 10.4739148 15.8327687 10.5895479 16.1425891 10.6340098 16.3041152 10.7215573 16.6221677 11.0467691 16.8080262 11.3603905 16.7192417 11.674012 16.6304572 11.8572811 16.3006506 11.7697336 15.9825981 11.7050835 15.7477301 11.5618135 15.3638608 11.3181842 14.8803215zM8.02499032 14.6119181C6.22254379 13.5838088 4.0140854 13.2109683 1.45217132 13.8708216 1.13657887 13.9521065.945716976 14.2774537 1.02586935 14.5975051 1.10602173 14.9175565 1.4268363 15.111115 1.74242875 15.0298302 3.99625122 14.4493297 5.8973193 14.7702754 7.4469407 15.6541741 7.7944851 15.8524122 8.0942082 16.0639541 8.3445221 16.2738365 8.48941352 16.3953246 8.58223296 16.4852234 8.62143236 16.5281875 8.84257064 16.770564 9.21558619 16.7852481 9.45458589 16.5609854 9.69358559 16.3367227 9.70806512 15.9584369 9.48692684 15.7160605 9.2221586 15.4258638 8.73318151 15.0158679 8.02499032 14.6119181z"/>
        <path fill="#00A5C4" d="M39.2977915,19.0953774 C46.3662623,11.3950202 46.4294134,8.47482222 44.4244871,7.14159709 C42.4195608,5.80837196 39.1057818,6.56698494 32.037311,14.2673421 C24.9688401,21.9676993 22.8689526,30.6240899 22.8689526,30.6240899 C22.8689526,30.6240899 32.2293207,26.7957346 39.2977915,19.0953774 Z" transform="rotate(20 34.214 18.617)"/>
        <path fill="#00A5C4" d="M19.5036218,25.9020212 C19.5036218,25.9020212 28.8639898,22.073666 35.9324606,14.3733088 C43.0009314,6.67295161 43.0640826,3.7527536 41.0591562,2.41952847 C39.0542299,1.08630334 35.7404509,1.84491632 28.6719801,9.54527352 C21.6035093,17.2456307 19.5036218,25.9020212 19.5036218,25.9020212"/>
      </g>
      <g transform="rotate(-6 5165.772 -2220.156)">
        <path fill="#C33770" d="M40.1155235,13.6976319 C44.7446154,2.7365356 36.1124452,-1.66721409 31.5592263,1.54883219 C29.0764424,3.30248116 27.4290346,2.8951896 22.7999428,13.8562859 C18.170851,24.8173822 22.1221413,31.4566053 22.1221413,31.4566053 C22.1221413,31.4566053 35.4864317,24.6587282 40.1155235,13.6976319 Z"/>
        <path fill="#00A5C4" fill-rule="nonzero" d="M22.0971218,35.7284074 C24.4089414,37.713536 24.8926545,38.1955516 29.0867622,39.8084667 C31.8290946,40.863077 33.3247925,39.7180808 33.8890788,38.3944025 C34.9406435,35.9276872 33.6464812,34.4342987 32.5764853,33.6937765 C28.7467378,31.0432867 30.5161388,31.9989869 26.5808295,28.7683721 C24.0480645,26.6891485 24.0667033,28.2785025 22.1146092,26.0497462 C21.4343031,25.2730232 20.8426667,24.5543299 20.3437952,23.9131707 C20.0519719,23.5381139 19.8605727,23.279103 19.7735648,23.1556411 C18.9786627,22.0276973 17.4341234,21.7679043 16.3237396,22.5753772 C15.2133558,23.38285 14.9576073,24.9518153 15.7525093,26.0797591 C16.2381595,26.7688831 19.3940376,33.407305 22.0971218,35.7284074 Z"/>
        <path fill="#313F45" fill-opacity=".1" fill-rule="nonzero" d="M22.0971218,35.7284074 C24.4089414,37.713536 24.8926545,38.1955516 29.0867622,39.8084667 C31.8290946,40.863077 33.3247925,39.7180808 33.8890788,38.3944025 C29.8094981,39.2950279 25.5700307,36.721115 23.1960537,34.5439821 C20.8220767,32.3668492 19.536046,28.4085822 19.579824,27.0596713 C19.623602,25.7107603 20.0040811,25.1551218 20.3437952,23.9131707 C20.1204644,23.664377 19.8605727,23.279103 19.7735648,23.1556411 C18.9786627,22.0276973 17.4341234,21.7679043 16.3237396,22.5753772 C15.2133558,23.38285 14.9576073,24.9518153 15.7525093,26.0797591 C16.2381595,26.7688831 19.3940376,33.407305 22.0971218,35.7284074 Z"/>
        <path fill="#313F45" fill-opacity=".1" fill-rule="nonzero" d="M22.0971218,35.7284074 C24.4089414,37.713536 24.8926545,38.1955516 29.0867622,39.8084667 C31.8290946,40.863077 34.5016518,39.7042326 34.1761074,35.8641605 C32.7782664,40.0022712 27.0422198,35.9552227 24.6682428,33.7780898 C22.2942658,31.6009569 20.7812446,28.4773044 20.4306943,27.2775206 C20.080144,26.0777369 20.1714571,25.6033339 20.5388229,24.1886166 C20.2213026,23.8211752 19.8605727,23.279103 19.7735648,23.1556411 C18.9786627,22.0276973 17.4341234,21.7679043 16.3237396,22.5753772 C15.2133558,23.38285 14.9576073,24.9518153 15.7525093,26.0797591 C16.2381595,26.7688831 19.3940376,33.407305 22.0971218,35.7284074 Z"/>
        <ellipse cx="15.29" cy="20.679" fill="#00A5C4" rx="5.56" ry="5.71" transform="matrix(-1 0 0 1 30.58 0)"/>
        <path fill="#313F45" fill-opacity=".2" d="M15.2904509,26.3882517 C18.3612447,26.3882517 20.8506149,23.8319542 20.8506149,20.6786014 C19.2973825,23.0165447 14.5432863,27.0299859 9.73028695,20.6786014 C9.73028695,23.8319542 12.2196572,26.3882517 15.2904509,26.3882517 Z" transform="matrix(-1 0 0 1 30.58 0)"/>
        <use fill="#4A4A4A" xlink:href="#img-telstra-screens-small-J"/>
        <use fill="#000" filter="url(#img-telstra-screens-small-K)" xlink:href="#img-telstra-screens-small-J"/>
        <use fill="#4A4A4A" xlink:href="#img-telstra-screens-small-L"/>
        <use fill="#000" filter="url(#img-telstra-screens-small-M)" xlink:href="#img-telstra-screens-small-L"/>
        <path fill="#555" fill-rule="nonzero" d="M13.3425052 15.6024048C12.8707025 14.654223 12.2293353 13.7085082 11.3923212 12.8265833 9.80089344 11.149766 7.69576442 9.90651157 5.02029797 9.2773117 4.64613552 9.18931846 4.27335189 9.42945923 4.18766243 9.81368113 4.10197297 10.197903 4.33582653 10.580709 4.70998898 10.6687023 7.11984009 11.2354364 8.98872583 12.3391694 10.3968489 13.8228467 11.1315933 14.5970146 11.6935831 15.4256849 12.1046909 16.2518882 12.3472334 16.739326 12.4835481 17.1091537 12.5359622 17.3019649 12.6391682 17.6816192 13.0225459 17.9034755 13.3922603 17.7974948 13.7619747 17.6915142 13.9780226 17.2978293 13.8748166 16.918175 13.7986036 16.6378168 13.6297089 16.1795981 13.3425052 15.6024048zM9.460305 15.2820159C7.33548076 14.0547781 4.73202717 13.6097242 1.71190033 14.3973808 1.33986239 14.4944092 1.11486378 14.8827711 1.20935186 15.2648114 1.30383994 15.6468516 1.682034 15.8778994 2.05407194 15.780871 4.71100323 15.0879367 6.95208804 15.4710446 8.77886794 16.5261405 9.18857262 16.7627742 9.54190288 17.0152884 9.83698683 17.2658217 10.0077929 17.4108401 10.1172136 17.5181509 10.163424 17.5694364 10.4241142 17.8587574 10.8638456 17.8762856 11.1455918 17.6085868 11.4273379 17.3408879 11.4444072 16.8893342 11.1837171 16.6000132 10.8715936 16.2536101 10.2951602 15.7642044 9.460305 15.2820159z"/>
        <g transform="translate(23.138 4.32)">
          <mask id="img-telstra-screens-small-O" fill="#fff">
            <use xlink:href="#img-telstra-screens-small-N"/>
          </mask>
          <use fill="#E63C81" xlink:href="#img-telstra-screens-small-N"/>
          <path fill="#FA5296" d="M7.22398472,18.2530875 C11.6095115,18.0156624 20.199765,15.8123401 24.1023521,10.4972493 C28.1985164,4.91851794 25.1429512,-0.666335054 20.0410933,-1.1560791 C9.8498124,-2.13437353 4.30992126,4.02293074 2.19906027,11.1282802 C0.0881992835,18.2336296 -0.0503786194,18.6469093 7.22398472,18.2530875 Z" mask="url(#img-telstra-screens-small-O)" transform="rotate(-5 13.473 8.549)"/>
          <path fill="#9366B3" d="M12.3193154,14.2729529 C17.717738,15.1388955 21.174282,12.6336195 21.0122355,10.2387157 C20.850189,7.84381182 17.1459851,5.51369113 12.3193154,6.20447844 C7.49264572,6.89526576 3.62639533,8.01066797 3.62639533,10.2387157 C3.62639533,12.4667634 6.92089285,13.4070103 12.3193154,14.2729529 Z" transform="rotate(-33 12.322 10.265)"/>
          <path fill="#FFF" d="M11.3481066,12.8536957 C14.3442393,13.4130309 16.2626265,11.794807 16.1726904,10.2478753 C16.0827544,8.70094361 14.0269156,7.19585708 11.3481066,7.64205486 C8.66929758,8.08825264 6.52352274,8.80872041 6.52352274,10.2478753 C6.52352274,11.6870302 8.35197387,12.2943605 11.3481066,12.8536957 Z" opacity=".4" transform="rotate(-33 11.35 10.265)"/>
        </g>
      </g>
    </g>
  </g>
</svg>
