<svg xmlns="http://www.w3.org/2000/svg" xmlns:xlink="http://www.w3.org/1999/xlink" width="350" height="296"><defs><path id="b" d="M0 .997C0 .447.44 0 1.002 0h161.61c.553 0 1.002.45 1.002.997V96.01H0V.997z"/><filter id="a" width="102.4%" height="104.2%" x="-.6%" y="-1%" filterUnits="objectBoundingBox"><feOffset dx="2" dy="2" in="SourceAlpha" result="shadowOffsetOuter1"/><feColorMatrix in="shadowOffsetOuter1" values="0 0 0 0 0 0 0 0 0 0 0 0 0 0 0 0 0 0 0.1 0"/></filter><rect id="c" width="84.185" height="37.465" rx="1"/><rect id="e" width="16.369" height="15.22" rx="1"/><rect id="g" width="16.369" height="15.22" rx="1"/><path id="j" d="M0 1.004C0 .449.446 0 1.003 0h73.994C75.551 0 76 .454 76 1.004v64.56H0V1.003z"/><filter id="i" width="105.3%" height="106.1%" x="-1.3%" y="-1.5%" filterUnits="objectBoundingBox"><feOffset dx="2" dy="2" in="SourceAlpha" result="shadowOffsetOuter1"/><feColorMatrix in="shadowOffsetOuter1" values="0 0 0 0 0 0 0 0 0 0 0 0 0 0 0 0 0 0 0.1 0"/></filter></defs><g fill="none" fill-rule="evenodd"><path fill="#C7C7C7" d="M217.545 234.84l13.402 16.181c3.356 3.45 2.396 6.247-2.228 6.247H123.92c-4.627 0-5.583-2.784-2.196-6.247l14.036-16.846c3.986-4.785 6.073-14.354 6.073-14.354h69.633s1.933 10.012 6.08 15.018z"/><path fill="#BABABA" d="M135.586 234.384l.174-.209c3.986-4.785 6.073-14.354 6.073-14.354h69.633s1.82 9.43 5.718 14.563h-81.598z"/><path fill="#D8D8D8" d="M60.493 191.724h232.332v20.093a7.994 7.994 0 0 1-7.997 7.992H68.49c-4.416 0-7.997-3.586-7.997-7.992v-20.093z"/><path fill="#4A4A4A" d="M60.493 57.236a7.994 7.994 0 0 1 7.997-7.993h216.338a7.994 7.994 0 0 1 7.997 7.993v134.513H60.493V57.236z"/><g fill="#4A4A4A"><path d="M180.77 202.013c-1.339.242-2.343 1.257-2.343 2.474 0 1.369 1.273 2.484 2.861 2.527-1.094 3.04-2.707 4.463-4.56 4.463-.8 0-.404-.497-1.547-.497-1.144 0-.417.497-1.645.497-.77 0-2.443.182-4.616-5.046-1.787-4.298 2.646-6.01 3.62-5.708 1.393.43 1.524.688 2.64.688 1.117 0 .733-.367 2.402-.688.748-.143 2.202.238 3.187 1.29z"/><path d="M174.926 201.037s1.24-.269 1.926-1.214c.687-.944.56-2.207.56-2.207s-1.24.27-1.927 1.214c-.686.945-.559 2.207-.559 2.207z"/></g><g><path fill="#00C3DA" d="M73.083 62.373h208.123V178.28H73.083z"/><g transform="translate(79.283 74.873)"><use fill="#000" filter="url(#a)" xlink:href="#b"/><use fill="#FBFEFF" xlink:href="#b"/><g transform="translate(3.508 10.537)"><mask id="d" fill="#fff"><use xlink:href="#c"/></mask><use fill="#00C3DA" xlink:href="#c"/><path fill="#9FDD60" d="M64.308 23.416c9.463 0 25.723 16.39 25.723 16.39H38.585s16.26-16.39 25.723-16.39z" mask="url(#d)"/><path fill="#B8E986" d="M23.97 15.22c11.398 0 30.984 24.586 30.984 24.586h-61.97S12.57 15.22 23.97 15.22z" mask="url(#d)"/><ellipse cx="51.446" cy="12.879" fill="#FFE157" mask="url(#d)" rx="5.846" ry="5.854"/></g><g transform="translate(3.508 52.685)"><mask id="f" fill="#fff"><use xlink:href="#e"/></mask><use fill="#00C3DA" xlink:href="#e"/><path fill="#9FDD60" d="M16.077 9.513c2.366 0 6.43 6.658 6.43 6.658H9.648s4.064-6.658 6.43-6.658z" mask="url(#f)"/><path fill="#B8E986" d="M4.97 6.183c3.87 0 10.522 9.988 10.522 9.988H-5.554S1.098 6.183 4.97 6.183z" mask="url(#f)"/></g><g transform="translate(3.508 72.434)"><mask id="h" fill="#fff"><use xlink:href="#g"/></mask><use fill="#00C3DA" xlink:href="#g"/><path fill="#9FDD60" d="M16.077 9.513c2.366 0 6.43 6.658 6.43 6.658H9.648s4.064-6.658 6.43-6.658z" mask="url(#h)"/><path fill="#B8E986" d="M4.97 6.183c3.87 0 10.522 9.988 10.522 9.988H-5.554S1.098 6.183 4.97 6.183z" mask="url(#h)"/></g><rect width="29.231" height="21.074" x="97.046" y="10.537" fill="#F94B92" rx="1"/><rect width="63.138" height="4.683" x="24.554" y="52.685" fill="#586C76" rx="1"/><rect width="29.231" height="21.074" x="130.954" y="10.537" fill="#F94B92" rx="1"/><rect width="29.231" height="3.512" x="97.046" y="33.953" fill="#586C76" rx="1"/><rect width="21.046" height="3.512" x="97.046" y="39.806" fill="#586C76" rx="1"/><rect width="29.231" height="3.512" x="130.954" y="33.953" fill="#586C76" rx="1"/><rect width="21.046" height="3.512" x="130.954" y="39.806" fill="#586C76" rx="1"/><rect width="29.231" height="21.074" x="97.046" y="52.685" fill="#F94B92" rx="1"/><rect width="29.231" height="21.074" x="130.954" y="52.685" fill="#F94B92" rx="1"/><rect width="29.231" height="3.512" x="97.046" y="76.1" fill="#586C76" rx="1"/><rect width="21.046" height="3.512" x="97.046" y="81.954" fill="#586C76" rx="1"/><rect width="29.231" height="3.512" x="130.954" y="76.1" fill="#586C76" rx="1"/><rect width="21.046" height="3.512" x="130.954" y="81.954" fill="#586C76" rx="1"/><rect width="50.277" height="4.683" x="24.554" y="59.71" fill="#586C76" rx="1"/><rect width="63.138" height="4.683" x="24.554" y="72.588" fill="#586C76" rx="1"/><rect width="50.277" height="4.683" x="24.554" y="79.613" fill="#586C76" rx="1"/><g transform="translate(2.153 2.63)"><ellipse cx="1.829" cy="1.862" fill="#ED5A6C" rx="1.829" ry="1.862"/><ellipse cx="7.925" cy="1.862" fill="#FFC25E" rx="1.829" ry="1.862"/><ellipse cx="14.021" cy="1.862" fill="#88B91A" rx="1.829" ry="1.862"/></g></g><g transform="translate(198.545 93.605)"><use fill="#000" filter="url(#i)" xlink:href="#j"/><use fill="#4A4A4A" xlink:href="#j"/><g fill="#FFF" transform="translate(3.508 12.879)"><rect width="58.462" height="2.342" rx="1"/><rect width="47.938" height="2.342" y="4.683" rx="1"/><rect width="44.431" height="2.342" y="9.366" rx="1"/><rect width="52.615" height="2.342" y="14.049" rx="1"/><rect width="36.246" height="2.342" y="18.732" rx="1"/><rect width="39.754" height="2.342" y="23.416" rx="1"/><rect width="39.754" height="2.342" y="28.099" rx="1"/><rect width="39.754" height="2.342" y="32.782" rx="1"/><rect width="22.215" height="2.342" y="37.465" rx="1"/></g><g transform="translate(2.153 2.63)"><ellipse cx="1.829" cy="1.862" fill="#ED5A6C" rx="1.829" ry="1.862"/><ellipse cx="7.925" cy="1.862" fill="#FFC25E" rx="1.829" ry="1.862"/><ellipse cx="14.021" cy="1.862" fill="#88B91A" rx="1.829" ry="1.862"/></g></g><path fill="#FBFEFF" d="M73.083 62.373h208.123v6.241H73.083z"/></g><path fill="#000" fill-opacity=".06" d="M289.565 51.979a9.965 9.965 0 0 1 3.26 7.378v132.514H60.493v-1.37L289.565 51.978z"/><path fill="#4A4A4A" d="M28.545 109.21c.033-.193.065-.393.097-.598.214-1.384.352-2.758.375-4.028.037-1.942-.203-3.451-.71-4.304-.433-.729-.04-1.67.783-1.874 1.767-.437 3.285-1.062 4.571-1.822.904-.533 1.637-1.099 2.213-1.658a5.4 5.4 0 0 0 .594-.653 1.262 1.262 0 0 1 2.141.114c.095.173.254.48.455.897.331.69.662 1.447.97 2.253.654 1.702 1.123 3.387 1.327 4.988.261 2.054.075 3.868-.682 5.363.051.193.078.392.078.597 0 1.629-1.696 2.95-3.789 2.95-2.092 0-3.788-1.321-3.788-2.95 0-1.63 1.696-2.95 3.788-2.95.644 0 1.25.124 1.78.344.223-.85.256-1.869.107-3.033-.175-1.377-.592-2.875-1.178-4.403-.283-.737.02-1.036.02-1.036s-1.673.718-2.753 1.356c-1.496.883-1.558.758-3.565 1.255 0 0 .208 2.24.164 4.613-.027 1.397-.175 2.88-.405 4.369a39.393 39.393 0 0 1-.41 2.221c-.024.1-.057.193-.1.28.017.117.027.235.027.355 0 1.63-1.697 2.95-3.789 2.95s-3.788-1.32-3.788-2.95c0-1.63 1.696-2.95 3.788-2.95.603 0 1.173.11 1.679.305zm16.716 25.972l.061-.38c.137-.88.224-1.754.239-2.561.023-1.234-.129-2.193-.451-2.735a.804.804 0 0 1 .497-1.192c1.123-.278 2.088-.675 2.906-1.158a7.455 7.455 0 0 0 1.406-1.054c.209-.202.332-.35.378-.415a.802.802 0 0 1 1.36.073c.061.11.162.304.29.57.21.438.42.92.617 1.432.415 1.082.713 2.153.843 3.17.166 1.306.048 2.46-.433 3.41.032.122.049.249.049.379 0 1.035-1.078 1.875-2.408 1.875-1.33 0-2.408-.84-2.408-1.875 0-1.036 1.078-1.876 2.408-1.876.409 0 .794.08 1.131.22.142-.54.163-1.189.069-1.929-.112-.875-.377-1.827-.75-2.798-.18-.469.013-.659.013-.659s-1.063.457-1.75.862c-.95.562-.99.482-2.266.798 0 0 .132 1.424.104 2.932-.017.888-.11 1.831-.257 2.777a25.04 25.04 0 0 1-.261 1.412.807.807 0 0 1-.064.178c.012.074.018.15.018.226 0 1.036-1.078 1.875-2.408 1.875-1.33 0-2.408-.84-2.408-1.875 0-1.036 1.078-1.876 2.408-1.876.383 0 .745.07 1.067.194zm272.6-53.375c.022-.13.044-.263.065-.4.143-.922.234-1.838.25-2.685.024-1.294-.135-2.3-.473-2.869a.843.843 0 0 1 .521-1.25c1.178-.291 2.19-.707 3.048-1.214a7.819 7.819 0 0 0 1.475-1.106 3.6 3.6 0 0 0 .396-.435.841.841 0 0 1 1.428.076c.063.116.169.32.303.598.22.46.44.965.647 1.502.435 1.135.748 2.258.884 3.326.174 1.369.05 2.578-.454 3.575.033.128.051.261.051.398 0 1.086-1.13 1.966-2.525 1.966s-2.526-.88-2.526-1.966c0-1.087 1.13-1.967 2.526-1.967a3.1 3.1 0 0 1 1.186.23c.149-.567.17-1.246.072-2.023-.117-.917-.395-1.916-.786-2.935-.188-.491.013-.69.013-.69s-1.115.478-1.835.903c-.997.59-1.038.506-2.376.837 0 0 .138 1.494.108 3.075a21.96 21.96 0 0 1-.27 2.913 26.26 26.26 0 0 1-.273 1.48.846.846 0 0 1-.067.188c.012.077.018.156.018.236 0 1.087-1.13 1.967-2.525 1.967s-2.526-.88-2.526-1.967c0-1.086 1.131-1.966 2.526-1.966.402 0 .782.073 1.119.203zm-10.736 28.264c.035-.205.07-.416.103-.632.226-1.461.371-2.912.396-4.253.039-2.049-.214-3.642-.749-4.542a1.335 1.335 0 0 1 .825-1.978c1.866-.462 3.468-1.12 4.826-1.923a12.38 12.38 0 0 0 2.336-1.75c.346-.337.55-.581.627-.69a1.332 1.332 0 0 1 2.26.12c.1.183.268.506.48.947.35.728.698 1.528 1.025 2.378.689 1.797 1.184 3.575 1.4 5.266.276 2.167.079 4.083-.72 5.66.054.204.082.414.082.63 0 1.72-1.79 3.114-3.999 3.114-2.208 0-3.999-1.394-3.999-3.114s1.79-3.114 3.999-3.114c.68 0 1.319.132 1.879.364.235-.896.27-1.973.113-3.202-.185-1.453-.625-3.034-1.244-4.647-.299-.778.02-1.093.02-1.093s-1.765.757-2.904 1.43c-1.58.933-1.645.8-3.764 1.325 0 0 .22 2.365.173 4.87-.028 1.475-.184 3.04-.427 4.61a41.581 41.581 0 0 1-.296 1.684c-.06.31-.11.535-.138.662a1.34 1.34 0 0 1-.105.295c.019.123.028.248.028.375 0 1.72-1.79 3.114-3.998 3.114-2.209 0-4-1.394-4-3.114s1.791-3.114 4-3.114c.636 0 1.237.116 1.771.322z"/></g></svg>