<svg xmlns="http://www.w3.org/2000/svg" xmlns:xlink="http://www.w3.org/1999/xlink" width="350" height="296" viewBox="0 0 350 296">
  <defs>
    <path id="img-balloons-a" d="M211.5,107 C235.524387,107 255,88.4198171 255,65.5 C255,42.5801829 235.524387,24 211.5,24 C187.475613,24 168,42.5801829 168,65.5 C168,88.4198171 187.475613,107 211.5,107 Z"/>
    <mask id="img-balloons-f" width="87" height="83" x="0" y="0" fill="#fff">
      <use xlink:href="#img-balloons-a"/>
    </mask>
    <path id="img-balloons-b" d="M68.5,135 C91.9721019,135 111,116.867532 111,94.5 C111,72.1324676 91.9721019,54 68.5,54 C45.0278981,54 26,72.1324676 26,94.5 C26,116.867532 45.0278981,135 68.5,135 Z"/>
    <mask id="img-balloons-g" width="85" height="81" x="0" y="0" fill="#fff">
      <use xlink:href="#img-balloons-b"/>
    </mask>
    <filter id="img-balloons-h" width="141.1%" height="250%" x="-20.5%" y="-75%" filterUnits="objectBoundingBox">
      <feGaussianBlur in="SourceGraphic" stdDeviation="10"/>
    </filter>
    <path id="img-balloons-c" d="M198.718169,167.000001 C194.997953,174.693452 187.118682,180 178,180 L53,180 C43.8813182,180 36.002047,174.693452 32.281831,167.000001 L30,167 C13.4314575,167 2.02906125e-15,153.568542 0,137 C-2.02906125e-15,120.431458 13.4314575,107 30,107 L244,107 C260.568542,107 274,120.431458 274,137 C274,153.568542 260.568542,167 244,167 L198.718176,167 Z"/>
    <mask id="img-balloons-i" width="274" height="73" x="0" y="0" fill="#fff">
      <use xlink:href="#img-balloons-c"/>
    </mask>
    <path id="img-balloons-d" d="M84.5,95 L223.5,95 C240.89697,95 255,109.10303 255,126.5 L255,126.5 C255,143.89697 240.89697,158 223.5,158 L84.5,158 C67.1030304,158 53,143.89697 53,126.5 L53,126.5 C53,109.10303 67.1030304,95 84.5,95 Z"/>
    <mask id="img-balloons-j" width="202" height="63" x="0" y="0" fill="#fff">
      <use xlink:href="#img-balloons-d"/>
    </mask>
    <path id="img-balloons-e" d="M159,56 L220,56 C227.179702,56 233,61.8202983 233,69 L233,69 C233,76.1797017 227.179702,82 220,82 L159,82 C151.820298,82 146,76.1797017 146,69 L146,69 C146,61.8202983 151.820298,56 159,56 Z"/>
    <mask id="img-balloons-k" width="87" height="26" x="0" y="0" fill="#fff">
      <use xlink:href="#img-balloons-e"/>
    </mask>
    <linearGradient id="img-balloons-l" x1="50%" x2="50%" y1="0%" y2="100%">
      <stop offset="0%" stop-color="#FF5965"/>
      <stop offset="100%" stop-color="#E7000A"/>
    </linearGradient>
    <linearGradient id="img-balloons-n" x1="50%" x2="50%" y1="1.073%" y2="99.914%">
      <stop offset="0%" stop-color="#62247A"/>
      <stop offset="99.914%" stop-color="#A047B7"/>
    </linearGradient>
    <path id="img-balloons-m" d="M57.2315415,66.0893816 C66.908319,54.1472997 72.6450223,44.0848826 74.4416515,35.9021302 C79.0230113,16.0739312 64.67748,0 42.1452224,0 C19.6129648,0 5.26912219,16.0739312 9.85256498,35.9021302 C11.7059002,44.3444698 17.6876908,54.4068869 27.7979367,66.0893816 C47.5184645,66.0893816 57.3296661,66.0893816 57.2315415,66.0893816 Z"/>
    <linearGradient id="img-balloons-o" x1="50%" x2="50%" y1="0%" y2="100%">
      <stop offset="0%" stop-color="#612B87"/>
      <stop offset="100%" stop-color="#C86DD7"/>
    </linearGradient>
    <linearGradient id="img-balloons-q" x1="89.42%" x2="11.215%" y1="50.051%" y2="50.001%">
      <stop offset="0%" stop-color="#FFCD00"/>
      <stop offset="49.876%" stop-color="#FFF4C6"/>
      <stop offset="100%" stop-color="#FFCD00"/>
    </linearGradient>
    <linearGradient id="img-balloons-r" x1="94.855%" x2="5.593%" y1="50%" y2="50%">
      <stop offset="0%" stop-color="#A2F0FF"/>
      <stop offset="49.876%" stop-color="#FFF"/>
      <stop offset="100%" stop-color="#A2F0FF"/>
    </linearGradient>
    <linearGradient id="img-balloons-s" x1="91.71%" x2="9.974%" y1="50%" y2="50%">
      <stop offset="0%" stop-color="#429321"/>
      <stop offset="50.345%" stop-color="#B4EC51"/>
      <stop offset="100%" stop-color="#429321"/>
    </linearGradient>
    <linearGradient id="img-balloons-t" x1="50%" x2="50%" y1="0%" y2="97.871%">
      <stop offset="0%" stop-color="#FF649D"/>
      <stop offset="100%" stop-color="#FB0049"/>
    </linearGradient>
    <linearGradient id="img-balloons-u" x1="50%" x2="50%" y1="0%" y2="100%">
      <stop offset="0%" stop-color="#92FF00"/>
      <stop offset="100%" stop-color="#02B000"/>
    </linearGradient>
    <linearGradient id="img-balloons-v" x1="50%" x2="50%" y1="0%" y2="100%">
      <stop offset="0%" stop-color="#FFE417"/>
      <stop offset="100%" stop-color="#F5A623"/>
    </linearGradient>
    <linearGradient id="img-balloons-w" x1="50%" x2="50%" y1="0%" y2="57.987%">
      <stop offset="0%" stop-color="#00D1E3"/>
      <stop offset="100%" stop-color="#00A5C3"/>
    </linearGradient>
    <linearGradient id="img-balloons-x" x1="50%" x2="50%" y1="0%" y2="100%">
      <stop offset="0%" stop-color="#CC0080"/>
      <stop offset="100%" stop-color="#FB0066"/>
    </linearGradient>
    <path id="img-balloons-y" d="M94.2617299,128.410999 C113.173624,105.207655 124.385199,85.6564801 127.896457,69.7574752 C136.850077,31.2314855 108.813764,0 64.7776519,0 C20.7415395,0 -7.29147328,31.2314855 1.66621773,69.7574752 C5.2882995,86.1608553 16.9788636,105.71203 36.73791,128.410999 C75.2788939,128.410999 94.4535005,128.410999 94.2617299,128.410999 Z"/>
    <linearGradient id="img-balloons-z" x1="50%" x2="50%" y1="0%" y2="100%">
      <stop offset="0%" stop-color="#FD009F"/>
      <stop offset="100%" stop-color="#FB0066"/>
    </linearGradient>
    <linearGradient id="img-balloons-B" x1="94.571%" x2="5.647%" y1="40.262%" y2="37.528%">
      <stop offset="0%" stop-color="#00B9DA"/>
      <stop offset="49.337%" stop-color="#00DDEF"/>
      <stop offset="100%" stop-color="#00B9DA"/>
    </linearGradient>
  </defs>
  <g fill="none" fill-rule="evenodd">
    <g transform="translate(38 46)">
      <use fill="#FFF" stroke="#416072" stroke-dasharray="6" stroke-opacity=".203" stroke-width="6" mask="url(#img-balloons-f)" xlink:href="#img-balloons-a"/>
      <path fill="#416072" fill-opacity=".12" stroke="#416072" stroke-dasharray="6" stroke-width="3" d="M185,52 C199.911688,52 212,40.3594035 212,26 C212,11.6405965 199.911688,0 185,0 C170.088312,0 158,11.6405965 158,26 C158,40.3594035 170.088312,52 185,52 Z" opacity=".055"/>
      <use fill="#FFF" stroke="#416072" stroke-dasharray="6" stroke-opacity=".203" stroke-width="6" mask="url(#img-balloons-g)" xlink:href="#img-balloons-b"/>
      <rect width="146" height="40" x="80" y="72" fill="#00D8FF" filter="url(#img-balloons-h)" opacity=".161" rx="20"/>
      <use fill="#FFF" fill-opacity=".5" stroke="#416072" stroke-dasharray="6" stroke-opacity=".203" stroke-width="6" mask="url(#img-balloons-i)" xlink:href="#img-balloons-c"/>
      <use fill="#FFF" stroke="#416072" stroke-dasharray="6" stroke-opacity=".4" stroke-width="6" mask="url(#img-balloons-j)" xlink:href="#img-balloons-d"/>
      <use fill="#FFF" stroke="#416072" stroke-dasharray="6" stroke-opacity=".203" stroke-width="6" mask="url(#img-balloons-k)" xlink:href="#img-balloons-e"/>
    </g>
    <g transform="translate(213 119)">
      <g transform="translate(9)">
        <g fill-rule="nonzero" transform="translate(16.973 60.112)">
          <polygon fill="#732B90" points="2.447 25.306 .71 24.887 6.486 .713 8.224 1.131" transform="matrix(-1 0 0 1 8.933 0)"/>
          <polygon fill="#732B90" points="26.557 25.312 24.823 24.877 30.617 1.604 32.35 2.039"/>
          <polygon fill="#55176E" points="23.507 25.711 21.747 25.403 25.626 3 27.387 3.307"/>
          <polygon fill="#55176E" points="7.427 25.711 5.667 25.403 9.546 3 11.307 3.307" transform="matrix(-1 0 0 1 16.973 0)"/>
        </g>
        <g transform="translate(22.333 79.85)">
          <path fill="url(#img-balloons-l)" d="M0.00857849629,0.576408435 L22.4769345,0.576408435 L22.4769345,12.8256496 C22.4769345,14.4825038 21.1337888,15.8256496 19.4769345,15.8256496 L3.0085785,15.8256496 C1.35172425,15.8256496 0.00857849629,14.4825038 0.00857849629,12.8256496 L0.00857849629,0.576408435 Z"/>
          <path fill="#273339" d="M0.00857849629,8.48459441 C3.77565386,11.8733147 7.52991976,13.5676748 11.2713762,13.5676748 C15.0128326,13.5676748 18.7480187,11.8733147 22.4769345,8.48459441 L22.4769345,12.8256496 C22.4769345,14.4825038 21.1337888,15.8256496 19.4769345,15.8256496 L3.0085785,15.8256496 C1.35172425,15.8256496 0.00857849629,14.4825038 0.00857849629,12.8256496 L0.00857849629,8.48459441 Z" opacity=".3"/>
        </g>
      </g>
      <mask id="img-balloons-p" fill="#fff">
        <use xlink:href="#img-balloons-m"/>
      </mask>
      <use fill="url(#img-balloons-n)" xlink:href="#img-balloons-m"/>
      <path fill="url(#img-balloons-o)" d="M51.7832479,66.0893816 C57.6784597,54.1472997 61.1733299,44.0848826 62.2678585,35.9021302 C65.0588792,16.0739312 56.3194052,0 42.5924769,0 C28.8655486,0 20.1271034,16.0739312 22.9193931,35.9021302 C24.0484677,44.3444698 27.692648,54.4068869 33.8519341,66.0893816 C45.865922,66.0893816 51.8430266,66.0893816 51.7832479,66.0893816 Z" mask="url(#img-balloons-p)"/>
      <polygon fill="url(#img-balloons-q)" fill-rule="nonzero" points="28.751 39.917 16.407 49.478 .707 36.817 11.933 22.94 16.631 26.728 29.454 16.797 42.961 28.635 56.808 16.556 68.687 26.745 74.327 22.66 84.82 37.097 67.753 49.461 56.906 40.157 42.933 52.346" mask="url(#img-balloons-p)"/>
      <polygon fill="url(#img-balloons-r)" fill-rule="nonzero" points="16.446 45.497 2.671 34.388 9.969 25.368 16.592 30.71 29.331 20.843 42.956 32.784 56.825 20.686 68.524 30.721 76.163 25.186 82.984 34.571 67.916 45.486 56.889 36.027 42.938 48.197 28.874 35.871" mask="url(#img-balloons-p)"/>
      <polygon fill="url(#img-balloons-s)" fill-rule="nonzero" points="28.962 32.981 16.474 42.653 4.075 32.654 8.565 27.103 16.564 33.553 29.243 23.733 42.952 35.748 56.837 23.637 68.407 33.56 77.475 26.991 81.672 32.766 68.033 42.646 56.877 33.077 42.941 45.233" mask="url(#img-balloons-p)"/>
    </g>
    <g transform="translate(56 102)">
      <g transform="translate(13 44)">
        <path fill="#313F45" fill-rule="nonzero" d="M0.00571295946,0.263938615 L2.39409017,10.3667742 C2.42141692,10.4823664 2.53822211,10.5541411 2.65498187,10.5270877 C2.77174163,10.5000342 2.8442414,10.384397 2.81691465,10.2688049 L0.428537442,0.165969283 C0.40121069,0.0503771234 0.284405497,-0.0213976542 0.16764574,0.00565582986 C0.0508859832,0.0327093139 -0.0216137921,0.148346456 0.00571295946,0.263938615 Z"/>
        <path fill="#313F45" fill-rule="nonzero" d="M16.9414786,0.263938615 L19.3298558,10.3667742 C19.3571826,10.4823664 19.4739878,10.5541411 19.5907475,10.5270877 C19.7075073,10.5000342 19.7800071,10.384397 19.7526803,10.2688049 L17.3643031,0.165969283 C17.3369763,0.0503771234 17.2201712,-0.0213976542 17.1034114,0.00565582986 C16.9866516,0.0327093139 16.9141519,0.148346456 16.9414786,0.263938615 Z" transform="matrix(-1 0 0 1 36.694 0)"/>
        <path fill="#313F45" d="M2.38837721,10.1028356 L17.3700161,10.1028356 L17.3700161,17.4206251 C17.3700161,19.0774794 16.0268703,20.4206251 14.3700161,20.4206251 L5.38837721,20.4206251 C3.73152296,20.4206251 2.38837721,19.0774794 2.38837721,17.4206251 L2.38837721,10.1028356 Z"/>
        <path fill="#273339" d="M2.38837721,15.4535935 C4.90021931,17.7464357 7.40352021,18.8928567 9.8982799,18.8928567 C12.3930396,18.8928567 14.8836183,17.7464357 17.3700161,15.4535935 L17.3700161,17.4206251 C17.3700161,19.0774794 16.0268703,20.4206251 14.3700161,20.4206251 L5.38837721,20.4206251 C3.73152296,20.4206251 2.38837721,19.0774794 2.38837721,17.4206251 L2.38837721,15.4535935 Z"/>
      </g>
      <path fill="url(#img-balloons-t)" d="M32.6274242,44.5153118 C39.1735208,36.4715764 43.0542562,29.6939122 44.2696307,24.1823192 C47.3688053,10.8267931 37.6644143,0 22.421909,0 C7.17940366,0 -2.52384496,10.8267931 0.576738755,24.1823192 C1.83047342,29.8687603 5.87700424,36.6464245 12.7163312,44.5153118 C26.0567721,44.5153118 32.6938031,44.5153118 32.6274242,44.5153118 Z"/>
      <path fill="url(#img-balloons-u)" d="M29.6871854,44.5153118 C34.3758049,36.4715764 37.1553686,29.6939122 38.0258764,24.1823192 C40.2456497,10.8267931 33.2949125,0 22.3775197,0 C11.4601268,0 4.51020781,10.8267931 6.7309904,24.1823192 C7.62897362,29.8687603 10.5272876,36.6464245 15.4259324,44.5153118 C24.980978,44.5153118 29.7347291,44.5153118 29.6871854,44.5153118 Z"/>
      <path fill="url(#img-balloons-v)" d="M26.0633174,44.5153118 C28.4076271,36.4715764 29.797409,29.6939122 30.2326629,24.1823192 C31.3425495,10.8267931 27.867181,0 22.4084845,0 C16.9497881,0 13.4748286,10.8267931 14.5852199,24.1823192 C15.0342115,29.8687603 16.4833685,36.6464245 18.9326909,44.5153118 C23.7102137,44.5153118 26.0870892,44.5153118 26.0633174,44.5153118 Z"/>
    </g>
    <g transform="translate(110 57)">
      <g fill-rule="nonzero" transform="translate(33.838 117.755)">
        <polygon fill="#CE0054" points="4.116 48.632 .721 47.816 12.011 .726 15.407 1.542" transform="matrix(-1 0 0 1 16.128 0)"/>
        <polygon fill="#CE0054" points="51.236 48.644 47.848 47.797 59.17 2.462 62.558 3.309"/>
        <polygon fill="#AB0548" points="45.276 49.42 41.835 48.821 49.417 5.181 52.857 5.78"/>
        <polygon fill="#AB0548" points="13.849 49.42 10.409 48.821 17.991 5.181 21.431 5.78" transform="matrix(-1 0 0 1 31.84 0)"/>
      </g>
      <g transform="translate(43.647 156.487)">
        <path fill="url(#img-balloons-w)" d="M0.0167654584,0.178351153 L43.9279912,0.178351153 L43.9279912,26.8826021 C43.9279912,28.5394564 42.5848455,29.8826021 40.9279912,29.8826021 L3.01676546,29.8826021 C1.35991121,29.8826021 0.0167654584,28.5394564 0.0167654584,26.8826021 L0.0167654584,0.178351153 Z"/>
        <path fill="#273339" d="M0.0167654584,15.5828384 C7.37898175,22.1837831 14.7161638,25.4842554 22.0283115,25.4842554 C29.3404592,25.4842554 36.6403524,22.1837831 43.9279912,15.5828384 L43.9279912,26.8826021 C43.9279912,28.5394564 42.5848455,29.8826021 40.9279912,29.8826021 L3.01676546,29.8826021 C1.35991121,29.8826021 0.0167654584,28.5394564 0.0167654584,26.8826021 L0.0167654584,15.5828384 Z" opacity=".3"/>
      </g>
      <path fill="url(#img-balloons-x)" d="M94.2617299,128.736608 C113.173624,105.474428 124.385199,85.8736776 127.896457,69.9343579 C136.850077,31.3106785 108.813764,0 64.7776519,0 C20.7415395,0 -7.29147328,31.3106785 1.66621773,69.9343579 C5.2882995,86.3793317 16.9788636,105.980082 36.73791,128.736608 C75.2788939,128.736608 94.4535005,128.736608 94.2617299,128.736608 Z"/>
      <g>
        <mask id="img-balloons-A" fill="#fff">
          <use xlink:href="#img-balloons-y"/>
        </mask>
        <use fill="url(#img-balloons-x)" xlink:href="#img-balloons-y"/>
        <path fill="url(#img-balloons-z)" d="M83.6138103,128.518325 C95.1351684,105.295587 101.965398,85.728072 104.1045,69.8157787 C109.559155,31.2575888 92.4790885,0 65.6517476,0 C38.8244066,0 21.7463506,31.2575888 27.2034861,69.8157787 C29.4101029,86.2328688 36.5321382,105.800384 48.5695922,128.518325 C72.0492333,128.518325 83.7306394,128.518325 83.6138103,128.518325 Z" mask="url(#img-balloons-A)"/>
        <polygon fill="#FFBCBC" fill-rule="nonzero" points="36.855 78.02 12.731 96.707 -17.954 71.96 3.987 44.837 13.168 52.242 38.229 32.83 64.626 55.968 91.687 32.36 114.904 52.275 125.926 44.289 146.433 72.508 113.079 96.674 91.88 78.489 64.571 102.313" mask="url(#img-balloons-A)" opacity=".4"/>
        <polygon fill="url(#img-balloons-r)" fill-rule="nonzero" points="12.807 88.925 -14.114 67.213 .147 49.584 13.091 60.023 37.988 40.738 64.616 64.078 91.721 40.432 114.584 60.045 129.515 49.228 142.844 67.57 113.398 88.904 91.846 70.417 64.58 94.203 37.096 70.111" mask="url(#img-balloons-A)"/>
        <polygon fill="url(#img-balloons-B)" fill-rule="nonzero" points="37.267 64.463 12.862 83.367 -11.372 63.823 -2.595 52.974 13.037 65.581 37.817 46.387 64.609 69.871 91.745 46.199 114.356 65.595 132.078 52.755 140.281 64.042 113.626 83.354 91.822 64.65 64.587 88.41" mask="url(#img-balloons-A)"/>
        <path stroke="#C5FDFF" stroke-dasharray="1 16" stroke-linecap="round" stroke-width="6" d="M-2.8030882,63.7468992 L12.7900674,73.9381273 L37.5459267,56.4935918 L64.057971,78.4254676 L91.3712919,56.4935918 L114.027825,73.9381273 L129.955842,63.7468992" mask="url(#img-balloons-A)"/>
      </g>
    </g>
  </g>
</svg>
