<svg xmlns="http://www.w3.org/2000/svg" xmlns:xlink="http://www.w3.org/1999/xlink" width="550" height="460"><defs><filter id="a" width="176.9%" height="169%" x="-38.5%" y="-34.5%" filterUnits="objectBoundingBox"><feGaussianBlur in="SourceGraphic" stdDeviation="50"/></filter><path id="b" d="M0 0h303.687v484.287h-85.546l-14.531-21.313h-98.485l-20.434 21.313H0z"/><path id="d" d="M177.706 202.65c6.09-14.412 0 0 10.044-24.415s9.192-34.306 9.192-66.315C196.942 56.08 156.52 0 105.262 0 54.004 0 15.263 52.886 12.45 111.92c-.903 18.954 0 45.335 13.424 76.318 13.425 30.983 4.133 48.546-6.119 51.477C9.504 242.645.313 228.08.313 228.08s7.151 26.31 24.392 32.25c22.191 7.648 52.397 5.912 60.23 5.912h29.845c21.419 0 52.693 4.097 72.97-8.093 14.71-8.843 16.182-27.808 16.182-27.808s-4.726 11.175-16.182 6.747c-11.455-4.429-16.133-20.025-10.044-34.438z"/><path id="f" d="M46.074 0c-6.886 28.882 1.392 54.118 1.392 54.118H0S7.254 22.032.447 0h45.627z"/><path id="h" d="M153.909 96.25C158.293 43.093 132.499 0 81.149 0 29.802 0 4.007 43.093 8.39 96.25c2.44 29.574 17.741 59.43 35.824 77.085 14.42 14.08 26.183 19.165 36.936 19.165s22.23-4.912 36.494-18.735c18.218-17.655 33.806-47.7 36.265-77.515z"/><filter id="i" width="104.8%" height="103.6%" x="-2.4%" y="-1.8%" filterUnits="objectBoundingBox"><feOffset dx="7" dy="1" in="SourceAlpha" result="shadowOffsetInner1"/><feComposite in="shadowOffsetInner1" in2="SourceAlpha" k2="-1" k3="1" operator="arithmetic" result="shadowInnerInner1"/><feColorMatrix in="shadowInnerInner1" result="shadowMatrixInner1" values="0 0 0 0 0.909803922 0 0 0 0 0.533333333 0 0 0 0 0.258823529 0 0 0 0.15 0"/><feOffset dx="-7" dy="1" in="SourceAlpha" result="shadowOffsetInner2"/><feComposite in="shadowOffsetInner2" in2="SourceAlpha" k2="-1" k3="1" operator="arithmetic" result="shadowInnerInner2"/><feColorMatrix in="shadowInnerInner2" result="shadowMatrixInner2" values="0 0 0 0 0.909803922 0 0 0 0 0.533333333 0 0 0 0 0.258823529 0 0 0 0.15 0"/><feMerge><feMergeNode in="shadowMatrixInner1"/><feMergeNode in="shadowMatrixInner2"/></feMerge></filter><filter id="j" width="294.2%" height="316.9%" x="-97.1%" y="-108.5%" filterUnits="objectBoundingBox"><feGaussianBlur in="SourceGraphic" stdDeviation="8"/></filter><filter id="k" width="294.2%" height="316.9%" x="-97.1%" y="-108.5%" filterUnits="objectBoundingBox"><feGaussianBlur in="SourceGraphic" stdDeviation="8"/></filter><path id="l" d="M164.05 14.154C165.22 6.337 160.603 0 153.737 0s-13.38 6.337-14.548 14.154c-1.17 7.818 3.449 14.155 10.315 14.155 6.865 0 13.379-6.337 14.548-14.155z"/><filter id="m" width="107.9%" height="107.1%" x="-4%" y="-3.5%" filterUnits="objectBoundingBox"><feOffset dx="-1" dy="-2" in="SourceAlpha" result="shadowOffsetInner1"/><feComposite in="shadowOffsetInner1" in2="SourceAlpha" k2="-1" k3="1" operator="arithmetic" result="shadowInnerInner1"/><feColorMatrix in="shadowInnerInner1" values="0 0 0 0 0.909803922 0 0 0 0 0.533333333 0 0 0 0 0.258823529 0 0 0 0.1 0"/></filter><path id="n" d="M25.044 14.154C26.213 6.337 21.595 0 14.729 0 7.864 0 1.35 6.337.181 14.154-.989 21.972 3.63 28.31 10.496 28.31c6.865 0 13.379-6.337 14.548-14.155z"/><filter id="o" width="107.9%" height="107.1%" x="-4%" y="-3.5%" filterUnits="objectBoundingBox"><feOffset dx="-1" dy="-2" in="SourceAlpha" result="shadowOffsetInner1"/><feComposite in="shadowOffsetInner1" in2="SourceAlpha" k2="-1" k3="1" operator="arithmetic" result="shadowInnerInner1"/><feColorMatrix in="shadowInnerInner1" values="0 0 0 0 0.909803922 0 0 0 0 0.533333333 0 0 0 0 0.258823529 0 0 0 0.1 0"/></filter><path id="p" d="M16.978 21.485C37.048 21.485 34.214 0 34.214 0H.248s-3.34 21.485 16.73 21.485z"/><filter id="q" width="105.8%" height="118.6%" x="-2.9%" y="-4.7%" filterUnits="objectBoundingBox"><feOffset dy="2" in="SourceAlpha" result="shadowOffsetOuter1"/><feColorMatrix in="shadowOffsetOuter1" values="0 0 0 0 0.909803922 0 0 0 0 0.533333333 0 0 0 0 0.258823529 0 0 0 0.15 0"/></filter><path id="s" d="M67.612 114.004c1.211 16.823 1.366 34.902.562 53.004-2.28 51.329 4.812 105.558.746 130.74-.074 23.845-3.683 32.037-11.434 109.393-5.792 57.806-5.552 75.859-5.552 106.371-5.212 0-12.6 4.817-23.742 0-3.098-29.762-4.423-58.804-4.423-105.28 0-71.757 6.687-74.14 10.76-96.85 1.673-9.326 0-7.821-4.073-31.075l.039-.067c-8.812-25.187-15.213-63.248-22.811-106.875C-2 117.772-1.918 70.001 9.057 45.931 14.975 19.743 41.31 0 72.903 0c13.65 0 26.32 3.686 36.785 9.985 1.574.59 3.214 1.578 4.923 2.992a66.32 66.32 0 0 1 2.82 2.473c9.07 7.465 15.7 17.182 18.73 28.135 11.663 29.031 12.862 71.593 3.998 128.983-6.744 43.67-12.437 81.921-20.495 107.928.066.11.132.22.196.333-4.074 23.253-5.747 21.748-4.074 31.074 4.074 22.71 10.76 25.094 10.76 96.85 0 46.476-.192 75.518-3.29 105.28-11.143 4.817-18.53 0-23.743 0 0-30.512-.891-48.564-6.683-106.37-6.985-69.714-10.607-83.255-11.308-102.702-5.795-23.885 1.251-82.529-1.954-137.694-.956-16.44-1.205-34.933-.644-53.318a75.076 75.076 0 0 1-11.312.055z"/><path id="t" d="M17.465 0h100.726s-16.39 50.174 1.43 87.143c7.58 15.722 10.903 19.572 15.47 33.264-47.308 24.524-113.445 7.567-135.047 0 2.557-8.405 9.588-20.38 17.884-33.264C35.582 59.726 17.465 0 17.465 0z"/><path id="v" d="M54.08 3.424S36.472 5.796 36.472 9.097c0 3.3 4.197 74.539 37.567 74.539 33.369 0 36.932-64.504 35.653-75.99 0-1.783-9.627-3.062-12.852-3.062 0-1.49-.044-.984-.51-3.8 20.677 4.28 35.671 10.821 46.506 16.911-5.578 51.493-3.822 45.102 2.314 67.29.99 3.58 14.08 45.234-27.86 53.642-22.753 4.562-28.608-3.285-42.943-3.652-12.087-.31-25.096 6.64-46.52 3.652-26.192-3.652-30.7-28.299-26.192-53.643 3.957-22.243 8.97-18.14 3.957-67.289C23.169 7.645 54.479.642 54.479.642l-.399 2.782z"/><path id="x" d="M6.734 0h48.324s-8.465 87.842 3.595 124.772c-18.1 1.72-55.978-8.114-57.343-20.354C-3.145 64.449 6.734 0 6.734 0z"/><filter id="y" width="110.3%" height="106.4%" x="-3.4%" y="-1.6%" filterUnits="objectBoundingBox"><feOffset dx="2" dy="4" in="SourceAlpha" result="shadowOffsetOuter1"/><feColorMatrix in="shadowOffsetOuter1" values="0 0 0 0 0 0 0 0 0 0 0 0 0 0 0 0 0 0 0.15 0"/></filter><path id="B" d="M7.421.051l41.214 11.58s-7.482 84.846 3.178 120.518c-16 1.662-49.481-7.837-50.688-19.66C-2.813 73.883 7.421.05 7.421.05z"/><filter id="A" width="109.7%" height="104.5%" x="-6.8%" y="-1.1%" filterUnits="objectBoundingBox"><feOffset dx="-2" dy="3" in="SourceAlpha" result="shadowOffsetOuter1"/><feColorMatrix in="shadowOffsetOuter1" values="0 0 0 0 0 0 0 0 0 0 0 0 0 0 0 0 0 0 0.15 0"/></filter><path id="D" d="M28.453 33.148c4.765 9.197 10.168 22.325 22.065 27.392C60.664 64.861 78.274 43.99 79.87 28.882c.66.283 9.903-3.293 10.556-2.958 12.076 6.205 13.959 13.062 13.959 22.806 0 10.27-18.482 46.277-47.723 46.277-29.24 0-47.722-38.075-47.722-44.35 0-6.276 6.106-12.12 19.512-17.509z"/><filter id="C" width="104.2%" height="111.6%" x="-2.1%" y="-2.9%" filterUnits="objectBoundingBox"><feOffset dy="4" in="SourceAlpha" result="shadowOffsetOuter1"/><feColorMatrix in="shadowOffsetOuter1" values="0 0 0 0 0 0 0 0 0 0 0 0 0 0 0 0 0 0 0.2 0"/></filter><filter id="E" width="103.1%" height="110.1%" x="-1.6%" y="-2.2%" filterUnits="objectBoundingBox"><feOffset dx="-3" dy="-3" in="SourceAlpha" result="shadowOffsetInner1"/><feComposite in="shadowOffsetInner1" in2="SourceAlpha" k2="-1" k3="1" operator="arithmetic" result="shadowInnerInner1"/><feColorMatrix in="shadowInnerInner1" values="0 0 0 0 0 0 0 0 0 0.526409245 0 0 0 0 0.645594175 0 0 0 1 0"/></filter><path id="F" d="M36.587.335c1.181 10.454 2.034 26.59 13.93 31.657C60.665 36.314 76.33 15.294 78.13.335c12.879 5.522 24.793 25.458 24.793 35.728 0 10.27-35.213 42.201-58.028 45.053C22.079 83.968.454 43.645.454 37.37c0-6.276 22.727-31.647 36.133-37.035z"/><path id="H" d="M4.625 0h211.83c2.699 0 4.766 1.888 4.617 4.216l-7.779 121.61c-.149 2.33-2.298 4.217-4.79 4.217H12.577c-2.496 0-4.64-1.889-4.79-4.216L.008 4.217C-.142 1.886 1.93 0 4.625 0z"/><filter id="I" width="119.9%" height="133.8%" y="-23.1%" filterUnits="objectBoundingBox"><feOffset dy="-8" in="SourceAlpha" result="shadowOffsetOuter1"/><feGaussianBlur in="shadowOffsetOuter1" result="shadowBlurOuter1" stdDeviation="6"/><feColorMatrix in="shadowBlurOuter1" values="0 0 0 0 1 0 0 0 0 1 0 0 0 0 1 0 0 0 0.6 0"/></filter><filter id="J" width="111.3%" height="119.2%" x="-5.7%" y="-15.8%" filterUnits="objectBoundingBox"><feOffset dy="1" in="SourceAlpha" result="shadowOffsetInner1"/><feComposite in="shadowOffsetInner1" in2="SourceAlpha" k2="-1" k3="1" operator="arithmetic" result="shadowInnerInner1"/><feColorMatrix in="shadowInnerInner1" values="0 0 0 0 1 0 0 0 0 1 0 0 0 0 1 0 0 0 1 0"/></filter><path id="L" d="M6.83 5.68c-.696-1.111.43-3.305-.719-4.241C4.529.149 1.371-.668.397.839-.792 2.679 1.4 6.172 1.787 8.133c.17.854 1.773 3.98 4.337 4.248 2.565.27 2.845-5.15 2.845-5.15s-1.401-.37-2.14-1.55z"/><path id="N" d="M27.484 38.24c1.745-.502 1.623 1.123 3.689.008.597-.322 1.81-1.413 1.992-3.899.225-3.08-1.91-7.707-1.91-7.707s.267-8.111-2.924-9.57c-3.337-1.524-2.833 11.716-2.833 11.716l.854 4.233-1.737-4.52s4.258-21.083.23-21.6c-.345-.043-.65-.21-1.258.044-3.345 2.85-5.062 21.594-5.062 21.594l1.757 6.174-2.406-6.385s4.49-24.515 1.251-25.567c-.543-.176-1.317-.428-1.959-.021-2.864 3.883-5.513 25.51-5.513 25.51s1.78 4.165 1.399 4.116c-.305-1.08-1.64-3.372-1.64-3.372s2.928-17.388.005-17.411c-.294-.003-.81-.263-1.35.161-2.819 3.17-4.957 19.233-4.957 19.233s5.137 6.43 6.256 6.574c1.59.203 2.803.911 3.082-.897 1.154 1.464 3.306 2.376 4.321 2.705 1.015.33 1.928-.481 2.825-1.575 1.233.8 1.723 2.598 3.591 2.186 1.868-.413 1.049-1.372 2.297-1.73z"/><filter id="O" width="110.7%" height="110.7%" x="-7.1%" y="-8%" filterUnits="objectBoundingBox"><feOffset dx="-1" dy="-2" in="SourceAlpha" result="shadowOffsetOuter1"/><feColorMatrix in="shadowOffsetOuter1" values="0 0 0 0 0 0 0 0 0 0 0 0 0 0 0 0 0 0 0.1 0"/></filter><path id="Q" d="M1.089 1.167c.31-.935.734-1.16 1.537-1.16.803 0 1.269.147 1.618 1.124.46 1.282.404 2.948 0 3.392-.403.444-2.746.407-3.112 0-.366-.407-.48-2.032-.043-3.356z"/><filter id="R" width="105.3%" height="108.3%" x="-2.7%" y="-2.1%" filterUnits="objectBoundingBox"><feOffset dy=".2" in="SourceAlpha" result="shadowOffsetOuter1"/><feColorMatrix in="shadowOffsetOuter1" values="0 0 0 0 0.909810799 0 0 0 0 0.534690859 0 0 0 0 0.257679211 0 0 0 0.2 0"/></filter><path id="T" d="M.871.934C1.12.186 1.46.005 2.101.005s1.015.118 1.295.9c.367 1.025.322 2.358 0 2.714-.323.355-2.198.325-2.49 0C.612 3.293.52 1.993.87.934z"/><filter id="U" width="106.6%" height="110.3%" x="-3.3%" y="-2.6%" filterUnits="objectBoundingBox"><feOffset dy=".2" in="SourceAlpha" result="shadowOffsetOuter1"/><feColorMatrix in="shadowOffsetOuter1" values="0 0 0 0 0.909810799 0 0 0 0 0.534690859 0 0 0 0 0.257679211 0 0 0 0.2 0"/></filter><path id="W" d="M1.035 1.167c.293-.935.697-1.16 1.46-1.16S3.7.153 4.032 1.13c.437 1.282.384 2.948 0 3.392-.383.444-2.609.407-2.957 0-.348-.407-.456-2.032-.04-3.356z"/><filter id="X" width="105.6%" height="108.3%" x="-2.8%" y="-2.1%" filterUnits="objectBoundingBox"><feOffset dy=".2" in="SourceAlpha" result="shadowOffsetOuter1"/><feColorMatrix in="shadowOffsetOuter1" values="0 0 0 0 0.909810799 0 0 0 0 0.534690859 0 0 0 0 0.257679211 0 0 0 0.2 0"/></filter><path id="Z" d="M.958 1.167C1.23.232 1.604.007 2.311.007S3.427.153 3.735 1.13c.404 1.282.355 2.948 0 3.392-.355.444-2.417.407-2.739 0C.674 4.116.573 2.491.958 1.167z"/><filter id="aa" width="106%" height="108.3%" x="-3%" y="-2.1%" filterUnits="objectBoundingBox"><feOffset dy=".2" in="SourceAlpha" result="shadowOffsetOuter1"/><feColorMatrix in="shadowOffsetOuter1" values="0 0 0 0 0.909810799 0 0 0 0 0.534690859 0 0 0 0 0.257679211 0 0 0 0.2 0"/></filter><path id="ac" d="M.87.312c.471 0 .66.1.866 1.077.269 1.28.236 2.946 0 3.39-.127.237-.258.402-.683.382C.682 5.144.4.311.87.311z"/><filter id="ad" width="115.4%" height="108.2%" x="-7.7%" y="-2.1%" filterUnits="objectBoundingBox"><feOffset dy=".2" in="SourceAlpha" result="shadowOffsetOuter1"/><feColorMatrix in="shadowOffsetOuter1" values="0 0 0 0 0.909810799 0 0 0 0 0.534690859 0 0 0 0 0.257679211 0 0 0 0.2 0"/></filter><path id="af" d="M6.83 5.68c-.696-1.111.43-3.305-.719-4.241C4.529.149 1.371-.668.397.839-.792 2.679 1.4 6.172 1.787 8.133c.17.854 1.773 3.98 4.337 4.248 2.565.27 2.845-5.15 2.845-5.15s-1.401-.37-2.14-1.55z"/><path id="ah" d="M27.484 38.24c1.745-.502 1.623 1.123 3.689.008.597-.322 1.81-1.413 1.992-3.899.225-3.08-1.91-7.707-1.91-7.707s.267-8.111-2.924-9.57c-3.337-1.524-2.833 11.716-2.833 11.716l.854 4.233-1.737-4.52s4.258-21.083.23-21.6c-.345-.043-.65-.21-1.258.044-3.345 2.85-5.062 21.594-5.062 21.594l1.757 6.174-2.406-6.385s4.49-24.515 1.251-25.567c-.543-.176-1.317-.428-1.959-.021-2.864 3.883-5.513 25.51-5.513 25.51s1.78 4.165 1.399 4.116c-.305-1.08-1.64-3.372-1.64-3.372s2.928-17.388.005-17.411c-.294-.003-.81-.263-1.35.161-2.819 3.17-4.957 19.233-4.957 19.233s5.137 6.43 6.256 6.574c1.59.203 2.803.911 3.082-.897 1.154 1.464 3.306 2.376 4.321 2.705 1.015.33 1.928-.481 2.825-1.575 1.233.8 1.723 2.598 3.591 2.186 1.868-.413 1.049-1.372 2.297-1.73z"/><filter id="ai" width="110.7%" height="110.7%" x="-7.1%" y="-8%" filterUnits="objectBoundingBox"><feOffset dx="-1" dy="-2" in="SourceAlpha" result="shadowOffsetOuter1"/><feColorMatrix in="shadowOffsetOuter1" values="0 0 0 0 0 0 0 0 0 0 0 0 0 0 0 0 0 0 0.1 0"/></filter><path id="ak" d="M1.089 1.167c.31-.935.734-1.16 1.537-1.16.803 0 1.269.147 1.618 1.124.46 1.282.404 2.948 0 3.392-.403.444-2.746.407-3.112 0-.366-.407-.48-2.032-.043-3.356z"/><filter id="al" width="105.3%" height="108.3%" x="-2.7%" y="-2.1%" filterUnits="objectBoundingBox"><feOffset dy=".2" in="SourceAlpha" result="shadowOffsetOuter1"/><feColorMatrix in="shadowOffsetOuter1" values="0 0 0 0 0.909810799 0 0 0 0 0.534690859 0 0 0 0 0.257679211 0 0 0 0.2 0"/></filter><path id="an" d="M.871.934C1.12.186 1.46.005 2.101.005s1.015.118 1.295.9c.367 1.025.322 2.358 0 2.714-.323.355-2.198.325-2.49 0C.612 3.293.52 1.993.87.934z"/><filter id="ao" width="106.6%" height="110.3%" x="-3.3%" y="-2.6%" filterUnits="objectBoundingBox"><feOffset dy=".2" in="SourceAlpha" result="shadowOffsetOuter1"/><feColorMatrix in="shadowOffsetOuter1" values="0 0 0 0 0.909810799 0 0 0 0 0.534690859 0 0 0 0 0.257679211 0 0 0 0.2 0"/></filter><path id="aq" d="M1.035 1.167c.293-.935.697-1.16 1.46-1.16S3.7.153 4.032 1.13c.437 1.282.384 2.948 0 3.392-.383.444-2.609.407-2.957 0-.348-.407-.456-2.032-.04-3.356z"/><filter id="ar" width="105.6%" height="108.3%" x="-2.8%" y="-2.1%" filterUnits="objectBoundingBox"><feOffset dy=".2" in="SourceAlpha" result="shadowOffsetOuter1"/><feColorMatrix in="shadowOffsetOuter1" values="0 0 0 0 0.909810799 0 0 0 0 0.534690859 0 0 0 0 0.257679211 0 0 0 0.2 0"/></filter><path id="at" d="M.958 1.167C1.23.232 1.604.007 2.311.007S3.427.153 3.735 1.13c.404 1.282.355 2.948 0 3.392-.355.444-2.417.407-2.739 0C.674 4.116.573 2.491.958 1.167z"/><filter id="au" width="106%" height="108.3%" x="-3%" y="-2.1%" filterUnits="objectBoundingBox"><feOffset dy=".2" in="SourceAlpha" result="shadowOffsetOuter1"/><feColorMatrix in="shadowOffsetOuter1" values="0 0 0 0 0.909810799 0 0 0 0 0.534690859 0 0 0 0 0.257679211 0 0 0 0.2 0"/></filter><path id="aw" d="M.87.312c.471 0 .66.1.866 1.077.269 1.28.236 2.946 0 3.39-.127.237-.258.402-.683.382C.682 5.144.4.311.87.311z"/><filter id="ax" width="115.4%" height="108.2%" x="-7.7%" y="-2.1%" filterUnits="objectBoundingBox"><feOffset dy=".2" in="SourceAlpha" result="shadowOffsetOuter1"/><feColorMatrix in="shadowOffsetOuter1" values="0 0 0 0 0.909810799 0 0 0 0 0.534690859 0 0 0 0 0.257679211 0 0 0 0.2 0"/></filter></defs><g fill="none" fill-rule="evenodd"><ellipse cx="275" cy="198.5" fill="#FFF" filter="url(#a)" opacity=".75" rx="195" ry="217.5"/><g transform="translate(123 -14)"><mask id="c" fill="#fff"><use xlink:href="#b"/></mask><g mask="url(#c)"><g transform="translate(53.263 34.438)"><mask id="e" fill="#fff"><use xlink:href="#d"/></mask><use fill="#312A24" xlink:href="#d"/><path fill="#4F4339" d="M32.146 215.257c6.728 12.32-7.115 60.072-33.03 12.32 18.42 10.644 22.257 8.217 33.03-12.32zm171.621 15.535c-2.816 16.52-34.033 23.455-29.063-16.71 16.966 27.139 21.45 21.204 29.063 16.71z" mask="url(#e)"/></g><path fill="#CC4C80" d="M115.767 257.675c17.38-6.829 61.306-8.606 77.535.117 0 6.549 0 2.733.28 8.486.282 5.754-77.815 3.588-77.815 1.01 0-3.696-.568-6.288 0-9.613z"/><g fill="#FFD6B8"><path d="M154.701 348.142c60.192 0 85.317-42.31 85.317-42.31s1.132 0-1.1-18.093c0-16.238-37.705-29.401-84.217-29.401s-83.328 13.196-85.326 29.401c-2.231 18.093-1.123 18.093-1.123 18.093s26.257 42.31 86.449 42.31z"/><path d="M213.808 419.228c7.896 1.392 10.251-4.756 19.672-58.187 9.422-53.43 9.772-78.285 1.876-79.678-7.896-1.392-27.424 29.593-28.874 82.955-1.45 53.362-.57 53.518 7.326 54.91zM97.285 422.197c-8.317 1.467-14.623-1.39-24.044-54.82-9.421-53.431-8.091-78.184.226-79.65 8.318-1.467 30.986 25.971 32.024 79.406 1.038 53.434.111 53.598-8.206 55.064z"/></g><g transform="translate(77.032 36.7)"><g transform="translate(57.637 176.647)"><mask id="g" fill="#fff"><use xlink:href="#f"/></mask><use fill="#FFD6B8" xlink:href="#f"/><path fill="#E88842" fill-opacity=".25" d="M46.521 6.228c4.33-18.449-6.125-33.404-23.353-33.404-17.229 0-27.684 14.955-23.353 33.404C4.145 24.677 14.6 39.632 23.168 39.632c8.567 0 19.022-14.955 23.353-33.404z" mask="url(#g)"/></g><use fill="#FFD2B1" xlink:href="#h"/><use fill="#000" filter="url(#i)" xlink:href="#h"/><g fill="#E4ACAC"><path d="M79.121 9.654c-2.05-2.2-5.251-4.251-8.726-1.625-3.476 2.626.043 3.89-4.406 7.252-4.45 3.362-12.326 6.492-8.434 10.67 3.893 4.177 11.876 3.916 17.831-.584 5.956-4.5 7.628-11.535 3.735-15.713z" filter="url(#j)" transform="translate(40.685 134.75)"/><path d="M5.835 24.234C-.12 19.734-1.792 12.7 2.101 8.522c2.05-2.2 5.25-4.252 8.726-1.626 3.475 2.626-.043 3.89 4.406 7.253 4.45 3.362 12.326 6.492 8.434 10.67-3.893 4.177-11.876 3.916-17.832-.585" filter="url(#k)" transform="translate(40.685 134.75)"/></g><g transform="translate(0 105.309)"><use fill="#FFD6B8" xlink:href="#l"/><use fill="#000" filter="url(#m)" xlink:href="#l"/><g transform="matrix(-1 0 0 1 25.225 0)"><use fill="#FFD6B8" xlink:href="#n"/><use fill="#000" filter="url(#o)" xlink:href="#n"/></g></g><path d="M115.341 127.994c-.646-.328-1.57-1.018-2.882-2.25-5.858-5.505-16.225-1.588-17.015.255-.223.522-2.907 2.105-1.483-1.111 1.263-2.852 9.15-8.15 18.854-1.886 1.92-.536 3.379-2.049 4.888-4.267 0 2.861-1.631 4.675-2.86 5.321 1.624-.135 3.423-.735 5.228-1.988-.817 2.145-2.375 3.28-3.67 3.726 1.7.659 3.798.914 6.28.122-2.224 2.87-6.359 2.859-7.22 2.18a1.902 1.902 0 0 1-.12-.102zM47.646 127.994c.646-.328 1.57-1.018 2.882-2.25 5.858-5.505 16.225-1.588 17.015.255.223.522 2.907 2.105 1.483-1.111-1.263-2.852-9.15-8.15-18.854-1.886-1.92-.536-3.379-2.049-4.888-4.267 0 2.861 1.631 4.675 2.86 5.321-1.624-.135-3.423-.735-5.228-1.988.817 2.145 2.375 3.28 3.67 3.726-1.7.659-3.798.914-6.28.122 2.224 2.87 6.359 2.859 7.22 2.18.041-.032.081-.066.12-.102z" fill="#444"/><path fill="#9B8877" d="M96.693 110.679s-3.64-1.049 0-2.175c6.549-2.026 20.965-4.61 26.577-2.704 4.63 1.572 7.253 4.293 9.778 7.28-3.277-2.058-6.472-5.446-10.367-5.785-12.264-1.068-25.988 3.384-25.988 3.384zm-29.778 0s3.64-1.049 0-2.175c-6.549-2.026-20.965-4.61-26.576-2.704-4.631 1.572-7.253 4.293-9.779 7.28 3.277-2.058 6.472-5.446 10.367-5.785 12.264-1.068 25.988 3.384 25.988 3.384z"/></g><g transform="translate(141.547 192.751)"><mask id="r" fill="#fff"><use xlink:href="#p"/></mask><use fill="#000" filter="url(#q)" xlink:href="#p"/><use fill="#EC6050" xlink:href="#p"/><path fill="#F78375" d="M16.978 27.14c8.126 0 14.714-3.291 14.714-7.35 0-3.373-2.243-7.08-8.48-7.08-5.134 0-6.234.86-6.234.86s-1.061-.916-5.811-.916c-5.811 0-8.903 3.687-8.903 7.135 0 4.06 6.587 7.35 14.714 7.35z" mask="url(#r)"/><path fill="#FFF" d="M16.978 5.686C37.048 5.686 34.214 0 34.214 0H.248s-3.34 5.686 16.73 5.686z" mask="url(#r)"/></g><use fill="#4A4A4A" xlink:href="#s" transform="translate(81.559 453.981)"/><g transform="translate(82.754 251.293)"><path fill="#E88842" fill-opacity=".2" d="M32.208 8.984S43.722 79.437 74.12 79.437s36.314-70.554 36.314-70.554l8.293.58v90.8H27.865V10.381l4.343-1.398z"/><g transform="translate(3.459 132.746)"><mask id="u" fill="#fff"><use xlink:href="#t"/></mask><use fill="#FA5296" xlink:href="#t"/><path fill="#E84B8B" d="M137.097 121.185C122.786 82.92 118.19 0 118.19 0H17.465s2.547 11.92 4.587 23.871c16.16-11.952 46.5-10.211 64.245 2.901 17.744 13.113 3.495 102.512 0 111.082 11.613-2.348 43.813-10.521 50.8-16.669z" mask="url(#u)"/><path fill="#CF3C78" d="M117.703 63.325H16.978l-5.363 21.077s56.674 10.96 113.348 0c-3.614-9.369-7.26-21.077-7.26-21.077z" mask="url(#u)"/></g><mask id="w" fill="#fff"><use xlink:href="#v"/></mask><use fill="#FA5296" xlink:href="#v"/><path fill="#CF3C78" d="M-2.91 98.925s.04 31.77 33.8 33.834c10.81.66 23.615-.286 34.168-5.208 10.553-4.922 8.679-5.116 19.971 0s27.379 7.027 30.376 6.635c21.463-2.807 32.08-14.09 32.08-35.26 14.125 21.17 2.771 50.17-75.278 50.17-98.282 0-75.116-50.17-75.116-50.17z" mask="url(#w)"/></g><g transform="translate(100.816 225.545)"><g transform="translate(4.292 47.104)"><mask id="z" fill="#fff"><use xlink:href="#x"/></mask><use fill="#000" filter="url(#y)" xlink:href="#x"/><use fill="#00BCDA" xlink:href="#x"/><path fill="#00A5C4" d="M36.776 7.137H85.1s-8.465 87.841 3.594 124.772c-18.1 1.72-55.977-8.114-57.342-20.354C26.896 71.586 36.776 7.137 36.776 7.137z" mask="url(#z)"/></g><g transform="matrix(-1 0 0 1 107.268 26.909)"><use fill="#000" filter="url(#A)" xlink:href="#B"/><use fill="#00BCDA" xlink:href="#B"/></g><path fill="#00A5C4" d="M104 26.96L91.217 38.54s2.321 84.846-.985 120.518c4.962 1.662 15.346-7.837 15.72-19.66C107.174 100.792 104 26.96 104 26.96z"/><use fill="#000" filter="url(#C)" xlink:href="#D"/><use fill="#00A5C4" xlink:href="#D"/><use fill="#000" filter="url(#E)" xlink:href="#D"/><path fill="#000" fill-opacity=".2" d="M28.453 10.31c4.765 9.197 10.168 22.325 22.065 27.392C60.664 42.023 78.274 21.151 79.87 6.044c12.879 5.522 23.05 25.458 23.05 35.729 0 10.27-35.212 42.2-58.027 45.053C22.079 89.677.454 49.355.454 43.079c0-6.275 14.593-27.38 28-32.769z"/><g><mask id="G" fill="#fff"><use xlink:href="#F"/></mask><use fill="#00BCDA" xlink:href="#F"/><path fill="#0086A5" d="M28.323.102s8.498 70.901 40.344 22.961C100.512-24.877 28.323.102 28.323.102z" mask="url(#G)"/><path fill="#00A5C4" d="M29.087 6.634S26.13 52.66 48.807 52.66c22.679 0 29.444-21.87 29.444-44.321 0-22.452.411-10.655.411-10.655l29.067 16.62-21.963 71.557-50.215 10.653s-57.335-33.75-57.335-35.267c0-1.518 4.891-52.886 7.016-53.75C-12.643 6.634 27.89-.687 27.89-.687l1.197 7.32z" mask="url(#G)"/></g></g><path fill="#000" fill-opacity=".2" d="M134.674 259.734s11.3 74.765-44.893 61.957c-5.756-1.312-21.989-7.835-21.989-24.922 27.004 0 66.882-37.035 66.882-37.035zM177.014 271.569c-5.418 25.973 5.981 51.578 38.284 51.578 2.6 0 21.291-2.194 25.308-19.716-13.172 7.71-63.592-13.206-63.592-31.862z"/><path fill="#E88842" fill-opacity=".2" d="M186.3 100.439s-21.995 68.889-69.908 78.755c-2.281.47 7.815 11.347 9.18 34.785-3.936.506-.796 0-4.732 0s-19.616-38.59-22.214-39.285v-5.366c57.578-2.845 87.675-78.985 87.675-78.985s18.715 17.858 26.176 44.928c7.46 27.07 1.366 38.685 1.366 39.423-3.822-35.564-27.542-74.255-27.542-74.255z"/><path fill="#443A31" d="M226.69 257.157c2.442-7.054 5.958-10.042 14.323-36.332s11.456-35.876 11.456-69.348c0-58.394-42.686-117.039-93.944-117.039-51.259 0-93.944 52.764-93.944 117.039 0 19.86 1.132 47.407 14.556 79.808 13.425 32.4 2.876 51.767-4.683 55.038-5.833 2.524-14.326-1.53-14.326-1.53s7.147 15.67 17.84 21.883c28.717 16.685 45.088 0 49.871-8.475 12.537-22.213 8.547-74.756-20.449-126.865 51.191-7.476 78.874-77.417 78.874-77.417s28.038 40.064 27.205 81.432c-.438 21.756-21.478 57.162-29.147 71.764-7.669 14.602-13.77 39.406-2.179 53.348 11.592 13.942 34.98 20.54 54.726 6.213 13.2-9.578 15.6-19.945 15.6-19.945s-3.483 4.572-11.456 2.945c-7.973-1.627-19.72-16.922-14.323-32.519z"/><path fill="#55493E" d="M217.58 70.514c-9.571-15.16-17.607-23.157-17.607-23.157S277.407 84.76 248.66 195.24c1.051-17.076.102-32.84-2.153-47.204.484 26.705-7.706 57.558-36.822 89.592 52.442-58.859 18.03-145.109 7.894-167.113zM76.921 224.412s-9.468-41.742-1.934-85.59c8.838-51.44 39.22-105.828 108.087-99.894C120.543 17.941 71.498 74.293 66.354 129.65c-5.145 55.356 10.568 94.762 10.568 94.762z"/><path fill="#3A3129" d="M186.224 94.325v.033l-.077.131c-3.688 7.82-49.367 101.629-104.26 70.39 12.35.279 23.762-2.075 34.15-6.078-7.684 1.361-15.498.451-23.16-3.746 58.536 1.27 93.347-63.762 93.347-63.762v2.977l.163-.296-.163.351zm-9.367 14.316c3.74-5.266 6.5-9.59 8.02-12.053-1.537 2.566-4.234 6.847-8.02 12.053z"/><path fill="#3A3129" d="M186.495 91.136s42.473 39.922 26.123 92.73c5.94-37.173-19.4-78.658-26.123-89.637-1.095-1.787 0-3.093 0-3.093zm-63.913 192.526c-8.874 12.206-21.883 15.407-37.065 4.44 35.617 8.106 41.408-25.304 41.034-50.03-2.258-23.532-8.483-44.436-8.483-44.436s15.814 31.55 18.765 61.77c1.168 11.962 1.16 37.697-8.598 49.35-15.995 19.101-47.019 18.649-59.276-6.895 19.833 6.888 36.395 5.806 44.972-1.632 3.777-3.275 6.597-7.579 8.65-12.567zm69.626-37.787c.275-.53.432-.817.432-.817s-9.444 38.327 3.13 46c12.573 7.673 23.404.01 23.404.01s-5.069 9.232-15.62 9.45c8.554 5.742 16.906 7.177 28.874 9.054-38.068 17.968-70.973-13.876-56.218-47.063 3.172-7.135 2.323-8.245 10.088-23.057 9.59-18.294 21.311-38.844 21.311-38.844s-9.673 22.284-15.401 45.267z"/><path fill="#55493E" d="M85.476 184.32s-4.361-20.984 2.264-55.064 28.733-84.634 86.141-90.894c-68.11-4.78-86.766 50.855-90.77 86.97-3.923 35.386 2.365 58.988 2.365 58.988z"/><path fill="#4F4339" d="M118.79 195s23.356 81.971-26.697 70.187c12.284 13.965 26.284 5.545 31.022-2.467 12.666-21.421-4.324-67.72-4.324-67.72zM202.575 213.44S171 296.654 223.472 280c-12.904 11.862-29.562 7.998-34.3-.014-12.665-21.422 13.403-66.546 13.403-66.546z"/><path fill="#55493E" d="M89.75 147.432s46.578 15.732 92.214-48.556c-32.02 74.437-92.215 48.556-92.215 48.556z"/><path fill="#6A5B4E" d="M80.467 135.1s-5.18-86.01 74.18-97.331c-68.966 17.87-74.18 97.332-74.18 97.332z"/><path fill="#6A5B4E" d="M110.614 134.364S96.057 55.31 173.675 37.523c-66.574 22.884-63.06 96.841-63.06 96.841zM221.55 191.121s40.875-86.126-20.427-137.782c49.018 51.703 20.427 137.782 20.427 137.782z"/><g transform="translate(43.076 332.971)"><mask id="K" fill="#fff"><use xlink:href="#H"/></mask><use fill="#000" filter="url(#I)" xlink:href="#H"/><use fill="#D8D8D8" xlink:href="#H"/><use fill="#000" filter="url(#J)" xlink:href="#H"/><path fill="#000" fill-opacity=".15" d="M226.202-11.074v151.069L6.318 131.638s136.796-4.4 172.713-27.378c20.752-13.276 38.682-72.862 38.682-115.334 0-42.472 8.489 0 8.489 0z" mask="url(#K)"/><path fill="#FFF" fill-opacity=".3" d="M94.554-8.273h72.641s-41.993 41.14-61.19 68.188c-25.18 35.478-71.939 119.389-71.939 119.389l-38.346-68.25S39.565 72.02 58.321 49.375c14.188-17.13 36.233-57.65 36.233-57.65z" mask="url(#K)"/><g fill="#FFF" mask="url(#K)"><path d="M120.33 57.657c-2.465.445-4.314 2.312-4.314 4.548 0 2.517 2.343 4.567 5.27 4.646-2.017 5.59-4.988 8.205-8.4 8.205-1.476 0-.744-.914-2.85-.914-2.107 0-.769.914-3.03.914-1.418 0-4.5.336-8.504-9.277-3.291-7.901 4.874-11.047 6.67-10.493 2.564.79 2.806 1.265 4.863 1.265 2.057 0 1.349-.676 4.424-1.265 1.378-.264 4.056.438 5.87 2.37z"/><path d="M109.57 55.864s2.283-.493 3.544-2.23c1.262-1.737 1.026-4.06 1.026-4.06s-2.282.494-3.544 2.23c-1.262 1.737-1.026 4.06-1.026 4.06z"/></g></g><g transform="scale(-1 1) rotate(-6 4040.64 2559.819)"><g transform="translate(.871 20.096)"><mask id="M" fill="#fff"><use xlink:href="#L"/></mask><use fill="#FFD6B8" xlink:href="#L"/><path fill="#E88842" fill-opacity=".2" d="M-.072 3.247s5.38 7.41 8.26 2.398a96.833 96.833 0 0 0 1.128 7.052H.26l-.333-9.45z" mask="url(#M)"/></g><mask id="P" fill="#fff"><use xlink:href="#N"/></mask><g transform="rotate(-12 19.146 21.276)"><use fill="#000" filter="url(#O)" xlink:href="#N"/><use fill="#FFD6B8" xlink:href="#N"/></g><path fill="#E88842" fill-opacity=".2" d="M11.789 15.694S9.256 2.577 13.067 3.545c1.297.33-.75 21.827.913 25.262 1.663 3.435 4.94-.323 5.763-.323.158 0 .116-3.578-.51-7.437-.913-5.62-.924-12.878 1.515-14.406-.032 6.681-1.011 9.616-.328 15.41.683 5.792.64 6.57 2.67 6.784 2.963.311 3.166-2.106 3.166-2.106s-2.802-14.463.147-11.389c-.37 3.523.918 13.94 4.17 12.782 3.253-1.157 1.79-4.074 1.79-4.074l6.695 13.82-27.722 4.028s-4.493-4.384-5.066-9.303c-1.02-8.748 1.735-20.22 2.755-19.077-.973 3.729-2.07 12.926-.519 16.854.447 1.132.942 1.328 1.62 1.127 2.378-.707 2.744-3.126 2.697-3.74-.237-3.092-1.034-12.063-1.034-12.063z" mask="url(#P)"/><g transform="translate(18.537 6.578)"><mask id="S" fill="#fff"><use xlink:href="#Q"/></mask><use fill="#000" filter="url(#R)" xlink:href="#Q"/><use fill="#FFF" xlink:href="#Q"/><ellipse cx="2.682" cy="3.508" fill="#FFE1E1" mask="url(#S)" rx="2.594" ry="2.259"/></g><g transform="rotate(-13 83.674 -99.186)"><mask id="V" fill="#fff"><use xlink:href="#T"/></mask><use fill="#000" filter="url(#U)" xlink:href="#T"/><use fill="#FFF" xlink:href="#T"/><ellipse cx="2.146" cy="2.806" fill="#FFE1E1" mask="url(#V)" rx="2.075" ry="1.807"/></g><g transform="translate(11.865 3.45)"><mask id="Y" fill="#fff"><use xlink:href="#W"/></mask><use fill="#000" filter="url(#X)" xlink:href="#W"/><use fill="#FFF" xlink:href="#W"/><ellipse cx="2.548" cy="3.508" fill="#FFE1E1" mask="url(#Y)" rx="2.464" ry="2.259"/></g><g transform="rotate(-6 137.627 -56.448)"><mask id="ab" fill="#fff"><use xlink:href="#Z"/></mask><use fill="#000" filter="url(#aa)" xlink:href="#Z"/><use fill="#FFF" xlink:href="#Z"/><ellipse cx="2.361" cy="3.508" fill="#FFE1E1" mask="url(#ab)" rx="2.283" ry="2.259"/></g><g transform="rotate(-6 203.146 9.771)"><mask id="ae" fill="#fff"><use xlink:href="#ac"/></mask><g transform="rotate(-9 1.274 2.737)"><use fill="#000" filter="url(#ad)" xlink:href="#ac"/><use fill="#FFF" xlink:href="#ac"/></g><ellipse cx="1.346" cy="3.766" fill="#FFE1E1" mask="url(#ae)" rx="2.049" ry="2.259"/></g></g><g transform="rotate(-6 4190.557 -300.783)"><g transform="translate(.871 20.096)"><mask id="ag" fill="#fff"><use xlink:href="#af"/></mask><use fill="#FFD6B8" xlink:href="#af"/><path fill="#E88842" fill-opacity=".2" d="M-.072 3.247s5.38 7.41 8.26 2.398a96.833 96.833 0 0 0 1.128 7.052H.26l-.333-9.45z" mask="url(#ag)"/></g><mask id="aj" fill="#fff"><use xlink:href="#ah"/></mask><g transform="rotate(-12 19.146 21.276)"><use fill="#000" filter="url(#ai)" xlink:href="#ah"/><use fill="#FFD6B8" xlink:href="#ah"/></g><path fill="#E88842" fill-opacity=".2" d="M11.789 15.694S9.256 2.577 13.067 3.545c1.297.33-.75 21.827.913 25.262 1.663 3.435 4.94-.323 5.763-.323.158 0 .116-3.578-.51-7.437-.913-5.62-.924-12.878 1.515-14.406-.032 6.681-1.011 9.616-.328 15.41.683 5.792.64 6.57 2.67 6.784 2.963.311 3.166-2.106 3.166-2.106s-2.802-14.463.147-11.389c-.37 3.523.918 13.94 4.17 12.782 3.253-1.157 1.79-4.074 1.79-4.074l6.695 13.82-27.722 4.028s-4.493-4.384-5.066-9.303c-1.02-8.748 1.735-20.22 2.755-19.077-.973 3.729-2.07 12.926-.519 16.854.447 1.132.942 1.328 1.62 1.127 2.378-.707 2.744-3.126 2.697-3.74-.237-3.092-1.034-12.063-1.034-12.063z" mask="url(#aj)"/><g transform="translate(18.537 6.578)"><mask id="am" fill="#fff"><use xlink:href="#ak"/></mask><use fill="#000" filter="url(#al)" xlink:href="#ak"/><use fill="#FFF" xlink:href="#ak"/><ellipse cx="2.682" cy="3.508" fill="#FFE1E1" mask="url(#am)" rx="2.594" ry="2.259"/></g><g transform="rotate(-13 83.674 -99.186)"><mask id="ap" fill="#fff"><use xlink:href="#an"/></mask><use fill="#000" filter="url(#ao)" xlink:href="#an"/><use fill="#FFF" xlink:href="#an"/><ellipse cx="2.146" cy="2.806" fill="#FFE1E1" mask="url(#ap)" rx="2.075" ry="1.807"/></g><g transform="translate(11.865 3.45)"><mask id="as" fill="#fff"><use xlink:href="#aq"/></mask><use fill="#000" filter="url(#ar)" xlink:href="#aq"/><use fill="#FFF" xlink:href="#aq"/><ellipse cx="2.548" cy="3.508" fill="#FFE1E1" mask="url(#as)" rx="2.464" ry="2.259"/></g><g transform="rotate(-6 137.627 -56.448)"><mask id="av" fill="#fff"><use xlink:href="#at"/></mask><use fill="#000" filter="url(#au)" xlink:href="#at"/><use fill="#FFF" xlink:href="#at"/><ellipse cx="2.361" cy="3.508" fill="#FFE1E1" mask="url(#av)" rx="2.283" ry="2.259"/></g><g transform="rotate(-6 203.146 9.771)"><mask id="ay" fill="#fff"><use xlink:href="#aw"/></mask><g transform="rotate(-9 1.274 2.737)"><use fill="#000" filter="url(#ax)" xlink:href="#aw"/><use fill="#FFF" xlink:href="#aw"/></g><ellipse cx="1.346" cy="3.766" fill="#FFE1E1" mask="url(#ay)" rx="2.049" ry="2.259"/></g></g></g></g></g></svg>